<svg xmlns="http://www.w3.org/2000/svg" xmlns:xlink="http://www.w3.org/1999/xlink" width="170.941" height="30" viewBox="0 0 170.941 30">
  <defs>
    <clipPath id="clip-path">
      <rect id="矩形_964" data-name="矩形 964" width="170.941" height="30" fill="#fff"/>
    </clipPath>
  </defs>
  <g id="组_2593" data-name="组 2593" transform="translate(0 0)">
    <g id="组_2592" data-name="组 2592" transform="translate(0 0)" clip-path="url(#clip-path)">
      <path id="路径_2394" data-name="路径 2394" d="M15.589,0c.477.069.952.137,1.429.209A14.316,14.316,0,0,1,24.67,3.842a14.693,14.693,0,0,1,4.806,9.087,11.875,11.875,0,0,1-.008,3.991,4.839,4.839,0,0,1-5.1,4,4.246,4.246,0,0,1-3.605-3.256,9.792,9.792,0,0,1-.229-2.672c0-.621,0-1.244,0-1.988-.487.783-.913,1.466-1.338,2.152-.875,1.41-1.728,2.836-2.639,4.224a4.705,4.705,0,0,1-1.147,1.2,1.873,1.873,0,0,1-3.015-1.011,5.619,5.619,0,0,1-.262-1.561c-.034-1.462-.011-2.925-.011-4.387v-.373l-.074-.025-6.22,9.942a10.034,10.034,0,0,0,2.236,2,11.607,11.607,0,0,0,6.731,2.09,11.71,11.71,0,0,0,8.166-3.2,1.44,1.44,0,0,1,1.992-.008,1.385,1.385,0,0,1-.1,1.986A14.721,14.721,0,0,1,9.135,28.855a14.531,14.531,0,0,1-6.192-4.876,14.674,14.674,0,0,1-2.9-7.839A14.672,14.672,0,0,1,3.876,4.917a14.376,14.376,0,0,1,9.3-4.788c.233-.028.462-.086.693-.129ZM4.117,20.744c.227-.369.415-.676.606-.982,1.819-2.912,3.63-5.83,5.465-8.734a16.773,16.773,0,0,1,1.6-2.239,1.652,1.652,0,0,1,2.684.445,4.231,4.231,0,0,1,.359,1.933c.007,1.9,0,3.8,0,5.761a1.748,1.748,0,0,0,.177-.2c.759-1.222,1.507-2.449,2.273-3.667A13.739,13.739,0,0,1,19.343,10.2a2.071,2.071,0,0,1,3.459.45,4.164,4.164,0,0,1,.4,1.636c.059,1.146.007,2.3.024,3.445a5.348,5.348,0,0,0,.137,1.157,1.536,1.536,0,0,0,2.629.859,2.134,2.134,0,0,0,.8-1.389,12.281,12.281,0,0,0,.069-2.4,11.906,11.906,0,0,0-3.717-7.788,11.843,11.843,0,0,0-8.177-3.393,11.335,11.335,0,0,0-4.782.93A12.274,12.274,0,0,0,2.81,16.638a12.257,12.257,0,0,0,1.307,4.106" transform="translate(0 0)" fill="#fff"/>
      <path id="路径_2395" data-name="路径 2395" d="M124.605,13.547c-.15.435-.286.875-.453,1.3A4.243,4.243,0,0,1,117.87,17a1.369,1.369,0,0,0-.195-.063c0,1.058.036,2.093-.02,3.123a2.087,2.087,0,0,1-.426,1.1,1.109,1.109,0,0,1-1.34.29,1.224,1.224,0,0,1-.839-1.1c-.014-.142-.008-.285-.008-.428q0-5.284,0-10.567c0-.685.332-1.166.851-1.234.607-.08,1.027.272,1.208,1.041a4.414,4.414,0,0,1,7.247,2.08c.076.293.17.582.257.874Zm-2.578-.62-.08-.046a7.826,7.826,0,0,0-.111-.791,2.034,2.034,0,0,0-3.32-1.156,2.588,2.588,0,0,0-.084,3.745,1.889,1.889,0,0,0,2.987-.3,9.229,9.229,0,0,0,.609-1.456" transform="translate(46.337 3.223)" fill="#fff"/>
      <path id="路径_2396" data-name="路径 2396" d="M65.482,11.41c-.805.866-1.533,1.647-2.263,2.428-.281.3-.556.607-.849.895a.771.771,0,0,1-1.265-.05q-1.208-1.3-2.413-2.609c-.17-.185-.318-.389-.478-.584l-.137.077v.874c0,1.554,0,3.11,0,4.666A1.348,1.348,0,0,1,57,18.569a1.261,1.261,0,0,1-1.553-1.209c-.015-.985,0-1.968,0-2.951q0-4.215,0-8.427c0-.269-.052-.621.283-.661a.99.99,0,0,1,.735.274c1.055,1.132,2.076,2.3,3.107,3.452.579.648,1.15,1.3,1.739,1.941.4.431.522.436.917,0,1.375-1.522,2.737-3.055,4.1-4.583a9.1,9.1,0,0,1,.87-.929.744.744,0,0,1,.63-.14.708.708,0,0,1,.3.553q.027,5.618.008,11.235a1.358,1.358,0,0,1-.773,1.351,1.328,1.328,0,0,1-1.884-1.263c0-1.888,0-3.776,0-5.8" transform="translate(22.33 2.14)" fill="#fff"/>
      <path id="路径_2397" data-name="路径 2397" d="M97.665,11.976a6.756,6.756,0,0,1,7.33-6.8,6.569,6.569,0,0,1,3.132,1.079,1.323,1.323,0,0,1,.69,1.4,1.078,1.078,0,0,1-.915.958,1.727,1.727,0,0,1-1.009-.2,4.549,4.549,0,0,0-3.252-.687,4.026,4.026,0,0,0-3.267,3.493,4.421,4.421,0,0,0,1.494,4.319,4.183,4.183,0,0,0,5.437-.226,1.209,1.209,0,0,1,1.522-.171A1.139,1.139,0,0,1,109,16.931a6.478,6.478,0,0,1-5.845,1.738,6.718,6.718,0,0,1-5.491-6.693" transform="translate(39.338 2.078)" fill="#fff"/>
      <path id="路径_2398" data-name="路径 2398" d="M27.241,12a6.92,6.92,0,0,1,7.446-6.819,6.649,6.649,0,0,1,3.254,1.166,1.3,1.3,0,0,1,.39,1.755,1.16,1.16,0,0,1-1.76.313A4.242,4.242,0,0,0,31.8,8.353,4.117,4.117,0,0,0,30.08,11.13a4.415,4.415,0,0,0,1.463,4.392,4.048,4.048,0,0,0,4.577.372c.369-.206.692-.494,1.049-.724a1.172,1.172,0,0,1,1.3-.073,1.047,1.047,0,0,1,.537,1.169,1.435,1.435,0,0,1-.405.766A6.675,6.675,0,0,1,27.733,14.2c-.23-.711-.331-1.466-.492-2.2" transform="translate(10.972 2.077)" fill="#fff"/>
      <path id="路径_2399" data-name="路径 2399" d="M113.9,9.408c.237-1.108.981-1.582,1.718-1.119a1.156,1.156,0,0,1,.49,1.063q.021,3.474,0,6.947a1.544,1.544,0,0,1-.178.715.924.924,0,0,1-.983.513.965.965,0,0,1-.875-.807c-.024-.123-.041-.248-.062-.379a4.205,4.205,0,0,1-4.326,1.126A4,4,0,0,1,107,14.98a5.085,5.085,0,0,1,.5-5.213,4.107,4.107,0,0,1,6.29-.575c.056.049.072.143.105.216m-.474,3.413c0-.08,0-.159,0-.238a2.311,2.311,0,0,0-1.382-1.989,1.938,1.938,0,0,0-2.184.449,2.732,2.732,0,0,0,.015,3.581,1.9,1.9,0,0,0,2.646.2,2.437,2.437,0,0,0,.9-2" transform="translate(42.903 3.22)" fill="#fff"/>
      <path id="路径_2400" data-name="路径 2400" d="M72.986,9.351a4.974,4.974,0,0,1,.386-.882.836.836,0,0,1,1.013-.3.97.97,0,0,1,.738.828,2.631,2.631,0,0,1,.028.379c0,2.3.007,4.6-.008,6.9a1.635,1.635,0,0,1-.2.8.911.911,0,0,1-1.024.435.959.959,0,0,1-.8-.878c-.01-.091-.029-.182-.056-.345a3.712,3.712,0,0,1-2.879,1.335,4.028,4.028,0,0,1-4.064-2.517,5.158,5.158,0,0,1,1.324-6.256,4.07,4.07,0,0,1,5.353.317c.066.065.135.126.192.18m-4.729,3.577c0,.027.007.185.029.342A2.043,2.043,0,0,0,71.6,14.806a2.627,2.627,0,0,0,.69-3,2.059,2.059,0,0,0-2.7-1.213,2.327,2.327,0,0,0-1.33,2.337" transform="translate(26.418 3.223)" fill="#fff"/>
      <path id="路径_2401" data-name="路径 2401" d="M81.78,13.235c1.07-1.19,2.059-2.292,3.052-3.391a1.366,1.366,0,0,1,1.355-.6,1.308,1.308,0,0,1,.979,1,1.141,1.141,0,0,1-.334,1.118c-.722.774-1.432,1.56-2.179,2.378.7.835,1.386,1.669,2.087,2.493a1.442,1.442,0,0,1,.373,1.676,1.236,1.236,0,0,1-2.128.206c-.815-.9-1.594-1.835-2.39-2.754-.244-.282-.492-.56-.816-.927,0,.96-.039,1.81.01,2.655a1.4,1.4,0,0,1-1.362,1.546,1.38,1.38,0,0,1-1.306-1.551c-.006-2.222,0-4.445,0-6.667,0-1.223-.007-2.445,0-3.667a1.353,1.353,0,0,1,1.432-1.466,1.3,1.3,0,0,1,1.225,1.364q.006,3.072,0,6.144v.446" transform="translate(31.867 2.126)" fill="#fff"/>
      <path id="路径_2402" data-name="路径 2402" d="M87.9,13.644a1.5,1.5,0,0,0,.856,1.455,3.358,3.358,0,0,0,3.058-.058,1.2,1.2,0,0,1,1.6.415A1.13,1.13,0,0,1,92.829,17a5.682,5.682,0,0,1-4.086.5c-2.549-.511-3.6-2.463-3.531-4.816A5.435,5.435,0,0,1,86,9.854,4.081,4.081,0,0,1,89.9,8.006a4.259,4.259,0,0,1,4.322,4.423,1.068,1.068,0,0,1-1.177,1.213c-1.556,0-3.111,0-4.667,0Zm3.7-1.667c.062-.975-.743-1.672-1.884-1.64-.894.025-1.884.588-1.763,1.659h3.369c.093,0,.187-.011.278-.018" transform="translate(34.321 3.222)" fill="#fff"/>
      <path id="路径_2403" data-name="路径 2403" d="M45.714,12.812a4.805,4.805,0,0,1-4.68,4.835,4.944,4.944,0,0,1-4.838-5.06A4.862,4.862,0,0,1,41.038,8a4.72,4.72,0,0,1,4.675,4.814m-6.865-.036c0,.08,0,.159,0,.238A2.179,2.179,0,0,0,41.9,15.051,2.679,2.679,0,0,0,42.53,11.2a2.1,2.1,0,0,0-2.287-.585,2.209,2.209,0,0,0-1.394,2.165" transform="translate(14.578 3.222)" fill="#fff"/>
      <path id="路径_2404" data-name="路径 2404" d="M49.771,9.1a4.011,4.011,0,0,1,3.49-1.058A3.362,3.362,0,0,1,56.27,11.1a51.507,51.507,0,0,1,.107,5.267A1.334,1.334,0,0,1,55,17.544a1.36,1.36,0,0,1-1.257-1.354c-.018-1,0-2-.006-3,0-.348,0-.7-.008-1.046-.032-1.139-.519-1.664-1.584-1.707A1.566,1.566,0,0,0,50.4,12.026c-.074,1.375-.046,2.755-.072,4.131a1.312,1.312,0,0,1-1.948,1.206A1.265,1.265,0,0,1,47.7,16.2q-.011-3.5,0-6.994a1.036,1.036,0,0,1,.875-1.076c.539-.09.912.2,1.2.974" transform="translate(19.21 3.219)" fill="#fff"/>
      <path id="路径_2405" data-name="路径 2405" d="M93.848,9.058c0-.8-.013-1.575,0-2.351a1.33,1.33,0,1,1,2.655-.121c.01.821,0,1.641,0,2.5.375,0,.706-.015,1.035,0a1.22,1.22,0,1,1-.059,2.437c-.3.006-.6,0-.9,0-.027.053-.063.093-.063.133,0,1.237-.008,2.475.029,3.712.025.816.226.971,1.048.983a1.2,1.2,0,0,1,1.327,1.218,1.189,1.189,0,0,1-1.333,1.159,8.67,8.67,0,0,1-1.742-.139,2.589,2.589,0,0,1-1.9-2.6c-.086-1.152-.072-2.31-.1-3.465-.007-.316,0-.633,0-.995-.572-.028-1.2.107-1.56-.471a1.677,1.677,0,0,1-.274-.823c0-.756.527-1.084,1.833-1.187" transform="translate(37.062 2.127)" fill="#fff"/>
      <path id="路径_2406" data-name="路径 2406" d="M76.155,9.09A3.786,3.786,0,0,1,79.04,8.014a1.213,1.213,0,0,1,.515,2.273,1.883,1.883,0,0,1-.588.144c-.2.034-.408.028-.609.062a1.681,1.681,0,0,0-1.6,1.867c-.013,1.222,0,2.442,0,3.664a1.4,1.4,0,0,1-1.341,1.516,1.379,1.379,0,0,1-1.319-1.486q0-3.377,0-6.756a1.091,1.091,0,0,1,.927-1.181c.548-.053.958.279,1.138.972" transform="translate(29.842 3.223)" fill="#fff"/>
      <path id="路径_2407" data-name="路径 2407" d="M44.113,12.736V9.6a1.357,1.357,0,0,1,1.226-1.512A1.338,1.338,0,0,1,46.762,9.47c.034,2.219.029,4.44,0,6.659a1.33,1.33,0,1,1-2.65-.111q0-1.641,0-3.283" transform="translate(17.768 3.256)" fill="#fff"/>
      <path id="路径_2408" data-name="路径 2408" d="M47.038,6.732A1.547,1.547,0,0,1,45.486,8.3a1.577,1.577,0,0,1-1.529-1.554,1.541,1.541,0,1,1,3.081-.013" transform="translate(17.705 2.08)" fill="#fff"/>
    </g>
  </g>
</svg>
