<svg xmlns="http://www.w3.org/2000/svg" xmlns:xlink="http://www.w3.org/1999/xlink" viewBox="0 0 200 200"><defs><style>.a{opacity:0.5;fill:url(#a);}.a,.c{isolation:isolate;}.b{fill:url(#b);}.d{fill:#fff;}.e{fill:#00b7ff;}.f{fill:#ff5493;}</style><linearGradient id="a" x1="-459.69" y1="1313.42" x2="-458.69" y2="1312.42" gradientTransform="matrix(200, 0, 0, -200, 91938, 262683)" gradientUnits="userSpaceOnUse"><stop offset="0" stop-color="#cd57e8"/><stop offset="1" stop-color="#573de0"/></linearGradient><linearGradient id="b" x1="-459.45" y1="1312.83" x2="-458.45" y2="1311.83" gradientTransform="matrix(181.16, 0, 0, -181.16, 83243.07, 237841.7)" xlink:href="#a"/></defs><title></title><circle class="a" cx="100" cy="100" r="100"/><circle class="b" cx="100" cy="100" r="90.58"/><g class="c"><path class="d" d="M75.33,126.78h-1a10,10,0,0,1-1.24-2.55,8.43,8.43,0,0,1-.43-2.56,8,8,0,0,1,.53-2.9,10,10,0,0,1,1.16-2.19h1a15.43,15.43,0,0,0-1,2.73,9.81,9.81,0,0,0-.28,2.4,11,11,0,0,0,.16,1.78,11.22,11.22,0,0,0,.45,1.73A16.53,16.53,0,0,0,75.33,126.78Z"/><path class="d" d="M81.47,122.63l1.52.49A3.38,3.38,0,0,1,81.82,125a3.69,3.69,0,0,1-4.61-.44,4,4,0,0,1-1-2.9,4.31,4.31,0,0,1,1-3,3.47,3.47,0,0,1,2.64-1.07,3.24,3.24,0,0,1,2.32.84,3.16,3.16,0,0,1,.8,1.44l-1.56.37a1.65,1.65,0,0,0-.57-1,1.7,1.7,0,0,0-1.07-.35,1.79,1.79,0,0,0-1.4.62,3.06,3.06,0,0,0-.54,2,3.31,3.31,0,0,0,.53,2.11,1.73,1.73,0,0,0,1.38.62,1.55,1.55,0,0,0,1.08-.4A2.35,2.35,0,0,0,81.47,122.63Z"/><path class="d" d="M89.31,122.63l1.53.49A3.44,3.44,0,0,1,89.67,125a3.69,3.69,0,0,1-4.61-.44,4,4,0,0,1-1-2.9,4.31,4.31,0,0,1,1-3,3.47,3.47,0,0,1,2.64-1.07,3.24,3.24,0,0,1,2.32.84,3.16,3.16,0,0,1,.8,1.44l-1.56.37a1.65,1.65,0,0,0-.57-1,1.7,1.7,0,0,0-1.07-.35,1.79,1.79,0,0,0-1.4.62,3.06,3.06,0,0,0-.54,2,3.31,3.31,0,0,0,.53,2.11,1.73,1.73,0,0,0,1.38.62,1.55,1.55,0,0,0,1.08-.4A2.28,2.28,0,0,0,89.31,122.63Z"/><path class="d" d="M92.18,117.71h2.87a5.54,5.54,0,0,1,1.48.15,2.63,2.63,0,0,1,1.18.72,3.42,3.42,0,0,1,.74,1.26,5.72,5.72,0,0,1,.25,1.84,5,5,0,0,1-.24,1.65,3.38,3.38,0,0,1-.83,1.38,2.83,2.83,0,0,1-1.1.62,4.77,4.77,0,0,1-1.39.16h-3ZM93.75,119v5.15h1.17a4.45,4.45,0,0,0,1-.07,1.46,1.46,0,0,0,.63-.33,1.64,1.64,0,0,0,.41-.75,4.91,4.91,0,0,0,.16-1.42,4.55,4.55,0,0,0-.16-1.39,1.73,1.73,0,0,0-.45-.75,1.55,1.55,0,0,0-.72-.37,7.22,7.22,0,0,0-1.29-.07Z"/><path class="d" d="M99.72,121.65a5.12,5.12,0,0,1,.35-2,3.65,3.65,0,0,1,.73-1.06,2.89,2.89,0,0,1,1-.7,4.23,4.23,0,0,1,1.68-.31,3.65,3.65,0,0,1,2.75,1.07,4.77,4.77,0,0,1,0,5.91,3.62,3.62,0,0,1-2.74,1.06,3.67,3.67,0,0,1-2.76-1.05A4,4,0,0,1,99.72,121.65Zm1.62-.05a2.88,2.88,0,0,0,.61,2,2.11,2.11,0,0,0,3.09,0,3,3,0,0,0,.6-2,2.88,2.88,0,0,0-.59-2,2.16,2.16,0,0,0-3.12,0A2.91,2.91,0,0,0,101.34,121.6Z"/><path class="d" d="M112.11,122.63v-1.31h3.39v3.1a4.25,4.25,0,0,1-1.43.84,5.29,5.29,0,0,1-1.9.36,4.17,4.17,0,0,1-2.13-.51,3.26,3.26,0,0,1-1.36-1.46,4.68,4.68,0,0,1-.46-2.07,4.45,4.45,0,0,1,.51-2.16,3.42,3.42,0,0,1,1.49-1.45,4,4,0,0,1,1.86-.39,3.71,3.71,0,0,1,2.27.61,2.75,2.75,0,0,1,1.05,1.68l-1.57.29a1.62,1.62,0,0,0-.61-.91,1.9,1.9,0,0,0-1.14-.33,2.13,2.13,0,0,0-1.63.65,2.75,2.75,0,0,0-.61,1.94,3,3,0,0,0,.61,2.08,2.08,2.08,0,0,0,1.62.69,2.68,2.68,0,0,0,1-.19,3.61,3.61,0,0,0,.85-.47v-1Z"/><path class="d" d="M117,125.49v-7.78h5.76V119h-4.19v1.72h3.9v1.31h-3.9v2.12h4.34v1.31Z"/><path class="d" d="M123.77,126.78c.29-.63.5-1.11.62-1.45s.23-.72.34-1.16.17-.86.22-1.25a9.58,9.58,0,0,0,.08-1.21,10.32,10.32,0,0,0-.27-2.4,15.43,15.43,0,0,0-1-2.73h1A9.76,9.76,0,0,1,126,119a8,8,0,0,1,.44,2.6,9.07,9.07,0,0,1-.35,2.37,9.77,9.77,0,0,1-1.31,2.81Z"/></g><g class="c"><path class="d" d="M68.88,140.43v-7.26h2.73a3.47,3.47,0,0,1,1.33.22,1.75,1.75,0,0,1,.79.68,1.81,1.81,0,0,1,.28,1,1.66,1.66,0,0,1-.25.88,1.84,1.84,0,0,1-.76.66,1.91,1.91,0,0,1,1,.66,1.74,1.74,0,0,1,.35,1.1,2.17,2.17,0,0,1-.21.95,1.74,1.74,0,0,1-.53.67,2.19,2.19,0,0,1-.8.36,4.9,4.9,0,0,1-1.17.12Zm1-4.21h1.57a3.42,3.42,0,0,0,.92-.08,1,1,0,0,0,.55-.36,1.08,1.08,0,0,0,.19-.64,1.11,1.11,0,0,0-.18-.63.85.85,0,0,0-.49-.38,4.09,4.09,0,0,0-1.11-.1H69.84Zm0,3.36h1.81a3.25,3.25,0,0,0,.65,0,1.42,1.42,0,0,0,.56-.2,1,1,0,0,0,.37-.4,1.34,1.34,0,0,0,.14-.61,1.21,1.21,0,0,0-.21-.71,1.09,1.09,0,0,0-.58-.42,3.58,3.58,0,0,0-1.06-.12H69.84Z"/><path class="d" d="M75.71,140.43v-7.26H81V134H76.67v2.22h4v.86h-4v2.47h4.46v.85Z"/><path class="d" d="M82.45,140.43v-7.26h2.74a7.41,7.41,0,0,1,1.11.07,2.3,2.3,0,0,1,.89.34,1.77,1.77,0,0,1,.59.7,2.32,2.32,0,0,1,.22,1,2.25,2.25,0,0,1-.59,1.57,2.84,2.84,0,0,1-2.13.64H83.42v3Zm1-3.81h1.87a2,2,0,0,0,1.33-.34,1.24,1.24,0,0,0,.39-1,1.35,1.35,0,0,0-.23-.78,1.15,1.15,0,0,0-.61-.43,4.4,4.4,0,0,0-.9-.06H83.42Z"/><path class="d" d="M88.76,138.25v-.89H91.5v.89Z"/><path class="d" d="M96.92,139.58v.85h-4.8a1.57,1.57,0,0,1,.11-.61,3.42,3.42,0,0,1,.58-1,9.29,9.29,0,0,1,1.17-1.1,10,10,0,0,0,1.6-1.54,1.82,1.82,0,0,0,.42-1.07,1.19,1.19,0,0,0-.38-.89,1.34,1.34,0,0,0-1-.37,1.39,1.39,0,0,0-1,.39,1.44,1.44,0,0,0-.39,1.07l-.92-.1a2.25,2.25,0,0,1,.71-1.56,2.41,2.41,0,0,1,1.65-.54,2.3,2.3,0,0,1,1.65.58,1.9,1.9,0,0,1,.61,1.44,2.35,2.35,0,0,1-.17.86,3.28,3.28,0,0,1-.6.88,13.47,13.47,0,0,1-1.37,1.28c-.54.45-.88.75-1,.91a3.25,3.25,0,0,0-.38.49Z"/><path class="d" d="M97.88,136.85a6.83,6.83,0,0,1,.26-2.07,2.59,2.59,0,0,1,.79-1.21,2.05,2.05,0,0,1,1.32-.43,2.08,2.08,0,0,1,1,.24,1.9,1.9,0,0,1,.73.68,3.58,3.58,0,0,1,.45,1.08,7,7,0,0,1,.17,1.71,6.53,6.53,0,0,1-.27,2.07,2.55,2.55,0,0,1-.78,1.21,2.21,2.21,0,0,1-3-.32A4.8,4.8,0,0,1,97.88,136.85Zm.92,0a4.66,4.66,0,0,0,.41,2.38,1.24,1.24,0,0,0,1,.6,1.23,1.23,0,0,0,1-.6,7,7,0,0,0,0-4.76,1.25,1.25,0,0,0-1-.59,1.13,1.13,0,0,0-1,.52A4.57,4.57,0,0,0,98.8,136.85Z"/><path class="d" d="M105.34,140.43l2.79-7.26h1l3,7.26h-1.09l-.85-2.19h-3l-.79,2.19Zm2.1-3h2.46l-.76-2q-.35-.91-.51-1.5a8.92,8.92,0,0,1-.39,1.38Z"/><path class="d" d="M116.24,140.43v-.77a1.91,1.91,0,0,1-1.67.89,2.29,2.29,0,0,1-.87-.17,1.51,1.51,0,0,1-.6-.45,1.64,1.64,0,0,1-.27-.66,4.42,4.42,0,0,1,0-.84v-3.26h.89v2.92a4.93,4.93,0,0,0,0,.94.93.93,0,0,0,.36.55,1.05,1.05,0,0,0,.67.21,1.42,1.42,0,0,0,.75-.21,1.09,1.09,0,0,0,.5-.56,2.77,2.77,0,0,0,.15-1v-2.82H117v5.26Z"/><path class="d" d="M121.85,140.43v-.66a1.63,1.63,0,0,1-1.47.78,2.07,2.07,0,0,1-1.16-.34,2.28,2.28,0,0,1-.81-1,3.26,3.26,0,0,1-.29-1.43,3.64,3.64,0,0,1,.26-1.43,2,2,0,0,1,.79-1,2.09,2.09,0,0,1,1.17-.35,1.7,1.7,0,0,1,.85.21,1.68,1.68,0,0,1,.6.52v-2.61h.89v7.26ZM119,137.81a2.25,2.25,0,0,0,.43,1.51,1.27,1.27,0,0,0,2,0,2.21,2.21,0,0,0,.41-1.46,2.43,2.43,0,0,0-.42-1.58,1.28,1.28,0,0,0-1-.51,1.26,1.26,0,0,0-1,.49A2.36,2.36,0,0,0,119,137.81Z"/><path class="d" d="M124.08,134.2v-1h.9v1Zm0,6.23v-5.26h.9v5.26Z"/><path class="d" d="M128.28,139.64l.13.78a2.89,2.89,0,0,1-.67.08,1.57,1.57,0,0,1-.76-.15.84.84,0,0,1-.37-.4,3,3,0,0,1-.11-1.06v-3h-.66v-.7h.66v-1.3l.88-.53v1.83h.9v.7h-.9v3.07a1.52,1.52,0,0,0,.05.49.38.38,0,0,0,.15.18.68.68,0,0,0,.31.06Z"/></g><g class="c"><path class="d" d="M61.31,152.2V146h2.35a5.62,5.62,0,0,1,1,.06,1.91,1.91,0,0,1,.77.29,1.58,1.58,0,0,1,.5.6,2,2,0,0,1,.19.85,1.88,1.88,0,0,1-.51,1.34,2.41,2.41,0,0,1-1.83.55H62.14v2.53Zm.83-3.26h1.61a1.68,1.68,0,0,0,1.13-.3,1.08,1.08,0,0,0,.34-.84,1.1,1.1,0,0,0-.2-.66.92.92,0,0,0-.52-.37,3.29,3.29,0,0,0-.77-.06H62.14Z"/><path class="d" d="M70.1,150.75l.79.1a1.86,1.86,0,0,1-.69,1.07,2.06,2.06,0,0,1-1.29.38,2.09,2.09,0,0,1-1.57-.6,2.42,2.42,0,0,1-.58-1.71,2.51,2.51,0,0,1,.59-1.77,2,2,0,0,1,1.52-.63,2,2,0,0,1,1.48.62,2.46,2.46,0,0,1,.57,1.73v.2H67.55a1.74,1.74,0,0,0,.42,1.14,1.28,1.28,0,0,0,1,.4,1.2,1.2,0,0,0,.71-.22A1.45,1.45,0,0,0,70.1,150.75Zm-2.51-1.23h2.52a1.51,1.51,0,0,0-.29-.86,1.18,1.18,0,0,0-.94-.44,1.25,1.25,0,0,0-.89.35A1.43,1.43,0,0,0,67.59,149.52Z"/><path class="d" d="M71.85,152.2v-4.51h.68v.69a1.87,1.87,0,0,1,.49-.63.8.8,0,0,1,.49-.16,1.41,1.41,0,0,1,.78.25l-.26.71a1.1,1.1,0,0,0-.56-.17.72.72,0,0,0-.45.15.79.79,0,0,0-.28.42,2.82,2.82,0,0,0-.13.89v2.36Z"/><path class="d" d="M74.93,152.2v-3.91h-.67v-.6h.67v-.48a2.21,2.21,0,0,1,.08-.67,1,1,0,0,1,.39-.48,1.36,1.36,0,0,1,.78-.19,3.76,3.76,0,0,1,.71.08l-.11.67a2.48,2.48,0,0,0-.45-.05.65.65,0,0,0-.49.15.8.8,0,0,0-.15.56v.41h.88v.6h-.88v3.91Z"/><path class="d" d="M76.88,150a2.32,2.32,0,0,1,.7-1.86,2.1,2.1,0,0,1,1.42-.5,2,2,0,0,1,1.52.61,2.34,2.34,0,0,1,.58,1.68,2.91,2.91,0,0,1-.26,1.37,1.79,1.79,0,0,1-.76.78,2.22,2.22,0,0,1-1.08.27,2,2,0,0,1-1.54-.6A2.48,2.48,0,0,1,76.88,150Zm.79,0a1.94,1.94,0,0,0,.37,1.3,1.25,1.25,0,0,0,1,.43,1.2,1.2,0,0,0,.94-.44,2,2,0,0,0,.38-1.32,1.86,1.86,0,0,0-.38-1.26,1.2,1.2,0,0,0-.94-.44,1.25,1.25,0,0,0-1,.43A1.94,1.94,0,0,0,77.67,150Z"/><path class="d" d="M82,152.2v-4.51h.69v.69a1.87,1.87,0,0,1,.49-.63.78.78,0,0,1,.49-.16,1.43,1.43,0,0,1,.78.25l-.26.71a1.1,1.1,0,0,0-.56-.17.72.72,0,0,0-.45.15.86.86,0,0,0-.29.42,3.14,3.14,0,0,0-.12.89v2.36Z"/><path class="d" d="M84.9,152.2v-4.51h.68v.64a1.64,1.64,0,0,1,.57-.54,1.61,1.61,0,0,1,.8-.2,1.47,1.47,0,0,1,.82.21,1.14,1.14,0,0,1,.45.58,1.64,1.64,0,0,1,1.39-.79,1.42,1.42,0,0,1,1,.37,1.6,1.6,0,0,1,.36,1.15v3.09h-.76v-2.84a2.09,2.09,0,0,0-.08-.66.64.64,0,0,0-.27-.32.86.86,0,0,0-.46-.13,1.09,1.09,0,0,0-.79.32,1.39,1.39,0,0,0-.31,1v2.62h-.76v-2.93a1.31,1.31,0,0,0-.19-.76.72.72,0,0,0-.61-.26,1.13,1.13,0,0,0-.6.17,1.05,1.05,0,0,0-.4.5,2.86,2.86,0,0,0-.12.94v2.34Z"/><path class="d" d="M95.23,150.75l.79.1a1.93,1.93,0,0,1-.7,1.07,2,2,0,0,1-1.29.38,2.09,2.09,0,0,1-1.57-.6,2.42,2.42,0,0,1-.57-1.71,2.5,2.5,0,0,1,.58-1.77,2,2,0,0,1,1.52-.63,1.94,1.94,0,0,1,1.48.62,2.46,2.46,0,0,1,.57,1.73v.2H92.68a1.64,1.64,0,0,0,.42,1.14,1.25,1.25,0,0,0,.94.4,1.23,1.23,0,0,0,.72-.22A1.6,1.6,0,0,0,95.23,150.75Zm-2.51-1.23h2.52a1.67,1.67,0,0,0-.29-.86,1.2,1.2,0,0,0-1-.44,1.25,1.25,0,0,0-.89.35A1.42,1.42,0,0,0,92.72,149.52Z"/><path class="d" d="M99.9,152.2v-.57a1.38,1.38,0,0,1-1.26.67,1.74,1.74,0,0,1-1-.29,2,2,0,0,1-.7-.83A2.85,2.85,0,0,1,96.7,150a3.16,3.16,0,0,1,.23-1.22,1.79,1.79,0,0,1,.67-.85,1.86,1.86,0,0,1,1-.29,1.5,1.5,0,0,1,1.24.62V146h.76v6.22ZM97.49,150a2,2,0,0,0,.36,1.3,1.11,1.11,0,0,0,.86.43,1.07,1.07,0,0,0,.85-.41,1.87,1.87,0,0,0,.35-1.25,2.11,2.11,0,0,0-.35-1.36,1.1,1.1,0,0,0-.88-.44,1.06,1.06,0,0,0-.85.42A2.05,2.05,0,0,0,97.49,150Z"/><path class="d" d="M107.17,151.65a2.75,2.75,0,0,1-.82.51,2.32,2.32,0,0,1-.84.14,1.62,1.62,0,0,1-1.14-.36,1.18,1.18,0,0,1-.4-.93,1.21,1.21,0,0,1,.15-.6,1.28,1.28,0,0,1,.39-.44,2.11,2.11,0,0,1,.55-.25,6,6,0,0,1,.68-.12,6.93,6.93,0,0,0,1.37-.26v-.2a.83.83,0,0,0-.22-.66,1.27,1.27,0,0,0-.87-.26,1.39,1.39,0,0,0-.79.19,1.17,1.17,0,0,0-.38.67l-.75-.1a1.77,1.77,0,0,1,.34-.77,1.46,1.46,0,0,1,.67-.46,3.21,3.21,0,0,1,1-.16,2.7,2.7,0,0,1,.94.14,1.19,1.19,0,0,1,.53.34,1.09,1.09,0,0,1,.24.52,3.79,3.79,0,0,1,0,.7v1a11.34,11.34,0,0,0,.05,1.35,1.74,1.74,0,0,0,.19.54h-.8A1.54,1.54,0,0,1,107.17,151.65Zm-.06-1.71a6,6,0,0,1-1.25.29,3,3,0,0,0-.67.15.68.68,0,0,0-.3.25.66.66,0,0,0-.11.36.63.63,0,0,0,.24.51,1,1,0,0,0,.67.21,1.57,1.57,0,0,0,.79-.2,1.11,1.11,0,0,0,.5-.53,1.67,1.67,0,0,0,.13-.76Z"/><path class="d" d="M110.73,151.52l.11.67a2.46,2.46,0,0,1-.57.07,1.29,1.29,0,0,1-.65-.13.75.75,0,0,1-.32-.34,2.83,2.83,0,0,1-.1-.91v-2.59h-.56v-.6h.56v-1.11l.76-.46v1.57h.77v.6H110v2.63a1.73,1.73,0,0,0,0,.43.32.32,0,0,0,.14.14.45.45,0,0,0,.26.06Z"/><path class="d" d="M114.6,152.2h-.71V146h.77v2.22a1.49,1.49,0,0,1,1.23-.61,1.93,1.93,0,0,1,.79.17,1.59,1.59,0,0,1,.61.47,2.3,2.3,0,0,1,.38.73,3.05,3.05,0,0,1,.13.92,2.58,2.58,0,0,1-.57,1.79,1.79,1.79,0,0,1-1.38.63,1.43,1.43,0,0,1-1.25-.66Zm0-2.28a2.42,2.42,0,0,0,.22,1.17,1.11,1.11,0,0,0,1,.59,1.13,1.13,0,0,0,.87-.44,2,2,0,0,0,.36-1.3,2,2,0,0,0-.35-1.3,1.06,1.06,0,0,0-.85-.42,1.09,1.09,0,0,0-.86.44A1.88,1.88,0,0,0,114.59,149.92Z"/><path class="d" d="M118.71,152.2V146h.77v6.22Z"/><path class="d" d="M120.38,150a2.32,2.32,0,0,1,.7-1.86,2.1,2.1,0,0,1,1.41-.5,2,2,0,0,1,1.52.61,2.3,2.3,0,0,1,.59,1.68,2.91,2.91,0,0,1-.26,1.37,1.79,1.79,0,0,1-.76.78,2.23,2.23,0,0,1-1.09.27,2,2,0,0,1-1.53-.6A2.43,2.43,0,0,1,120.38,150Zm.79,0a1.94,1.94,0,0,0,.37,1.3,1.23,1.23,0,0,0,.95.43,1.21,1.21,0,0,0,1-.44,2,2,0,0,0,.38-1.32,1.86,1.86,0,0,0-.38-1.26,1.21,1.21,0,0,0-1-.44,1.23,1.23,0,0,0-.95.43A1.94,1.94,0,0,0,121.17,150Z"/><path class="d" d="M128.44,150.55l.75.1a2,2,0,0,1-.63,1.22,1.82,1.82,0,0,1-1.24.43,1.94,1.94,0,0,1-1.49-.6,2.42,2.42,0,0,1-.56-1.73,3.14,3.14,0,0,1,.24-1.28,1.65,1.65,0,0,1,.74-.82,2.09,2.09,0,0,1,1.07-.28,1.91,1.91,0,0,1,1.2.37,1.73,1.73,0,0,1,.6,1.06l-.74.11a1.22,1.22,0,0,0-.38-.68,1,1,0,0,0-.65-.23,1.21,1.21,0,0,0-.94.41,2,2,0,0,0-.36,1.31,2,2,0,0,0,.35,1.32,1.13,1.13,0,0,0,.91.42,1.09,1.09,0,0,0,.75-.28A1.35,1.35,0,0,0,128.44,150.55Z"/><path class="d" d="M129.85,152.2V146h.77v3.55l1.8-1.84h1l-1.72,1.68,1.9,2.83h-.94l-1.49-2.3-.54.52v1.78Z"/></g><g class="c"><path class="d" d="M81.48,160.76l.74-.06a1.32,1.32,0,0,0,.35.75,1,1,0,0,0,.68.23,1.17,1.17,0,0,0,.62-.16,1.36,1.36,0,0,0,.43-.43,2.41,2.41,0,0,0,.29-.73,4.22,4.22,0,0,0,.11-.93v-.16a1.91,1.91,0,0,1-.63.6,1.69,1.69,0,0,1-.86.22,1.73,1.73,0,0,1-1.31-.56,2.34,2.34,0,0,1,0-3,1.87,1.87,0,0,1,1.4-.58,2,2,0,0,1,1.11.33,2.07,2.07,0,0,1,.76.93,4.71,4.71,0,0,1,.26,1.75,5.46,5.46,0,0,1-.26,1.9,2.25,2.25,0,0,1-.77,1.08,2,2,0,0,1-1.2.37A1.76,1.76,0,0,1,82,161.9,1.73,1.73,0,0,1,81.48,160.76ZM84.61,158a1.48,1.48,0,0,0-.35-1.05,1.07,1.07,0,0,0-.84-.38,1.15,1.15,0,0,0-.89.41,1.56,1.56,0,0,0-.38,1.08,1.34,1.34,0,0,0,.36,1,1.22,1.22,0,0,0,.89.37,1.16,1.16,0,0,0,.87-.37A1.46,1.46,0,0,0,84.61,158Z"/><path class="d" d="M87.38,158.83a1.47,1.47,0,0,1-.71-.5,1.29,1.29,0,0,1-.22-.77,1.51,1.51,0,0,1,.48-1.14,2,2,0,0,1,2.62,0,1.52,1.52,0,0,1,.49,1.15,1.25,1.25,0,0,1-.22.75,1.49,1.49,0,0,1-.7.5,1.62,1.62,0,0,1,.88.6,1.66,1.66,0,0,1,.3,1,1.8,1.8,0,0,1-.57,1.35,2.3,2.3,0,0,1-3,0,1.78,1.78,0,0,1-.56-1.36,1.66,1.66,0,0,1,.3-1A1.54,1.54,0,0,1,87.38,158.83Zm-.4,1.58a1.31,1.31,0,0,0,.16.63,1,1,0,0,0,.46.47,1.34,1.34,0,0,0,.65.17,1.26,1.26,0,0,0,.91-.35,1.22,1.22,0,0,0,.36-.9,1.24,1.24,0,0,0-.37-.91,1.27,1.27,0,0,0-.92-.36A1.23,1.23,0,0,0,87,160.41Zm.25-2.88a.94.94,0,0,0,.28.72,1,1,0,0,0,.74.28,1,1,0,0,0,.72-.27.94.94,0,0,0,.29-.68,1,1,0,0,0-.29-.71,1,1,0,0,0-.73-.29,1,1,0,0,0-.72.28A.88.88,0,0,0,87.23,157.53Z"/><path class="d" d="M95,157.5l-.76.06a1.46,1.46,0,0,0-.29-.65,1,1,0,0,0-.77-.33,1,1,0,0,0-.64.21,1.74,1.74,0,0,0-.57.76,3.91,3.91,0,0,0-.21,1.44,1.72,1.72,0,0,1,.67-.62,1.79,1.79,0,0,1,.84-.2,1.71,1.71,0,0,1,1.3.56,2,2,0,0,1,.54,1.45,2.37,2.37,0,0,1-.26,1.09,1.79,1.79,0,0,1-.69.77,1.87,1.87,0,0,1-1,.27,2,2,0,0,1-1.56-.7,3.57,3.57,0,0,1-.6-2.32,4.16,4.16,0,0,1,.66-2.62,1.91,1.91,0,0,1,1.57-.72A1.7,1.7,0,0,1,95,157.5Zm-3.12,2.69a1.78,1.78,0,0,0,.16.75,1.28,1.28,0,0,0,.47.55,1.14,1.14,0,0,0,.64.19,1.09,1.09,0,0,0,.83-.39,1.54,1.54,0,0,0,.34-1.06,1.45,1.45,0,0,0-.34-1,1.13,1.13,0,0,0-.87-.37,1.16,1.16,0,0,0-.87.37A1.35,1.35,0,0,0,91.89,160.19Z"/><path class="d" d="M96,160.76l.74-.06a1.32,1.32,0,0,0,.35.75,1,1,0,0,0,.68.23,1.17,1.17,0,0,0,.62-.16,1.36,1.36,0,0,0,.43-.43,2.42,2.42,0,0,0,.28-.73,3.71,3.71,0,0,0,.12-.93v-.16a1.91,1.91,0,0,1-.63.6,1.8,1.8,0,0,1-2.17-.34,2,2,0,0,1-.53-1.48,2.1,2.1,0,0,1,.55-1.52,1.9,1.9,0,0,1,1.4-.58,2,2,0,0,1,1.11.33,2.09,2.09,0,0,1,.77.93A4.71,4.71,0,0,1,100,159a5.71,5.71,0,0,1-.26,1.9,2.25,2.25,0,0,1-.77,1.08,2,2,0,0,1-1.2.37A1.66,1.66,0,0,1,96,160.76ZM99.12,158a1.53,1.53,0,0,0-.35-1.05,1.07,1.07,0,0,0-.84-.38A1.15,1.15,0,0,0,97,157a1.56,1.56,0,0,0-.38,1.08,1.34,1.34,0,0,0,.36,1,1.21,1.21,0,0,0,.89.37,1.16,1.16,0,0,0,.87-.37A1.46,1.46,0,0,0,99.12,158Z"/><path class="d" d="M100.71,159.13a5.67,5.67,0,0,1,.23-1.77,2.24,2.24,0,0,1,.67-1,1.93,1.93,0,0,1,2-.16,1.66,1.66,0,0,1,.63.58,3.11,3.11,0,0,1,.38.92,6.4,6.4,0,0,1,.14,1.47,5.75,5.75,0,0,1-.22,1.77,2.18,2.18,0,0,1-.68,1,1.88,1.88,0,0,1-2.54-.28A4.08,4.08,0,0,1,100.71,159.13Zm.79,0a3.88,3.88,0,0,0,.36,2,1,1,0,0,0,.88.51,1.07,1.07,0,0,0,.89-.51,6,6,0,0,0,0-4.08,1.06,1.06,0,0,0-.9-.5,1,1,0,0,0-.84.44A4,4,0,0,0,101.5,159.13Z"/><path class="d" d="M106.72,158.83a1.44,1.44,0,0,1-.7-.5,1.3,1.3,0,0,1-.23-.77,1.48,1.48,0,0,1,.49-1.14,2,2,0,0,1,2.61,0,1.53,1.53,0,0,1,.5,1.15,1.26,1.26,0,0,1-.23.75,1.41,1.41,0,0,1-.69.5,1.63,1.63,0,0,1,.87.6,1.66,1.66,0,0,1,.3,1,1.83,1.83,0,0,1-.56,1.35,2.31,2.31,0,0,1-3,0,1.82,1.82,0,0,1-.56-1.36,1.6,1.6,0,0,1,.31-1A1.51,1.51,0,0,1,106.72,158.83Zm-.39,1.58a1.42,1.42,0,0,0,.15.63,1.1,1.1,0,0,0,.46.47,1.38,1.38,0,0,0,.66.17,1.24,1.24,0,0,0,.9-.35,1.22,1.22,0,0,0,.36-.9,1.2,1.2,0,0,0-.37-.91,1.25,1.25,0,0,0-.92-.36,1.2,1.2,0,0,0-.89.36A1.18,1.18,0,0,0,106.33,160.41Zm.24-2.88a1,1,0,0,0,.29.72,1,1,0,0,0,.73.28,1,1,0,0,0,.73-.27.93.93,0,0,0,.28-.68,1,1,0,0,0-.29-.71,1.06,1.06,0,0,0-1.45,0A.92.92,0,0,0,106.57,157.53Z"/><path class="d" d="M114.35,157.5l-.76.06a1.36,1.36,0,0,0-.29-.65,1.06,1.06,0,0,0-1.4-.12,1.74,1.74,0,0,0-.57.76,4.1,4.1,0,0,0-.22,1.44,1.68,1.68,0,0,1,.68-.62,1.72,1.72,0,0,1,.83-.2,1.7,1.7,0,0,1,1.3.56,2,2,0,0,1,.54,1.45,2.36,2.36,0,0,1-.25,1.09,1.81,1.81,0,0,1-.7.77,1.85,1.85,0,0,1-1,.27,2,2,0,0,1-1.56-.7,3.57,3.57,0,0,1-.6-2.32,4.1,4.1,0,0,1,.67-2.62,1.91,1.91,0,0,1,1.56-.72,1.76,1.76,0,0,1,1.21.42A1.73,1.73,0,0,1,114.35,157.5Zm-3.12,2.69a1.79,1.79,0,0,0,.17.75,1.22,1.22,0,0,0,.47.55,1.13,1.13,0,0,0,.63.19,1.08,1.08,0,0,0,.83-.39,1.54,1.54,0,0,0,.35-1.06,1.49,1.49,0,0,0-.34-1,1.13,1.13,0,0,0-.87-.37,1.16,1.16,0,0,0-.88.37A1.35,1.35,0,0,0,111.23,160.19Z"/></g><g class="c"><path class="d" d="M46.48,108.86l1.53.49a3.4,3.4,0,0,1-1.17,1.89,3.32,3.32,0,0,1-2.06.62,3.36,3.36,0,0,1-2.55-1.06,4,4,0,0,1-1-2.9,4.23,4.23,0,0,1,1-3,3.44,3.44,0,0,1,2.64-1.08,3.21,3.21,0,0,1,2.32.85,3.12,3.12,0,0,1,.8,1.43l-1.56.37a1.59,1.59,0,0,0-1.64-1.31,1.76,1.76,0,0,0-1.4.63,3,3,0,0,0-.54,2,3.29,3.29,0,0,0,.53,2.1,1.7,1.7,0,0,0,1.38.62,1.59,1.59,0,0,0,1.08-.39A2.35,2.35,0,0,0,46.48,108.86Z"/><path class="d" d="M49,108.83a3,3,0,0,1,.37-1.44,2.45,2.45,0,0,1,1-1.06,3,3,0,0,1,1.5-.37,2.82,2.82,0,0,1,2.1.83,2.88,2.88,0,0,1,.82,2.1A2.91,2.91,0,0,1,54,111a2.79,2.79,0,0,1-2.08.84,3.18,3.18,0,0,1-1.47-.35,2.32,2.32,0,0,1-1.07-1A3.34,3.34,0,0,1,49,108.83Zm1.53.08a1.84,1.84,0,0,0,.4,1.28,1.25,1.25,0,0,0,1,.45,1.26,1.26,0,0,0,1-.45,1.91,1.91,0,0,0,.39-1.29,1.88,1.88,0,0,0-.39-1.28,1.28,1.28,0,0,0-1-.44,1.27,1.27,0,0,0-1,.44A1.86,1.86,0,0,0,50.53,108.91Z"/><path class="d" d="M55.87,106.09h1.38v.77A2.21,2.21,0,0,1,59,106a1.94,1.94,0,0,1,.93.22,1.73,1.73,0,0,1,.66.68,2.64,2.64,0,0,1,.8-.68,2.08,2.08,0,0,1,.92-.22,2,2,0,0,1,1,.25A1.6,1.6,0,0,1,64,107a3.29,3.29,0,0,1,.15,1.17v3.6H62.67V108.5a2.43,2.43,0,0,0-.15-1.08.72.72,0,0,0-.64-.32,1.09,1.09,0,0,0-.59.19,1.17,1.17,0,0,0-.4.56,4.16,4.16,0,0,0-.12,1.17v2.7H59.28v-3.08a4.53,4.53,0,0,0-.08-1.07.65.65,0,0,0-.25-.35.75.75,0,0,0-.45-.12,1.06,1.06,0,0,0-1,.72,4.1,4.1,0,0,0-.11,1.17v2.73h-1.5Z"/><path class="d" d="M65.54,106.09h1.37v.77a2.21,2.21,0,0,1,1.76-.9,2,2,0,0,1,.94.22,1.78,1.78,0,0,1,.65.68,2.77,2.77,0,0,1,.8-.68A2.11,2.11,0,0,1,72,106a2,2,0,0,1,1,.25,1.55,1.55,0,0,1,.64.74,3,3,0,0,1,.16,1.17v3.6H72.34V108.5a2.25,2.25,0,0,0-.16-1.08.7.7,0,0,0-.63-.32,1,1,0,0,0-1,.75,4.16,4.16,0,0,0-.12,1.17v2.7H69v-3.08a4.53,4.53,0,0,0-.08-1.07.77.77,0,0,0-.25-.35.75.75,0,0,0-.45-.12,1.09,1.09,0,0,0-.63.19,1,1,0,0,0-.39.53A4,4,0,0,0,67,109v2.73H65.54Z"/><path class="d" d="M79,111.72v-.84a2.11,2.11,0,0,1-.8.71,2.22,2.22,0,0,1-1.06.26,2,2,0,0,1-1-.25,1.49,1.49,0,0,1-.66-.7,3.19,3.19,0,0,1-.2-1.25v-3.56h1.49v2.59a6.46,6.46,0,0,0,.09,1.45.74.74,0,0,0,.3.43.94.94,0,0,0,.55.16,1.18,1.18,0,0,0,1.1-.73,6.34,6.34,0,0,0,.11-1.52v-2.38h1.49v5.63Z"/><path class="d" d="M87.08,111.72H85.59v-2.87a4.11,4.11,0,0,0-.1-1.18.78.78,0,0,0-.31-.42.85.85,0,0,0-.51-.15,1.23,1.23,0,0,0-.7.21,1.14,1.14,0,0,0-.42.57,4.68,4.68,0,0,0-.11,1.29v2.55h-1.5v-5.63h1.39v.83a2.25,2.25,0,0,1,1.86-1,2.19,2.19,0,0,1,.9.18,1.58,1.58,0,0,1,.62.45,1.81,1.81,0,0,1,.29.63,5,5,0,0,1,.08,1Z"/><path class="d" d="M88.59,105.32v-1.38h1.49v1.38Zm0,6.4v-5.63h1.49v5.63Z"/><path class="d" d="M94.2,106.09v1.19h-1v2.27a5.36,5.36,0,0,0,0,.8.31.31,0,0,0,.13.19.41.41,0,0,0,.25.08,1.84,1.84,0,0,0,.6-.15l.13,1.16a3,3,0,0,1-1.18.22,1.81,1.81,0,0,1-.72-.13,1.07,1.07,0,0,1-.48-.35,1.46,1.46,0,0,1-.21-.58,7.6,7.6,0,0,1,0-1.06v-2.45H91v-1.19h.68V105l1.5-.87v2Z"/><path class="d" d="M94.53,106.09h1.58l1.35,4,1.32-4h1.54l-2,5.42-.35,1a4.09,4.09,0,0,1-.38.76,1.64,1.64,0,0,1-.41.42,1.7,1.7,0,0,1-.56.25,3,3,0,0,1-.77.09,4,4,0,0,1-.84-.09l-.13-1.17a3,3,0,0,0,.63.07,1,1,0,0,0,.77-.3,2.11,2.11,0,0,0,.38-.78Z"/><path class="d" d="M104.3,103.94h2.87a5.62,5.62,0,0,1,1.49.15,2.74,2.74,0,0,1,1.17.72,3.42,3.42,0,0,1,.74,1.26,5.74,5.74,0,0,1,.26,1.84,5,5,0,0,1-.24,1.65,3.39,3.39,0,0,1-.84,1.38,2.83,2.83,0,0,1-1.1.62,4.77,4.77,0,0,1-1.39.16h-3Zm1.57,1.32v5.15h1.18a4.34,4.34,0,0,0,1-.07,1.45,1.45,0,0,0,.63-.32,1.64,1.64,0,0,0,.41-.76,4.86,4.86,0,0,0,.16-1.42,4.6,4.6,0,0,0-.16-1.39,1.72,1.72,0,0,0-.44-.75,1.58,1.58,0,0,0-.73-.37,8.37,8.37,0,0,0-1.29-.07Z"/><path class="d" d="M111.8,108.83a3,3,0,0,1,.37-1.44,2.42,2.42,0,0,1,1-1.06,3,3,0,0,1,1.5-.37,2.81,2.81,0,0,1,2.09.83,2.84,2.84,0,0,1,.82,2.1,2.91,2.91,0,0,1-.83,2.12,2.78,2.78,0,0,1-2.07.84,3.19,3.19,0,0,1-1.48-.35,2.32,2.32,0,0,1-1.07-1A3.34,3.34,0,0,1,111.8,108.83Zm1.53.08a1.84,1.84,0,0,0,.4,1.28,1.26,1.26,0,0,0,1,.45,1.25,1.25,0,0,0,1-.45,1.91,1.91,0,0,0,.4-1.29,1.89,1.89,0,0,0-.4-1.28,1.27,1.27,0,0,0-1-.44,1.28,1.28,0,0,0-1,.44A1.86,1.86,0,0,0,113.33,108.91Z"/><path class="d" d="M118.65,112.1l1.7.2a.59.59,0,0,0,.2.41,1.08,1.08,0,0,0,.67.16,1.78,1.78,0,0,0,.87-.17.78.78,0,0,0,.3-.38,2.12,2.12,0,0,0,.07-.69v-.82a2,2,0,0,1-1.69.91,2.09,2.09,0,0,1-1.8-1,3.28,3.28,0,0,1-.52-1.88,3.14,3.14,0,0,1,.68-2.17,2.21,2.21,0,0,1,1.7-.75,2.09,2.09,0,0,1,1.73.92v-.79H124v5.06a5.08,5.08,0,0,1-.16,1.49,1.93,1.93,0,0,1-.46.77,2,2,0,0,1-.8.44,4,4,0,0,1-1.25.16,3.25,3.25,0,0,1-2-.49,1.54,1.54,0,0,1-.6-1.24S118.65,112.17,118.65,112.1Zm1.33-3.31a2,2,0,0,0,.35,1.31,1.07,1.07,0,0,0,.86.42,1.17,1.17,0,0,0,.92-.43,1.84,1.84,0,0,0,.38-1.26,2,2,0,0,0-.36-1.3,1.16,1.16,0,0,0-.92-.43,1.1,1.1,0,0,0-.88.42A2,2,0,0,0,120,108.79Z"/><path class="d" d="M128.69,109.93l1.49.25a2.44,2.44,0,0,1-.91,1.24,2.62,2.62,0,0,1-1.55.43,2.52,2.52,0,0,1-2.17-1A3.23,3.23,0,0,1,125,109a3.16,3.16,0,0,1,.73-2.2,2.45,2.45,0,0,1,1.86-.79,2.49,2.49,0,0,1,2,.83,3.65,3.65,0,0,1,.7,2.55h-3.74a1.51,1.51,0,0,0,.36,1,1.16,1.16,0,0,0,.86.37,1,1,0,0,0,.59-.19A1.2,1.2,0,0,0,128.69,109.93Zm.09-1.51a1.43,1.43,0,0,0-.34-1,1,1,0,0,0-.77-.34,1,1,0,0,0-.81.36,1.34,1.34,0,0,0-.31,1Z"/><path class="d" d="M139.48,108.86l1.52.49a3.39,3.39,0,0,1-1.16,1.89,3.33,3.33,0,0,1-2.07.62,3.39,3.39,0,0,1-2.55-1.06,4.08,4.08,0,0,1-1-2.9,4.23,4.23,0,0,1,1-3,3.44,3.44,0,0,1,2.64-1.08,3.22,3.22,0,0,1,2.32.85,3,3,0,0,1,.79,1.43l-1.55.37a1.7,1.7,0,0,0-.58-1,1.65,1.65,0,0,0-1.06-.35,1.77,1.77,0,0,0-1.41.63,3,3,0,0,0-.53,2,3.23,3.23,0,0,0,.53,2.1,1.7,1.7,0,0,0,1.38.62,1.59,1.59,0,0,0,1.07-.39A2.35,2.35,0,0,0,139.48,108.86Z"/><path class="d" d="M142,108.83a3.07,3.07,0,0,1,.36-1.44,2.48,2.48,0,0,1,1-1.06,3,3,0,0,1,1.5-.37,2.81,2.81,0,0,1,2.91,2.93A2.9,2.9,0,0,1,147,111a2.79,2.79,0,0,1-2.08.84,3.19,3.19,0,0,1-1.48-.35,2.37,2.37,0,0,1-1.07-1A3.45,3.45,0,0,1,142,108.83Zm1.53.08a1.88,1.88,0,0,0,.39,1.28,1.28,1.28,0,0,0,1,.45,1.24,1.24,0,0,0,1-.45,1.86,1.86,0,0,0,.4-1.29,1.84,1.84,0,0,0-.4-1.28,1.26,1.26,0,0,0-1-.44,1.31,1.31,0,0,0-1,.44A1.91,1.91,0,0,0,143.53,108.91Z"/><path class="d" d="M149,105.32v-1.38h1.49v1.38Zm0,6.4v-5.63h1.49v5.63Z"/><path class="d" d="M157.13,111.72h-1.49v-2.87a4.54,4.54,0,0,0-.1-1.18.83.83,0,0,0-.31-.42.86.86,0,0,0-.52-.15,1.2,1.2,0,0,0-.69.21,1,1,0,0,0-.42.57,4.57,4.57,0,0,0-.12,1.29v2.55H152v-5.63h1.39v.83a2.25,2.25,0,0,1,1.85-1,2.27,2.27,0,0,1,.91.18,1.54,1.54,0,0,1,.61.45,1.83,1.83,0,0,1,.3.63,5,5,0,0,1,.08,1Z"/></g><path class="d" d="M110.93,43.71A15.62,15.62,0,0,0,104.28,40a14.83,14.83,0,0,1-13.81,9.46H85.86A5.27,5.27,0,0,0,84,49.8,5.19,5.19,0,0,0,82.22,51a5.14,5.14,0,0,0-.7,6.41,5.09,5.09,0,0,0,4.34,2.38h29.32a15.34,15.34,0,0,0,.68-4.62c0-.44,0-.9,0-1.34A15.67,15.67,0,0,0,110.93,43.71Zm2.73,14.1H85.86a3.32,3.32,0,0,1-1.39-.31,3.22,3.22,0,0,1-1.31-1.17,3.18,3.18,0,0,1-.51-1.72,3.22,3.22,0,0,1,.94-2.27,3.2,3.2,0,0,1,2.26-.94h4.62a16.82,16.82,0,0,0,14.86-9A13.76,13.76,0,0,1,113.87,54c0,.38,0,.79,0,1.18a14,14,0,0,1-.26,2.67Z"/><path class="d" d="M116.81,64.42H85.86a9.76,9.76,0,0,1-3.17-.53,7.42,7.42,0,0,0-2,5v.24h39.87A5.81,5.81,0,0,0,116.81,64.42ZM82.87,67.48a5.33,5.33,0,0,1,.58-1.37,11.47,11.47,0,0,0,2.41.25h30.58a3.82,3.82,0,0,1,1.43,1.12Z"/><path class="d" d="M85.86,59.75h29.31l0,0h-30a4,4,0,0,0,.7,0Z"/><path class="e" d="M116.49,69.13H71l6.37,20.55a6.42,6.42,0,0,0,6.14,4.52h34.41A6.42,6.42,0,0,0,124,89.68l6.36-20.55Zm-33,20a1.37,1.37,0,0,1-1.32-1l-4.33-14h7.84l2.47,15Zm9.8,0-2.47-15h7.35v15Zm9.83,0v-15h7.42l-2.47,15Zm16.09-1a1.36,1.36,0,0,1-1.31,1h-4.68l2.47-15h7.86Z"/><path class="d" d="M83.46,89.15a1.37,1.37,0,0,1-1.32-1l-4.33-14h7.84l2.47,15Z"/><polygon class="d" points="93.27 89.15 90.8 74.18 98.14 74.18 98.14 89.15 93.27 89.15"/><polygon class="d" points="103.09 89.15 103.09 74.18 110.51 74.18 108.04 89.15 103.09 89.15"/><path class="d" d="M119.19,88.18a1.37,1.37,0,0,1-1.32,1h-4.68l2.47-15h7.86Z"/><path class="f" d="M109.6,45.13a13.86,13.86,0,0,0-4.27-2.74,17.13,17.13,0,0,1-3.1,4.18A16.67,16.67,0,0,1,90.47,51.4H85.86a3.11,3.11,0,0,0-1.17.21,3.34,3.34,0,0,0-1.09.72,3.18,3.18,0,0,0-.94,2.27,3.17,3.17,0,0,0,1.82,2.89,3.14,3.14,0,0,0,1.38.32h27.81a14.22,14.22,0,0,0,.25-2.68,11.64,11.64,0,0,0,0-1.18,13.71,13.71,0,0,0-4.27-8.82Z"/><path class="f" d="M116.44,66.36H85.85a11.53,11.53,0,0,1-2.41-.25,5.3,5.3,0,0,0-.57,1.37h35a3.89,3.89,0,0,0-1.42-1.12Z"/><path class="f" d="M119.77,60.64a20.44,20.44,0,0,0,.75-5.5c0-.59,0-1.17-.07-1.74a20.37,20.37,0,0,0-19.84-18.62,10.15,10.15,0,0,1-10.14,10H85.86a9.72,9.72,0,0,0-3.58.67,10,10,0,0,0-3.36,2.2,9.83,9.83,0,0,0-.19,13.69,12,12,0,0,0-2.65,7.54v.24h4.66v-.24a7.42,7.42,0,0,1,2-5,9.76,9.76,0,0,0,3.17.53h31a5.81,5.81,0,0,1,3.8,4.71h4.68a10.47,10.47,0,0,0-5.52-8.49Zm-4.6-.89H85.86a5.05,5.05,0,0,1-2.23-.5A5.15,5.15,0,0,1,82.22,51,5,5,0,0,1,84,49.8a5.23,5.23,0,0,1,1.88-.35h4.61A14.81,14.81,0,0,0,104.28,40,15.71,15.71,0,0,1,115.8,53.79c0,.44.06.9.06,1.34a15.67,15.67,0,0,1-.69,4.62Z"/></svg>