<?xml version="1.0" encoding="UTF-8"?>
<svg width="331px" height="300px" viewBox="0 0 331 300" version="1.1" xmlns="http://www.w3.org/2000/svg" xmlns:xlink="http://www.w3.org/1999/xlink">
    <defs>
        <path d="M154.499773,277.7489 C35.3857853,277.7489 0,215.875275 0,139.550116 C0,78.8750029 12.7457118,0 142.220185,0 C279.105268,0 309,76.6718634 309,139.550116 C309,201.875798 281.14622,277.7489 154.499773,277.7489 Z" id="path-1"></path>
    </defs>
    <g id="" stroke="none" stroke-width="1" fill="none" fill-rule="evenodd" opacity="0.5">
        <g id="" transform="translate(-134.000000, -770.000000)">
            <g id="" transform="translate(144.999949, 781.250793)">
                <g id="Fill-1">
                    <use stroke="#9C9C9C" stroke-width="22" fill="#E8E8E8" fill-rule="evenodd" xlink:href="#path-1"></use>
                    <use stroke="#FFFFFF" stroke-width="12" xlink:href="#path-1"></use>
                </g>
                <path d="M275.982527,48.1538101 C281.784072,64.7804208 283.345397,83.1892377 283.345397,101.904188 C283.345397,164.22936 255.491617,240.103482 128.845169,240.103482 C72.7197711,240.103482 35.1861412,226.364219 11.1824774,203.851175 C29.2732032,247.79049 71.6162955,277.749207 154.500182,277.749207 C281.146175,277.749207 308.999955,201.876105 308.999955,139.550422 C308.999955,104.919091 303.653076,71.3377965 275.982527,48.1538101" id="Fill-3" fill="#D8D8D8"></path>
                <path d="M97.2363897,96.8518656 C97.2363897,109.842123 86.0834201,120.373619 72.3256661,120.373619 C58.5674575,120.373619 47.414488,109.842123 47.414488,96.8518656 C47.414488,83.8616085 58.5674575,73.3306224 72.3256661,73.3306224 C86.0834201,73.3306224 97.2363897,83.8616085 97.2363897,96.8518656" id="Fill-41" fill="#D8D8D8"></path>
                <path d="M80.2194952,74.5433695 C90.1066732,77.6613373 97.2362987,86.4677725 97.2362987,96.8518146 C97.2362987,109.842582 86.0833292,120.373568 72.3255752,120.373568 C68.3154166,120.373568 64.5298632,119.473536 61.1739697,117.883684 C65.3173456,120.757765 70.4059732,122.456805 75.9106207,122.456805 C89.8147773,122.456805 101.08596,111.650809 101.08596,98.3202341 C101.08596,86.3994027 92.0690138,76.5036432 80.2194952,74.5433695" id="Fill-43" fill="#FDFCFC"></path>
                <path d="M72.3256661,73.3305713 C69.1439099,73.3305713 66.1053736,73.8994691 63.3082652,74.9260361 C65.1496646,74.4459171 67.0869986,74.1836628 69.0902592,74.1836628 C81.0611738,74.1836628 90.7655759,83.3472535 90.7655759,94.650716 C90.7655759,105.953668 81.0611738,115.116749 69.0902592,115.116749 C57.5017192,115.116749 48.0378358,106.530219 47.4449506,95.7272849 C47.4263093,96.1002573 47.414488,96.4747604 47.414488,96.8518146 C47.414488,109.842582 58.5674575,120.373568 72.3256661,120.373568 C86.0834201,120.373568 97.2363897,109.842582 97.2363897,96.8518146 C97.2363897,83.8615575 86.0834201,73.3305713 72.3256661,73.3305713" id="Fill-45" fill="#919191"></path>
                <path d="M245.821224,112.927845 C245.821224,134.462283 229.713299,151.918515 209.843463,151.918515 C189.973627,151.918515 173.865702,134.462283 173.865702,112.927845 C173.865702,91.3939167 189.973627,73.9371745 209.843463,73.9371745 C229.713299,73.9371745 245.821224,91.3939167 245.821224,112.927845" id="Fill-47" fill="#D8D8D8"></path>
                <path d="M221.244362,75.94745 C235.524073,81.1160008 245.820906,95.7139681 245.820906,112.927845 C245.820906,134.461772 229.713435,151.918515 209.843599,151.918515 C204.052057,151.918515 198.584238,150.427135 193.737947,147.791837 C199.722268,152.555782 207.071043,155.372209 215.021796,155.372209 C235.102143,155.372209 251.381022,137.459328 251.381022,115.362115 C251.381022,95.601209 238.358464,79.1970551 221.244362,75.94745" id="Fill-49" fill="#FDFCFC"></path>
                <path d="M209.843645,73.9369704 C205.248785,73.9369704 200.860344,74.8803713 196.820177,76.5819623 C199.479976,75.7860157 202.277994,75.3513063 205.171037,75.3513063 C222.460186,75.3513063 236.475736,90.5411314 236.475736,109.278531 C236.475736,128.015931 222.460186,143.205756 205.171037,143.205756 C188.434308,143.205756 174.766123,128.971067 173.909532,111.063799 C173.882706,111.681678 173.865884,112.302618 173.865884,112.92764 C173.865884,134.462078 189.973809,151.918821 209.843645,151.918821 C229.71348,151.918821 245.820951,134.462078 245.820951,112.92764 C245.820951,91.3937126 229.71348,73.9369704 209.843645,73.9369704" id="Fill-51" fill="#919191"></path>
                <path d="M142.220185,187.435235 C142.220185,197.191193 134.922333,205.100148 125.920391,205.100148 C116.918448,205.100148 109.620596,197.191193 109.620596,187.435235 C109.620596,177.678766 116.918448,169.770322 125.920391,169.770322 C134.922333,169.770322 142.220185,177.678766 142.220185,187.435235" id="Fill-53" fill="#D8D8D8"></path>
                <path d="M131.085629,170.681119 C137.555079,173.022529 142.220412,179.636539 142.220412,187.435286 C142.220412,197.191244 134.92256,205.100199 125.920618,205.100199 C123.296737,205.100199 120.819714,204.424154 118.623675,203.230234 C121.334851,205.388474 124.664374,206.66454 128.266697,206.66454 C137.364119,206.66454 144.739265,198.548946 144.739265,188.537876 C144.739265,179.585007 138.839057,172.153621 131.085629,170.681119" id="Fill-55" fill="#FDFCFC"></path>
                <path d="M125.920572,169.770322 C123.838654,169.770322 121.850398,170.197888 120.020365,170.968834 C121.225231,170.608107 122.492842,170.411161 123.803645,170.411161 C131.63664,170.411161 137.986058,177.293038 137.986058,185.781605 C137.986058,194.271192 131.63664,201.152558 123.803645,201.152558 C116.221172,201.152558 110.028614,194.70335 109.640329,186.590307 C109.628507,186.870419 109.620778,187.152061 109.620778,187.435235 C109.620778,197.191193 116.918175,205.100148 125.920572,205.100148 C134.922515,205.100148 142.220367,197.191193 142.220367,187.435235 C142.220367,177.679276 134.922515,169.770322 125.920572,169.770322" id="Fill-57" fill="#919191"></path>
                <path d="M250.961092,201.002961 C250.961092,207.002664 246.393967,211.866612 240.760649,211.866612 C235.126876,211.866612 230.559751,207.002664 230.559751,201.002961 C230.559751,195.002748 235.126876,190.13931 240.760649,190.13931 C246.393967,190.13931 250.961092,195.002748 250.961092,201.002961" id="Fill-59" fill="#D8D8D8"></path>
                <path d="M243.99301,190.699126 C248.041815,192.139483 250.961229,196.206465 250.961229,201.002553 C250.961229,207.002766 246.394104,211.866714 240.760331,211.866714 C239.11853,211.866714 237.568117,211.450373 236.194115,210.716674 C237.890931,212.043761 239.974212,212.828993 242.228449,212.828993 C247.921783,212.828993 252.537558,207.83749 252.537558,201.681149 C252.537558,196.175341 248.845211,191.604771 243.99301,190.699126" id="Fill-61" fill="#FDFCFC"></path>
                <path d="M240.760513,190.139106 C239.457893,190.139106 238.213471,190.401871 237.068166,190.875867 C237.822003,190.654431 238.615396,190.532998 239.435615,190.532998 C244.337829,190.532998 248.311614,194.765291 248.311614,199.985884 C248.311614,205.206478 244.337829,209.438771 239.435615,209.438771 C234.69026,209.438771 230.815137,205.472814 230.572346,200.483351 C230.564616,200.655806 230.56007,200.828771 230.56007,201.002757 C230.56007,207.00246 235.12674,211.866408 240.760513,211.866408 C246.394285,211.866408 250.960956,207.00246 250.960956,201.002757 C250.960956,195.003054 246.394285,190.139106 240.760513,190.139106" id="Fill-63" fill="#919191"></path>
            </g>
        </g>
    </g>
</svg>