<?xml version="1.0" encoding="UTF-8"?> <svg width="239px" height="45px" viewBox="0 0 239 45" version="1.1" xmlns="http://www.w3.org/2000/svg" xmlns:xlink="http://www.w3.org/1999/xlink"> <g id="ym-1" stroke="none" stroke-width="1" fill="none" fill-rule="evenodd"> <g id="Airdrop-3zc" transform="translate(-273.000000, -51.000000)"> <g id="bz-2" transform="translate(273.000000, 51.000000)"> <path d="M26.2462545,43.7407552 C37.4812892,42.6709167 46.3239628,38.9588271 45.390119,28.9402354 C45.1964927,26.8630744 44.6016295,24.7306003 43.6817698,22.6640398 C49.2089955,13.3842237 43.4093483,2.30394771 41.1515843,1.07469349 C39.6816376,0.27448909 34.6742449,6.0785532 31.4069347,10.1217055 C28.7623214,8.96203432 25.9040468,8.3993906 22.9778685,8.67799438 C20.0518247,8.95659815 17.3476445,10.0489968 14.9638889,11.6875947 C11.0069192,8.33225389 5.0151248,3.57560407 3.71903839,4.63919097 C1.72804851,6.27303223 -1.92194272,18.2531305 5.22273528,26.3262524 C4.70101982,28.5300763 4.51075504,30.7374336 4.70424693,32.8145946 C5.63822516,42.8330505 15.0112198,44.8105936 26.2462545,43.7407552" id="Fill-1" fill="#FDFCFC"></path> <path d="M10.5934304,17.8497557 C7.3137972,22.3396512 5.6230836,27.8134836 6.07100472,32.492281 C6.23206426,34.1756543 6.66736402,35.6793075 7.37073051,37 C7.51477865,36.9900081 7.65896398,36.9786658 7.80342368,36.9652982 C21.6106437,35.6849786 24.7742152,27.5146704 23.8523071,17.8835123 C23.5753231,14.9907082 22.8014417,12.3105706 21.5896538,10 C17.4214494,11.0347068 13.5814004,13.7592681 10.5934304,17.8497557" id="Fill-3" fill="#FE9D26"></path> <path d="M44.9380656,29.2059617 C44.5063534,24.5231267 41.9044441,19.4520263 37.9779121,15.6408627 C34.5856983,12.3481071 30.692619,10.405834 26.7723015,10 C26.0738928,12.4637894 25.8426326,15.1989456 26.10523,18.0482975 C26.9879593,27.6243849 31.426067,35.0395381 44.5309471,33.8804178 C44.9560481,32.4516876 45.0934292,30.8920039 44.9380656,29.2059617" id="Fill-5" fill="#FE9D26"></path> <path d="M16.9734541,27.0269388 C15.59292,28.265522 13.4858025,28.3291617 12.0736112,27.1749701 C10.6574628,26.0173827 10.6402301,24.1671797 12.0341674,22.927213 C13.3732153,21.736045 15.5952177,21.6858627 16.9696246,22.8155292 C18.3419891,23.9435606 18.3436486,25.7975367 16.9734541,27.0269388" id="Fill-7" fill="#5C2F17"></path> <path d="M15.6988938,24.6863034 C15.3118687,25.0883708 14.6460241,25.1065869 14.271456,24.7256504 C13.8973765,24.345151 13.9120319,23.6596401 14.3023546,23.2781206 C14.675335,22.9136515 15.3158989,22.906365 15.6913219,23.2623818 C16.0999638,23.6500219 16.1032613,24.2663114 15.6988938,24.6863034" id="Fill-9" fill="#FDFCFC"></path> <path d="M36.9734541,25.0269388 C35.5930477,26.265522 33.4858025,26.3291617 32.0736112,25.1749701 C30.6574628,24.0173827 30.6402301,22.1671797 32.0341674,20.927213 C33.3732153,19.736045 35.5952177,19.6858627 36.9696246,20.8155292 C38.3419891,21.9435606 38.3436486,23.7975367 36.9734541,25.0269388" id="Fill-11" fill="#5C2F17"></path> <path d="M32.3374706,21.2763841 C32.7611529,20.887057 33.3689548,20.9116796 33.7507198,21.3335955 C34.1221272,21.7440691 34.0730205,22.3735392 33.6400774,22.7515689 C33.2407657,23.1004859 32.5927523,23.0789049 32.2550981,22.7055101 C31.8851529,22.29634 31.9218306,21.6583244 32.3374706,21.2763841" id="Fill-13" fill="#FDFCFC"></path> <path d="M18,10.3933836 C16.9532221,10.8448342 15.9503913,11.3955747 14.9993265,12.0325965 C11.0320853,8.75536528 5.02507626,4.10944628 3.72566962,5.14827377 C2.03882708,6.49678494 -0.835397305,15.0620012 2.63737107,22.4423754 C3.10636533,22.4379949 3.84389554,23.2027132 3.95322418,23.6613318 C4.26624651,24.9728083 4.91183821,27.5459838 6.44594419,26.8967498 C11.1375045,24.911084 17.1199786,15.1095223 18,10.3933836" id="Fill-15" fill="#FE9D26"></path> <path d="M13,15.1849878 C13,15.1849878 13,15.1849878 13,15.1848505 C11.9695206,13.2336487 7.76422575,9.34662727 5.39808967,8 C3.33564685,11.7673975 3.20019237,19.1685599 7.43300987,23.985791 C7.36271925,24.2850568 9.50597605,19.784259 11.2231718,17.3529135 C11.7791558,16.5656756 12.3734556,15.8423013 13,15.1849878" id="Fill-17" fill="#E56900"></path> <path d="M28,9.02948666 C29.1208431,9.28620569 30.2172699,9.65098836 31.279107,10.1120237 C34.5751697,6.07307719 39.626492,0.275381319 41.1093743,1.07459069 C43.0341914,2.11219172 47.5101032,10.177595 45.4858576,18.2461207 C45.0214056,18.3298836 45.653923,19.2837217 45.1746856,19.3289292 C44.9145165,19.3533657 43.5548008,22.9781135 43.2965308,22.9904676 C36.3922838,23.3230755 30.2640678,14.8790422 28,9.02948666" id="Fill-19" fill="#FE9D26"></path> <path d="M35,12.8592949 L35,12.859159 C35.633566,10.6262269 39.0775402,5.85636005 41.1464869,4 C43.808432,7.52518152 45.4425226,15.1506628 42.2134854,20.9851508 C42.3414513,21.2841254 39.3462826,16.9945203 37.1766999,14.7837396 C36.4742402,14.0678315 35.7465859,13.4261234 35,12.8592949" id="Fill-21" fill="#E56900"></path> <path d="M4.52170601,5.89123457 C3.94204016,6.58617799 2.76258209,9.14206286 2.46375228,12.9259726 C2.19091347,16.3814493 2.63129424,21.3647252 6.27949706,25.4817772 C6.54180619,25.7776495 6.64363758,26.184659 6.5520693,26.5708134 C6.05264231,28.6775751 5.88909897,30.7057605 6.06570446,32.5991281 C6.45596926,36.7803598 8.45501006,39.5671301 12.177054,41.1186098 C15.4571177,42.4861616 20.1460266,42.8918255 26.112493,42.3242996 C32.0792259,41.7567737 36.6103229,40.4743912 39.5798275,38.5125383 C42.9491936,36.2865666 44.3973585,33.1719014 44.007227,28.9906697 C43.8304883,27.0971675 43.2945406,25.1355837 42.4141789,23.160276 C42.2527682,22.7980712 42.2775596,22.3790869 42.4804226,22.0389481 C45.3026449,17.3064708 44.8133478,12.3277696 43.9059288,8.98450647 C42.912273,5.3235741 41.2807049,3.03503727 40.5826801,2.46159121 C40.0800542,2.65466843 38.0786142,3.83291036 32.2698266,11.0122882 C31.9302109,11.4319452 31.3556099,11.572683 30.8632472,11.3571362 C28.2825412,10.2269281 25.6695797,9.77753581 23.097804,10.0225488 C20.5257617,10.2670236 18.0420888,11.2007907 15.7159613,12.7977478 C15.2721151,13.1027695 14.681653,13.072496 14.2703288,12.7241498 C7.23529927,6.766204 5.05125589,5.98622587 4.52170601,5.89123457 M21.1504786,45.0000673 C17.1582617,45.0000673 13.8957919,44.4555492 11.2612379,43.3572291 C6.7036168,41.4572686 4.15210072,37.9140662 3.67719857,32.8262461 C3.49299572,30.8533603 3.62934848,28.767319 4.08225825,26.6169636 C1.07383379,22.9522639 -0.347673756,18.0493135 0.0721807935,12.7335682 C0.377408387,8.86785285 1.69575167,5.06093527 3.13871845,3.87825323 C4.23807094,2.97745047 5.9801341,3.49478977 9.15196861,5.66438566 C10.7747398,6.77441146 12.7833773,8.33019672 15.1306974,10.2948751 C17.5755838,8.76963238 20.1760162,7.86761869 22.872682,7.61130364 C25.5694811,7.3544504 28.2909383,7.75056142 30.9750751,8.78793099 C32.9174689,6.4153013 34.6030183,4.50820969 35.9918705,3.11172996 C38.7063967,0.382546521 40.322237,-0.45434566 41.5688718,0.223375548 C43.2052382,1.11301077 45.2048122,4.60454648 46.2197939,8.34459341 C47.6157103,13.487713 47.1264131,18.5724384 44.8489354,22.7398117 C45.6917101,24.7669206 46.2116633,26.7905313 46.3958662,28.7634171 C46.8706351,33.8513718 45.0194097,37.8132893 40.893639,40.5389745 C37.5477315,42.7494731 32.7864476,44.1221378 26.337615,44.7355448 C24.4857232,44.9116689 22.7588548,45.0000673 21.1504786,45.0000673" id="Fill-23" fill="#5C2F17"></path> <path d="M28.5170963,34.8765697 C26.6080348,36.3860898 24.141575,36.3665583 22.2015164,34.865249 C21.7648147,34.5272429 21.3814662,34.1566429 21.1403476,33.7102808 C20.8855135,33.2382914 20.9753501,32.8076042 21.4291962,32.4020467 C22.0000356,31.8919896 22.7284663,31.586453 23.5352124,31.3728511 C25.1037179,30.9574656 26.6768866,30.8668994 28.2570503,31.2144846 C28.584028,31.2865146 28.8878265,31.3938754 29.1718746,31.5305956 C29.9162152,31.8887551 30.1482816,32.3614909 29.9103176,33.0276752 C29.6510945,33.7532002 29.1181098,34.3624074 28.5170963,34.8765697" id="Fill-25" fill="#5C2F17"></path> <path d="M77.7954545,37.3977273 C79.9261364,37.3977273 81.7964015,37.0710227 83.40625,36.4176136 C85.0160985,35.7642045 86.3678977,34.9000947 87.4616477,33.8252841 C88.5553977,32.7504735 89.4005682,31.5762311 89.9971591,30.3025568 C90.59375,29.0288826 90.9393939,27.7765152 91.0340909,26.5454545 L91.0340909,26.5454545 L83.0227273,26.4886364 C82.9280303,27.1136364 82.7457386,27.6747159 82.4758523,28.171875 C82.2059659,28.6690341 81.8579545,29.092803 81.4318182,29.4431818 C81.0056818,29.7935606 80.5037879,30.0610795 79.9261364,30.2457386 C79.3484848,30.4303977 78.6950758,30.5227273 77.9659091,30.5227273 C76.6875,30.5227273 75.59375,30.2220644 74.6846591,29.6207386 C73.7755682,29.0194129 73.0819129,28.1197917 72.6036932,26.921875 C72.1254735,25.7239583 71.8863636,24.2348485 71.8863636,22.4545455 C71.8863636,20.7689394 72.1207386,19.3248106 72.5894886,18.1221591 C73.0582386,16.9195076 73.7495265,15.9962121 74.6633523,15.3522727 C75.577178,14.7083333 76.6969697,14.3863636 78.0227273,14.3863636 C78.780303,14.3863636 79.4573864,14.4928977 80.0539773,14.7059659 C80.6505682,14.9190341 81.1595644,15.2220644 81.5809659,15.6150568 C82.0023674,16.0080492 82.3338068,16.4744318 82.5752841,17.0142045 C82.8167614,17.5539773 82.9659091,18.155303 83.0227273,18.8181818 L83.0227273,18.8181818 L91.0340909,18.8181818 C90.8825758,17.0094697 90.4517045,15.4043561 89.7414773,14.0028409 C89.03125,12.6013258 88.09375,11.4199811 86.9289773,10.4588068 C85.7642045,9.49763258 84.4100379,8.76609848 82.8664773,8.26420455 C81.3229167,7.76231061 79.6325758,7.51136364 77.7954545,7.51136364 C75.1818182,7.51136364 72.8143939,8.08191288 70.6931818,9.22301136 C68.5719697,10.3641098 66.8863636,12.0449811 65.6363636,14.265625 C64.3863636,16.4862689 63.7613636,19.2159091 63.7613636,22.4545455 C63.7613636,25.6742424 64.3745265,28.3967803 65.6008523,30.6221591 C66.827178,32.8475379 68.4985795,34.5331439 70.6150568,35.6789773 C72.7315341,36.8248106 75.125,37.3977273 77.7954545,37.3977273 Z" id="lj" fill="#E56900" fill-rule="nonzero"></path> <path d="M108.534091,37.3977273 C110.664773,37.3977273 112.535038,37.0710227 114.144886,36.4176136 C115.754735,35.7642045 117.106534,34.9000947 118.200284,33.8252841 C119.294034,32.7504735 120.139205,31.5762311 120.735795,30.3025568 C121.332386,29.0288826 121.67803,27.7765152 121.772727,26.5454545 L121.772727,26.5454545 L113.761364,26.4886364 C113.666667,27.1136364 113.484375,27.6747159 113.214489,28.171875 C112.944602,28.6690341 112.596591,29.092803 112.170455,29.4431818 C111.744318,29.7935606 111.242424,30.0610795 110.664773,30.2457386 C110.087121,30.4303977 109.433712,30.5227273 108.704545,30.5227273 C107.426136,30.5227273 106.332386,30.2220644 105.423295,29.6207386 C104.514205,29.0194129 103.820549,28.1197917 103.34233,26.921875 C102.86411,25.7239583 102.625,24.2348485 102.625,22.4545455 C102.625,20.7689394 102.859375,19.3248106 103.328125,18.1221591 C103.796875,16.9195076 104.488163,15.9962121 105.401989,15.3522727 C106.315814,14.7083333 107.435606,14.3863636 108.761364,14.3863636 C109.518939,14.3863636 110.196023,14.4928977 110.792614,14.7059659 C111.389205,14.9190341 111.898201,15.2220644 112.319602,15.6150568 C112.741004,16.0080492 113.072443,16.4744318 113.31392,17.0142045 C113.555398,17.5539773 113.704545,18.155303 113.761364,18.8181818 L113.761364,18.8181818 L121.772727,18.8181818 C121.621212,17.0094697 121.190341,15.4043561 120.480114,14.0028409 C119.769886,12.6013258 118.832386,11.4199811 117.667614,10.4588068 C116.502841,9.49763258 115.148674,8.76609848 113.605114,8.26420455 C112.061553,7.76231061 110.371212,7.51136364 108.534091,7.51136364 C105.920455,7.51136364 103.55303,8.08191288 101.431818,9.22301136 C99.3106061,10.3641098 97.625,12.0449811 96.375,14.265625 C95.125,16.4862689 94.5,19.2159091 94.5,22.4545455 C94.5,25.6742424 95.1131629,28.3967803 96.3394886,30.6221591 C97.5658144,32.8475379 99.2372159,34.5331439 101.353693,35.6789773 C103.47017,36.8248106 105.863636,37.3977273 108.534091,37.3977273 Z" id="lj" fill="#E56900" fill-rule="nonzero"></path> <path d="M136.431818,7.90909091 L136.955691,7.91511187 C139.727265,7.97933542 142.140235,8.55734737 144.194602,9.64914773 C146.377367,10.8091856 148.062973,12.4758523 149.25142,14.6491477 C150.439867,16.8224432 151.034091,19.4242424 151.034091,22.4545455 C151.034091,25.4848485 150.442235,28.0866477 149.258523,30.2599432 C148.074811,32.4332386 146.398674,34.0999053 144.230114,35.2599432 C142.061553,36.4199811 139.5,37 136.545455,37 L136.545455,37 L125.352273,37 L125.352273,7.90909091 L136.431818,7.90909091 Z M136.034091,14.6136364 L133.25,14.6136364 L133.25,30.2954545 L136.261364,30.2954545 C137.700758,30.2954545 138.929451,30.063447 139.947443,29.5994318 C140.965436,29.1354167 141.741951,28.3352273 142.276989,27.1988636 C142.812027,26.0625 143.079545,24.4810606 143.079545,22.4545455 C143.079545,20.4280303 142.807292,18.8465909 142.262784,17.7102273 C141.718277,16.5738636 140.922822,15.7736742 139.87642,15.3096591 C138.830019,14.8456439 137.549242,14.6136364 136.034091,14.6136364 L136.034091,14.6136364 Z" id="形状结合" fill="#28216B" fill-rule="nonzero"></path> <path d="M168.704545,7.51136364 C171.337121,7.51136364 173.723485,8.08191288 175.863636,9.22301136 C178.003788,10.3641098 179.703598,12.0449811 180.963068,14.265625 C182.222538,16.4862689 182.852273,19.2159091 182.852273,22.4545455 C182.852273,25.6931818 182.222538,28.422822 180.963068,30.6434659 C179.703598,32.8641098 178.003788,34.5449811 175.863636,35.6860795 C173.723485,36.827178 171.337121,37.3977273 168.704545,37.3977273 C166.05303,37.3977273 163.659564,36.8224432 161.524148,35.671875 C159.388731,34.5213068 157.693655,32.8357008 156.43892,30.6150568 C155.184186,28.3944129 154.556818,25.6742424 154.556818,22.4545455 C154.556818,19.2159091 155.184186,16.4862689 156.43892,14.265625 C157.693655,12.0449811 159.388731,10.3641098 161.524148,9.22301136 C163.659564,8.08191288 166.05303,7.51136364 168.704545,7.51136364 Z M168.704545,14.3863636 C167.397727,14.3863636 166.296875,14.6964962 165.401989,15.3167614 C164.507102,15.9370265 163.830019,16.8461174 163.370739,18.0440341 C162.911458,19.2419508 162.681818,20.7121212 162.681818,22.4545455 C162.681818,24.1969697 162.911458,25.6671402 163.370739,26.8650568 C163.830019,28.0629735 164.507102,28.9720644 165.401989,29.5923295 C166.296875,30.2125947 167.397727,30.5227273 168.704545,30.5227273 C170.011364,30.5227273 171.112216,30.2125947 172.007102,29.5923295 C172.901989,28.9720644 173.579072,28.0629735 174.038352,26.8650568 C174.497633,25.6671402 174.727273,24.1969697 174.727273,22.4545455 C174.727273,20.7121212 174.497633,19.2419508 174.038352,18.0440341 C173.579072,16.8461174 172.901989,15.9370265 172.007102,15.3167614 C171.112216,14.6964962 170.011364,14.3863636 168.704545,14.3863636 Z" id="形状结合" fill="#28216B" fill-rule="nonzero"></path> <path d="M200.636364,37.3977273 C203.174242,37.3977273 205.425663,36.8982008 207.390625,35.8991477 C209.355587,34.9000947 210.899148,33.4607008 212.021307,31.5809659 C213.143466,29.7012311 213.704545,27.4356061 213.704545,24.7840909 L213.704545,24.7840909 L213.704545,20.75 L200.806818,20.75 L200.806818,26.375 L206.087,26.375 L206.083544,26.5191498 C206.049172,27.1771184 205.894501,27.766344 205.619529,28.2868266 L205.494318,28.5056818 C205.096591,29.1496212 204.497633,29.6467803 203.697443,29.9971591 C202.897254,30.3475379 201.895833,30.5227273 200.693182,30.5227273 C199.329545,30.5227273 198.188447,30.2007576 197.269886,29.5568182 C196.351326,28.9128788 195.660038,27.9848485 195.196023,26.7727273 C194.732008,25.5606061 194.5,24.1022727 194.5,22.3977273 C194.5,20.7121212 194.743845,19.2727273 195.231534,18.0795455 C195.719223,16.8863636 196.429451,15.9725379 197.362216,15.3380682 C198.294981,14.7035985 199.424242,14.3863636 200.75,14.3863636 C201.36553,14.3863636 201.931345,14.4550189 202.447443,14.5923295 C202.963542,14.7296402 203.418087,14.9332386 203.81108,15.203125 C204.204072,15.4730114 204.533144,15.7997159 204.798295,16.1832386 C205.063447,16.5667614 205.257576,17.0094697 205.380682,17.5113636 L205.380682,17.5113636 L213.363636,17.5113636 C213.212121,16.0530303 212.785985,14.7130682 212.085227,13.4914773 C211.38447,12.2698864 210.463542,11.2116477 209.322443,10.3167614 C208.181345,9.421875 206.869792,8.73058712 205.387784,8.24289773 C203.905777,7.75520833 202.30303,7.51136364 200.579545,7.51136364 C198.619318,7.51136364 196.782197,7.84043561 195.068182,8.49857955 C193.354167,9.15672348 191.84375,10.1273674 190.536932,11.4105114 C189.230114,12.6936553 188.209754,14.2632576 187.475852,16.1193182 C186.741951,17.9753788 186.375,20.1060606 186.375,22.5113636 C186.375,25.5795455 186.973958,28.2263258 188.171875,30.4517045 C189.369792,32.6770833 191.038826,34.3910985 193.178977,35.59375 C195.319129,36.7964015 197.804924,37.3977273 200.636364,37.3977273 Z" id="lj" fill="#28216B" fill-rule="nonzero"></path> <polygon id="lj" fill="#28216B" fill-rule="nonzero" points="238.306818 37 238.306818 30.6363636 225.295455 30.6363636 225.295455 25.6363636 237.284091 25.6363636 237.284091 19.2727273 225.295455 19.2727273 225.295455 14.2727273 238.363636 14.2727273 238.363636 7.90909091 217.397727 7.90909091 217.397727 37"></polygon> </g> </g> </g> </svg>