<svg xmlns="http://www.w3.org/2000/svg" viewBox="0 0 350.55 304"><defs><style>.a{opacity:0.1;}.b{fill:#8ac2ff;}.c{fill:#fff;}.d{fill:#fe9d26;}.e{fill:#e56900;}.f{fill:#5c2f17;}.g{fill:#e6e6e6;}.h{fill:#301408;}.i{fill:#fdfcfc;}.j{fill:#9f3bed;}.k{fill:#7c10d0;}.l{fill:#111;}.m{fill:none;}.n{fill:#d3d3d3;}.o{fill:#c10c0c;}.p{fill:#a50404;}.q{fill:#424256;}.r{fill:#cccce3;}.s{opacity:0.7;}.t{fill:#e54013;}</style></defs><g class="a"><ellipse cx="177.8" cy="296.24" rx="160.49" ry="7.76"/></g><path class="b" d="M299.93,282.43a163.41,163.41,0,0,0,45.12-113c0-90.4-73.12-163.7-163.32-163.7S18.46,79,18.46,169.41a163.36,163.36,0,0,0,45.11,113Z" transform="translate(0)"/><path class="c" d="M302.28,287.93H61.22l-1.63-1.71A168.08,168.08,0,0,1,13,169.41C13,76.12,88.67.21,181.73.21s168.82,75.91,168.82,169.2a168.11,168.11,0,0,1-46.64,116.81ZM66,276.93H297.6a157.16,157.16,0,0,0,42-107.51c0-87.24-70.8-158.21-157.82-158.21S24,82.18,24,169.41A157.14,157.14,0,0,0,66,276.93Z" transform="translate(0)"/><path class="d" d="M282.14,95.12s11.49-11.51,17.95-8.9,1.46,22.8,1.46,22.8" transform="translate(0)"/><path class="e" d="M301.55,109a74.46,74.46,0,0,0,1.71-10.49A18.4,18.4,0,0,1,292,87.67a48.86,48.86,0,0,0-9.83,7.45Z" transform="translate(0)"/><path class="f" d="M281.64,94.56a34.06,34.06,0,0,1,3.87-4.27c.71-.64,1.43-1.29,2.19-1.9a28.7,28.7,0,0,1,2.39-1.7,20.83,20.83,0,0,1,2.65-1.48,14.52,14.52,0,0,1,3-1.08,9.27,9.27,0,0,1,3.52-.2,7.34,7.34,0,0,1,1.89.56,4.7,4.7,0,0,1,1,.57,5.27,5.27,0,0,1,.79.7A8.12,8.12,0,0,1,304.66,89a13.41,13.41,0,0,1,.54,3.15,28.67,28.67,0,0,1-.19,6,48.25,48.25,0,0,1-2.8,11.09.65.65,0,0,1-1.2,0A.58.58,0,0,1,301,109h0c.31-3.71.64-7.43.69-11.09V95.18a24.34,24.34,0,0,0-.23-2.56,12.83,12.83,0,0,0-.55-2.36,4.55,4.55,0,0,0-.9-1.64,1.33,1.33,0,0,0-.26-.21c-.07-.09-.18-.09-.25-.15a3.11,3.11,0,0,0-.79-.23,5.89,5.89,0,0,0-2.05.1A18.07,18.07,0,0,0,292,89.9a88.46,88.46,0,0,0-9.21,5.86h0a.82.82,0,0,1-.78.17.81.81,0,0,1-.53-.6.8.8,0,0,1,.24-.76Z" transform="translate(0)"/><path class="d" d="M202.05,147.45c-3.68-9.39-27.61-13.74-29,2.79-1.39,16.38,11.53,22,26.39,22h88.32c26.29,0,40.87-25,23.25-36.48,3.28-13.42-11.74-52.71-51.18-41.18l-29.25,15.26-1.25,12" transform="translate(0)"/><path class="c" d="M199.45,172.24c-9.72,0-18.61-2.4-23.22-8.62a15.65,15.65,0,0,1-2.06-3.79,16.85,16.85,0,0,1-.69-2.19,24.2,24.2,0,0,1-.45-7.4,13.25,13.25,0,0,1,1.43-5.12,10.37,10.37,0,0,1,.62-1c3.92-5.71,12.53-6,19.07-3.41-10.48,3.12-8.25,25,7,25h-16c29.8,0,18.83,7.54,18.83,7.54Z" transform="translate(0)"/><path class="e" d="M187.72,165.69a13,13,0,0,1-1.85-2.62c3.41,0,6.91-14.25,6.91-14.25-1.7-1.07,1-7.59,7.21-9.46-9.23-2-21.89-.85-23.51,13.44-.65,5.88.16,10,1.81,12.89Z" transform="translate(0)"/><path class="c" d="M213.54,172.24h-6.91c-4.63,0-15.91,0-21.51-6.55-2.12-2.47-3.4-5.87-3.26-10.53a10.22,10.22,0,0,1,.11-1.82c1.35-12.76,11.24-14.59,19.31-13.25-16,9.31-2.89,30.54,13.51,30.54C219.31,170.63,206.91,172.24,213.54,172.24Z" transform="translate(0)"/><path class="c" d="M287.74,172.25H263.82c-7.45-19.5,20.43-39.89,47.85-36C328.2,148,313.69,172.25,287.74,172.25Z" transform="translate(0)"/><path class="e" d="M263.82,172.25a18.41,18.41,0,0,1-1.25-7c-24.54-.3-22.64-22.52-27.11-22.1s-3.25,18-14.64,18.89c-3.66.29-11.16.57-20.13.79h0l-1.89,0h.14a20.36,20.36,0,0,0,15.84,7.74c4.53.07-7.87,1.61-1.25,1.61h50.29" transform="translate(0)"/><g class="a"><path d="M180.34,140.67c7.52,3.09-10.48,25,20.85,25H185.1a13.35,13.35,0,0,1-1.7-2.51c3.1,0-8.85-22.11,6.16-20.44,7.4.85-10.45,20.15,9.36,20.15a20.36,20.36,0,0,0,15.84,7.74c4.53.07-7.76,1.61-7.76,1.61H191l-15.56-9-2.91-14.88S177.78,139.63,180.34,140.67Z" transform="translate(0)"/></g><path class="g" d="M263.82,172.25s27.47,2.56,35.63-1,18.35-11.55,19.25-17.92-3.92-13.57-3.92-13.57c-.42-.8-7.36,2.82-7.61,2.56,0,0,.5,15.9-14.39,18.81-10.22,2-30,4.17-30.2,4.18A19.14,19.14,0,0,0,263.82,172.25Z" transform="translate(0)"/><path class="c" d="M273.42,93.38c8.4,3.78,16.07,10.23,21,22.81,3.95,10.09,2.44,19.58-3.76,21.56-9.89,7.53,17.73-1.85,17.73-1.85a35.09,35.09,0,0,1-4.06-12.52c-1.19-8.54-4.54-22.07-23.22-28.86" transform="translate(0)"/><path class="d" d="M229.75,126.71S227.89,86,238.53,81.85c6.81-2.63,23.37,17.47,23.37,17.47" transform="translate(0)"/><path class="f" d="M229,126.75a191.58,191.58,0,0,1-.18-19.47c.15-3.25.4-6.51.85-9.77a49.23,49.23,0,0,1,2.2-9.74A17.84,17.84,0,0,1,234.28,83a10,10,0,0,1,2.11-2.11,10.7,10.7,0,0,1,1.4-.79,5.64,5.64,0,0,1,1.77-.41,8.38,8.38,0,0,1,3.1.43,16.76,16.76,0,0,1,2.55,1.07A35.47,35.47,0,0,1,249.56,84a79.21,79.21,0,0,1,7.55,6.51c2.36,2.3,4.61,4.64,6.81,7.16a2.64,2.64,0,0,1-.33,3.61,2.61,2.61,0,0,1-3.61-.13l-.08-.09h0c-1.93-2.43-4-4.86-6.19-7.14a70.47,70.47,0,0,0-6.81-6.46,28.66,28.66,0,0,0-3.66-2.62,13,13,0,0,0-1.86-.85,4.38,4.38,0,0,0-1.63-.35,2.33,2.33,0,0,0-.59.08c-.24.11-.47.23-.7.36a6.37,6.37,0,0,0-1.34,1.2A14.44,14.44,0,0,0,235,89a46,46,0,0,0-2.48,9c-.57,3.11-1,6.29-1.28,9.47q-.86,9.59-.75,19.23h0a.7.7,0,0,1-.21.53.72.72,0,0,1-.53.23.77.77,0,0,1-.76-.72Z" transform="translate(0)"/><path class="e" d="M239.73,116.89s-2.3-24.52,2.32-25.29,11.06,10.9,11.06,10.9A32.5,32.5,0,0,0,239.73,116.89Z" transform="translate(0)"/><path class="f" d="M210,144a25.88,25.88,0,0,0-8.31-2.56,22.77,22.77,0,0,0-8.51.22,11.39,11.39,0,0,0-6.63,4.09,12.52,12.52,0,0,0-1.83,3.49,20.1,20.1,0,0,0-.86,4.06,17,17,0,0,0,.86,8,11.85,11.85,0,0,0,5.1,5.77,24.38,24.38,0,0,0,7.94,2.77,59.19,59.19,0,0,0,8.81.85,1.5,1.5,0,0,1,0,3h0a51.48,51.48,0,0,1-9.37-.32,26.11,26.11,0,0,1-9.3-3,15.49,15.49,0,0,1-6.81-7.63,20.5,20.5,0,0,1-1-10,23.78,23.78,0,0,1,1.15-4.85,15.85,15.85,0,0,1,2.55-4.49,13.85,13.85,0,0,1,4-3.3,15.59,15.59,0,0,1,4.78-1.65,24,24,0,0,1,9.63.39,32.32,32.32,0,0,1,4.5,1.45,19.51,19.51,0,0,1,4.25,2.27.85.85,0,0,1-.85,1.38Z" transform="translate(0)"/><path class="h" d="M281.39,129.54a6.7,6.7,0,0,1-9.41-.66,6.24,6.24,0,0,1,.27-8.81c.14-.13.29-.25.44-.37a6.91,6.91,0,0,1,9.46.75,6.23,6.23,0,0,1-.42,8.8c-.11.1-.22.2-.34.29Z" transform="translate(0)"/><path class="i" d="M280.07,127.77a2.14,2.14,0,0,1-2.86-.23,1.87,1.87,0,0,1,.29-2.69,2.18,2.18,0,0,1,2.78.27,1.69,1.69,0,0,1,.08,2.4,1.37,1.37,0,0,1-.29.25Z" transform="translate(0)"/><path class="h" d="M308,128.22a3.67,3.67,0,0,1-5.11-.37,3.41,3.41,0,0,1,.18-4.82l.21-.18a3.78,3.78,0,0,1,5.18.41,3.42,3.42,0,0,1-.26,4.83l-.2.17Z" transform="translate(0)"/><path class="i" d="M306.41,127.64a1.18,1.18,0,0,1-1.57-.13,1,1,0,0,1,0-1.41l.12-.1a1.17,1.17,0,0,1,1.52.15.92.92,0,0,1,.27.75A1,1,0,0,1,306.41,127.64Z" transform="translate(0)"/><path class="f" d="M201.41,147.7a11.15,11.15,0,0,0-4.63-4.37,20.89,20.89,0,0,0-6.18-2.18,20.41,20.41,0,0,0-6.43-.2,12.17,12.17,0,0,0-5.61,2.17,9,9,0,0,0-3.19,4.75,12.7,12.7,0,0,0-.49,3,22.17,22.17,0,0,0,0,3.26,18.48,18.48,0,0,0,.49,3.14,14.53,14.53,0,0,0,1.06,2.94,14.19,14.19,0,0,0,3.83,4.8c3.25,2.66,7.58,4,11.92,4.73a47.2,47.2,0,0,0,6.72.54h7l28.1.11,28.09.13,14,.06h7c2.32,0,4.72.06,6.92-.06a35.06,35.06,0,0,0,13-3.23,27.74,27.74,0,0,0,10.33-8.17c2.64-3.48,4.26-7.81,3.7-12a12.76,12.76,0,0,0-2.27-5.77,17.09,17.09,0,0,0-4.65-4.36,1.61,1.61,0,0,1-.7-1.71v-.06h0a24.13,24.13,0,0,0-.34-9,43.66,43.66,0,0,0-2.86-8.91,42.42,42.42,0,0,0-10.83-15,32.84,32.84,0,0,0-16.53-7.71,45.07,45.07,0,0,0-18.66,1.29h0a1.44,1.44,0,0,1-.8-2.75,45.54,45.54,0,0,1,20-2.07,35.8,35.8,0,0,1,18.53,8.34A44.32,44.32,0,0,1,309.73,116a45.72,45.72,0,0,1,2.9,9.77,32.49,32.49,0,0,1,.47,5.12,19.73,19.73,0,0,1-.58,5.3h0l-.68-1.71a20.55,20.55,0,0,1,5.49,5.23,16,16,0,0,1,2.77,7.21,17.58,17.58,0,0,1-.8,7.62,22.85,22.85,0,0,1-3.52,6.63,31.08,31.08,0,0,1-11.49,9.09,37.89,37.89,0,0,1-14.1,3.51c-2.46.12-4.76.07-7.1.09h-7l-14,.06L234,174l-28.09.11h-7a51.83,51.83,0,0,1-7.26-.54,34.24,34.24,0,0,1-7.18-1.83,23.44,23.44,0,0,1-6.62-3.75,17.86,17.86,0,0,1-4.82-6.12,20.15,20.15,0,0,1-1.9-7.47,26.35,26.35,0,0,1,0-3.77,16.32,16.32,0,0,1,.65-3.86,13.07,13.07,0,0,1,1.7-3.7,11.91,11.91,0,0,1,2.88-3,14.78,14.78,0,0,1,7.39-2.64,21.92,21.92,0,0,1,14.27,3.8,11.87,11.87,0,0,1,4.64,5.88.69.69,0,0,1-1.27.52Z" transform="translate(0)"/><path class="h" d="M311.52,141.68a7.65,7.65,0,0,1-10.43-1.27,6.87,6.87,0,0,1-1.5-2.32,1.92,1.92,0,0,1,.76-2.33c1.06-.85,5.57-.7,6.62-.67,1.58,0,6,.3,6.36.61a2,2,0,0,1,1,2.66,1.19,1.19,0,0,1-.12.22A8.22,8.22,0,0,1,311.52,141.68Z" transform="translate(0)"/><path class="c" d="M157.47,200.76l-4.72,6.17a10.89,10.89,0,0,0,8.62,17.53h75.48a10.9,10.9,0,0,0,8.62-17.53l-3.87-5" transform="translate(0)"/><path class="f" d="M158.2,201.31,155.86,205l-1.19,1.8-.59.91a10.13,10.13,0,0,0-1.34,7.8,9.55,9.55,0,0,0,1.57,3.1l.56.64a6.87,6.87,0,0,0,.63.58l.3.29.35.24a6.49,6.49,0,0,0,.7.46,9.16,9.16,0,0,0,3.14,1h1.78l2.15-.06c5.75-.09,11.51-.23,17.25-.21h8.63l8.62.07,8.62.06,8.63.17c5.75.07,11.5.24,17.25.41l2.16.06H238a6,6,0,0,0,.85-.12,9.22,9.22,0,0,0,1.71-.47,9.61,9.61,0,0,0,3-2,10.39,10.39,0,0,0,2.06-3,9.59,9.59,0,0,0,0-7.4,11.57,11.57,0,0,0-.9-1.75l-1.21-1.8-2.39-3.6a.52.52,0,0,1,.11-.74.53.53,0,0,1,.74.1l2.86,3.25c.48.55,1,1.08,1.43,1.65a14.64,14.64,0,0,1,1.31,2,11.9,11.9,0,0,1,.85,9.38A12.83,12.83,0,0,1,246,222a13.17,13.17,0,0,1-3.94,3.09,12.49,12.49,0,0,1-2.38.85,10.58,10.58,0,0,1-1.24.28l-1.26.13a5.92,5.92,0,0,0-1.15.07h-1l-2.15.06c-5.76.17-11.5.34-17.26.42L207,227l-8.62.07-8.63.07h-8.62c-5.75,0-11.5-.12-17.25-.22l-2.15-.06a7.05,7.05,0,0,1-1.24-.08c-.44-.08-.85-.07-1.31-.16a13.55,13.55,0,0,1-4.88-2,12.9,12.9,0,0,1-3.66-3.7,13.46,13.46,0,0,1-1.89-4.76,12.35,12.35,0,0,1,2.17-9.58c.25-.31.51-.69.74-.94l.71-.81,1.43-1.62,2.91-3.22a1,1,0,0,1,1.74.81.87.87,0,0,1-.2.45Z" transform="translate(0)"/><path class="d" d="M212.9,125.84c-5.5,0-10.65,2.5-15.05,6.83-4.4-4.33-9.54-6.83-15-6.83-20.63,0-33,28.16-33,54.8s16.82,41.57,33,41.57H213c16.17,0,33-15,33-41.57S233.53,125.84,212.9,125.84Z" transform="translate(0)"/><path class="c" d="M246.07,119.45A47.07,47.07,0,0,1,238,145.91c-11.92-.54-22.83,5.59-39.11,5.59-15.4,0-29.59-.78-39-7-6-5.66-8.13-14.39-8.13-25A47.27,47.27,0,0,1,190.42,73c2.75-.5,10.9.22,13.67,1.09C214,77.2,218,75.29,225.56,80.5a47.26,47.26,0,0,1,20.51,39Z" transform="translate(0)"/><g class="a"><path d="M225.56,80.46A23.18,23.18,0,0,0,215,76.33l-2.33,3S238.48,90.47,236.54,113C235,131.39,219.62,138.6,214,140.61a6.75,6.75,0,0,0-3.66-1c-4.44,0-10.76,3.65-14.22,5.89-3.27-2.26-9.15-5.85-13.49-5.85a6.55,6.55,0,0,0-4.25,1.42,7.26,7.26,0,0,0-1.16,1.19,107.22,107.22,0,0,1-21.85-3.83,21.52,21.52,0,0,0,4.5,6c9.43,6.19,23.62,7,39,7,16.28,0,27.25-6.13,39.11-5.59a47.35,47.35,0,0,0-12.45-65.43Z" transform="translate(0)"/></g><path class="d" d="M184.38,74.49c-9.6,3-30.9,17-31.69,42.93,26.45,0,32.35-6,38.62-14.1,4.56-5.92,9-16.76,10.67-26.55a26.83,26.83,0,0,0-5.54-2.15c-1.6-.44-3.79-3.58-5.78-3.69S186.63,73.8,184.38,74.49Z" transform="translate(0)"/><path class="d" d="M230.49,81.63c-5.23-2.8-24.65-7.07-24.65-7.07-1.87,10.85-4.61,22.28-.54,31.27,5.23,11.59,17.51,25.38,40.61,17.4-.15-12.7,0-22.18-10-33.42C233.86,87.57,233.52,83.25,230.49,81.63Z" transform="translate(0)"/><path class="d" d="M239.61,104.28c2.36-4.06,14.07-31.31,8.08-32.66s-26.64,8.29-26.64,8.29-17.37-6-25.47-5.71c-4.94-6.66-26.91-19.94-32.92-17.14s1,34.33,1,34.33l28.17.48L194,81.36l4-2.9,2.34-3,8,1.71-.41,9.6,25.67,19Z" transform="translate(0)"/><path class="e" d="M228.9,83s14.31-6.62,15.41-4.56-1.56,16.69-2.31,19.2S228.9,83,228.9,83Z" transform="translate(0)"/><path class="e" d="M232.7,125.6a39.56,39.56,0,0,0,13.19-2.37h0c0-3.68-.07-7.08-.32-10.34C245.31,97.22,228.88,83,228.88,83s9.58,7.47,7.66,30A30.28,30.28,0,0,1,232.7,125.6Z" transform="translate(0)"/><path class="f" d="M163.12,88.56a107.65,107.65,0,0,1-3.66-17.4,48.35,48.35,0,0,1-.4-9,17.56,17.56,0,0,1,.31-2.39,8,8,0,0,1,.92-2.56,4.35,4.35,0,0,1,1.18-1.31,5,5,0,0,1,1.57-.67,8.82,8.82,0,0,1,2.71-.19,22.88,22.88,0,0,1,4.7,1,40.26,40.26,0,0,1,4.25,1.6,69.92,69.92,0,0,1,8.06,4.07,85.75,85.75,0,0,1,7.55,5c1.2.91,2.39,1.86,3.54,2.89a23.5,23.5,0,0,1,3.29,3.4h0l-1.7-.81a36.44,36.44,0,0,1,7,.44c2.23.33,4.43.76,6.6,1.23s4.33,1,6.47,1.58,4.26,1.16,6.42,1.82h0l-2.08.11c4.62-1.91,9.21-3.62,14-5.12a72.93,72.93,0,0,1,7.28-1.94,26.8,26.8,0,0,1,3.89-.56,11,11,0,0,1,2.15,0,2.9,2.9,0,0,1,.59.09l.31.06a1.47,1.47,0,0,1,.42.13,3.25,3.25,0,0,1,1.5,1.14,4.72,4.72,0,0,1,.78,2.65,12.53,12.53,0,0,1-.15,2.12,28.6,28.6,0,0,1-.91,3.76c-.73,2.42-1.61,4.72-2.55,7-1.8,4.56-3.83,9-5.41,13.59h0a.65.65,0,0,1-.34.39.65.65,0,0,1-.51,0,.66.66,0,0,1-.42-.8c1.29-4.79,3-9.39,4.47-14,.73-2.32,1.43-4.64,2-7a24.51,24.51,0,0,0,.57-3.41,7.92,7.92,0,0,0,0-1.54,1.43,1.43,0,0,0-.24-.85v.08h-.46a8.46,8.46,0,0,0-1.51.1A25.1,25.1,0,0,0,242,74c-2.24.64-4.48,1.47-6.7,2.35-4.44,1.78-8.86,3.83-13.11,6a2.55,2.55,0,0,1-1.88.18l-.21-.07h0c-2-.73-4-1.45-6.07-2.12s-4.1-1.32-6.16-1.9-4.13-1.11-6.2-1.54a32.53,32.53,0,0,0-6.06-.77h-.11a2,2,0,0,1-1.57-.81h0A22.08,22.08,0,0,0,191,72.53c-1.05-.92-2.16-1.8-3.3-2.65a83.81,83.81,0,0,0-7.13-4.8c-2.46-1.46-5-2.89-7.53-4.09a41.44,41.44,0,0,0-3.9-1.6,17.91,17.91,0,0,0-3.87-1,6.12,6.12,0,0,0-1.71,0c-.55.13-.46.06-.77.43a5.11,5.11,0,0,0-.63,1.55,17.11,17.11,0,0,0-.36,2,55.22,55.22,0,0,0-.12,8.53c.15,2.9.42,5.81.77,8.72s.74,5.81,1.27,8.68h0a.44.44,0,0,1-.33.52.41.41,0,0,1-.51-.3v0Z" transform="translate(0)"/><path class="e" d="M185.77,74.05s-16.51-12.59-18-9.53-1.51,20.79-1.51,20.79Z" transform="translate(0)"/><path class="c" d="M195.8,202.38s-2.31-14.43-6.86-21c-6.09-8.8-19-8.34-20.51-20.35-2.3-18.36,24.18-14.81,27.81-6.31,1.42-16.4,28.69-7.1,29.91,3.76,1.59,14.25-17.18,17.29-22.2,28.93C202.29,191.07,200.66,189.37,195.8,202.38Z" transform="translate(0)"/><g class="a"><path d="M214.27,147.55c-2.55-2.23-10,2-13.88,4.47-1.24,0-2.42,0-3.61-.07a11.41,11.41,0,0,0-.54,2.72c-1.61-3.78-7.72-6.57-13.83-6.91a6.11,6.11,0,0,0-1.49,2.63c-2.36-.4-4.58-.85-6.61-1.34a12.72,12.72,0,0,0-1.16.6c2.23.75,4.68,1.48,7.43,2.18-.85,4.64.52,11.09,3.55,12.56,2.46,1.2,7.25-1.94,10.4-4.37a5.44,5.44,0,0,1,6.3-.27c3.62,2.36,9.29,5.53,11.79,4.14a6.07,6.07,0,0,0,2.28-3.41,4.07,4.07,0,0,1,4.26-2.75c2.24.22,4.58.45,7,.67-.34-3-2.68-5.9-5.92-8.16-1.5.26-3,.5-4.47.7a6,6,0,0,0-1.51-3.39Z" transform="translate(0)"/></g><path class="e" d="M245.11,163.23l-7-17.48s-3,2.81-13.54,3.72c3.1.86-6.09-.53-3.66,1.31,2.9,2.17,4.94,4.87,5.26,7.68,0,0,17.52.26,18.43,24.37.23,6.38.57,7.12.92,4.78a56.44,56.44,0,0,0,.41-7Z" transform="translate(0)"/><path class="f" d="M238.27,146.28c-1.53.77-3.11,1.47-4.68,2.17-.8.37-1.6.67-2.39,1a22.85,22.85,0,0,1-2.43.91,78.86,78.86,0,0,1-10,2.79,87.88,87.88,0,0,1-20.71,2c-1.7-.07-3.47-.11-5.21-.22s-3.46-.35-5.18-.56a91.32,91.32,0,0,1-10.22-2,65.71,65.71,0,0,1-19.14-8,.58.58,0,0,1-.17-.8.56.56,0,0,1,.63-.24h0a154.4,154.4,0,0,0,19.64,3.92c3.27.48,6.57.78,9.85,1.07,1.66.09,3.3.21,4.94.33l5,.12c1.64.08,3.29,0,4.94,0s3.3,0,4.94-.13,3.3-.2,4.95-.27c.85,0,1.65-.14,2.47-.22L218,148c3.32-.21,6.59-.85,9.93-1.19,1.7-.13,3.31-.54,5-.8s3.34-.53,5.06-.73h0a.55.55,0,0,1,.33,1Z" transform="translate(0)"/><path class="e" d="M237.58,193.39c2.2.69,8.14-5.38,7.48-2.76-.78,3.1-8.32,19.62-9.59,22.18-4.42,2.5-17.81,9.39-22.57,9.39h-5.2a22.71,22.71,0,0,0,2.32-1.71c.22-.18.46-.36.69-.56a41.27,41.27,0,0,0,3.06-2.85c.25-.26.51-.51.76-.78.78-.83,1.55-1.71,2.32-2.62.47-.56.94-1.15,1.4-1.7,1.33-1.71,2.61-3.46,3.83-5.28.57-.86,1.12-1.71,1.66-2.56v-.08c.5-.79,1-1.6,1.44-2.4,4.06-7,6.95-14.08,7.45-18.85C232.67,182.82,234.59,192.46,237.58,193.39Z" transform="translate(0)"/><path class="e" d="M164.16,190.49c0,7.14-1.14,14.82-4.06,20.75a30.88,30.88,0,0,0,20.24,10.84C173.31,216.19,167.62,201.49,164.16,190.49Z" transform="translate(0)"/><path class="f" d="M186.05,75a49.11,49.11,0,0,0-17.51,11.09,47.44,47.44,0,0,0-11.07,17.07A48.6,48.6,0,0,0,155,113a46.65,46.65,0,0,0-.24,10.16,63.32,63.32,0,0,0,1.62,10.06,84.91,84.91,0,0,0,3.2,10l.06.15a1.57,1.57,0,0,1,0,1.09,88.65,88.65,0,0,0-6.68,26.2,85.55,85.55,0,0,0-.3,13.39,49.58,49.58,0,0,0,.85,6.54,43.26,43.26,0,0,0,1.71,6.31,37.81,37.81,0,0,0,6.09,11.21,31,31,0,0,0,9.66,8,25.67,25.67,0,0,0,11.92,3h27.75a31.7,31.7,0,0,0,6.38-.35,26.25,26.25,0,0,0,6-1.8,30.1,30.1,0,0,0,10.09-7.36,36.27,36.27,0,0,0,6.72-10.87,38.74,38.74,0,0,0,2-6.21,47.52,47.52,0,0,0,1.09-6.49,64,64,0,0,0,.31-6.64c0-2.25-.1-4.49-.28-6.73a91.88,91.88,0,0,0-6-26.31,1.51,1.51,0,0,1,.06-1.28V145a78.62,78.62,0,0,0,3.5-7.64,60.4,60.4,0,0,0,2.42-8,50.81,50.81,0,0,0,1.16-8.23,49.22,49.22,0,0,0-.34-8.32,46.68,46.68,0,0,0-5-15.91,49.51,49.51,0,0,0-10.28-13.43h0a.77.77,0,1,1,1-1.18,47,47,0,0,1,6.53,6,44.32,44.32,0,0,1,5.32,7.16,47.25,47.25,0,0,1,6.14,16.8,48,48,0,0,1-.47,18,39,39,0,0,1-7.71,16.17l.09-1.32a69.59,69.59,0,0,1,8.78,27c.29,2.37.45,4.76.52,7.15a58.48,58.48,0,0,1-.21,7.25,55.13,55.13,0,0,1-1.11,7.23,48.1,48.1,0,0,1-2.13,7.05,42.59,42.59,0,0,1-7.66,12.73,35.29,35.29,0,0,1-12,9,32.32,32.32,0,0,1-7.3,2.26c-.64.11-1.27.19-1.91.28a15.52,15.52,0,0,1-1.92.15c-1.35.06-2.45,0-3.61,0l-13.88.05H183a31.72,31.72,0,0,1-14.74-3.72,36.08,36.08,0,0,1-11.47-9.7,43.22,43.22,0,0,1-7-13.14,48.26,48.26,0,0,1-1.82-7.12,55.44,55.44,0,0,1-.85-7.27c-.08-1.21-.07-2.42-.09-3.62a28.66,28.66,0,0,1,.13-3.59,68.47,68.47,0,0,1,.7-7.14,67.49,67.49,0,0,1,9.6-26.72v1.24a37.33,37.33,0,0,1-8.4-20.82,42.14,42.14,0,0,1-.15-5.73,49.66,49.66,0,0,1,.53-5.71,46.09,46.09,0,0,1,3-11A48,48,0,0,1,165.64,83a45.61,45.61,0,0,1,19.81-10,1,1,0,0,1,.57,2h0Z" transform="translate(0)"/><path class="e" d="M224.41,203c4.47-7.42,7.71-15.12,8.25-20.2-.18.34-6.37,12.42-14.73,20.4C220,203.24,222.16,203.18,224.41,203Z" transform="translate(0)"/><path class="i" d="M198.31,201.23c-3.27,9.67-5.57,21.17,1.12,23,7.33,2,17.75-9.21,25-21.19a96.5,96.5,0,0,1-26.1-1.81Z" transform="translate(0)"/><path class="j" d="M181.39,143.9c-3.66,3-2.72,14.75,1.51,16.83,3.87,1.9,13.45-6.9,13.45-6.9s11.23,8.54,15.05,6.41c3.46-1.92,4.61-13.7,1.64-16.34-3.4-3.07-16.3,6.07-16.3,6.07S185,141,181.39,143.9Z" transform="translate(0)"/><path class="k" d="M183.27,149l13.4,2.47H196l13.15-3.7a.93.93,0,0,1,1.07,1.36.94.94,0,0,1-.51.43L196.79,154a1.23,1.23,0,0,1-.66,0h0l-13.24-3a1,1,0,0,1,.42-2Z" transform="translate(0)"/><path class="k" d="M211.4,160.24a7,7,0,0,0,2.45-3.93,40.83,40.83,0,0,1-10.66-4.49H192.77s-8.19,3.8-11.67,4.27l-.85,1.15a6.27,6.27,0,0,0,2.69,3.48c3.88,1.9,13.45-6.9,13.45-6.9S207.58,162.37,211.4,160.24Z" transform="translate(0)"/><path class="l" d="M183.82,151.55c1-.2,2.08-.33,3.12-.46s2.07-.21,3.11-.27l3.12-.15h2.93c2.12-.21,4.26-.41,6.37-.47,1.07,0,2.14-.07,3.21-.07a28.88,28.88,0,0,1,3.22.12.59.59,0,0,1,.53.63.58.58,0,0,1-.4.5c-1,.34-2.08.58-3.12.86s-2.09.45-3.14.64c-2.1.39-4.21.67-6.32.93h-3.28c-1,0-2.08-.06-3.12-.15s-2.08-.16-3.11-.27-2.08-.26-3.12-.47a.62.62,0,0,1-.4-.27.58.58,0,0,1-.09-.48.64.64,0,0,1,.49-.52Z" transform="translate(0)"/><path class="l" d="M182,144.59a5.65,5.65,0,0,0-1.58,3.24,15.31,15.31,0,0,0-.13,4,16.29,16.29,0,0,0,.86,3.9,8.53,8.53,0,0,0,1.7,3.13,2,2,0,0,0,1,.61,3.4,3.4,0,0,0,1.45-.15,16.57,16.57,0,0,0,3.5-1.61,38.65,38.65,0,0,0,3.4-2.27c1.13-.81,2.25-1.71,3.31-2.52h0a1.17,1.17,0,0,1,1.49-.13h.08c1.7,1.21,3.57,2.39,5.4,3.46.92.54,1.87,1,2.8,1.48a17.92,17.92,0,0,0,2.84,1.14,4.78,4.78,0,0,0,2.43.22c.42-.09,1-.8,1.45-1.64a17.94,17.94,0,0,0,1.62-5.88,13,13,0,0,0-.52-6,2.74,2.74,0,0,0-.68-1,1.81,1.81,0,0,0-1-.35,7.5,7.5,0,0,0-2.85.48,29.43,29.43,0,0,0-5.68,2.81,49.33,49.33,0,0,0-5.23,3.75h0l-.3.16a1.36,1.36,0,0,1-1.58-.2,39.47,39.47,0,0,0-6.77-5,20.65,20.65,0,0,0-3.74-1.7C184,144.14,182.64,144.05,182,144.59Zm-1.11-1.37a4,4,0,0,1,2.55-.8,9.91,9.91,0,0,1,2.36.36A26.29,26.29,0,0,1,190,144.4c1.34.64,2.63,1.33,3.91,2s2.55,1.46,3.83,2.25H195.8c2-1.16,3.9-2.21,5.9-3.22a37.4,37.4,0,0,1,6.26-2.56,9.6,9.6,0,0,1,3.61-.46,3.46,3.46,0,0,1,2,.85,4.45,4.45,0,0,1,1.16,1.71,12.25,12.25,0,0,1,.85,3.47,22.83,22.83,0,0,1,.13,3.41,18.87,18.87,0,0,1-1.41,6.83,7.9,7.9,0,0,1-1,1.71,4.13,4.13,0,0,1-1.9,1.37,5.36,5.36,0,0,1-2.18.21,9.68,9.68,0,0,1-1.84-.37,27.11,27.11,0,0,1-6.25-2.9,56.74,56.74,0,0,1-5.54-3.82l1.57-.08h0a40.44,40.44,0,0,1-6.87,5.5,16.75,16.75,0,0,1-4.26,2,6.18,6.18,0,0,1-2.77.19A4.72,4.72,0,0,1,180.7,161a10.06,10.06,0,0,1-2.16-4.39,19.84,19.84,0,0,1-.53-4.54,19,19,0,0,1,.51-4.51,12.38,12.38,0,0,1,.79-2.21,5.82,5.82,0,0,1,1.53-2.11Z" transform="translate(0)"/><g class="a"><path d="M217.93,203.24c-6.44,6.14-14.16,9.88-21.41,4h0a.49.49,0,0,1,0,.17c-.23.91-.44,1.82-.62,2.71v.07c-.08.34-.14.69-.2,1l-.1.59a5.63,5.63,0,0,1-.14.93c-.05.3-.05.46-.08.68s-.07.57-.09.85,0,.54,0,.81a5.57,5.57,0,0,0,0,1v1.59a3.37,3.37,0,0,0,.07.8c.07.26,0,.36.08.54a5.83,5.83,0,0,1,.15.75l.11.44a9.06,9.06,0,0,0,.34,1v.13a6.05,6.05,0,0,0,.53.93c.06.1.14.17.21.27a6.17,6.17,0,0,0,.48.54l.28.24a3.67,3.67,0,0,0,.61.42,1.75,1.75,0,0,0,.29.18,6.76,6.76,0,0,0,1.05.42h0a8.37,8.37,0,0,0,1,.18h.22a8.34,8.34,0,0,0,1,0h.19a8.31,8.31,0,0,0,1-.15h.15a10.34,10.34,0,0,0,1.09-.3l.25-.08c.36-.13.74-.27,1.11-.44l.13-.06a8.72,8.72,0,0,0,1-.54l.25-.14c.38-.21.75-.44,1.12-.69l.28-.19c.35-.23.69-.47,1-.72l.17-.13c.36-.28.74-.58,1.11-.85l.35-.29c.36-.31.72-.65,1.08-1l.34-.32a11.36,11.36,0,0,0,.85-.85l.37-.37,1-1,.46-.5c.14-.17.52-.58.79-.85l.62-.72.66-.79.52-.63c.3-.37.59-.74.85-1.11L219,211l.49-.66.85-1.23.45-.62.59-.85.37-.54,1-1.47.32-.51c.38-.61.77-1.21,1.13-1.82,0-.07.08-.13.12-.19C222.16,203.18,220,203.24,217.93,203.24Z" transform="translate(0)"/></g><path class="f" d="M233.76,182.94a28.11,28.11,0,0,1-1,6.24,53,53,0,0,1-2,5.89A81.31,81.31,0,0,1,218,216.25a54.13,54.13,0,0,1-4.35,4.61,29.65,29.65,0,0,1-5.19,4,14.9,14.9,0,0,1-6.93,2.33,9.2,9.2,0,0,1-4.2-.79,7.74,7.74,0,0,1-3.4-3.08,10.71,10.71,0,0,1-1.36-3.79,17.47,17.47,0,0,1-.24-3.54,33.54,33.54,0,0,1,.85-6.47A71.29,71.29,0,0,1,197,197.66a58,58,0,0,1,5.88-10.85,1.24,1.24,0,0,1,2.22,1h0c-1.07,3.87-2.31,7.68-3.49,11.43a97.58,97.58,0,0,0-3.07,11.26,33.79,33.79,0,0,0-.61,5.5,8.52,8.52,0,0,0,.85,4.33,2.15,2.15,0,0,0,1,.93,3.69,3.69,0,0,0,1.7.33,9.44,9.44,0,0,0,4.37-1.47,37.61,37.61,0,0,0,8.46-7.3,85.28,85.28,0,0,0,7.13-9.28,99.14,99.14,0,0,0,6-10.13,44.19,44.19,0,0,0,4.21-10.81h0a1.11,1.11,0,0,1,2.19.26Z" transform="translate(0)"/><path class="i" d="M166.44,197.33c4.85,13.42,12.25,28.4,20.93,27.3,8.09-1,8.21-12.63,6.44-23.56C188.73,202.34,180,201.79,166.44,197.33Z" transform="translate(0)"/><path class="f" d="M161.56,176.86a238.51,238.51,0,0,0,8.72,24.45A91.71,91.71,0,0,0,176,212.69a38.1,38.1,0,0,0,3.56,5,15.2,15.2,0,0,0,4.19,3.6,5.3,5.3,0,0,0,4.26.47,4,4,0,0,0,1.7-1,6.36,6.36,0,0,0,1.23-1.92,17,17,0,0,0,1.22-5.5,49,49,0,0,0,0-6.18,110.92,110.92,0,0,0-1.61-12.71c-.73-4.27-1.63-8.54-2.55-12.73h0a1,1,0,0,1,1.93-.64,98.88,98.88,0,0,1,4.41,12.52A83.29,83.29,0,0,1,197,206.72a42,42,0,0,1,.25,6.91,22.33,22.33,0,0,1-1.44,7.27,11.69,11.69,0,0,1-2.29,3.55,9.31,9.31,0,0,1-3.83,2.39,10.47,10.47,0,0,1-2.14.46,9.24,9.24,0,0,1-2.23,0,11.15,11.15,0,0,1-4-1.35,20,20,0,0,1-5.63-5,42.18,42.18,0,0,1-3.85-5.79,85.76,85.76,0,0,1-5.56-12.23c-1.56-4.17-2.87-8.39-4-12.64s-2.17-8.54-3-12.89a1.18,1.18,0,0,1,2.3-.56Z" transform="translate(0)"/><path class="h" d="M202.14,109.46a9,9,0,0,1-12-2.61,8,8,0,0,1-1.49-2.82,2.25,2.25,0,0,1,1.13-2.62c1.31-.85,6.54-.2,7.76-.06,1.83.22,6.81,1,7.32,1.4,1.24,1.06,1.47,2.14.72,3.42A9.68,9.68,0,0,1,202.14,109.46Z" transform="translate(0)"/><path class="h" d="M185.17,99.58a8,8,0,0,1-10-.61c-2.65-2.51-2.33-6.14.75-8.32a8.27,8.27,0,0,1,10,.68C188.55,93.79,188.19,97.42,185.17,99.58Z" transform="translate(0)"/><path class="i" d="M184.27,97.74a2.56,2.56,0,0,1-3-.21,1.57,1.57,0,0,1-.45-1.3,1.53,1.53,0,0,1,.76-1.14,2.61,2.61,0,0,1,3,.24,1.42,1.42,0,0,1,.53,1.26A1.46,1.46,0,0,1,184.27,97.74Z" transform="translate(0)"/><path class="h" d="M225.64,100.28a32.79,32.79,0,0,0-6.56-.56c-1.13,0-2.27,0-3.41.11s-2.24.18-3.33.34h-.06a1.08,1.08,0,0,1-1.19-.9,1.07,1.07,0,0,1,.52-1,12.5,12.5,0,0,1,3.65-1.33,20,20,0,0,1,3.78-.42,18.63,18.63,0,0,1,3.8.31,10.93,10.93,0,0,1,3.75,1.33,1.19,1.19,0,0,1-.85,2.18Z" transform="translate(0)"/><path class="d" d="M91.17,234.77H125a57.85,57.85,0,0,1,57.77,57.91H91.17Z" transform="translate(0)"/><path class="i" d="M152.94,292.68h39.55c0-1.5,2.11-2.48,1.4-7.77-.43-3.21-13.51-11.52-13.62-12.4-1-.76-4.5-8.42-5.24-8.79-5.79-2.88-1.89,9.18-4.4,15.51C168.75,284,164.92,290.31,152.94,292.68Z" transform="translate(0)"/><path class="f" d="M189.33,294.81H71.3A7.35,7.35,0,0,1,67,281.46l18.73-13.31a2.43,2.43,0,0,1,.85-.35l2.43-.48V234.77a2.13,2.13,0,0,1,2.13-2.13H125a65.82,65.82,0,0,1,37,11.77c11.07,7.8,18.21,18.33,20.1,29.75l11.46,7.36.13.1a7.34,7.34,0,0,1-4.39,13.22ZM87.89,271.9l-18.37,13a3.08,3.08,0,0,0,1.78,5.59h118a3.08,3.08,0,0,0,1.9-5.5L179,277.26a2.12,2.12,0,0,1-1-1.51c-1.48-10.61-8-20.48-18.48-27.83a61.6,61.6,0,0,0-34.57-11H93.3v32.17a2.14,2.14,0,0,1-1.7,2.09Z" transform="translate(0)"/><path class="c" d="M48.23,269.89,32.06,281.4a6.21,6.21,0,0,0,3.58,11.28H145.55a7.39,7.39,0,0,0,4.69-13.11l-9.66-8" transform="translate(0)"/><path class="f" d="M145.55,294.81H35.62a8.35,8.35,0,0,1-4.81-15.15L47,268.15a2.13,2.13,0,1,1,2.46,3.48L33.27,283.14a4.07,4.07,0,0,0,2.35,7.4H145.55a5.26,5.26,0,0,0,3.34-9.32l-9.66-8a2.13,2.13,0,0,1,2.7-3.3l9.66,8a9.54,9.54,0,0,1-6,16.89Z" transform="translate(0)"/><path class="i" d="M93.05,296.69c26.91-2.56,48.09-11.36,45.85-35.15a48.11,48.11,0,0,0-4.09-14.92c13.24-22-.66-48.35-6.06-51.27-3.53-1.91-15.52,11.88-23.34,21.48A39.49,39.49,0,0,0,66,220.55c-9.48-8-16.8-10.37-19.91-7.85-4.76,3.89-20.54,23.45-3.4,42.63a47.86,47.86,0,0,0-1.25,15.41C43.69,294.54,66.14,299.23,93.05,296.69Z" transform="translate(0)"/><path d="M36.75,245.94c.21-1.19.45-2.38.73-3.58-.85-1-1.7-2-2.4-3A25.75,25.75,0,0,0,36.75,245.94Z" transform="translate(0)"/><path class="g" d="M93.51,288.35c-22.06,2.08-41.42-.22-51.08-12.18,5,19.07,25.92,22.85,50.63,20.48,22.86-2.15,41.57-8.85,45.33-25.38C129.71,281.72,112.94,286.52,93.51,288.35Z" transform="translate(0)"/><path class="d" d="M53.17,234.89c-8,10.92-12.05,24.23-11,35.6a29.34,29.34,0,0,0,3.13,10.95l1-.09c33.41-3.15,41.08-23,38.88-46.42a51.71,51.71,0,0,0-5.45-19.15C69.71,218.3,60.41,224.94,53.17,234.89Z" transform="translate(0)"/><path class="d" d="M137.33,261.47c-1.07-11.4-7.48-23.76-17.15-33.05-8.35-8-17.93-12.76-27.58-13.75A53.43,53.43,0,0,0,91,234.29c2.19,23.32,13.12,41.39,45.35,38.59a29.52,29.52,0,0,0,1-11.41Z" transform="translate(0)"/><path class="d" d="M85.57,243.42c.33-3.71,5.52-4.68,6.57-1.19,5.49.24,17-14.56,17-14.56L98.42,210.08l-6.91-2.3H84.44l-5.16,1.85L77.1,220.31Z" transform="translate(0)"/><path class="e" d="M73.19,216.57a44.83,44.83,0,0,0-7.16,4c-9.48-8-16.8-10.37-19.91-7.85-4,3.29-17.93,15.22-9.63,33.17,1.12,0,2.88,1.85,3.15,3,.75,3.19,0,4.93,3.66,3.35C47.39,239.16,60.09,222.58,73.19,216.57Z" transform="translate(0)"/><path class="d" d="M97.63,214.26a44.29,44.29,0,0,1,7.78,2.56c7.82-9.6,19.81-23.39,23.34-21.49,4.57,2.47,15.19,21.64,10.39,40.83-1.1.2.4,2.47-.75,2.56-.61.05-3.83,8.67-4.45,8.7C117.55,248.24,103,228.17,97.63,214.26Z" transform="translate(0)"/><path class="e" d="M114.1,221.32c1.43-5.3,7.54-17.79,12.22-22.18,6,8.37,11.84,27.41,4.53,41.28.29.71-5.7-7.94-10.61-13.18C118.64,225.52,114.1,221.32,114.1,221.32Z" transform="translate(0)"/><path class="f" d="M80.78,299.44c-9.54,0-17.32-1.28-23.6-3.88-10.73-4.44-16.73-12.72-17.88-24.63a49.12,49.12,0,0,1,1.08-15c-5.5-6.52-8-13.74-7.35-21.52,1-12.34,9.43-21.81,12.32-24.15,3.91-3.19,10.54-.75,20.82,7.68a41.34,41.34,0,0,1,38.59-3.66c18-21.88,22.34-22.18,25-20.78,3.23,1.7,8.13,9,10.87,19,3.35,12.28,2.13,24.4-3.41,34.29A49.26,49.26,0,0,1,141,261.35c1.12,11.95-3.23,21.16-12.94,27.54-8,5.23-19.37,8.48-34.82,9.94h0Q86.57,299.45,80.78,299.44ZM49.36,213.18a2,2,0,0,0-1.33.36c-2.05,1.66-9.88,10.15-10.76,21.19-.55,6.89,1.81,13.34,7,19.17a2.17,2.17,0,0,1,.48,1.92,45.25,45.25,0,0,0-1.19,14.71c1,10.35,6,17.25,15.24,21.09,8,3.33,19.49,4.32,34.05,2.95h0c14.54-1.37,25.61-4.5,32.88-9.27,8.41-5.52,12-13.22,11.07-23.56a45,45,0,0,0-3.91-14.24,2.18,2.18,0,0,1,.11-2c7-11.6,5.77-23.76,3.54-31.92-2.56-9.29-6.81-15.14-8.63-16.3-.78.11-5.19,1.71-20.83,20.87a2.12,2.12,0,0,1-2.49.61,37.38,37.38,0,0,0-37.35,3.53,2.1,2.1,0,0,1-2.55-.14C55.59,214.56,51.28,213.18,49.36,213.18Z" transform="translate(0)"/><path class="h" d="M99.26,276.29a8.09,8.09,0,0,1-11.07,0,7.24,7.24,0,0,1-1.85-2.23,2,2,0,0,1,.5-2.56,8.54,8.54,0,0,1,3.69-2,15.69,15.69,0,0,1,8.27-.31,6.7,6.7,0,0,1,1.61.62,2.19,2.19,0,0,1,1.32,2.8l0,.09A8.78,8.78,0,0,1,99.26,276.29Z" transform="translate(0)"/><path class="h" d="M62.3,266.31a2.1,2.1,0,0,1-2-1.46,2.14,2.14,0,0,1,.74-2.38c3.4-2.56,11.71-5.86,19-.41a2.13,2.13,0,1,1-2.56,3.41h0c-6.6-4.94-13.85.36-13.91.41A2.23,2.23,0,0,1,62.3,266.31Z" transform="translate(0)"/><path class="h" d="M105.71,263.36a2.13,2.13,0,0,1-1.38-3.75c6.9-6,15.44-3.18,19-.9a2.14,2.14,0,0,1-2.3,3.6c-.32-.22-7.73-4.8-13.92.53A2.13,2.13,0,0,1,105.71,263.36Z" transform="translate(0)"/><path class="f" d="M134.81,248.76a2.13,2.13,0,0,1-2-1.32c-.07-.17-5.66-13.39-20-24.42a2.13,2.13,0,0,1-.85-2c.09-.61,2.15-14.8,15.33-27.25a2.13,2.13,0,0,1,3,.1,2,2,0,0,1,.52,1,2.13,2.13,0,0,1-.61,2,47.81,47.81,0,0,0-13.78,23.54C131,232,136.54,245.19,136.78,245.75a2.15,2.15,0,0,1-1.16,2.79A2.27,2.27,0,0,1,134.81,248.76Z" transform="translate(0)"/><path class="d" d="M67.46,219.62s-15-13.51-17.72-11.66c-10.66,7.2-26.39,44.22-26.39,44.22s16.67-6.89,20.07-13.7,7.73-20.77,7.73-20.77l7.71,8.54" transform="translate(0)"/><path class="f" d="M42.69,257.46h-.32A2.14,2.14,0,0,1,40.58,255v0c3.63-23.48,23.49-35.76,24.33-36.28a2.14,2.14,0,0,1,2.21,3.66h0c-.19.11-19,11.81-22.34,33.28a2.13,2.13,0,0,1-2.1,1.77Z" transform="translate(0)"/><path class="f" d="M23.33,254.31a2.14,2.14,0,0,1-2.14-2.12,2.21,2.21,0,0,1,.19-.88c0-.09,4-9.44,9.27-19.56,7.16-13.79,13.18-22.4,17.88-25.6,1.13-.76,4.11-2.77,20.33,11.85A2.15,2.15,0,1,1,66,221.2h0c-5.77-5.2-13.17-10.83-15.4-11.26-7.14,5.22-17.56,25.87-23,37.94,5.3-2.67,12.12-6.74,13.92-10.35,3.29-6.58,7.56-20.31,7.61-20.48a2.1,2.1,0,0,1,1.57-1.46,2.17,2.17,0,0,1,2,.65l7.71,8.54a2.13,2.13,0,0,1-3.15,2.86L52,221.86a157.26,157.26,0,0,1-6.73,17.56c-3.64,7.31-19.37,14-21.15,14.71A2.17,2.17,0,0,1,23.33,254.31Z" transform="translate(0)"/><path class="d" d="M283.24,165.1l8.38-16.81a4.43,4.43,0,0,1,7.75-.33c4.55,7.43,11.06,19.63,10.8,28.68C309.79,190.48,283.24,165.1,283.24,165.1Z" transform="translate(0)"/><path class="f" d="M307,182.87c-7.59,0-21-12.18-25.21-16.21a2.15,2.15,0,0,1-.44-2.49l8.39-16.81a6.56,6.56,0,0,1,8.78-3,6.49,6.49,0,0,1,2.68,2.46c5.21,8.53,11.36,20.57,11.12,29.87-.11,3.72-1.83,5.2-3.26,5.79A5.38,5.38,0,0,1,307,182.87Zm-21.1-18.25c9.31,8.67,19,15,21.56,13.92.54-.23.61-1.57.62-2,.23-8.67-6.47-20.95-10.49-27.52a2.28,2.28,0,0,0-4,.21Z" transform="translate(0)"/><path class="i" d="M293.13,163c-6.65-1.11-13.07-3.28-19.87-2.26a40,40,0,0,0-18.34,8c-9.67-7.26-24.27-17.51-27.17-14.87-4.44,4-11.44,32.27,6.28,50a46.33,46.33,0,0,0-.38,15.09c3.45,23.09,25.6,26.46,51.7,22.54s53-14.79,49.55-37.88c-.72-4.79-6-10.36-12.52-12.11C322.38,191.59,313.85,166.47,293.13,163Z" transform="translate(0)"/><path class="d" d="M244.45,179.65c-10.13,11.4-10.36,28.38-8.73,39.26A21.62,21.62,0,0,0,240,229.15l1.36-.19c43.42-6.54,53.05-26.56,49.69-49a38.78,38.78,0,0,0-7.51-17.91C264.94,158.22,253.67,169.27,244.45,179.65Z" transform="translate(0)"/><path class="d" d="M322.5,191.24c-3.9-7.54-6.81-17.92-15.12-22.44-6.41-3.51-11.51-5.5-15.89-4.81a64,64,0,0,0,5.25,13.43c8,15.43,18,23.18,30.82,16.77C326,192.22,323.46,191.92,322.5,191.24Z" transform="translate(0)"/><path class="h" d="M278.36,195.12a7.23,7.23,0,0,1-9.91.82,6.24,6.24,0,0,1-.65-9.39,7.45,7.45,0,0,1,10-.73,6.24,6.24,0,0,1,1.07,8.75,6.41,6.41,0,0,1-.49.55Z" transform="translate(0)"/><path class="i" d="M272.52,190.8a2.35,2.35,0,0,1-3,.22,1.89,1.89,0,0,1-.1-2.76,2.35,2.35,0,0,1,2.94-.17,1.71,1.71,0,0,1,.73,1.31A1.77,1.77,0,0,1,272.52,190.8Z" transform="translate(0)"/><path class="h" d="M312.7,190.3a5.74,5.74,0,0,1-7.9.64,5,5,0,0,1-.93-7,6,6,0,0,1,8.41-1.05,5,5,0,0,1,.81,7c-.11.14-.23.27-.35.4Z" transform="translate(0)"/><path class="i" d="M304.67,185.81a1.76,1.76,0,0,1,2.4,0,1.44,1.44,0,0,1,.48,1.1A1.41,1.41,0,0,1,307,188a1.88,1.88,0,0,1-2.35,0,1.46,1.46,0,0,1-.49-1.09,1.42,1.42,0,0,1,.5-1.09Z" transform="translate(0)"/><path class="d" d="M261.7,164.5a43.23,43.23,0,0,0-6.81,4.27c-9.68-7.27-24.94-18.09-27.17-14.88-8.51,12.27-4.79,32.33,4.26,49.38,1.09-.06,7.05,2.4,8.15,2.24C256.8,203,259.8,179.5,261.7,164.5Z" transform="translate(0)"/><path class="e" d="M249.08,177.42h0c-3.41-5.51-11-10.78-18.23-14.31-2.55,10.65-1.22,18.77,6.6,32.64-.15.85,2-4.37,6.72-11.73a55.36,55.36,0,0,1,4.91-6.6Z" transform="translate(0)"/><path class="h" d="M315,204a8.71,8.71,0,0,1-11.67,2.56,7.63,7.63,0,0,1-2.48-1.92,2.16,2.16,0,0,1-.06-2.79,9,9,0,0,1,3.4-3,17.16,17.16,0,0,1,8.65-2.28,7.58,7.58,0,0,1,1.83.28,2.35,2.35,0,0,1,2.07,2.6c0,.05,0,.09,0,.14A9.66,9.66,0,0,1,315,204Z" transform="translate(0)"/><path class="g" d="M334.9,203.7c-.72-4.79-5.55-10.18-12-11.48l-1.1-.63c14.39,3.64,14.93,31.09-38.58,31.09-23.32,0-4.11,14.51,11.48,17.18C317.47,234.87,338,224,334.9,203.7Z" transform="translate(0)"/><path class="f" d="M292.15,164.82A36.76,36.76,0,0,0,273.42,163a38.28,38.28,0,0,0-17.1,7.58,2.31,2.31,0,0,1-2.78,0h0a185.76,185.76,0,0,0-17.44-11.86,42,42,0,0,0-4.5-2.26,10,10,0,0,0-2.07-.65,2.26,2.26,0,0,0-.52,0h0l.13-.07a.27.27,0,0,0,.08-.07h0l-.1.12A8.22,8.22,0,0,0,228,157.5c-.33.72-.66,1.46-.93,2.24a36.66,36.66,0,0,0-1.35,4.85,48.17,48.17,0,0,0,.19,20.32,39,39,0,0,0,3.56,9.46,35.83,35.83,0,0,0,6,8.1h0a2.14,2.14,0,0,1,.58,1.88c-1.2,6.55-1.18,13.44.85,19.62a22.64,22.64,0,0,0,1.94,4.39,20.19,20.19,0,0,0,2.79,3.83,20.58,20.58,0,0,0,3.6,3.12,24.32,24.32,0,0,0,4.2,2.34c6,2.62,12.77,3.36,19.58,3.37a126.13,126.13,0,0,0,20.43-2,107,107,0,0,0,19.83-5.19c6.34-2.42,12.52-5.47,17.48-10.06A29.59,29.59,0,0,0,330.2,220a24.37,24.37,0,0,0,2.55-4.36,22.85,22.85,0,0,0,1.94-9.95,13,13,0,0,0-.9-5,11.93,11.93,0,0,0-3.08-4,18.39,18.39,0,0,0-4.26-2.7,25.08,25.08,0,0,0-4.74-1.71.83.83,0,0,1-.59-.57h0a35.49,35.49,0,0,0-4.12-9.5,34.59,34.59,0,0,0-6.75-7.68,43,43,0,0,0-8.51-5.69,66.53,66.53,0,0,0-9.59-4.11Zm1.44-4a59.4,59.4,0,0,1,10,4.66,46.07,46.07,0,0,1,8.79,6.75,37.78,37.78,0,0,1,6.6,8.88,37.2,37.2,0,0,1,3.68,10.32l-.6-.6a23.55,23.55,0,0,1,9.23,5.31,14.21,14.21,0,0,1,3.16,4.33,15.89,15.89,0,0,1,1.07,5.23A26.31,26.31,0,0,1,334,216.18a25.49,25.49,0,0,1-2.4,4.82,29.52,29.52,0,0,1-3.28,4.27A40.88,40.88,0,0,1,320,232.1a59.52,59.52,0,0,1-9.54,4.79,109.66,109.66,0,0,1-20.34,5.75,123.49,123.49,0,0,1-21,2.31,69.9,69.9,0,0,1-10.72-.65,41.22,41.22,0,0,1-10.57-2.89A28,28,0,0,1,243,238.7,24.48,24.48,0,0,1,238.7,235a23.44,23.44,0,0,1-3.41-4.57,27.36,27.36,0,0,1-2.3-5.12,44.49,44.49,0,0,1-1.05-21.71l.58,1.89a40.42,40.42,0,0,1-6.76-9,43,43,0,0,1-4-10.51,52.45,52.45,0,0,1-.34-22.24,41.42,41.42,0,0,1,1.48-5.48c.33-.92.7-1.83,1.12-2.72a13,13,0,0,1,1.78-2.79l.35-.37.09-.09.16-.13.37-.26a3,3,0,0,1,.72-.36,3.2,3.2,0,0,1,.69-.19,6.35,6.35,0,0,1,2.13,0,14.87,14.87,0,0,1,3,.92,40.19,40.19,0,0,1,5.1,2.51A190.34,190.34,0,0,1,256.28,167h-2.79a44.45,44.45,0,0,1,9.07-5.4,40,40,0,0,1,10.22-3,41.1,41.1,0,0,1,20.78,2.2Z" transform="translate(0)"/><path class="d" d="M321.82,262.75c0,27-25.46,30.49-56.88,30.49s-56.89-3.46-56.89-30.49,25.47-48.95,56.89-48.95S321.82,235.75,321.82,262.75Z" transform="translate(0)"/><path class="c" d="M318,271.73c-2.14-12.63-14.62-22.33-29.7-22.33a32.42,32.42,0,0,0-20.11,6.74,4.25,4.25,0,0,1-5.17,0,32.42,32.42,0,0,0-20.11-6.74c-16.8,0-30.38,12-30,26.76h0c5.06,21.08,26.93,14.95,52.6,14.95C293,291.12,315.1,298.2,318,271.73Z" transform="translate(0)"/><path class="g" d="M261.85,275.18c-.1-1.7-.18-3.48-.18-5.29a39.54,39.54,0,0,0-4-17.12,33.29,33.29,0,0,0-14.73-3.37c-12.37,0-23,6.53-27.59,15.86a34.09,34.09,0,0,0-.32,4.63,32.83,32.83,0,0,0,3.52,14.94c5.49,3.81,12.87,6,21.46,7.12,7.62,0,16.32-.85,25.54-.85,8.81,0,17.08.73,24.34.85C301,290.44,310.1,287.29,315.7,281a29.56,29.56,0,0,0,2.23-8.26C298.67,292,277.18,281.37,261.85,275.18Z" transform="translate(0)"/><path class="e" d="M215.33,265.26c4.6-9.33,15.22-15.86,27.59-15.86a33.29,33.29,0,0,1,14.73,3.37,62.11,62.11,0,0,0-8.51-13c-1.48-1.8-4.09-4.55-4.09-8.39a33,33,0,0,0-2.8-13.45c-1,.37-2,.77-2.93,1.18l-.54.24c-1.41.64-2.79,1.32-4.12,2l-.53.29q-1.19.68-2.34,1.38l-.32.18-1.2.79-.51.34c-.67.46-1.34.93-2,1.43l-.48.35c-.37.28-.74.56-1.09.86l-.48.39c-.6.5-1.19,1-1.77,1.52l-.52.47-1,.9-.44.44c-.54.54-1.07,1.07-1.58,1.63l-.51.56a40.07,40.07,0,0,0-2.62,3.17l-.48.64c-.39.53-.77,1.07-1.13,1.62l-.48.71-.64,1-.42.71c-.33.55-.64,1.12-.94,1.71l-.41.76-.52,1.06c-.17.35-.24.53-.36.8-.26.58-.5,1.15-.74,1.71-.11.27-.22.54-.32.81s-.27.73-.4,1.1-.2.61-.3.92c-.19.57-.36,1.14-.52,1.71l-.23.85c-.1.38-.19.75-.28,1.12-.12.54-.23,1.08-.33,1.61a21.1,21.1,0,0,0,8,4.11A33.62,33.62,0,0,0,215.33,265.26Z" transform="translate(0)"/><g class="a"><path class="e" d="M265.47,291.12c-9.22,0-17.94.79-25.54.86l1.36.18h.3c.91.11,1.82.21,2.76.29h.31c2.07.2,4.19.35,6.36.47h.12l3,.12H255l2.37.07H265a188.11,188.11,0,0,0,24.88-1.3C282.57,291.86,274.3,291.12,265.47,291.12Z" transform="translate(0)"/></g><g class="a"><path class="e" d="M321.79,261.39c-1.7,1.2-.56,7.87-2.45,9.91-.49.52-1,1-1.46,1.49a29.51,29.51,0,0,1-2.24,8.3,21.71,21.71,0,0,0,2.73-3.74c2.23-3.87,3.45-8.65,3.45-14.57C321.82,262.32,321.8,261.9,321.79,261.39Z" transform="translate(0)"/></g><path class="f" d="M264.94,295.41c-14,0-29.8-.63-41-5.28-12.11-5-18-13.93-18-27.3,0-28.16,26.47-51.08,59-51.08s59,22.84,59,51c0,13.41-5.88,22.37-18,27.31C294.71,294.78,278.91,295.41,264.94,295.41Zm0-79.44c-30.2,0-54.76,21-54.76,46.81,0,23.72,20.08,28.36,54.76,28.36s54.75-4.64,54.75-28.39C319.69,237,295.13,216,264.94,216Z" transform="translate(0)"/><line class="m" x1="268.43" y1="245.07" x2="261.62" y2="238.24"/><path class="f" d="M268.09,245.41l-7.35-6.29a1.25,1.25,0,0,1,1.63-1.9h0l.13.14,6.28,7.36a.52.52,0,0,1,.11.36.47.47,0,0,1-.17.33.47.47,0,0,1-.63,0Z" transform="translate(0)"/><line class="m" x1="261.62" y1="245.07" x2="268.43" y2="238.24"/><path class="f" d="M261.28,244.72l6.27-7.36a1.24,1.24,0,0,1,1.72-.09,1.25,1.25,0,0,1,.18,1.72.86.86,0,0,1-.14.13L262,245.41a.49.49,0,0,1-.69,0,.5.5,0,0,1-.13-.22.5.5,0,0,1,.13-.47Z" transform="translate(0)"/><path class="c" d="M222.66,270.49c-9.82,0-17.78,7.19-17.78,13.72s8,9.94,17.78,9.94,17.77-3.41,17.77-9.94a10.24,10.24,0,0,0-1.8-5.56" transform="translate(0)"/><path class="f" d="M222.66,271.2a20.63,20.63,0,0,0-8.52,2.56,18.18,18.18,0,0,0-3.53,2.56,13.88,13.88,0,0,0-2.65,3.31,8.9,8.9,0,0,0-1.27,3.74,5.64,5.64,0,0,0,.74,3.41c1.22,2.05,3.83,3.41,6.58,4.16a24.74,24.74,0,0,0,4.26.86,41.51,41.51,0,0,0,4.46.24,33.68,33.68,0,0,0,8.77-1,17.83,17.83,0,0,0,3.91-1.56,8.14,8.14,0,0,0,2.86-2.61,6.43,6.43,0,0,0,.92-3.73,11.18,11.18,0,0,0-1.15-4.16h0a.68.68,0,0,1,1.14-.73,11,11,0,0,1,2.28,4.57,8.45,8.45,0,0,1-.57,5.45,10.51,10.51,0,0,1-3.62,4.12,18,18,0,0,1-4.67,2.27,32.65,32.65,0,0,1-9.86,1.49,44,44,0,0,1-5-.31,28.54,28.54,0,0,1-4.93-1,18.11,18.11,0,0,1-4.77-2.14,11.37,11.37,0,0,1-3.92-3.94,8.94,8.94,0,0,1-1-5.67,12.6,12.6,0,0,1,2-5,16.21,16.21,0,0,1,3.51-3.79,18.61,18.61,0,0,1,4.25-2.63,22,22,0,0,1,2.33-.91,19.79,19.79,0,0,1,2.42-.57,20.1,20.1,0,0,1,4.9-.3.73.73,0,0,1,.69.74.71.71,0,0,1-.65.69Z" transform="translate(0)"/><ellipse class="n" cx="221.63" cy="282.7" rx="6.37" ry="3.57"/><path class="c" d="M308.48,270.49c9.82,0,17.78,7.19,17.78,13.72s-8,9.94-17.78,9.94-17.77-3.41-17.77-9.94a10.31,10.31,0,0,1,1.79-5.56" transform="translate(0)"/><path class="g" d="M311.82,270.77a8.53,8.53,0,0,1,1.7,4.81c0,4.68-5.11,7.12-11.4,7.12-4.31,0-8.07-1.15-10-3.41a10.16,10.16,0,0,0-1.39,4.89c0,6.53,7.95,9.94,17.78,9.94s17.77-3.41,17.77-9.94C326.26,278.43,320,272.14,311.82,270.77Z" transform="translate(0)"/><path class="f" d="M308.48,269.77l1.23-.11a8.55,8.55,0,0,1,1.24,0h1.25a10.16,10.16,0,0,1,1.25.15,20.81,20.81,0,0,1,2.47.51,22,22,0,0,1,2.4.85,18,18,0,0,1,8,6.55,12.47,12.47,0,0,1,2,5.25,9.44,9.44,0,0,1-1.14,5.89,11.66,11.66,0,0,1-4.06,4.05,18.24,18.24,0,0,1-4.85,2.07,29.38,29.38,0,0,1-5,.94,41.73,41.73,0,0,1-5,.21,34,34,0,0,1-9.81-1.6,19.45,19.45,0,0,1-4.63-2.25,10.64,10.64,0,0,1-3.59-4,8.45,8.45,0,0,1-.65-5.38,11.74,11.74,0,0,1,2.13-4.65.85.85,0,0,1,1.19.13.82.82,0,0,1,.17.72h0a10.52,10.52,0,0,0-1.28,4.09,6.33,6.33,0,0,0,.85,3.8c1.35,2.22,4.06,3.53,6.81,4.26a35.28,35.28,0,0,0,17.53-.32c2.71-.81,5.25-2.24,6.33-4.2s.69-4.48-.66-6.76a12.93,12.93,0,0,0-2.56-3.19,17,17,0,0,0-3.4-2.56,23.23,23.23,0,0,0-8.33-3h-.06a.7.7,0,0,1-.58-.8s0,0,0-.05A.72.72,0,0,1,308.48,269.77Z" transform="translate(0)"/><ellipse class="n" cx="309.5" cy="282.7" rx="6.37" ry="3.57"/><path class="d" d="M84.29,193.09,66.42,206.6l-4.58.39a3.15,3.15,0,0,0-1.78,5.53s7.53,7.95,10.72,8.53c8.81,1.71,11.06-6.15,35-1.34C128.2,224.2,99.64,194,99.64,194Z" transform="translate(0)"/><path class="i" d="M60,212.52s7.54,7.95,10.72,8.53c5.35,1,8.29-1.46,15.14-2.5-9.58-3.75-15.55-8.25-19.28-12.14l-.22.16-4.58.38A3.16,3.16,0,0,0,60,212.52Z" transform="translate(0)"/><path class="f" d="M84.63,194.19,67.35,207.84a1.51,1.51,0,0,1-.75.31h-.07l-3,.28-1.5.13a1.94,1.94,0,0,0-.74.23,1.59,1.59,0,0,0-.72,1.18,1.5,1.5,0,0,0,.52,1.27h0l.11.1a62.6,62.6,0,0,0,7.85,7.06,6.67,6.67,0,0,0,1.88,1h.52l.6.09a7.84,7.84,0,0,0,1.19.08,19.28,19.28,0,0,0,5-.76,53.83,53.83,0,0,1,5.4-1.27c.93-.19,1.87-.27,2.79-.42a23.83,23.83,0,0,1,2.8-.22,59.18,59.18,0,0,1,11.13.48l1.37.17,1.36.22,2.74.46a16.8,16.8,0,0,0,5,.33,2.89,2.89,0,0,0,1.7-.67,1.82,1.82,0,0,0,.4-1.44,7.66,7.66,0,0,0-.52-2.21,17.59,17.59,0,0,0-1.06-2.29,55.82,55.82,0,0,0-6-8.7c-2.28-2.76-4.7-5.47-7.2-8h0l1.42.66ZM84,192l15.79-.12a1.66,1.66,0,0,1,1.23.48l.19.17h0c2.45,2.85,4.76,5.68,7,8.67a62.74,62.74,0,0,1,6,9.52,22.21,22.21,0,0,1,1.12,2.72,10.76,10.76,0,0,1,.58,3.13,5.42,5.42,0,0,1-.27,1.83,4.15,4.15,0,0,1-1.09,1.7,5.63,5.63,0,0,1-3.28,1.39,18.64,18.64,0,0,1-5.86-.48l-2.64-.5-1.33-.26L100,220a50.53,50.53,0,0,0-10.64-.65A37.61,37.61,0,0,0,79,221.73a19,19,0,0,1-5.73,1.14,11.32,11.32,0,0,1-1.54-.05l-.75-.09h-.57l-.24-.06a9.57,9.57,0,0,1-2.94-1.48,40.19,40.19,0,0,1-4.4-3.63c-1.39-1.24-2.7-2.56-4-3.89l.12.12A5,5,0,0,1,57.62,212a4.87,4.87,0,0,1,2-6,5.22,5.22,0,0,1,2.11-.63l1.5-.1,3-.22h0l-.85.31Z" transform="translate(0)"/><path class="d" d="M88.93,209.74s9.24,34.43,50.23,33.68,20.3-51.63,20.3-51.63l-28.4-17-42.13,14.4Z" transform="translate(0)"/><path class="e" d="M159.46,191.79l-28.4-17-17.87,6.12L95.7,195.51c7.66,3.7,15.33,10.3,21.91,18.17a37.87,37.87,0,0,1,3.76,1c11.87,3.71,35.13,15.4,33.14,21.7-1.2,3.84-8.68,6.88-18.19,7h2.84C180.15,242.68,159.46,191.79,159.46,191.79Z" transform="translate(0)"/><path class="i" d="M154.51,236.37c-2,6.28-20.77,10.46-37.76,3.29-11.45-4.84-22.38-14-20.43-20.33s13.17-8.38,25-4.66S156.5,230.07,154.51,236.37Z" transform="translate(0)"/><path class="g" d="M121.37,214.67c-1.26-.4-2.56-.73-3.76-1,7.56,9,13.63,19.72,16.37,29.64.76,0,1.55.08,2.34.09,9.51-.16,17-3.2,18.19-7C156.5,230.07,133.24,218.38,121.37,214.67Z" transform="translate(0)"/><path class="f" d="M90,209.46a47.17,47.17,0,0,0,3.59,7.18,51.4,51.4,0,0,0,4.63,6.53,49,49,0,0,0,5.55,5.7,43.1,43.1,0,0,0,6.35,4.65c8.94,5.52,19.73,7.68,30.29,7.11l1.94-.11c.64-.06,1.27-.18,1.9-.26a27.64,27.64,0,0,0,3.72-.79,21.24,21.24,0,0,0,6.53-3.16,17.25,17.25,0,0,0,4.63-5.39,23.23,23.23,0,0,0,2.44-7,50.41,50.41,0,0,0-.13-15.7,87.44,87.44,0,0,0-3.92-15.61h0l.85,1-28.37-17a2.15,2.15,0,0,1,1.16-4,2.2,2.2,0,0,1,1.06.3l28.4,17h0a2.18,2.18,0,0,1,.85,1h0a82.49,82.49,0,0,1,4.79,16.43,51.16,51.16,0,0,1,.45,17.41,29,29,0,0,1-2.89,8.65,22.7,22.7,0,0,1-6,7.18,26.45,26.45,0,0,1-8.3,4,32.76,32.76,0,0,1-4.4.93c-.73.1-1.47.24-2.2.31l-2.2.13a63,63,0,0,1-17.2-1.6,48.71,48.71,0,0,1-16-6.83,47.06,47.06,0,0,1-12.39-12.06A49.81,49.81,0,0,1,90.79,218a40.86,40.86,0,0,1-2.87-8.1,1.09,1.09,0,0,1,.75-1.26,1.06,1.06,0,0,1,1.31.63Z" transform="translate(0)"/><ellipse class="c" cx="114.08" cy="166.05" rx="47.54" ry="40.57" transform="translate(-14.55 11) rotate(-5.19)"/><path class="c" d="M157.8,149c12.18-26.37-4.86-46.93-4.86-46.93s-13.73,16-26.13,24.43h0a55.55,55.55,0,0,0-32.67,3.1c-10-15.49-34.23-19.08-34.23-19.08s-7.67,23.53,8.75,44.81a35.34,35.34,0,0,0-1.9,14.95c2,22.31,24.86,38.48,51,36.1s45.69-22.41,43.67-44.73A35.19,35.19,0,0,0,157.8,149Z" transform="translate(0)"/><path class="e" d="M146.94,134.4c1.75-11.48,1.5-22.34,6-32.29,0,0,14.07,15,5.68,45C158.62,147.13,156.55,140.32,146.94,134.4Z" transform="translate(0)"/><path class="e" d="M68.66,155.37c2.64-13.89,12.4-17.17,12.4-17.17a54.24,54.24,0,0,0-21.15-27.64S51.87,127.93,68.66,155.37Z" transform="translate(0)"/><path class="d" d="M66.76,170.32c.07.69.14,1.37.25,2.05,46.73,1.52,42.63-33.86,39.76-46.3C82.49,129.91,64.83,149.06,66.76,170.32Z" transform="translate(0)"/><path class="d" d="M96.06,132.37c-11.53-11.3-24-22.53-33.93-21.81,0,0,18.19,20.81,18.19,31.71Z" transform="translate(0)"/><path class="d" d="M111.67,125.52c.62,13.26,6.13,52.27,49.89,38.16,0-.67-.06-1.32-.12-2C159.45,139.73,137.3,123.74,111.67,125.52Z" transform="translate(0)"/><path class="d" d="M122.31,128.16c3.94-2.09,25.68-19,29.25-23.73,0,0-6.62,29.1-5.1,35.14L131,136.22Z" transform="translate(0)"/><path class="d" d="M110.44,125.6a56,56,0,0,0-6.17.92l3.91,16.72c.29-6.06,4.94-6,6.34-.73,1.62,6.08,6.2-13.89,6.2-13.89l-4.8-3.25A52.74,52.74,0,0,0,110.44,125.6Z" transform="translate(0)"/><path class="f" d="M155.65,149.06c.33-1,.67-1.93,1-2.9a22.31,22.31,0,0,0,1-2.73l.75-2.4a8.26,8.26,0,0,0,.31-1.21l.27-1.23a40.31,40.31,0,0,0,.79-5c.1-.85.09-1.66.14-2.5l.06-1.24-.05-1.26a23.13,23.13,0,0,0-.13-2.5l-.25-2.48-.46-2.47c-.13-.85-.39-1.62-.57-2.44a47.05,47.05,0,0,0-3.63-9.38,43.74,43.74,0,0,0-2.55-4.27.58.58,0,0,0,.8.13l.09-.08-.06.07-.11.13-.45.49-.9,1c-2.4,2.61-4.85,5.17-7.38,7.68a125.59,125.59,0,0,1-16.3,13.9l.14-.1h0a2.2,2.2,0,0,1-1.82.41,53.23,53.23,0,0,0-31.34,3,2.2,2.2,0,0,1-2.69-.86c-3.62-5.6-9.36-9.72-15.6-12.68A69.1,69.1,0,0,0,67,114.41c-.85-.24-1.7-.48-2.56-.69-.41-.11-.85-.22-1.26-.31l-.63-.15h-.26a1,1,0,0,0-.77.32.87.87,0,0,0-.22.37v.11a.57.57,0,0,1,0,.26l-.12.64a49.74,49.74,0,0,0,3.88,30.31,53.79,53.79,0,0,0,5.39,8.79v.05a2.17,2.17,0,0,1,.29,2,33.93,33.93,0,0,0,8.81,36.37,43.58,43.58,0,0,0,8,6.05,47.7,47.7,0,0,0,9.22,4.07,53.39,53.39,0,0,0,39.35-3,45.93,45.93,0,0,0,15.58-12.47,38.83,38.83,0,0,0,5.11-8.53,33.93,33.93,0,0,0,2.55-9.54,33,33,0,0,0-1.55-14.56c-.27-.78-.56-1.55-.85-2.3-.17-.37-.33-.75-.51-1.11l-.34-.74a8.41,8.41,0,0,1-.41-1.29Zm4.26-.07a.33.33,0,0,0,.14-.12h0l.07.15.14.32c.19.41.37.85.55,1.27.35.85.65,1.7.94,2.56a36.54,36.54,0,0,1,1.3,5.37,37.21,37.21,0,0,1,.13,11,40.56,40.56,0,0,1-8.73,19.82,49.35,49.35,0,0,1-16.89,13.24,56.18,56.18,0,0,1-20.64,5.53,55.3,55.3,0,0,1-21.18-2.56,49.86,49.86,0,0,1-18.5-10.78,43.71,43.71,0,0,1-6.93-8.36,37.75,37.75,0,0,1-4.42-10,36.15,36.15,0,0,1-1.29-11,37.81,37.81,0,0,1,2.05-10.84l.32,2a57.91,57.91,0,0,1-5.87-9.57,54.58,54.58,0,0,1-3.71-10.62,55.75,55.75,0,0,1-.54-22.32l.13-.69a1.09,1.09,0,0,1,.07-.4c.08-.21.09-.36.16-.53a5.35,5.35,0,0,1,5.2-3.64,8,8,0,0,1,1.08.14l.67.16,1.36.33c.89.22,1.77.48,2.67.74a71,71,0,0,1,10.38,3.93,51.71,51.71,0,0,1,9.6,5.84,34.38,34.38,0,0,1,7.83,8.4l-2.68-.85a57.64,57.64,0,0,1,34-3.23l-1.84.43h0l.11-.08a120.51,120.51,0,0,0,15.66-13.41c2.47-2.44,4.87-5,7.22-7.52l.85-1,.44-.49L150,102a3.48,3.48,0,0,1,.59-.5,3.81,3.81,0,0,1,2.93-.62,3.86,3.86,0,0,1,2.5,1.66,48.24,48.24,0,0,1,2.8,4.76,50.57,50.57,0,0,1,3.92,10.24c.22.89.48,1.78.63,2.69l.49,2.72.29,2.75c.12.91.08,1.84.14,2.76v1.38l-.06,1.39c-.06.91-.06,1.84-.17,2.75a45.87,45.87,0,0,1-.9,5.45l-.3,1.35a10,10,0,0,1-.35,1.33l-.85,2.63a13.34,13.34,0,0,1-.85,2.2,10.81,10.81,0,0,1-.9,2.06Z" transform="translate(0)"/><ellipse class="h" cx="92.72" cy="154.58" rx="7.06" ry="5.84" transform="translate(-13.6 9.02) rotate(-5.19)"/><circle class="i" cx="94.6" cy="151.44" r="1.48"/><ellipse class="h" cx="134.61" cy="149.96" rx="7.06" ry="6.28"/><circle class="i" cx="132.44" cy="147.71" r="1.48"/><path class="h" d="M114.61,170c-3.24.17-10.48-4.47-10.12-7.68.27-2.41,6.52-3.59,8.94-3.79s9.18-.07,9.8,2.39C124.06,164.19,118,169.83,114.61,170Z" transform="translate(0)"/><path class="f" d="M62.86,111.86a79.47,79.47,0,0,1,5.9,5.56,74.59,74.59,0,0,1,9.93,12.92,54.64,54.64,0,0,1,3.83,7.36,1.42,1.42,0,0,1-.68,1.8l-.2.11-.46.25c-.17.09-.35.21-.52.32a9.65,9.65,0,0,0-1,.75,21.29,21.29,0,0,0-1.91,1.77,25.35,25.35,0,0,0-3.19,4.3,35.83,35.83,0,0,0-2.4,4.8c-.34.85-.63,1.71-.94,2.56l-.79,2.6v.1a2.13,2.13,0,1,1-4.07-1.23v-.11l1-2.78c.4-.91.77-1.82,1.19-2.72a37,37,0,0,1,3-5.17,28.41,28.41,0,0,1,3.87-4.61,21.92,21.92,0,0,1,2.36-1.94,13.91,13.91,0,0,1,1.3-.86c.24-.13.46-.26.71-.38a9.1,9.1,0,0,1,.85-.37l-.85,1.91a54.08,54.08,0,0,0-3.19-7.12,70.35,70.35,0,0,0-4.08-6.83,76,76,0,0,0-4.82-6.33,76.86,76.86,0,0,0-5.46-5.81h0a.54.54,0,0,1,0-.76.53.53,0,0,1,.69,0Z" transform="translate(0)"/><path class="f" d="M155.79,149.74c-.21-.57-.51-1.28-.8-1.91s-.64-1.3-1-1.93a35,35,0,0,0-2.33-3.67,31.21,31.21,0,0,0-5.94-6.26l-.13-.11A1.82,1.82,0,0,1,145,134c1.34-4.78,1.82-9.89,2.5-15.06a49.8,49.8,0,0,1,1.55-7.74,19.09,19.09,0,0,1,3.72-7,.4.4,0,0,1,.38-.15.41.41,0,0,1,.35.46.39.39,0,0,1-.08.2,17.89,17.89,0,0,0-2.81,6.9,47.78,47.78,0,0,0-.73,7.55c-.16,5.12-.11,10.38-1,15.7l-.73-2a37.5,37.5,0,0,1,3.66,3.24,35.06,35.06,0,0,1,3.17,3.71,36.3,36.3,0,0,1,2.67,4.05c.4.71.79,1.43,1.14,2.15a25.12,25.12,0,0,1,1,2.33,2.14,2.14,0,1,1-4,1.51h0Z" transform="translate(0)"/><g class="a"><path d="M124.45,190.38c-10.06,3.68-30.37,6.68-45.51,3.78,9.52,8.74,23.61,13.65,38.83,12.25,25.32-2.31,44.47-21.17,43.8-42.66C161.54,163.08,146.94,182.16,124.45,190.38Z" transform="translate(0)"/></g><path class="c" d="M153.19,272.67,137,284.19a6.21,6.21,0,0,0,3.58,11.27H250.51a7.39,7.39,0,0,0,4.68-13.11l-9.65-8" transform="translate(0)"/><path class="f" d="M250.51,297.59H140.57a8.34,8.34,0,0,1-4.81-15.14l16.17-11.52a2.14,2.14,0,0,1,2.46,3.49l-16.17,11.52a4.07,4.07,0,0,0,2.35,7.38H250.51a5.26,5.26,0,0,0,3.34-9.32l-9.67-7.95a2.18,2.18,0,0,1-.75-2,2.15,2.15,0,0,1,1.35-1.65,2.13,2.13,0,0,1,2.1.34l9.67,7.93a9.54,9.54,0,0,1-6,16.89Z" transform="translate(0)"/><rect class="d" x="136.41" y="236.02" width="116" height="59.44" rx="29.65"/><path class="c" d="M213.31,295.46c7.66,0,2.95-2.9,8.21-7.68-5.44-6.35,7.61-10.38-1.61-6.26h-56.7c-7.42-4.12,1.28-1.22-4,3.55,5.44,6.35-2.17,10.38,6.81,10.38Z" transform="translate(0)"/><path class="f" d="M222.76,297.59h-56.7a31.86,31.86,0,0,1,0-63.71h56.7a31.86,31.86,0,0,1,0,63.71Zm-56.7-59.44a27.59,27.59,0,0,0,0,55.17h56.7a27.59,27.59,0,0,0,0-55.17Z" transform="translate(0)"/><path class="c" d="M157,288.3a16.39,16.39,0,0,0,14.67,9.1h0a11.82,11.82,0,0,0,11.81-11.83V265.79L142,231.61C142,254.63,151.09,276.48,157,288.3Z" transform="translate(0)"/><path class="c" d="M194.4,265.69v19.78a11.83,11.83,0,0,0,11.81,11.84h0a16.42,16.42,0,0,0,14.67-9.11c5.9-11.82,14.92-33.68,14.92-56.68Z" transform="translate(0)"/><path class="d" d="M232.38,258.77a72.91,72.91,0,0,0,3.29-22.63c0-2.64,1.45-5.37,1.18-7.92C226.63,241.39,209,250.1,188.93,250.1s-37.72-8.71-47.93-21.88a75.13,75.13,0,0,0-.41,7.79,72,72,0,0,0,3.56,22.47,91.24,91.24,0,0,0,44.79,11.43A86.24,86.24,0,0,0,232.38,258.77Z" transform="translate(0)"/><path class="f" d="M171.66,299.54a18.45,18.45,0,0,1-16.58-10.29c-4.86-9.75-16-35.21-14.78-61.14l4.26.21c-1.21,24.92,9.62,49.58,14.33,59a14.19,14.19,0,0,0,12.77,7.93,9.69,9.69,0,0,0,9.68-9.7h0V265.79h4.26v19.78a14,14,0,0,1-13.94,14Z" transform="translate(0)"/><path class="f" d="M206.21,299.44a14,14,0,0,1-14-14V265.69h4.25v19.78a9.71,9.71,0,0,0,9.7,9.71A14.24,14.24,0,0,0,219,287.25c6.1-12.24,14.69-39.36,14.69-61.37H238c0,22.71-8.86,50.67-15.15,63.27A18.41,18.41,0,0,1,206.21,299.44Z" transform="translate(0)"/><path class="o" d="M145.74,240s20.24,32.69,43.2,32.69c26.16,0,45.32-40.43,45.32-40.43Z" transform="translate(0)"/><path class="p" d="M153.05,250c10.3,5.12,23.76,8.21,38.52,8.21a95.08,95.08,0,0,0,28.67-4.27,116.29,116.29,0,0,0,14-21.65L145.72,240A106.83,106.83,0,0,0,153.05,250Z" transform="translate(0)"/><path class="i" d="M194.17,249.1c26.74-3.94,47.43-13.87,44-37.55a47.57,47.57,0,0,0-4.87-14.67c12.08-22.7-3.17-48.26-8.72-50.89-3.62-1.71-14.87,12.68-22.19,22.68a39.46,39.46,0,0,0-39.16,5.79C153.3,167,139,163,136,165.64c-4.56,4.13-12.43,26.51,5.66,44.76a47.76,47.76,0,0,0-.44,15.46C144.76,249.5,167.43,253,194.17,249.1Z" transform="translate(0)"/><path class="d" d="M152.16,190c-7.13,11.1-10.4,24.41-8.77,35.52a28.88,28.88,0,0,0,3.61,10.6l1-.13c32.21-4.76,38.6-24.66,35.24-47.54a61.3,61.3,0,0,0-7-20.13C166.61,171.33,158.66,179.88,152.16,190Z" transform="translate(0)"/><path class="d" d="M236.17,211.83c-1.64-11.09-8.6-22.87-18.63-31.47-8.66-7.41-18.35-13.19-27.93-13.65a61,61,0,0,0-.65,20.91c3.35,22.74,15.06,39.85,46.82,35.42A29,29,0,0,0,236.17,211.83Z" transform="translate(0)"/><path class="e" d="M236.17,211.83c-.15-.93-.34-1.87-.55-2.81a26.64,26.64,0,0,1-4.26,14.5c1.43-.11,2.87-.25,4.39-.47A29,29,0,0,0,236.17,211.83Z" transform="translate(0)"/><g class="a"><path d="M238.12,211.55a46.57,46.57,0,0,0-3.51-11.83c.24,1.11.46,2.2.62,3.29a37.65,37.65,0,0,1,.39,6c.21.94.4,1.89.55,2.82a29.13,29.13,0,0,1-.41,11.2c-1.52.22-3,.36-4.39.47-7.54,11.58-24.32,17.5-44.15,20.5-13.81,2-26.62,2.25-36.7-.85,9.72,7.82,25.77,8.53,43.65,5.89C220.91,245.11,241.63,235.19,238.12,211.55Z" transform="translate(0)"/></g><path class="h" d="M170.35,211.84a9.46,9.46,0,0,1-12.32,1c-3.72-2.78-4-7.52-.67-10.88a9.79,9.79,0,0,1,12.42-.94C173.39,203.75,173.64,208.5,170.35,211.84Z" transform="translate(0)"/><path class="i" d="M167.12,205.49a3,3,0,0,1-3.76.28,2.07,2.07,0,0,1-.38-2.89,2.2,2.2,0,0,1,.3-.31,3.11,3.11,0,0,1,3.65-.23,2,2,0,0,1,.6,2.69A1.81,1.81,0,0,1,167.12,205.49Z" transform="translate(0)"/><path class="h" d="M217.17,204.92a9.43,9.43,0,0,1-12.32,1c-3.73-2.78-4-7.51-.68-10.88a9.8,9.8,0,0,1,12.42-.94C220.2,196.84,220.46,201.59,217.17,204.92Z" transform="translate(0)"/><path class="i" d="M206.06,196.19a2.91,2.91,0,0,1,3.73-.07,2,2,0,0,1,.27,2.82,2.29,2.29,0,0,1-.4.36,3.08,3.08,0,0,1-3.66.08,2,2,0,0,1-.75-1.61,2,2,0,0,1,.81-1.58Z" transform="translate(0)"/><path class="d" d="M170.12,170.09a43,43,0,0,0-6.94,4.36C153.29,167,139,163,136,165.63c-3.85,3.49-10.22,18.15-1,35.65,1.11-.07,3,1.7,3.29,2.79.91,3.15,2.78,9.32,6.35,7.55C155.65,206.21,168.66,181.69,170.12,170.09Z" transform="translate(0)"/><path class="e" d="M157.28,183.81h0c-2.69-4.45-11.63-9.05-17.56-10.32-4.45,9.1-5.31,20.9,5.37,31.68-.13.71,4.42-10.13,8.22-16A46.11,46.11,0,0,1,157.28,183.81Z" transform="translate(0)"/><path class="d" d="M194.43,166.5a45.16,45.16,0,0,1,7.91,2.16c7.32-10,18.57-24.39,22.19-22.68,4.69,2.22,16.3,20.81,12.5,40.23-1.09.25.53,2.44-.6,2.61-.61.09-3.41,8.86-4,8.92C216.09,199.4,200.53,180.11,194.43,166.5Z" transform="translate(0)"/><path class="e" d="M210.59,175.14h0c1.15-5.37,8.35-17.07,12.77-21.74,6.45,8,11.07,25.94,4.51,40.16.34.69-7-9.12-12.14-14.11A46,46,0,0,0,210.59,175.14Z" transform="translate(0)"/><path class="f" d="M177.37,252.51c-22.79,0-35.6-8.83-38.18-26.38a48.82,48.82,0,0,1,.25-15.07c-9.57-10.11-11.37-20.88-11.18-28.22.24-8.69,3.47-16.22,6.38-18.82,4.21-3.82,19,1.06,28.56,7.75a41.39,41.39,0,0,1,38.36-5.68c16.81-22.8,21.15-23.37,23.84-22.08,3.31,1.57,8.59,8.53,11.84,18.42,4,12.09,3.4,24.26-1.63,34.42a49,49,0,0,1,4.58,14.35c3.17,21.55-12.22,35-45.75,39.94h0A117.52,117.52,0,0,1,177.37,252.51Zm-38.18-85.59a3.08,3.08,0,0,0-1.71.34c-1.87,1.7-4.75,7.88-5,15.76-.18,6.7,1.53,16.64,10.71,25.9a2.18,2.18,0,0,1,.59,1.9,45.36,45.36,0,0,0-.43,14.75c2.8,19,19.3,26,50.47,21.41s45-16.08,42.18-35.09a45,45,0,0,0-4.65-14,2.14,2.14,0,0,1,0-2c6.35-12,4.51-24,1.85-32.06-3-9.13-7.61-14.76-9.47-15.82-.76.16-5.1,2-19.7,21.94a2.11,2.11,0,0,1-2.46.73,37.34,37.34,0,0,0-37.1,5.49,2.13,2.13,0,0,1-2.56,0c-8.42-6.4-18.57-9.29-22.73-9.29Z" transform="translate(0)"/><path class="h" d="M197,227.39a9,9,0,0,1-12.22.62,8,8,0,0,1-2.19-2.36,2.23,2.23,0,0,1,.42-2.83,9.3,9.3,0,0,1,4-2.41,17.24,17.24,0,0,1,9.11-.85,6.72,6.72,0,0,1,1.81.58,2.43,2.43,0,0,1,1.63,3l0,.09A9.67,9.67,0,0,1,197,227.39Z" transform="translate(0)"/><path class="c" d="M103.41,52.94A18.69,18.69,0,0,0,69.09,38.13a19.84,19.84,0,0,0-.9,2.59A14.52,14.52,0,0,0,43.13,52.93h-3A10.12,10.12,0,0,0,30,63v0h0A10.13,10.13,0,0,0,40.11,73.21h63.05a10.11,10.11,0,0,0,10.1-10.12v0h0A10.11,10.11,0,0,0,103.41,52.94Z" transform="translate(0)"/><path class="c" d="M343.34,62.72a12.65,12.65,0,0,0-23.2-10.09,11.76,11.76,0,0,0-.63,1.81,9.82,9.82,0,0,0-17,8.27h-2a6.81,6.81,0,0,0-6.81,6.81h0a6.82,6.82,0,0,0,2,4.86,6.75,6.75,0,0,0,4.83,2h42.69A6.81,6.81,0,0,0,350,69.55v0h0A6.81,6.81,0,0,0,343.34,62.72Z" transform="translate(0)"/><ellipse class="c" cx="165.86" cy="18.1" rx="4.3" ry="4.31"/><ellipse class="c" cx="14.67" cy="118.37" rx="2.64" ry="2.65"/><ellipse class="c" cx="331.05" cy="130.17" rx="3.49" ry="3.5"/><ellipse class="c" cx="286.54" cy="27.01" rx="4.6" ry="4.61"/><ellipse class="c" cx="150.23" cy="56.18" rx="4.55" ry="4.57"/><path class="c" d="M197.48,54a4.11,4.11,0,0,1-3.17-1.53,4,4,0,0,1-.8-3.41l1.11-5.27a25.29,25.29,0,1,1,10.29,6.46l-5.38,3.16a4,4,0,0,1-2.05.59Z" transform="translate(0)"/><path class="q" d="M212.81,1.71a24.5,24.5,0,1,1-8,47.66l-5.72,3.36a3.15,3.15,0,0,1-1.61.45,3.24,3.24,0,0,1-3.21-3.25,4.5,4.5,0,0,1,.07-.63l1.21-5.72A24.52,24.52,0,0,1,212.81,1.71m0-1.71A26.21,26.21,0,0,0,193.7,44.11l-1,4.87a5,5,0,0,0,1,4.11,4.89,4.89,0,0,0,6.3,1.16l5.06-3a26.2,26.2,0,1,0,7.8-51.2Z" transform="translate(0)"/><path class="r" d="M232.5,11.7a24.48,24.48,0,0,1-29.87,34.09l-5.72,3.36a3.13,3.13,0,0,1-2.55.29,3.19,3.19,0,0,0,4.77,3.29l5.71-3.36A24.48,24.48,0,0,0,232.53,11.7Z" transform="translate(0)"/><path class="c" d="M6.9,83a.85.85,0,0,1-.85-.85V78.91a.85.85,0,0,1,.85-.85.86.86,0,0,1,.86.85v3.27A.86.86,0,0,1,6.9,83Z" transform="translate(0)"/><path class="c" d="M6.9,91.86A.85.85,0,0,1,6.05,91h0V87.73a.85.85,0,0,1,.85-.85.86.86,0,0,1,.86.85V91a.84.84,0,0,1-.25.6A.87.87,0,0,1,6.9,91.86Z" transform="translate(0)"/><path class="c" d="M4.12,85.81H.85a.85.85,0,0,1,0-1.7H4.12a.85.85,0,1,1,0,1.7Z" transform="translate(0)"/><path class="c" d="M12.94,85.81H9.68a.85.85,0,0,1,0-1.7h3.26a.85.85,0,1,1,0,1.7Z" transform="translate(0)"/><g class="s"><ellipse class="i" cx="90.72" cy="272.07" rx="1.99" ry="1" transform="translate(-77.37 39.7) rotate(-17.44)"/></g><path class="i" d="M107.36,162.06a9.51,9.51,0,0,1,3.72-1.5,8.09,8.09,0,0,1,4,.13.16.16,0,0,1,.1.17.16.16,0,0,1-.15.12,18.66,18.66,0,0,0-3.8.42c-1.25.27-2.48.62-3.75.95h0a.14.14,0,0,1-.19-.09.17.17,0,0,1,0-.2Z" transform="translate(0)"/><g class="s"><ellipse class="i" cx="187.49" cy="222.81" rx="2.43" ry="1" transform="translate(-68.32 83.68) rotate(-21.38)"/></g><path class="i" d="M191.55,102.51a16.23,16.23,0,0,1,4-.13,10.91,10.91,0,0,1,3.89,1,.17.17,0,0,1,.08.22.2.2,0,0,1-.18.1h0c-1.29-.19-2.55-.3-3.86-.4s-2.56-.22-3.9-.43a.24.24,0,0,1-.11-.06.13.13,0,0,1,0-.12A.16.16,0,0,1,191.55,102.51Z" transform="translate(0)"/><path class="i" d="M301.16,136.77a5.48,5.48,0,0,1,2.39-.49,7.2,7.2,0,0,1,2.39.38.2.2,0,0,1,.09.09.15.15,0,0,1,0,.13.16.16,0,0,1-.13.11,15.26,15.26,0,0,1-2.34.17,22.48,22.48,0,0,1-2.32-.08h0a.16.16,0,0,1-.11-.05.24.24,0,0,1,0-.12A.17.17,0,0,1,301.16,136.77Z" transform="translate(0)"/><path class="i" d="M302.07,203a10,10,0,0,1,2.93-2.8,8.22,8.22,0,0,1,3.8-1.33h.1a.12.12,0,0,1,.05.1.13.13,0,0,1-.09.14,17.6,17.6,0,0,0-3.41,1.79c-1.06.7-2.08,1.47-3.15,2.23h0a.13.13,0,0,1-.12,0,.19.19,0,0,1-.11-.07.17.17,0,0,1,0-.17Z" transform="translate(0)"/><path class="t" d="M216.33,37.31,215,34.21a14,14,0,0,1-1.93.43,10.32,10.32,0,0,1-1.79.14l-.62-3.31a11,11,0,0,0,2.2-.24,11.28,11.28,0,0,0,2.06-.68,3.43,3.43,0,0,0,1.35-1,1.39,1.39,0,0,0,.14-1.52,1.63,1.63,0,0,0-1.05-.95A9.29,9.29,0,0,0,213,26.8a18.31,18.31,0,0,1-2.42-.18,6.6,6.6,0,0,1-1.82-.53,4,4,0,0,1-1.32-1,5.93,5.93,0,0,1-.95-1.55,5.12,5.12,0,0,1-.46-1.74,4.57,4.57,0,0,1,.17-1.58,4.66,4.66,0,0,1,.65-1.37,6.38,6.38,0,0,1,1.06-1.15l-1.47-3.32,3.61-1.59,1.38,3.12a12.64,12.64,0,0,1,1.77-.36,10.47,10.47,0,0,1,1.56-.06l.58,3.36a9.06,9.06,0,0,0-1.76.09,6.92,6.92,0,0,0-1.88.52,3,3,0,0,0-1.27.95,1.22,1.22,0,0,0-.08,1.24,1.26,1.26,0,0,0,.39.54,1.55,1.55,0,0,0,.62.28,5.4,5.4,0,0,0,.93.14l1.28.06,1.74.12a8.36,8.36,0,0,1,1.84.38,5.77,5.77,0,0,1,1.67.9,4.19,4.19,0,0,1,1.25,1.66,5.46,5.46,0,0,1,.36,3.62,5.75,5.75,0,0,1-2,3.05l1.45,3.3Z" transform="translate(0)"/></svg>