<svg xmlns="http://www.w3.org/2000/svg" xmlns:xlink="http://www.w3.org/1999/xlink" viewBox="0 0 100.06 150.13"><defs><style>.cls-1{fill:none;}.cls-2{fill:url(#未命名的渐变_55);}.cls-3{fill:url(#未命名的渐变_55-2);}.cls-4{fill:url(#未命名的渐变_55-3);}.cls-5{fill:url(#未命名的渐变_55-4);}.cls-6{fill:url(#未命名的渐变_60);}.cls-7{isolation:isolate;}.cls-33,.cls-8{opacity:0.2;}.cls-9{opacity:0;}.cls-10{opacity:0.09;}.cls-11{opacity:0.18;}.cls-12{opacity:0.27;}.cls-13{opacity:0.36;}.cls-14{opacity:0.45;}.cls-15{opacity:0.55;}.cls-16{opacity:0.64;}.cls-17{opacity:0.73;}.cls-18{opacity:0.82;}.cls-19{opacity:0.91;}.cls-20{fill:url(#New_Gradient_Swatch_copy_25);}.cls-21{fill:url(#New_Gradient_Swatch_copy_25-2);}.cls-106,.cls-108,.cls-110,.cls-112,.cls-114,.cls-118,.cls-22,.cls-26{mix-blend-mode:color-dodge;}.cls-22{fill:url(#linear-gradient);}.cls-23{fill:#25054d;}.cls-24{fill:url(#linear-gradient-2);}.cls-25{fill:url(#New_Gradient_Swatch_copy_26);}.cls-27{fill:url(#Radial_Gradient_1);}.cls-28{fill:url(#linear-gradient-3);}.cls-29{fill:url(#New_Gradient_Swatch_copy_9);}.cls-30{fill:url(#New_Gradient_Swatch_copy_10);}.cls-31{fill:url(#linear-gradient-4);}.Graphic-Style-621{fill:url(#linear-gradient-5);}.cls-32{fill:url(#New_Gradient_Swatch_copy_10-2);}.cls-33{fill:url(#New_Gradient_Swatch_copy_25-3);}.cls-34{opacity:0.5;fill:url(#New_Gradient_Swatch_copy_25-4);}.cls-35{opacity:0.7;fill:url(#未命名的渐变_15);}.cls-107,.cls-109,.cls-111,.cls-113,.cls-119,.cls-35{mix-blend-mode:screen;}.cls-36{fill:url(#未命名的渐变_55-5);}.cls-37{fill:#ba8336;}.cls-38{fill:url(#linear-gradient-6);}.cls-39{fill:url(#linear-gradient-7);}.cls-40{clip-path:url(#clip-path);}.cls-41{fill:#ab7a31;}.cls-42{fill:#a7762f;}.cls-43{fill:#a1732e;}.cls-44{fill:#9c6e2c;}.cls-45{fill:#976b29;}.cls-46{fill:#926729;}.cls-47{fill:#8c6426;}.cls-48{fill:#886024;}.cls-49{fill:#825d23;}.cls-50{clip-path:url(#clip-path-2);}.cls-51{fill:url(#未命名的渐变_55-7);}.cls-52{fill:url(#未命名的渐变_55-8);}.cls-53{fill:url(#未命名的渐变_55-9);}.cls-54{fill:url(#未命名的渐变_55-10);}.cls-55{fill:url(#未命名的渐变_55-11);}.cls-56{fill:url(#未命名的渐变_55-12);}.cls-57{fill:url(#未命名的渐变_55-13);}.cls-58{fill:url(#未命名的渐变_55-14);}.cls-59{fill:url(#未命名的渐变_55-15);}.cls-60{fill:url(#未命名的渐变_55-16);}.cls-61{fill:url(#未命名的渐变_55-17);}.cls-62{clip-path:url(#clip-path-3);}.cls-63{fill:url(#未命名的渐变_55-19);}.cls-64{fill:url(#未命名的渐变_55-20);}.cls-65{fill:url(#未命名的渐变_55-21);}.cls-66{clip-path:url(#clip-path-4);}.cls-67{fill:url(#未命名的渐变_55-23);}.cls-68{fill:url(#未命名的渐变_55-24);}.cls-69{fill:url(#未命名的渐变_55-25);}.cls-70{fill:url(#未命名的渐变_55-26);}.cls-71{fill:url(#未命名的渐变_55-27);}.cls-72{fill:url(#未命名的渐变_55-28);}.cls-73{fill:url(#未命名的渐变_55-29);}.cls-74{fill:url(#未命名的渐变_55-30);}.cls-75{fill:url(#未命名的渐变_55-31);}.cls-76{clip-path:url(#clip-path-5);}.cls-77{fill:url(#未命名的渐变_55-33);}.cls-78{fill:url(#未命名的渐变_55-34);}.cls-79{fill:url(#未命名的渐变_55-35);}.cls-80{fill:url(#未命名的渐变_55-36);}.cls-81{fill:url(#未命名的渐变_55-37);}.cls-82{fill:url(#未命名的渐变_55-38);}.cls-83{fill:url(#未命名的渐变_55-39);}.cls-84{fill:url(#未命名的渐变_55-40);}.cls-85{clip-path:url(#clip-path-6);}.cls-86{clip-path:url(#clip-path-7);}.cls-87{fill:url(#linear-gradient-8);}.cls-88{fill:url(#未命名的渐变_60-4);}.cls-89{fill:url(#未命名的渐变_55-41);}.cls-90{fill:url(#未命名的渐变_61);}.cls-91{fill:url(#linear-gradient-9);}.cls-92{fill:url(#未命名的渐变_55-42);}.cls-93{fill:url(#linear-gradient-10);}.cls-94{fill:url(#linear-gradient-11);}.cls-95{fill:url(#linear-gradient-12);}.cls-96{fill:url(#linear-gradient-13);}.cls-97{fill:url(#linear-gradient-14);}.cls-98{fill:url(#linear-gradient-15);}.cls-99{fill:url(#linear-gradient-16);}.cls-100{fill:#d99940;}.cls-101{fill:url(#未命名的渐变_48);}.cls-102{fill:url(#linear-gradient-17);}.cls-103{fill:url(#linear-gradient-18);}.cls-104{fill:url(#linear-gradient-19);}.cls-105{fill:url(#linear-gradient-20);}.cls-106{fill:url(#Degradado_sin_nombre_724);}.cls-107{fill:url(#Degradado_sin_nombre_1217);}.cls-108{fill:url(#Degradado_sin_nombre_724-2);}.cls-109{fill:url(#Degradado_sin_nombre_1217-2);}.cls-110{fill:url(#Degradado_sin_nombre_724-3);}.cls-111{fill:url(#Degradado_sin_nombre_1217-3);}.cls-112{fill:url(#Degradado_sin_nombre_724-4);}.cls-113{fill:url(#Degradado_sin_nombre_1217-4);}.cls-114{fill:url(#Degradado_sin_nombre_724-5);}.cls-115{fill:#f6cf2e;}.cls-116{fill:url(#linear-gradient-21);}.cls-117{fill:url(#linear-gradient-22);}.cls-118{fill:url(#Degradado_sin_nombre_724-6);}.cls-119{fill:url(#Degradado_sin_nombre_1217-5);}</style><linearGradient id="未命名的渐变_55" x1="419.58" y1="330.73" x2="426.17" y2="330.73" gradientUnits="userSpaceOnUse"><stop offset="0" stop-color="#ffde85"/><stop offset="1" stop-color="#a45b00"/></linearGradient><linearGradient id="未命名的渐变_55-2" x1="421.33" y1="333.27" x2="427.88" y2="333.27" xlink:href="#未命名的渐变_55"/><linearGradient id="未命名的渐变_55-3" x1="430" y1="337.52" x2="436.25" y2="337.52" xlink:href="#未命名的渐变_55"/><linearGradient id="未命名的渐变_55-4" x1="431.62" y1="340.3" x2="438.01" y2="340.3" xlink:href="#未命名的渐变_55"/><linearGradient id="未命名的渐变_60" x1="422.99" y1="332.96" x2="429.26" y2="332.96" gradientUnits="userSpaceOnUse"><stop offset="0" stop-color="#ec5a06"/><stop offset="0.13" stop-color="#ee730f"/><stop offset="0.42" stop-color="#f2a520"/><stop offset="0.64" stop-color="#f5c32a"/><stop offset="0.76" stop-color="#f6cf2e"/></linearGradient><linearGradient id="New_Gradient_Swatch_copy_25" x1="59.39" y1="106.97" x2="177.63" y2="71.56" gradientUnits="userSpaceOnUse"><stop offset="0" stop-color="#25054d"/><stop offset="1" stop-color="#45108a"/></linearGradient><linearGradient id="New_Gradient_Swatch_copy_25-2" x1="-52.75" y1="121.33" x2="102.98" y2="86.42" xlink:href="#New_Gradient_Swatch_copy_25"/><linearGradient id="linear-gradient" x1="66.78" y1="150.52" x2="12.53" y2="92.61" gradientUnits="userSpaceOnUse"><stop offset="0" stop-color="#4b61b8"/><stop offset="0.13" stop-color="#38498a"/><stop offset="0.27" stop-color="#273360"/><stop offset="0.41" stop-color="#19203e"/><stop offset="0.55" stop-color="#0e1223"/><stop offset="0.7" stop-color="#06080f"/><stop offset="0.84" stop-color="#020204"/><stop offset="1"/></linearGradient><linearGradient id="linear-gradient-2" x1="86.03" y1="-9.41" x2="35.66" y2="86.57" gradientUnits="userSpaceOnUse"><stop offset="0.74" stop-color="#45108a"/><stop offset="1" stop-color="#3746a3"/></linearGradient><linearGradient id="New_Gradient_Swatch_copy_26" x1="45.85" y1="39.25" x2="45.85" y2="81.77" gradientUnits="userSpaceOnUse"><stop offset="0.03" stop-color="#7c1dc9"/><stop offset="0.21" stop-color="#6e41d2"/><stop offset="0.62" stop-color="#4c9be8"/><stop offset="1" stop-color="#2af6ff"/></linearGradient><radialGradient id="Radial_Gradient_1" cx="45.62" cy="87.16" r="20.88" gradientUnits="userSpaceOnUse"><stop offset="0" stop-color="#fff"/><stop offset="1"/></radialGradient><linearGradient id="linear-gradient-3" x1="397.45" y1="364.37" x2="417.04" y2="392.75" gradientUnits="userSpaceOnUse"><stop offset="0.17" stop-color="#dc48c1"/><stop offset="0.31" stop-color="#df4ac2"/><stop offset="0.41" stop-color="#e851c5"/><stop offset="0.49" stop-color="#f75dcb"/><stop offset="0.52" stop-color="#ff63ce"/><stop offset="0.91" stop-color="#9f19ab"/></linearGradient><linearGradient id="New_Gradient_Swatch_copy_9" x1="922.49" y1="2054.9" x2="955.47" y2="2054.9" gradientTransform="matrix(0.87, 0.5, 0.5, 1.44, -1433.94, -3056.78)" gradientUnits="userSpaceOnUse"><stop offset="0.04" stop-color="#9f19ab"/><stop offset="0.24" stop-color="#ae25b1"/><stop offset="0.65" stop-color="#d744bf"/><stop offset="1" stop-color="#ff63ce"/></linearGradient><linearGradient id="New_Gradient_Swatch_copy_10" x1="927.05" y1="2049.89" x2="980.87" y2="2072.48" gradientTransform="matrix(0.87, 0.5, 0.5, 1.44, -1433.94, -3056.78)" gradientUnits="userSpaceOnUse"><stop offset="0.04" stop-color="#9d9eb3"/><stop offset="0.58" stop-color="#d4d1d8"/><stop offset="1" stop-color="#eeebf2"/></linearGradient><linearGradient id="linear-gradient-4" x1="5242.41" y1="364.37" x2="5261.99" y2="392.75" gradientTransform="matrix(-1, 0, 0, 1, 5704.39, 0)" gradientUnits="userSpaceOnUse"><stop offset="0" stop-color="#4ec1de"/><stop offset="0.24" stop-color="#4dc4de"/><stop offset="0.45" stop-color="#49cfde"/><stop offset="0.64" stop-color="#43e1de"/><stop offset="0.65" stop-color="#43e2de"/><stop offset="0.77" stop-color="#3dabc8"/><stop offset="0.84" stop-color="#3a91bd"/><stop offset="0.88" stop-color="#3b96bf"/><stop offset="1" stop-color="#3ca0c3"/></linearGradient><linearGradient id="linear-gradient-5" x1="7922.73" y1="-364.75" x2="7987.43" y2="-384.12" gradientTransform="matrix(-0.87, 0.5, -0.5, 1.44, 7138.32, -3056.78)" gradientUnits="userSpaceOnUse"><stop offset="0.04" stop-color="#138bbd"/><stop offset="0.23" stop-color="#169ac7"/><stop offset="0.59" stop-color="#1fc3df"/><stop offset="1" stop-color="#2af6ff"/></linearGradient><linearGradient id="New_Gradient_Swatch_copy_10-2" x1="442.2" y1="389.08" x2="487.19" y2="345.11" gradientTransform="matrix(1, 0, 0, 1, 0, 0)" xlink:href="#New_Gradient_Swatch_copy_10"/><linearGradient id="New_Gradient_Swatch_copy_25-3" x1="61.44" y1="135.89" x2="158.21" y2="106.91" xlink:href="#New_Gradient_Swatch_copy_25"/><linearGradient id="New_Gradient_Swatch_copy_25-4" x1="-38.6" y1="147.62" x2="88.66" y2="119.09" xlink:href="#New_Gradient_Swatch_copy_25"/><linearGradient id="未命名的渐变_15" x1="46.13" y1="87.73" x2="46.13" y2="1.69" gradientUnits="userSpaceOnUse"><stop offset="0" stop-color="#1bb0d4"/><stop offset="0.05" stop-color="#189dbd" stop-opacity="0.89"/><stop offset="0.18" stop-color="#12738b" stop-opacity="0.66"/><stop offset="0.31" stop-color="#0c5060" stop-opacity="0.45"/><stop offset="0.45" stop-color="#08333e" stop-opacity="0.29"/><stop offset="0.58" stop-color="#041d23" stop-opacity="0.16"/><stop offset="0.72" stop-color="#020d0f" stop-opacity="0.07"/><stop offset="0.85" stop-color="#000304" stop-opacity="0.02"/><stop offset="1" stop-opacity="0"/></linearGradient><linearGradient id="未命名的渐变_55-5" x1="411.47" y1="319.81" x2="425.08" y2="319.81" xlink:href="#未命名的渐变_55"/><linearGradient id="linear-gradient-6" x1="407.83" y1="316.72" x2="425.1" y2="316.72" gradientUnits="userSpaceOnUse"><stop offset="0" stop-color="#ec5a06"/><stop offset="0.18" stop-color="#ee730f"/><stop offset="0.55" stop-color="#f2a520"/><stop offset="0.84" stop-color="#f5c32a"/><stop offset="1" stop-color="#f6cf2e"/></linearGradient><linearGradient id="linear-gradient-7" x1="412.57" y1="324.53" x2="416.96" y2="318.81" xlink:href="#linear-gradient-6"/><clipPath id="clip-path" transform="translate(-383.82 -278.19)"><path class="cls-1" d="M421.33,340.13l5.77-6s0,.05-.06.11l-5.78,6C421.31,340.18,421.33,340.16,421.33,340.13Z"/></clipPath><clipPath id="clip-path-2" transform="translate(-383.82 -278.19)"><path class="cls-2" d="M420.39,330.16l5.78-6c-.1.1-.07.34-.09.5-.22,2.22-.43,4.44-.73,6.64l-5.77,6c.29-2.2.51-4.42.73-6.64C420.32,330.5,420.29,330.26,420.39,330.16Z"/></clipPath><linearGradient id="未命名的渐变_55-7" x1="420.37" y1="327.17" x2="426.17" y2="327.17" xlink:href="#未命名的渐变_55"/><linearGradient id="未命名的渐变_55-8" x1="420.36" y1="327.2" x2="426.14" y2="327.2" xlink:href="#未命名的渐变_55"/><linearGradient id="未命名的渐变_55-9" x1="420.35" y1="327.22" x2="426.13" y2="327.22" xlink:href="#未命名的渐变_55"/><linearGradient id="未命名的渐变_55-10" x1="420.34" y1="327.25" x2="426.12" y2="327.25" xlink:href="#未命名的渐变_55"/><linearGradient id="未命名的渐变_55-11" x1="420.33" y1="327.27" x2="426.11" y2="327.27" xlink:href="#未命名的渐变_55"/><linearGradient id="未命名的渐变_55-12" x1="420.33" y1="327.31" x2="426.11" y2="327.31" xlink:href="#未命名的渐变_55"/><linearGradient id="未命名的渐变_55-13" x1="420.32" y1="327.35" x2="426.1" y2="327.35" xlink:href="#未命名的渐变_55"/><linearGradient id="未命名的渐变_55-14" x1="420.32" y1="327.41" x2="426.1" y2="327.41" xlink:href="#未命名的渐变_55"/><linearGradient id="未命名的渐变_55-15" x1="420.31" y1="327.51" x2="426.09" y2="327.51" xlink:href="#未命名的渐变_55"/><linearGradient id="未命名的渐变_55-16" x1="420.31" y1="327.61" x2="426.09" y2="327.61" xlink:href="#未命名的渐变_55"/><linearGradient id="未命名的渐变_55-17" x1="419.58" y1="330.97" x2="426.08" y2="330.97" xlink:href="#未命名的渐变_55"/><clipPath id="clip-path-3" transform="translate(-383.82 -278.19)"><path class="cls-3" d="M422.11,332.4l5.77-6c-.1.51-.16,1-.21,1.45-.19,2.09-.37,4.19-.57,6.28l-5.77,6,.57-6.28A11,11,0,0,1,422.11,332.4Z"/></clipPath><linearGradient id="未命名的渐变_55-19" x1="422.09" y1="329.44" x2="427.88" y2="329.44" xlink:href="#未命名的渐变_55"/><linearGradient id="未命名的渐变_55-20" x1="421.98" y1="329.8" x2="427.87" y2="329.8" xlink:href="#未命名的渐变_55"/><linearGradient id="未命名的渐变_55-21" x1="421.33" y1="333.62" x2="427.76" y2="333.62" xlink:href="#未命名的渐变_55"/><clipPath id="clip-path-4" transform="translate(-383.82 -278.19)"><path class="cls-4" d="M430.48,337.07l5.77-6a9.64,9.64,0,0,0-.14,1.51l-.21,4.83a1.22,1.22,0,0,1-.13.57L430,344a1.36,1.36,0,0,0,.13-.57c.07-1.61.13-3.22.21-4.83A9.64,9.64,0,0,1,430.48,337.07Z"/></clipPath><linearGradient id="未命名的渐变_55-23" x1="430.43" y1="334.22" x2="436.25" y2="334.22" xlink:href="#未命名的渐变_55"/><linearGradient id="未命名的渐变_55-24" x1="430.38" y1="334.58" x2="436.2" y2="334.58" xlink:href="#未命名的渐变_55"/><linearGradient id="未命名的渐变_55-25" x1="430.12" y1="337.65" x2="436.16" y2="337.65" xlink:href="#未命名的渐变_55"/><linearGradient id="未命名的渐变_55-26" x1="430.11" y1="340.57" x2="435.9" y2="340.57" xlink:href="#未命名的渐变_55"/><linearGradient id="未命名的渐变_55-27" x1="430.1" y1="340.66" x2="435.88" y2="340.66" xlink:href="#未命名的渐变_55"/><linearGradient id="未命名的渐变_55-28" x1="430.08" y1="340.74" x2="435.87" y2="340.74" xlink:href="#未命名的渐变_55"/><linearGradient id="未命名的渐变_55-29" x1="430.06" y1="340.82" x2="435.85" y2="340.82" xlink:href="#未命名的渐变_55"/><linearGradient id="未命名的渐变_55-30" x1="430.03" y1="340.89" x2="435.83" y2="340.89" xlink:href="#未命名的渐变_55"/><linearGradient id="未命名的渐变_55-31" x1="430" y1="340.95" x2="435.8" y2="340.95" xlink:href="#未命名的渐变_55"/><clipPath id="clip-path-5" transform="translate(-383.82 -278.19)"><path class="cls-5" d="M432.23,338.75l5.78-6a.18.18,0,0,0-.05.07,1.61,1.61,0,0,0-.18.7c-.11,2.78-.22,5.57-.38,8.33l-5.78,6c.17-2.76.27-5.55.38-8.33a1.77,1.77,0,0,1,.18-.7Z"/></clipPath><linearGradient id="未命名的渐变_55-33" x1="432.19" y1="335.78" x2="438.01" y2="335.78" xlink:href="#未命名的渐变_55"/><linearGradient id="未命名的渐变_55-34" x1="432.14" y1="335.85" x2="437.97" y2="335.85" xlink:href="#未命名的渐变_55"/><linearGradient id="未命名的渐变_55-35" x1="432.1" y1="335.95" x2="437.92" y2="335.95" xlink:href="#未命名的渐变_55"/><linearGradient id="未命名的渐变_55-36" x1="432.07" y1="336.06" x2="437.87" y2="336.06" xlink:href="#未命名的渐变_55"/><linearGradient id="未命名的渐变_55-37" x1="432.04" y1="336.17" x2="437.84" y2="336.17" xlink:href="#未命名的渐变_55"/><linearGradient id="未命名的渐变_55-38" x1="432.02" y1="336.28" x2="437.81" y2="336.28" xlink:href="#未命名的渐变_55"/><linearGradient id="未命名的渐变_55-39" x1="432.01" y1="336.38" x2="437.8" y2="336.38" xlink:href="#未命名的渐变_55"/><linearGradient id="未命名的渐变_55-40" x1="431.62" y1="340.64" x2="437.78" y2="340.64" xlink:href="#未命名的渐变_55"/><clipPath id="clip-path-6" transform="translate(-383.82 -278.19)"><path class="cls-1" d="M430.53,337l5.77-6a.22.22,0,0,0-.05.08l-5.77,6A.22.22,0,0,1,430.53,337Z"/></clipPath><clipPath id="clip-path-7" transform="translate(-383.82 -278.19)"><path class="cls-6" d="M423.48,329.17l5.78-6c-.17,4.5-.33,9-.5,13.58l-5.77,6C423.15,338.21,423.32,333.67,423.48,329.17Z"/></clipPath><linearGradient id="linear-gradient-8" x1="426.56" y1="330.82" x2="426.53" y2="324.68" xlink:href="#linear-gradient-6"/><linearGradient id="未命名的渐变_60-4" x1="423.49" y1="324.85" x2="435.39" y2="324.85" xlink:href="#未命名的渐变_60"/><linearGradient id="未命名的渐变_55-41" x1="412.42" y1="312.13" x2="419.07" y2="312.13" xlink:href="#未命名的渐变_55"/><linearGradient id="未命名的渐变_61" x1="433.11" y1="335.25" x2="444.02" y2="345.61" gradientUnits="userSpaceOnUse"><stop offset="0" stop-color="#ec5a06"/><stop offset="0.02" stop-color="#ed6309"/><stop offset="0.11" stop-color="#f08414"/><stop offset="0.2" stop-color="#f29f1e"/><stop offset="0.31" stop-color="#f4b525"/><stop offset="0.42" stop-color="#f5c42a"/><stop offset="0.55" stop-color="#f6cc2d"/><stop offset="0.76" stop-color="#f6cf2e"/></linearGradient><linearGradient id="linear-gradient-9" x1="49.98" y1="46.64" x2="55.76" y2="46.64" gradientUnits="userSpaceOnUse"><stop offset="0" stop-color="#fdbd00"/><stop offset="1" stop-color="#fd9b00"/></linearGradient><linearGradient id="未命名的渐变_55-42" x1="35.53" y1="32.51" x2="45.48" y2="32.51" xlink:href="#未命名的渐变_55"/><linearGradient id="linear-gradient-10" x1="39.67" y1="39.43" x2="45.48" y2="39.43" xlink:href="#linear-gradient-9"/><linearGradient id="linear-gradient-11" x1="419.3" y1="327.89" x2="423.52" y2="327.89" xlink:href="#linear-gradient-6"/><linearGradient id="linear-gradient-12" x1="433.79" y1="327.31" x2="442.26" y2="327.31" xlink:href="#linear-gradient-6"/><linearGradient id="linear-gradient-13" x1="433.81" y1="325.76" x2="450.48" y2="325.76" xlink:href="#linear-gradient-6"/><linearGradient id="linear-gradient-14" x1="439.25" y1="334.08" x2="439.25" y2="323.16" xlink:href="#linear-gradient-6"/><linearGradient id="linear-gradient-15" x1="49.99" y1="39.53" x2="55.79" y2="39.53" xlink:href="#linear-gradient-6"/><linearGradient id="linear-gradient-16" x1="429.61" y1="332.81" x2="433.83" y2="332.81" xlink:href="#linear-gradient-6"/><linearGradient id="未命名的渐变_48" x1="412.62" y1="307.16" x2="446.61" y2="307.16" gradientUnits="userSpaceOnUse"><stop offset="0" stop-color="#f6cf2e"/><stop offset="0.16" stop-color="#f5c32a"/><stop offset="0.45" stop-color="#f2a520"/><stop offset="0.82" stop-color="#ee730f"/><stop offset="1" stop-color="#ec5a06"/></linearGradient><linearGradient id="linear-gradient-17" x1="429.92" y1="308.54" x2="433.64" y2="308.54" xlink:href="#linear-gradient-9"/><linearGradient id="linear-gradient-18" x1="46.11" y1="27.35" x2="55.6" y2="27.35" xlink:href="#linear-gradient-6"/><linearGradient id="linear-gradient-19" x1="411.61" y1="312.28" x2="441.74" y2="312.28" xlink:href="#linear-gradient-6"/><linearGradient id="linear-gradient-20" x1="440.1" y1="309.37" x2="447.52" y2="309.37" xlink:href="#linear-gradient-9"/><radialGradient id="Degradado_sin_nombre_724" cx="466.92" cy="409.32" r="9.47" gradientTransform="translate(87.39 -868.21) rotate(90) scale(1.95 0.12)" gradientUnits="userSpaceOnUse"><stop offset="0" stop-color="#fff"/><stop offset="0.02" stop-color="#f7f7f7" stop-opacity="0.97"/><stop offset="0.13" stop-color="#bebebe" stop-opacity="0.74"/><stop offset="0.25" stop-color="#8b8b8b" stop-opacity="0.54"/><stop offset="0.37" stop-color="#606060" stop-opacity="0.38"/><stop offset="0.49" stop-color="#3d3d3d" stop-opacity="0.24"/><stop offset="0.62" stop-color="#222" stop-opacity="0.14"/><stop offset="0.74" stop-color="#0f0f0f" stop-opacity="0.06"/><stop offset="0.87" stop-color="#040404" stop-opacity="0.01"/><stop offset="1" stop-opacity="0"/></radialGradient><radialGradient id="Degradado_sin_nombre_1217" cx="512.06" cy="579.9" r="9.47" gradientTransform="translate(261.93 -323.52) rotate(90) scale(0.71 0.38)" gradientUnits="userSpaceOnUse"><stop offset="0" stop-color="#ec65da"/><stop offset="0.03" stop-color="#e562d3" stop-opacity="0.97"/><stop offset="0.39" stop-color="#84397a" stop-opacity="0.56"/><stop offset="0.68" stop-color="#3d1a38" stop-opacity="0.26"/><stop offset="0.89" stop-color="#110710" stop-opacity="0.07"/><stop offset="1" stop-opacity="0"/></radialGradient><radialGradient id="Degradado_sin_nombre_724-2" cx="469.62" cy="319.48" r="14.39" xlink:href="#Degradado_sin_nombre_724"/><radialGradient id="Degradado_sin_nombre_1217-2" cx="519.48" cy="552.59" r="14.4" xlink:href="#Degradado_sin_nombre_1217"/><radialGradient id="Degradado_sin_nombre_724-3" cx="1270.34" cy="3971.13" r="6.24" gradientTransform="matrix(-1.88, -0.51, -0.03, 0.11, 2933.29, 508.54)" xlink:href="#Degradado_sin_nombre_724"/><radialGradient id="Degradado_sin_nombre_1217-3" cx="2711.66" cy="1662.58" r="6.24" gradientTransform="matrix(0, -0.71, -0.38, 0, 1063, 2237.68)" xlink:href="#Degradado_sin_nombre_1217"/><radialGradient id="Degradado_sin_nombre_724-4" cx="1414.31" cy="15796.72" r="3.44" gradientTransform="matrix(1.3, -1.45, -0.09, -0.08, -23.66, 3601.98)" xlink:href="#Degradado_sin_nombre_724"/><radialGradient id="Degradado_sin_nombre_1217-4" cx="3105.89" cy="5258.42" r="3.44" gradientTransform="matrix(0.71, 0, 0, -0.38, -1771.58, 2337.84)" xlink:href="#Degradado_sin_nombre_1217"/><radialGradient id="Degradado_sin_nombre_724-5" cx="1287.58" cy="19356.33" r="3.27" gradientTransform="matrix(1.36, -1.39, -0.08, -0.08, 309.9, 3676.51)" xlink:href="#Degradado_sin_nombre_724"/><linearGradient id="linear-gradient-21" x1="35.79" y1="15.83" x2="45.3" y2="15.83" xlink:href="#linear-gradient-6"/><linearGradient id="linear-gradient-22" x1="35.75" y1="22.77" x2="39.53" y2="22.77" xlink:href="#linear-gradient-9"/><radialGradient id="Degradado_sin_nombre_724-6" cx="1341.97" cy="8676.91" r="2.06" gradientTransform="matrix(-0.03, -1.96, -0.12, 0, 1504.58, 2909.03)" xlink:href="#Degradado_sin_nombre_724"/><radialGradient id="Degradado_sin_nombre_1217-5" cx="2907.8" cy="3093.48" r="2.06" gradientTransform="matrix(0, -0.71, -0.39, 0, 1639.9, 2379.4)" xlink:href="#Degradado_sin_nombre_1217"/></defs><title>图标2</title><g class="cls-7"><g id="图层_1" data-name="图层 1"><g class="cls-8"><path class="cls-9" d="M429.91,421.58a7.59,7.59,0,0,1-3.79-.91L386,397.5a4,4,0,0,1-2.17-3.46,4.66,4.66,0,0,1,2.61-3.93l46.75-27.49a9.25,9.25,0,0,1,4.6-1.17,7.59,7.59,0,0,1,3.79.91l40.13,23.17a4,4,0,0,1,2.17,3.46,4.67,4.67,0,0,1-2.62,3.94l-46.74,27.48A9.28,9.28,0,0,1,429.91,421.58Z" transform="translate(-383.82 -278.19)"/><path class="cls-10" d="M432.61,363.2a9.09,9.09,0,0,1,4.55-1.13,8.12,8.12,0,0,1,2.37.35,6.65,6.65,0,0,1,1.36.59l39.66,22.89a4.4,4.4,0,0,1,2.27,3.32,4.29,4.29,0,0,1-2.42,3.89l-46,27a7.68,7.68,0,0,1-.81.41,9.46,9.46,0,0,1-3.71.77,7.42,7.42,0,0,1-3.72-.89l-39.75-22.95a4.39,4.39,0,0,1-2.28-3.32,4.27,4.27,0,0,1,2.42-3.89Z" transform="translate(-383.82 -278.19)"/><path class="cls-11" d="M432,363.79a8.94,8.94,0,0,1,4.5-1.11,8.25,8.25,0,0,1,2.34.38,8,8,0,0,1,1.33.59l39.19,22.63a4.94,4.94,0,0,1,2.37,3.17,4,4,0,0,1-2.23,3.85l-45.2,26.47c-.21.12-.56.3-.79.4a9.17,9.17,0,0,1-3.64.78,7.21,7.21,0,0,1-3.66-.86l-39.37-22.73a4.94,4.94,0,0,1-2.38-3.18,3.94,3.94,0,0,1,2.22-3.85Z" transform="translate(-383.82 -278.19)"/><path class="cls-12" d="M431.48,364.38a8.74,8.74,0,0,1,4.45-1.08,7.83,7.83,0,0,1,2.29.4,8.71,8.71,0,0,1,1.31.6l38.72,22.35a5.58,5.58,0,0,1,2.46,3,3.6,3.6,0,0,1-2,3.81l-44.43,26c-.19.11-.57.31-.78.4a9.16,9.16,0,0,1-3.56.78,7.07,7.07,0,0,1-3.6-.82l-39-22.52a5.66,5.66,0,0,1-2.49-3,3.61,3.61,0,0,1,2-3.81Z" transform="translate(-383.82 -278.19)"/><path class="cls-13" d="M430.91,365a8.48,8.48,0,0,1,4.4-1.05,7.63,7.63,0,0,1,2.26.42,10,10,0,0,1,1.28.6L477.11,387c.87.5,2.55,2,2.55,2.88.56,1.3-.11,2.78-1.82,3.77l-43.67,25.44c-.16.1-.58.32-.76.41a9.19,9.19,0,0,1-3.49.79,6.9,6.9,0,0,1-3.53-.8l-38.62-22.3c-.88-.51-2.59-2-2.59-2.9-.56-1.3.12-2.78,1.83-3.77Z" transform="translate(-383.82 -278.19)"/><path class="cls-14" d="M430.35,365.55a8.26,8.26,0,0,1,4.34-1,7.75,7.75,0,0,1,2.23.44,10.33,10.33,0,0,1,1.25.61L476,387.4c.75.44,2.65,2,2.65,2.74.7,1.24.09,2.73-1.63,3.73L434.09,418.8c-.14.08-.6.33-.75.4a8.89,8.89,0,0,1-3.42.8,6.66,6.66,0,0,1-3.46-.77l-38.24-22.08c-.76-.43-2.7-2-2.7-2.76-.7-1.24-.09-2.74,1.63-3.73Z" transform="translate(-383.82 -278.19)"/><path class="cls-15" d="M429.78,366.14a8,8,0,0,1,4.29-1,7.47,7.47,0,0,1,2.2.46c.22.08,1,.5,1.22.61l37.32,21.55c.63.36,2.74,2,2.74,2.58.85,1.19.31,2.7-1.42,3.7L434,418.48c-.12.07-.61.34-.74.4a8.68,8.68,0,0,1-3.35.8,6.45,6.45,0,0,1-3.4-.74l-37.86-21.86c-.63-.36-2.8-2-2.8-2.62-.84-1.18-.3-2.69,1.43-3.69Z" transform="translate(-383.82 -278.19)"/><path class="cls-16" d="M429.21,366.73a8,8,0,0,1,4.25-1,7.45,7.45,0,0,1,2.15.49c.18.07,1.05.53,1.2.62l36.85,21.27c.5.29,2.84,1.93,2.84,2.44,1,1.13.52,2.65-1.23,3.66l-41.35,23.91-.72.39a8.52,8.52,0,0,1-3.28.81,6.3,6.3,0,0,1-3.33-.7L389.1,397c-.5-.29-2.89-2-2.89-2.47-1-1.13-.52-2.65,1.22-3.66Z" transform="translate(-383.82 -278.19)"/><path class="cls-17" d="M428.65,367.31a7.67,7.67,0,0,1,4.19-.92,7.24,7.24,0,0,1,2.12.51c.13.05,1.06.55,1.17.62l36.38,21c.38.22,2.94,1.92,2.94,2.3,1.13,1.07.73,2.6-1,3.62l-40.58,23.4-.71.39a8.41,8.41,0,0,1-3.2.82,6.18,6.18,0,0,1-3.27-.68l-37.11-21.43c-.38-.21-3-1.95-3-2.33-1.13-1.07-.73-2.6,1-3.62Z" transform="translate(-383.82 -278.19)"/><path class="cls-18" d="M428.08,367.9a7.52,7.52,0,0,1,4.14-.89,7,7,0,0,1,2.09.53l1.14.62,35.91,20.74a18.66,18.66,0,0,1,3,2.15c1.27,1,.93,2.55-.84,3.57l-39.81,22.89s-.64.37-.7.39a8,8,0,0,1-3.12.83,6,6,0,0,1-3.21-.65L390,396.87a20.54,20.54,0,0,1-3.1-2.19c-1.27-1-.94-2.55.83-3.58Z" transform="translate(-383.82 -278.19)"/><path class="cls-19" d="M427.51,368.49a7.37,7.37,0,0,1,4.09-.86,6.63,6.63,0,0,1,2,.55l1.12.63,35.45,20.46c.12.08,3.12,1.88,3.12,2,1.41,1,1.15,2.51-.63,3.53l-39,22.38-.69.39a7.81,7.81,0,0,1-3.05.83,5.74,5.74,0,0,1-3.14-.62l-36.35-21c-.13-.07-3.21-1.92-3.21-2.05-1.41-.95-1.15-2.51.63-3.53Z" transform="translate(-383.82 -278.19)"/><path d="M426.86,417.51l-39.29-22.69c-1.55-.89-1.36-2.46.43-3.49L427,369.07a6.75,6.75,0,0,1,6.05-.25l39.29,22.69c1.55.89,1.36,2.46-.43,3.49l-38.95,22.25A6.72,6.72,0,0,1,426.86,417.51Z" transform="translate(-383.82 -278.19)"/></g><polygon class="cls-20" points="45.93 93.34 45.93 141.4 90.83 115.21 90.83 67.15 45.93 93.34"/><polygon class="cls-21" points="45.95 93.34 45.95 141.4 0.9 115.14 0.9 67.11 45.95 93.34"/><polygon class="cls-22" points="45.95 93.34 45.95 141.4 0.9 115.14 0.9 67.11 45.95 93.34"/><polygon class="cls-23" points="6.99 106.01 6.99 77.71 39.86 96.85 39.86 125.17 6.99 106.01"/><polygon class="cls-23" points="85.24 106.01 85.24 77.71 52.38 96.85 52.38 125.17 85.24 106.01"/><polygon class="cls-24" points="0.9 67.11 45.95 93.34 90.83 67.15 45.73 40.89 0.9 67.11"/><polygon class="cls-25" points="9.25 66.46 45.61 87.63 82.45 66.44 46.06 45.24 9.25 66.46"/><g class="cls-26"><polygon class="cls-27" points="27.65 77.1 45.73 87.63 64.06 77.09 45.96 66.55 27.65 77.1"/></g><path class="cls-28" d="M416.88,392.44l-19.2-11.09a4.53,4.53,0,0,1-1.89-3.61V366.21c0-1.39.85-2,1.89-1.43l19.2,11.09a4.52,4.52,0,0,1,1.9,3.62V391C418.78,392.4,417.93,393,416.88,392.44Z" transform="translate(-383.82 -278.19)"/><path class="cls-29" d="M416.27,392.58l-19.2-11.08a4.55,4.55,0,0,1-1.9-3.62V366.36c0-1.4.85-2,1.9-1.44L416.27,376a4.54,4.54,0,0,1,1.89,3.62v11.52C418.16,392.54,417.31,393.19,416.27,392.58Z" transform="translate(-383.82 -278.19)"/><path class="cls-30" d="M395.86,378.4V366.63c0-.9.54-1.3,1.21-.92l19.2,11.09a2.91,2.91,0,0,1,1.21,2.31v11.77c0,.89-.55,1.3-1.21.91l-19.2-11.08A2.9,2.9,0,0,1,395.86,378.4Z" transform="translate(-383.82 -278.19)"/><path class="cls-23" d="M416.06,386.11a.57.57,0,0,0-.37-.43l-.16,0a17,17,0,0,0-.63-2.15.3.3,0,0,0,.19-.14.5.5,0,0,0,0-.45.52.52,0,0,0-.48-.34h-.08a20.37,20.37,0,0,0-1-2.16.34.34,0,0,0,.16-.21.54.54,0,0,0-.08-.43.49.49,0,0,0-.41-.27h-.11l-.06,0a19.78,19.78,0,0,0-1.36-2l0-.06a.52.52,0,0,0-.09-.63.4.4,0,0,0-.58-.08,17.18,17.18,0,0,0-1.55-1.63l0-.15a.58.58,0,0,0-.22-.56.37.37,0,0,0-.57.06,14,14,0,0,0-1.61-1.15v-.2a.6.6,0,0,0-.31-.52l-.12-.06h-.07a.35.35,0,0,0-.35.29,10.47,10.47,0,0,0-1.51-.62l-.05-.24a.59.59,0,0,0-.41-.44h-.1a.34.34,0,0,0-.27.13.4.4,0,0,0-.08.34,6.29,6.29,0,0,0-1.2-.13h-.13l-.09-.23a.51.51,0,0,0-.44-.35h-.06a.37.37,0,0,0-.27.16.45.45,0,0,0,0,.41l0,.08a4.49,4.49,0,0,0-1.11.35l-.1-.17a.48.48,0,0,0-.4-.26.45.45,0,0,0-.2.06.41.41,0,0,0-.17.22.54.54,0,0,0,.06.39l.09.16a4.86,4.86,0,0,0-.86.78l0-.07a.4.4,0,0,0-.66,0,.5.5,0,0,0,.06.59l.15.19a6,6,0,0,0-.56,1.2.37.37,0,0,0-.63.19.55.55,0,0,0,.18.53l.3.27a.64.64,0,0,0,.19.27l.1.07a.41.41,0,0,0,.61-.23,4.23,4.23,0,0,1,4.17-3.51,7.52,7.52,0,0,1,3.7,1.14c3.81,2.2,7.16,7.08,8.15,11.88a.69.69,0,0,0,.45.52l.08,0h0l.09,0,.29.08h.1a.35.35,0,0,0,.27-.13A.45.45,0,0,0,416.06,386.11Zm-4.66-9Z" transform="translate(-383.82 -278.19)"/><path class="cls-23" d="M403.3,373.45l2.54,9.93v0a1.5,1.5,0,0,0,.69,1.2.86.86,0,0,0,.39.11.6.6,0,0,0,.59-.67,1.46,1.46,0,0,0-.35-.88Z" transform="translate(-383.82 -278.19)"/><path class="cls-31" d="M442.55,392.44l19.2-11.09a4.51,4.51,0,0,0,1.9-3.61V366.21c0-1.39-.85-2-1.9-1.43l-19.2,11.09a4.54,4.54,0,0,0-1.89,3.62V391C440.66,392.4,441.51,393,442.55,392.44Z" transform="translate(-383.82 -278.19)"/><path class="Graphic-Style-621" d="M443.17,392.58l19.2-11.08a4.57,4.57,0,0,0,1.89-3.62V366.36c0-1.4-.85-2-1.89-1.44L443.17,376a4.52,4.52,0,0,0-1.9,3.62v11.52C441.27,392.54,442.12,393.19,443.17,392.58Z" transform="translate(-383.82 -278.19)"/><path class="cls-32" d="M463.57,378.4V366.63c0-.9-.54-1.3-1.2-.92l-19.2,11.09a2.88,2.88,0,0,0-1.21,2.31v11.77c0,.89.54,1.3,1.21.91l19.2-11.08A2.92,2.92,0,0,0,463.57,378.4Z" transform="translate(-383.82 -278.19)"/><path class="cls-23" d="M443.44,386.5a.37.37,0,0,0,.27.13h.11l.28-.08.1,0h0l.08,0a.72.72,0,0,0,.46-.52c1-4.8,4.33-9.68,8.14-11.88a7.55,7.55,0,0,1,3.71-1.14,4.22,4.22,0,0,1,4.16,3.51.41.41,0,0,0,.61.23l.1-.07a.64.64,0,0,0,.19-.27l.3-.27a.53.53,0,0,0,.18-.53.37.37,0,0,0-.62-.19,6.66,6.66,0,0,0-.57-1.2l.15-.19a.5.5,0,0,0,.06-.59.4.4,0,0,0-.66,0l0,.07a4.86,4.86,0,0,0-.86-.78l.09-.16a.5.5,0,0,0,.06-.39.34.34,0,0,0-.17-.22.39.39,0,0,0-.2-.06.48.48,0,0,0-.4.26l-.09.17a4.57,4.57,0,0,0-1.12-.35l0-.08a.48.48,0,0,0,0-.41.35.35,0,0,0-.27-.16h-.06a.51.51,0,0,0-.44.35l-.09.23h-.13a6.29,6.29,0,0,0-1.2.13.43.43,0,0,0-.07-.34.37.37,0,0,0-.28-.13h-.1a.56.56,0,0,0-.4.44l-.05.24a10.13,10.13,0,0,0-1.52.62.35.35,0,0,0-.34-.29h-.08l-.12.06a.6.6,0,0,0-.31.52v.2a13.13,13.13,0,0,0-1.6,1.15.38.38,0,0,0-.58-.06.56.56,0,0,0-.21.56l0,.15a17.27,17.27,0,0,0-1.56,1.63.4.4,0,0,0-.58.08.53.53,0,0,0-.09.63l0,.06a21.6,21.6,0,0,0-1.36,2l-.06,0h-.11a.48.48,0,0,0-.4.27.55.55,0,0,0-.09.43.34.34,0,0,0,.16.21,20.37,20.37,0,0,0-1,2.16h-.08a.52.52,0,0,0-.48.34.5.5,0,0,0,0,.45.3.3,0,0,0,.19.14,17,17,0,0,0-.63,2.15l-.15,0a.58.58,0,0,0-.38.43A.45.45,0,0,0,443.44,386.5Zm4.59-9.41Z" transform="translate(-383.82 -278.19)"/><path class="cls-23" d="M456.13,373.45l-2.54,9.93v0a1.5,1.5,0,0,1-.69,1.2.82.82,0,0,1-.39.11.61.61,0,0,1-.59-.67,1.46,1.46,0,0,1,.35-.88Z" transform="translate(-383.82 -278.19)"/><polygon class="cls-33" points="46.24 143.55 46.24 150.13 91.34 123.82 91.34 117.25 46.24 143.55"/><polygon class="cls-34" points="46.27 143.55 46.27 150.13 1.02 123.75 1.02 117.2 46.27 143.55"/><polygon class="cls-35" points="82.72 21.37 46.02 0 9.54 21.34 9.54 66.57 45.88 87.73 82.72 66.54 82.72 21.37"/><path class="cls-36" d="M425.08,319.27l-.72-.3-.2-.09-.34-.14-.23-.1-.33-.14-.2-.09-.36-.16-.14-.07-.49-.22h0l-.69-.33-.08,0-.6-.3-.11-.06-.46-.24,0,0-.38-.21-.11-.07-.24-.14-.1-.05-.3-.19-.08-.05-.18-.12-.09-.06-.14-.09-.09-.07-.13-.09-.08-.06-.11-.09-.08-.06-.09-.08-.07-.06-.08-.08-.06,0-.07-.08-.05,0-.06-.07-.05-.07h0l-.07-.1h0l0-.1h0a.32.32,0,0,1,0-.09h0a.36.36,0,0,1,0-.1h0a.11.11,0,0,1,0-.08h0a.19.19,0,0,1,0-.07h0l0-.07h0a.18.18,0,0,1,.05-.07l-5.78,6,0,0a.08.08,0,0,0,0,0h0l0,0s0,0,0,0h0s0,0,0,0v0h0v.07h0v.09h0v.08h0v0l0,.05v0h0l0,0,0,.06h0l0,0,0,0,0,.07.06,0,.07.07.06.06.08.08.07.06.09.08.05,0,0,0,.1.09.09.06.12.09.07.05,0,0,.15.09.09.06.18.12.07.05h0l.31.19.09.05.24.14.06,0,.05,0,.38.21.05,0,.45.24.06,0,.05,0,.61.3.08,0,.68.33h0c.15.08.32.15.48.22l.15.07.36.16.2.09.33.14.22.1.34.14.12.05.09,0,.72.3Z" transform="translate(-383.82 -278.19)"/><polygon class="cls-37" points="35.49 47.08 41.27 41.08 41.26 42.94 35.49 48.94 35.49 47.08"/><polygon class="cls-37" points="35.51 42.44 41.28 36.44 41.28 36.77 35.51 42.77 35.51 42.44"/><path class="cls-38" d="M425.1,314.63l-.24-.07-.92-.26-.18-.05-1-.28-.16,0-.29-.07-.42-.11-.43-.1-.61-.14-.37-.08-.09,0-.78-.16-.14,0-.54-.09-.15,0-.18,0-.68-.1h-.07l-.66-.07H417l-.25,0-.38,0h-1.15l-.25,0h-.1l-.1,0h-.1l-.23.05h0l-.25.07,0,0-.08,0-.1.05-.08,0-.06,0a.86.86,0,0,0-.18.14l-5.78,6a1.24,1.24,0,0,1,.18-.14l.07,0,.17-.09.08,0a2.13,2.13,0,0,1,.3-.09h0l.34-.06.1,0,.35,0h.74l.41,0,.37,0,.34,0h.1l.67.07h.05l.69.1.17,0,.7.12.14,0,.86.18.37.08.62.14.42.1.72.18.15,0,1,.28.17,0,1.16.34h0Z" transform="translate(-383.82 -278.19)"/><path class="cls-39" d="M419.31,327.13c-15-5.75-16.16-11.29,0-6.5V321c-9.88-2.36-11-.19,0,4.3Z" transform="translate(-383.82 -278.19)"/><g class="cls-7"><g class="cls-40"><g class="cls-7"><polyline class="cls-41" points="37.51 61.94 43.29 55.94 43.29 55.94 37.51 61.94 37.51 61.94"/><polyline class="cls-42" points="37.51 61.94 43.29 55.94 43.29 55.95 37.51 61.95 37.51 61.94"/><polyline class="cls-43" points="37.51 61.95 43.29 55.95 43.29 55.95 37.51 61.95 37.51 61.95"/><polyline class="cls-44" points="37.51 61.95 43.29 55.95 43.29 55.95 37.51 61.95 37.51 61.95"/><polyline class="cls-45" points="37.51 61.95 43.29 55.95 43.29 55.95 37.51 61.95 37.51 61.95"/><polyline class="cls-46" points="37.51 61.95 43.29 55.95 43.29 55.96 37.51 61.96 37.51 61.95"/><polyline class="cls-47" points="37.51 61.96 43.29 55.96 43.28 55.96 37.51 61.96 37.51 61.96"/><polyline class="cls-48" points="37.51 61.96 43.28 55.96 43.28 55.97 37.51 61.97 37.51 61.96"/><path class="cls-49" d="M421.32,340.16l5.78-6-.06.08-5.78,6,.06-.08" transform="translate(-383.82 -278.19)"/></g></g></g><path class="cls-2" d="M420.39,330.16l5.78-6c-.1.1-.07.34-.09.5-.22,2.22-.43,4.44-.73,6.64l-5.77,6c.29-2.2.51-4.42.73-6.64C420.32,330.5,420.29,330.26,420.39,330.16Z" transform="translate(-383.82 -278.19)"/><g class="cls-50"><g class="cls-7"><path class="cls-51" d="M420.39,330.16l5.78-6,0,0-5.77,6,0,0" transform="translate(-383.82 -278.19)"/><path class="cls-52" d="M420.37,330.19l5.77-6v0l-5.77,6v0" transform="translate(-383.82 -278.19)"/><path class="cls-53" d="M420.36,330.21l5.77-6v0l-5.77,6v0" transform="translate(-383.82 -278.19)"/><path class="cls-54" d="M420.35,330.23l5.77-6v0l-5.77,6v0" transform="translate(-383.82 -278.19)"/><path class="cls-55" d="M420.34,330.26l5.77-6v0l-5.78,6v0" transform="translate(-383.82 -278.19)"/><path class="cls-56" d="M420.33,330.29l5.78-6v0l-5.77,6v0" transform="translate(-383.82 -278.19)"/><path class="cls-57" d="M420.33,330.32l5.77-6v.05l-5.78,6a.09.09,0,0,1,0-.05" transform="translate(-383.82 -278.19)"/><path class="cls-58" d="M420.32,330.37l5.78-6a.22.22,0,0,0,0,.08l-5.77,6v-.08" transform="translate(-383.82 -278.19)"/><path class="cls-59" d="M420.32,330.45l5.77-6v.12l-5.78,6s0-.08,0-.12" transform="translate(-383.82 -278.19)"/><path class="cls-60" d="M420.31,330.57l5.78-6a.15.15,0,0,1,0,.07l-5.77,6v-.07" transform="translate(-383.82 -278.19)"/><path class="cls-61" d="M420.31,330.64l5.77-6v0c-.22,2.22-.43,4.44-.73,6.64l-5.77,6c.29-2.2.51-4.42.73-6.64v0" transform="translate(-383.82 -278.19)"/></g></g><path class="cls-3" d="M422.11,332.4l5.77-6c-.1.51-.16,1-.21,1.45-.19,2.09-.37,4.19-.57,6.28l-5.77,6,.57-6.28A11,11,0,0,1,422.11,332.4Z" transform="translate(-383.82 -278.19)"/><g class="cls-62"><g class="cls-7"><path class="cls-63" d="M422.11,332.4l5.77-6v.08l-5.78,6,0-.08" transform="translate(-383.82 -278.19)"/><path class="cls-64" d="M422.09,332.48l5.78-6c-.05.22-.08.43-.11.63l-5.78,6c0-.2.07-.41.11-.63" transform="translate(-383.82 -278.19)"/><path class="cls-65" d="M422,333.11l5.78-6c0,.25-.06.49-.09.74-.19,2.09-.37,4.19-.57,6.28l-5.77,6,.57-6.28c0-.25.05-.49.08-.74" transform="translate(-383.82 -278.19)"/></g></g><path class="cls-4" d="M430.48,337.07l5.77-6a9.64,9.64,0,0,0-.14,1.51l-.21,4.83a1.22,1.22,0,0,1-.13.57L430,344a1.36,1.36,0,0,0,.13-.57c.07-1.61.13-3.22.21-4.83A9.64,9.64,0,0,1,430.48,337.07Z" transform="translate(-383.82 -278.19)"/><g class="cls-66"><g class="cls-7"><path class="cls-67" d="M430.48,337.07l5.77-6c0,.1,0,.2-.05.3l-5.77,6c0-.1,0-.2.05-.3" transform="translate(-383.82 -278.19)"/><path class="cls-68" d="M430.43,337.37l5.77-6c0,.14,0,.27,0,.41l-5.78,6c0-.14,0-.27.05-.41" transform="translate(-383.82 -278.19)"/><path class="cls-69" d="M430.38,337.78l5.78-6c0,.27,0,.53-.05.8l-.21,4.83v.11l-5.78,6s0-.07,0-.11c.07-1.61.13-3.22.21-4.83,0-.27,0-.53,0-.8" transform="translate(-383.82 -278.19)"/><path class="cls-70" d="M430.12,343.52l5.78-6s0,.07,0,.1l-5.77,6s0-.06,0-.1" transform="translate(-383.82 -278.19)"/><path class="cls-71" d="M430.11,343.62l5.77-6a.28.28,0,0,1,0,.09l-5.77,6s0-.06,0-.09" transform="translate(-383.82 -278.19)"/><path class="cls-72" d="M430.1,343.71l5.77-6a.19.19,0,0,1,0,.07l-5.77,6a.19.19,0,0,1,0-.07" transform="translate(-383.82 -278.19)"/><path class="cls-73" d="M430.08,343.78l5.77-6a.19.19,0,0,1,0,.07l-5.77,6a.19.19,0,0,1,0-.07" transform="translate(-383.82 -278.19)"/><path class="cls-74" d="M430.06,343.85l5.77-6,0,.08-5.77,6,0-.08" transform="translate(-383.82 -278.19)"/><path class="cls-75" d="M430,343.93l5.77-6,0,.05L430,344l0-.05" transform="translate(-383.82 -278.19)"/></g></g><path class="cls-5" d="M432.23,338.75l5.78-6a.18.18,0,0,0-.05.07,1.61,1.61,0,0,0-.18.7c-.11,2.78-.22,5.57-.38,8.33l-5.78,6c.17-2.76.27-5.55.38-8.33a1.77,1.77,0,0,1,.18-.7Z" transform="translate(-383.82 -278.19)"/><g class="cls-76"><g class="cls-7"><path class="cls-77" d="M432.23,338.75l5.78-6,0,.05-5.78,6,0-.05" transform="translate(-383.82 -278.19)"/><path class="cls-78" d="M432.19,338.8l5.78-6v0l0,.08-5.78,6a.3.3,0,0,0,0-.08v0" transform="translate(-383.82 -278.19)"/><path class="cls-79" d="M432.14,338.9l5.78-6-.05.11-5.77,6s0-.07,0-.11" transform="translate(-383.82 -278.19)"/><path class="cls-80" d="M432.1,339l5.77-6,0,.1-5.77,6,0-.1" transform="translate(-383.82 -278.19)"/><path class="cls-81" d="M432.07,339.11l5.77-6,0,.11-5.77,6,0-.11" transform="translate(-383.82 -278.19)"/><path class="cls-82" d="M432,339.22l5.77-6s0,.07,0,.11l-5.78,6s0-.07,0-.11" transform="translate(-383.82 -278.19)"/><path class="cls-83" d="M432,339.33l5.78-6s0,.07,0,.11l-5.77,6s0-.07,0-.11" transform="translate(-383.82 -278.19)"/><path class="cls-84" d="M432,339.44l5.77-6v.08c-.11,2.78-.22,5.57-.38,8.33l-5.78,6c.17-2.76.27-5.55.38-8.33a.25.25,0,0,0,0-.08" transform="translate(-383.82 -278.19)"/></g></g><g class="cls-7"><g class="cls-85"><g class="cls-7"><path class="cls-49" d="M430.53,337l5.77-6,0,0-5.78,6,0,0" transform="translate(-383.82 -278.19)"/><path class="cls-48" d="M430.5,337l5.78-6,0,0-5.77,6v0" transform="translate(-383.82 -278.19)"/><path class="cls-47" d="M430.49,337l5.77-6v0l-5.78,6v0" transform="translate(-383.82 -278.19)"/><polyline class="cls-46" points="46.66 58.87 52.44 52.87 52.44 52.88 46.66 58.88 46.66 58.87"/></g></g></g><path class="cls-6" d="M423.48,329.17l5.78-6c-.17,4.5-.33,9-.5,13.58l-5.77,6C423.15,338.21,423.32,333.67,423.48,329.17Z" transform="translate(-383.82 -278.19)"/><g class="cls-86"><g class="cls-7"><path class="cls-6" d="M423.48,329.17l5.78-6c-.17,4.5-.33,9-.5,13.58l-5.77,6c.16-4.54.33-9.08.49-13.58" transform="translate(-383.82 -278.19)"/></g></g><polygon class="cls-37" points="39.67 50.47 45.44 44.47 45.44 44.98 39.66 50.98 39.67 50.47"/><polygon class="cls-37" points="39.67 48.67 45.45 42.67 45.44 44.47 39.67 50.47 39.67 48.67"/><path class="cls-87" d="M425,327.41l.83.27c1.33.43,2.59.81,3.76,1.15v1.79c-1.1-.32-2.25-.67-3.46-1.06l-2.67-.9v-1.8Z" transform="translate(-383.82 -278.19)"/><path class="cls-88" d="M434.67,322.62l-.34-.1-.54-.16-.34-.11-.59-.18-.31-.1-.92-.29-.82-.27-1.55-.55h0l-5.77,6,1.54.55.83.27.92.29.29.1.61.18.33.11.55.16.33.1.22.06.51.15,5.77-6Z" transform="translate(-383.82 -278.19)"/><polygon class="cls-37" points="45.8 50.64 51.57 44.64 51.57 46.42 45.79 52.42 45.8 50.64"/><path class="cls-89" d="M418.52,311.13v0s0-.1,0-.15-.05-.2-.08-.3v-.06a2,2,0,0,1-.05-.24.59.59,0,0,1,0-.13l0-.17a.88.88,0,0,1,0-.16.77.77,0,0,1,0-.15,1.36,1.36,0,0,1,0-.2s0-.07,0-.1,0-.2,0-.31v-.31a.28.28,0,0,0,0-.09,1.79,1.79,0,0,1,0-.23s0-.05,0-.08,0-.21.05-.31v0l.06-.25a1,1,0,0,1,0-.1,1.18,1.18,0,0,1,.07-.2s0-.08,0-.11l.08-.15a1.74,1.74,0,0,1,.1-.19,1,1,0,0,1,.11-.17l.06-.09.21-.25-5.77,6a2.32,2.32,0,0,0-.21.25.47.47,0,0,0-.06.09.76.76,0,0,0-.08.11s0,0,0,.06l-.1.19a.41.41,0,0,1-.05.09l0,.06a1.17,1.17,0,0,0-.05.11.69.69,0,0,1,0,.1l0,.1,0,.1s0,0,0,.06,0,.13-.05.19v.06c0,.08,0,.16,0,.24v.13a.5.5,0,0,0,0,.12.37.37,0,0,1,0,.11v.15a1.34,1.34,0,0,0,0,.2v.07a2.44,2.44,0,0,1,0,.27v.12c0,.05,0,.11,0,.16v0s0,.1,0,.15,0,.08,0,.12v0l0,.17s0,.07,0,.1v0l.06.24v.05h0c0,.11.05.2.07.3v0a.56.56,0,0,0,0,.12v0c0,.05,0,.11,0,.16v0a2.53,2.53,0,0,0,.15.41h0l5.77-6c-.05-.14-.1-.27-.14-.41Z" transform="translate(-383.82 -278.19)"/><path class="cls-90" d="M433.79,331.71V332q-.26,9.54-.5,19.06h0l5.78-6q.24-9.52.49-19.06v-.32Z" transform="translate(-383.82 -278.19)"/><polygon class="cls-37" points="49.98 51.72 55.75 45.72 55.75 47.52 49.97 53.52 49.98 51.72"/><polygon class="cls-91" points="49.99 47.56 55.77 41.56 55.75 45.72 49.98 51.72 49.99 47.56"/><polygon class="cls-37" points="49.99 47.15 55.77 41.15 55.77 41.56 49.99 47.56 49.99 47.15"/><polygon class="cls-92" points="35.53 34.83 41.3 28.83 45.48 30.18 39.71 36.18 35.53 34.83"/><polygon class="cls-93" points="39.71 36.18 45.48 30.18 45.45 42.67 39.67 48.67 39.71 36.18"/><path class="cls-94" d="M423.52,314.38l0,12.48v2.31c-.16,4.5-.33,9-.49,13.58-.12-1.75-.18-3.48-.23-5.21-.05-1.44-.08-2.86-.12-4.29a2.7,2.7,0,0,0-.07-.63l0-.08a.44.44,0,0,0-.22-.17.19.19,0,0,0-.21,0,11,11,0,0,0-.21,1.45l-.57,6.28s0,.05-.07.11c0-.56-.06-1.07-.08-1.58-.08-2.59-.15-5.17-.23-7.75,0-.26.07-.63-.3-.78s-.32.29-.34.53c-.22,2.22-.44,4.44-.73,6.64q-.15-4.76-.28-9.49v-7.18l0-7.61Z" transform="translate(-383.82 -278.19)"/><path class="cls-95" d="M440.77,330.37h0l5.77-6-.11.09,0,0-.1,0-.06,0-.18.06h0l-.23.05h-.08l-.18,0h-1.08l-.48,0h-.16l-.37,0-.17,0-.31,0-.28,0-.29,0-.3-.05-.28-.05c-.17,0-.33-.06-.5-.09l-.24,0-.72-.15h-.06l-.75-.17-5.78,6,.75.17h.07l.71.15.24,0,.5.09.12,0,.17,0,.3.05.29,0,.28,0,.12,0,.19,0,.17,0,.36,0h.17l.47,0h1.39l.18,0h0l.14,0,0,0,.07,0,.05,0,.05,0,0,0Z" transform="translate(-383.82 -278.19)"/><path class="cls-96" d="M450.48,325.64h0v-.14h0v0l0-.05v0h0l0,0a.14.14,0,0,1,0-.06l0-.05h0l0-.08-.05-.07h0l-.06-.08a.36.36,0,0,0-.07-.1h0l-.15-.19-.06-.06-.13-.13-.09-.08-.13-.12-.1-.09-.14-.12,0,0-.1-.08-.12-.09-.16-.12-.12-.09h0l-.18-.12-.1-.08-.28-.18-.05,0h0l-.17-.1-.2-.12-.2-.12-.2-.12h0l-.06,0-.4-.22-.17-.09-.32-.17-.06,0-.12-.05-.41-.21-.2-.1-.49-.23-.11-.05,0,0-.75-.34-.2-.08-.71-.31-.1,0,0,0-.19-.08-.43-.18-.24-.09-.4-.16-.27-.11-.41-.16-.27-.1-.15-.06-.33-.12-.21-.08-.72-.26-5.77,6,.71.26.23.09.46.17.28.1.41.16.26.11.41.16.24.09.42.18.19.08.14.06c.25.1.49.2.72.31l.19.08.76.34.14.07.49.23.19.1.42.21.18.09.32.17.17.09.39.22.07,0,.22.13.18.11.21.13.16.1.06,0,.27.18.11.08.2.13.12.09.16.12.11.09.14.11.15.12.1.09.13.12.08.08.13.13.06.06.16.19.07.1a.22.22,0,0,1,.05.08,1.4,1.4,0,0,1,.1.16h0a1,1,0,0,1,.07.15h0c0,.06,0,.11.05.15h0a.78.78,0,0,1,0,.14h0a.57.57,0,0,1,0,.13h0a.5.5,0,0,1,0,.13h0a.41.41,0,0,1-.05.09.05.05,0,0,1,0,0,.36.36,0,0,1-.07.1l0,0h0l5.77-6,0,0,.06-.07v0l0,0,0,0s0,0,0-.05h0l0,0a.09.09,0,0,1,0-.05.06.06,0,0,1,0,0h0v-.13Z" transform="translate(-383.82 -278.19)"/><path class="cls-97" d="M433.81,325.34c8.43,3,11.75,5.62,10.72,6.8-.84,1-4.56,1-10.74-.43v-1.8c9.08,2.07,9.81-.06,0-4.16Z" transform="translate(-383.82 -278.19)"/><polygon class="cls-37" points="45.84 36.33 51.61 30.32 51.61 30.65 45.84 36.65 45.84 36.33"/><polygon class="cls-98" points="50.02 37.92 55.79 31.92 55.77 41.15 49.99 47.15 50.02 37.92"/><polygon class="cls-37" points="50.02 37.68 55.79 31.68 55.79 31.92 50.02 37.92 50.02 37.68"/><path class="cls-99" d="M433.83,315.87v.24l0,9.23v.41l0,4.16V332q-.26,9.54-.5,19.06c-.09-1.35-.12-2.67-.16-4-.05-2.43-.11-4.85-.17-7.28a2.47,2.47,0,0,0-.18-.81.54.54,0,0,0-.3-.31.24.24,0,0,0-.3.13,1.77,1.77,0,0,0-.18.7c-.11,2.78-.21,5.57-.38,8.33-.05-1-.1-2-.14-3.05-.11-2.48-.2-4.95-.32-7.44a.51.51,0,0,0-.36-.41c-.14-.05-.28,0-.32.12a9.64,9.64,0,0,0-.14,1.51c-.08,1.61-.14,3.22-.21,4.83a1.36,1.36,0,0,1-.13.57c-.13-4.45-.26-8.9-.39-13.3v-1.85l0-14v-.33Z" transform="translate(-383.82 -278.19)"/><polygon class="cls-100" points="45.84 36.33 51.61 30.32 55.79 31.68 50.02 37.68 45.84 36.33"/><polygon class="cls-100" points="35.77 20.51 41.54 14.51 45.3 15.72 39.52 21.72 35.77 20.51"/><path class="cls-101" d="M440.27,312.33l.1-.07.17-.13.08-.06.21-.2,5.78-6-.22.2-.07.06-.17.13-.11.07-.17.11-.13.06-.18.09-.33.14-.09,0-.19.06-.23.07-.14,0-.31.06-.15,0-.33,0h-.17l-.38,0h-.82l-.53,0-.22,0-.46-.06-.27,0-.49-.09-.29-.06-.5-.11c-.12,0-.25-.05-.37-.09l-.47-.12-.5-.14c-.3-.08-.61-.18-.93-.28l-13.55-4.39-.14-.05h0l-.16,0h-.05l-.06,0h-.05l-.21-.05-.07,0h0l-.2,0-.11,0h0l-.19,0-.13,0h0l-.16,0-.16,0h-1l-.3,0h0l-.32.05h-.05l-.12,0-.16,0-.1,0-.14,0-.1,0-.12.05-.2.08-.09,0-.19.1,0,0a2.92,2.92,0,0,0-.32.21l-.07.06a3.65,3.65,0,0,0-.3.27l-5.77,6a1.93,1.93,0,0,1,.3-.27L413,308a2.2,2.2,0,0,1,.32-.21l0,0,.27-.14.21-.08.21-.08.15,0,.26-.07.12,0,.37-.06h0l.36,0h.9l.21,0,.16,0,.17,0,.18,0,.14,0,.2,0,.12,0,.2.05.12,0h0l.16,0,.13.05L431.62,312l.84.26.09,0,.5.14.38.11h.08l.38.09.39.09.1,0,.29.06.33.06.16,0,.27,0,.22,0,.24,0,.23,0h.11l.41,0h1.5l.21,0,.15,0h.06l.24-.05.15,0h0l.2-.06.2-.06h0l.08,0,.33-.14,0,0,.13-.07.13-.07Z" transform="translate(-383.82 -278.19)"/><path class="cls-102" d="M429.93,306l3.71,5.11c-.27-.08-.55-.16-.84-.26l-2.88-.93Z" transform="translate(-383.82 -278.19)"/><polygon class="cls-103" points="46.11 27.8 51.89 21.8 55.6 26.91 49.82 32.91 46.11 27.8"/><path class="cls-104" d="M431.68,312c9.55,3.1,10-1.46,10.06-2.12,0,4.62-2.36,6.09-4.46,6.47a9.62,9.62,0,0,1-3.45-.25v-.24l-4.17-1.35v.33l-6.87-2.23c-12.06-3.91-10.55,2.92-10,4.69-4.31-12.39,4.4-10,5.32-9.69Z" transform="translate(-383.82 -278.19)"/><path class="cls-105" d="M447.51,303.83h0l-5.77,6v.07l2.94-3.05-2.94,3.05c0,.13,0,.26,0,.39l0,.54s0,.06,0,.1,0,.28-.05.42,0,.09,0,.13-.05.33-.08.48h0c0,.17-.07.32-.11.47l0,.11c0,.15-.09.31-.14.45l0,0c-.06.16-.12.32-.19.47l0,0a2.59,2.59,0,0,1-.14.29v0a2.55,2.55,0,0,1-.14.24l0,0a4.21,4.21,0,0,1-.28.41v0l-.32.37,5.77-6c.11-.12.22-.24.32-.37v0a4.27,4.27,0,0,0,.29-.41v0a1.38,1.38,0,0,0,.14-.24l0,0,.14-.29h0v0c.07-.15.14-.31.2-.47v0h0c.05-.14.1-.3.14-.45l0,0a.13.13,0,0,0,0-.06c0-.15.08-.3.11-.47h0c0-.15.05-.31.08-.48a.13.13,0,0,1,0-.06.17.17,0,0,1,0-.07c0-.14,0-.28,0-.42s0-.05,0-.08v0a4.89,4.89,0,0,0,0-.54v-.39h0S447.52,303.84,447.51,303.83Z" transform="translate(-383.82 -278.19)"/><ellipse class="cls-106" cx="39.71" cy="40.45" rx="1.1" ry="18.43"/><ellipse class="cls-107" cx="39.71" cy="40.45" rx="3.63" ry="6.73"/><ellipse class="cls-108" cx="50.17" cy="45.72" rx="1.68" ry="28.02"/><ellipse class="cls-109" cx="50.17" cy="45.72" rx="5.52" ry="10.23"/><path class="cls-110" d="M414.19,306.94c.11-.38,5.44.72,11.91,2.47s11.64,3.48,11.53,3.87-5.43-.72-11.91-2.47S414.09,307.33,414.19,306.94Z" transform="translate(-383.82 -278.19)"/><ellipse class="cls-111" cx="425.91" cy="310.11" rx="2.39" ry="4.43" transform="translate(-368.4 362.17) rotate(-74.88)"/><path class="cls-112" d="M440.71,317.84c.16.14-1.7,2.5-4.16,5.26S432,328,431.8,327.82s1.69-2.5,4.15-5.26S440.54,317.69,440.71,317.84Z" transform="translate(-383.82 -278.19)"/><ellipse class="cls-113" cx="436.25" cy="322.83" rx="2.44" ry="1.32" transform="translate(-478.91 155.11) rotate(-48.25)"/><path class="cls-114" d="M448.3,303.2c.15.15-1.72,2.3-4.17,4.82s-4.56,4.43-4.71,4.28,1.72-2.3,4.17-4.81S448.15,303.05,448.3,303.2Z" transform="translate(-383.82 -278.19)"/><polygon class="cls-115" points="39.52 21.72 45.3 15.72 45.27 23.59 39.5 29.59 39.52 21.72"/><polygon class="cls-116" points="35.79 15.94 41.56 9.94 45.3 15.72 39.53 21.72 35.79 15.94"/><polyline class="cls-117" points="35.79 15.94 35.75 28.38 39.5 29.59 39.53 21.72 35.79 15.94"/><path class="cls-118" d="M423.25,298.5a17.37,17.37,0,0,1,.31,4,16.24,16.24,0,0,1-.18,4,17.37,17.37,0,0,1-.31-4A16.24,16.24,0,0,1,423.25,298.5Z" transform="translate(-383.82 -278.19)"/><ellipse class="cls-119" cx="423.32" cy="302.52" rx="0.81" ry="1.47" transform="translate(-388.81 -271.08) rotate(-0.96)"/></g></g></svg>