<svg xmlns="http://www.w3.org/2000/svg" xmlns:xlink="http://www.w3.org/1999/xlink" viewBox="0 0 102.55 147.03"><defs><style>.cls-1{fill:none;}.cls-2{fill:url(#未命名的渐变_55);}.cls-3{fill:url(#未命名的渐变_55-2);}.cls-4{fill:url(#未命名的渐变_55-3);}.cls-5{fill:url(#未命名的渐变_55-4);}.cls-6{fill:url(#未命名的渐变_60);}.cls-7{isolation:isolate;}.cls-20,.cls-21,.cls-26,.cls-8{opacity:0.2;}.cls-9{opacity:0;}.cls-10{opacity:0.09;}.cls-11{opacity:0.18;}.cls-12{opacity:0.27;}.cls-13{opacity:0.36;}.cls-14{opacity:0.45;}.cls-15{opacity:0.55;}.cls-16{opacity:0.64;}.cls-17{opacity:0.73;}.cls-18{opacity:0.82;}.cls-19{opacity:0.91;}.cls-20{fill:url(#linear-gradient);}.cls-21{fill:url(#linear-gradient-2);}.cls-22{fill:url(#linear-gradient-3);}.cls-23,.cls-26{fill:#25054d;}.cls-24{fill:#45108a;}.cls-25{fill:url(#linear-gradient-4);}.cls-27{fill:url(#linear-gradient-5);}.cls-28{fill:url(#linear-gradient-6);}.cls-132,.cls-134,.cls-136,.cls-138,.cls-140,.cls-144,.cls-29,.cls-31,.cls-36,.cls-38,.cls-42,.cls-46,.cls-60{mix-blend-mode:color-dodge;}.cls-29{fill:url(#radial-gradient);}.cls-30{fill:url(#linear-gradient-7);}.cls-31{fill:url(#radial-gradient-2);}.cls-32{fill:url(#linear-gradient-8);}.cls-33{fill:url(#linear-gradient-9);}.cls-34{fill:url(#linear-gradient-10);}.cls-35{fill:url(#linear-gradient-11);}.cls-36{fill:url(#radial-gradient-3);}.cls-37{fill:url(#linear-gradient-12);}.cls-38{fill:url(#radial-gradient-4);}.cls-39{fill:url(#linear-gradient-13);}.cls-40{fill:url(#linear-gradient-14);}.cls-41{fill:url(#linear-gradient-15);}.cls-42{fill:url(#radial-gradient-5);}.cls-43{fill:url(#New_Gradient_Swatch_copy_7);}.cls-44{fill:url(#linear-gradient-16);}.cls-45{fill:url(#linear-gradient-17);}.cls-47{fill:url(#Radial_Gradient_1);}.cls-48{fill:url(#Radial_Gradient_1-2);}.cls-49{fill:url(#Radial_Gradient_1-3);}.cls-50{fill:url(#Radial_Gradient_1-4);}.cls-51{fill:url(#Radial_Gradient_1-5);}.cls-52{fill:url(#linear-gradient-18);}.cls-53{fill:url(#linear-gradient-19);}.cls-54{fill:url(#linear-gradient-20);}.cls-55{fill:url(#linear-gradient-21);}.cls-56{fill:url(#linear-gradient-22);}.cls-57{fill:url(#linear-gradient-23);}.cls-58{fill:url(#linear-gradient-24);}.cls-59{fill:url(#linear-gradient-25);}.cls-60{fill:url(#Radial_Gradient_1-6);}.cls-133,.cls-135,.cls-137,.cls-139,.cls-145,.cls-61{mix-blend-mode:screen;}.cls-61{fill:url(#未命名的渐变_14);}.cls-62{fill:url(#未命名的渐变_55-5);}.cls-63{fill:#ba8336;}.cls-64{fill:url(#linear-gradient-26);}.cls-65{fill:url(#linear-gradient-27);}.cls-66{clip-path:url(#clip-path);}.cls-67{fill:#ab7a31;}.cls-68{fill:#a7762f;}.cls-69{fill:#a1732e;}.cls-70{fill:#9c6e2c;}.cls-71{fill:#976b29;}.cls-72{fill:#926729;}.cls-73{fill:#8c6426;}.cls-74{fill:#886024;}.cls-75{fill:#825d23;}.cls-76{clip-path:url(#clip-path-2);}.cls-77{fill:url(#未命名的渐变_55-7);}.cls-78{fill:url(#未命名的渐变_55-8);}.cls-79{fill:url(#未命名的渐变_55-9);}.cls-80{fill:url(#未命名的渐变_55-10);}.cls-81{fill:url(#未命名的渐变_55-11);}.cls-82{fill:url(#未命名的渐变_55-12);}.cls-83{fill:url(#未命名的渐变_55-13);}.cls-84{fill:url(#未命名的渐变_55-14);}.cls-85{fill:url(#未命名的渐变_55-15);}.cls-86{fill:url(#未命名的渐变_55-16);}.cls-87{fill:url(#未命名的渐变_55-17);}.cls-88{clip-path:url(#clip-path-3);}.cls-89{fill:url(#未命名的渐变_55-19);}.cls-90{fill:url(#未命名的渐变_55-20);}.cls-91{fill:url(#未命名的渐变_55-21);}.cls-92{clip-path:url(#clip-path-4);}.cls-93{fill:url(#未命名的渐变_55-23);}.cls-94{fill:url(#未命名的渐变_55-24);}.cls-95{fill:url(#未命名的渐变_55-25);}.cls-96{fill:url(#未命名的渐变_55-26);}.cls-97{fill:url(#未命名的渐变_55-27);}.cls-98{fill:url(#未命名的渐变_55-28);}.cls-99{fill:url(#未命名的渐变_55-29);}.cls-100{fill:url(#未命名的渐变_55-30);}.cls-101{fill:url(#未命名的渐变_55-31);}.cls-102{clip-path:url(#clip-path-5);}.cls-103{fill:url(#未命名的渐变_55-33);}.cls-104{fill:url(#未命名的渐变_55-34);}.cls-105{fill:url(#未命名的渐变_55-35);}.cls-106{fill:url(#未命名的渐变_55-36);}.cls-107{fill:url(#未命名的渐变_55-37);}.cls-108{fill:url(#未命名的渐变_55-38);}.cls-109{fill:url(#未命名的渐变_55-39);}.cls-110{fill:url(#未命名的渐变_55-40);}.cls-111{clip-path:url(#clip-path-6);}.cls-112{clip-path:url(#clip-path-7);}.cls-113{fill:url(#linear-gradient-28);}.cls-114{fill:url(#未命名的渐变_60-4);}.cls-115{fill:url(#未命名的渐变_55-41);}.cls-116{fill:url(#未命名的渐变_61);}.cls-117{fill:url(#linear-gradient-29);}.cls-118{fill:url(#未命名的渐变_55-42);}.cls-119{fill:url(#linear-gradient-30);}.cls-120{fill:url(#linear-gradient-31);}.cls-121{fill:url(#linear-gradient-32);}.cls-122{fill:url(#linear-gradient-33);}.cls-123{fill:url(#linear-gradient-34);}.cls-124{fill:url(#linear-gradient-35);}.cls-125{fill:url(#linear-gradient-36);}.cls-126{fill:#d99940;}.cls-127{fill:url(#未命名的渐变_48);}.cls-128{fill:url(#linear-gradient-37);}.cls-129{fill:url(#linear-gradient-38);}.cls-130{fill:url(#linear-gradient-39);}.cls-131{fill:url(#linear-gradient-40);}.cls-132{fill:url(#Degradado_sin_nombre_724);}.cls-133{fill:url(#Degradado_sin_nombre_1217);}.cls-134{fill:url(#Degradado_sin_nombre_724-2);}.cls-135{fill:url(#Degradado_sin_nombre_1217-2);}.cls-136{fill:url(#Degradado_sin_nombre_724-3);}.cls-137{fill:url(#Degradado_sin_nombre_1217-3);}.cls-138{fill:url(#Degradado_sin_nombre_724-4);}.cls-139{fill:url(#Degradado_sin_nombre_1217-4);}.cls-140{fill:url(#Degradado_sin_nombre_724-5);}.cls-141{fill:#f6cf2e;}.cls-142{fill:url(#linear-gradient-41);}.cls-143{fill:url(#linear-gradient-42);}.cls-144{fill:url(#Degradado_sin_nombre_724-6);}.cls-145{fill:url(#Degradado_sin_nombre_1217-5);}</style><linearGradient id="未命名的渐变_55" x1="419.96" y1="332.5" x2="426.55" y2="332.5" gradientUnits="userSpaceOnUse"><stop offset="0" stop-color="#ffde85"/><stop offset="1" stop-color="#a45b00"/></linearGradient><linearGradient id="未命名的渐变_55-2" x1="421.72" y1="335.04" x2="428.27" y2="335.04" xlink:href="#未命名的渐变_55"/><linearGradient id="未命名的渐变_55-3" x1="430.39" y1="339.29" x2="436.64" y2="339.29" xlink:href="#未命名的渐变_55"/><linearGradient id="未命名的渐变_55-4" x1="432.01" y1="342.07" x2="438.4" y2="342.07" xlink:href="#未命名的渐变_55"/><linearGradient id="未命名的渐变_60" x1="423.38" y1="334.73" x2="429.64" y2="334.73" gradientUnits="userSpaceOnUse"><stop offset="0" stop-color="#ec5a06"/><stop offset="0.13" stop-color="#ee730f"/><stop offset="0.42" stop-color="#f2a520"/><stop offset="0.64" stop-color="#f5c32a"/><stop offset="0.76" stop-color="#f6cf2e"/></linearGradient><linearGradient id="linear-gradient" x1="592.79" y1="411.61" x2="691.97" y2="381.91" gradientTransform="translate(-529.57 -279.74)" gradientUnits="userSpaceOnUse"><stop offset="0" stop-color="#25054d"/><stop offset="1" stop-color="#45108a"/></linearGradient><linearGradient id="linear-gradient-2" x1="490.59" y1="423.63" x2="621.03" y2="394.39" xlink:href="#linear-gradient"/><linearGradient id="linear-gradient-3" x1="592.65" y1="400.33" x2="693.63" y2="370.1" xlink:href="#linear-gradient"/><linearGradient id="linear-gradient-4" x1="489.43" y1="412.57" x2="622.25" y2="382.8" xlink:href="#linear-gradient"/><linearGradient id="linear-gradient-5" x1="625.16" y1="287.72" x2="573.7" y2="385.8" xlink:href="#linear-gradient"/><linearGradient id="linear-gradient-6" x1="591.7" y1="389.61" x2="683.85" y2="362.02" gradientTransform="translate(-529.57 -279.74)" gradientUnits="userSpaceOnUse"><stop offset="0.04" stop-color="#138bbd"/><stop offset="0.23" stop-color="#169ac7"/><stop offset="0.59" stop-color="#1fc3df"/><stop offset="1" stop-color="#2af6ff"/></linearGradient><radialGradient id="radial-gradient" cx="608.42" cy="395.22" r="17.66" gradientTransform="translate(-529.57 -279.74)" gradientUnits="userSpaceOnUse"><stop offset="0" stop-color="#fff"/><stop offset="1"/></radialGradient><linearGradient id="linear-gradient-7" x1="496.74" y1="400.78" x2="617.94" y2="373.62" xlink:href="#linear-gradient-6"/><radialGradient id="radial-gradient-2" cx="553.95" cy="389.38" r="20.89" xlink:href="#radial-gradient"/><linearGradient id="linear-gradient-8" x1="592.65" y1="384.29" x2="693.63" y2="354.05" xlink:href="#linear-gradient"/><linearGradient id="linear-gradient-9" x1="489.43" y1="396.53" x2="622.25" y2="366.75" xlink:href="#linear-gradient"/><linearGradient id="linear-gradient-10" x1="625.16" y1="271.67" x2="573.7" y2="369.75" xlink:href="#linear-gradient"/><linearGradient id="linear-gradient-11" x1="591.7" y1="373.57" x2="683.85" y2="345.98" xlink:href="#linear-gradient-6"/><radialGradient id="radial-gradient-3" cx="608.42" cy="379.17" r="17.66" xlink:href="#radial-gradient"/><linearGradient id="linear-gradient-12" x1="496.74" y1="384.74" x2="617.94" y2="357.57" xlink:href="#linear-gradient-6"/><radialGradient id="radial-gradient-4" cx="553.95" cy="373.33" r="20.89" xlink:href="#radial-gradient"/><linearGradient id="linear-gradient-13" x1="592.65" y1="368.24" x2="693.63" y2="338.01" xlink:href="#linear-gradient"/><linearGradient id="linear-gradient-14" x1="489.43" y1="380.48" x2="622.25" y2="350.71" xlink:href="#linear-gradient"/><linearGradient id="linear-gradient-15" x1="625.16" y1="255.63" x2="573.7" y2="353.7" xlink:href="#linear-gradient"/><radialGradient id="radial-gradient-5" cx="583.25" cy="409.4" r="58.46" gradientTransform="translate(-529.57 -279.74)" gradientUnits="userSpaceOnUse"><stop offset="0" stop-color="#972a74"/><stop offset="0.04" stop-color="#8a266a"/><stop offset="0.19" stop-color="#601b4a"/><stop offset="0.35" stop-color="#3d112f"/><stop offset="0.51" stop-color="#230a1b"/><stop offset="0.67" stop-color="#0f040c"/><stop offset="0.83" stop-color="#040103"/><stop offset="1"/></radialGradient><linearGradient id="New_Gradient_Swatch_copy_7" x1="1774.02" y1="1245.01" x2="1739.21" y2="1311.35" gradientTransform="matrix(-0.5, 0.87, -0.58, -1, 2053.25, 130.75)" xlink:href="#linear-gradient-6"/><linearGradient id="linear-gradient-16" x1="603.69" y1="295.75" x2="574.21" y2="351.94" gradientTransform="translate(-147)" gradientUnits="userSpaceOnUse"><stop offset="0.14" stop-color="#4a1195"/><stop offset="0.5" stop-color="#5414a8"/><stop offset="0.87" stop-color="#25054d"/></linearGradient><linearGradient id="linear-gradient-17" x1="597.23" y1="308.15" x2="574.37" y2="351.72" gradientTransform="translate(-147)" gradientUnits="userSpaceOnUse"><stop offset="0" stop-color="#2e085f"/><stop offset="0.56" stop-color="#45108a"/><stop offset="1" stop-color="#5213a3"/></linearGradient><radialGradient id="Radial_Gradient_1" cx="572.03" cy="342.29" r="2.64" gradientTransform="translate(-147)" xlink:href="#radial-gradient"/><radialGradient id="Radial_Gradient_1-2" cx="567.34" cy="348.46" r="6.6" gradientTransform="translate(-147)" xlink:href="#radial-gradient"/><radialGradient id="Radial_Gradient_1-3" cx="580.14" cy="340.4" r="2.36" gradientTransform="translate(-147)" xlink:href="#radial-gradient"/><radialGradient id="Radial_Gradient_1-4" cx="588.15" cy="347.54" r="5.81" gradientTransform="translate(-147)" xlink:href="#radial-gradient"/><radialGradient id="Radial_Gradient_1-5" cx="578.39" cy="355.04" r="4.7" gradientTransform="translate(-147)" xlink:href="#radial-gradient"/><linearGradient id="linear-gradient-18" x1="569.78" y1="339.31" x2="569.77" y2="339.33" gradientTransform="translate(-529.57 -279.74)" xlink:href="#linear-gradient-17"/><linearGradient id="linear-gradient-19" x1="565.33" y1="342.81" x2="574.09" y2="342.81" gradientTransform="translate(-147)" gradientUnits="userSpaceOnUse"><stop offset="0.12" stop-color="#340a69"/><stop offset="0.36" stop-color="#4a1195"/><stop offset="0.58" stop-color="#3c0c79"/><stop offset="0.87" stop-color="#25054d"/></linearGradient><linearGradient id="linear-gradient-20" x1="558.35" y1="346.34" x2="558.22" y2="346.57" xlink:href="#linear-gradient-17"/><linearGradient id="linear-gradient-21" x1="571.8" y1="341.37" x2="581.14" y2="341.37" xlink:href="#linear-gradient-19"/><linearGradient id="linear-gradient-22" x1="587.99" y1="348.82" x2="596.13" y2="348.82" xlink:href="#linear-gradient-19"/><linearGradient id="linear-gradient-23" x1="556.81" y1="349.87" x2="573.38" y2="349.87" xlink:href="#linear-gradient-19"/><linearGradient id="linear-gradient-24" x1="571.75" y1="355.95" x2="585.83" y2="355.95" xlink:href="#linear-gradient-19"/><linearGradient id="linear-gradient-25" x1="1749.79" y1="1291.1" x2="1742.61" y2="1304.79" gradientTransform="matrix(0.87, 0.5, -1, 0.58, 223.43, -1277.85)" xlink:href="#linear-gradient-17"/><radialGradient id="Radial_Gradient_1-6" cx="577.21" cy="347.48" r="3.34" gradientTransform="translate(-147)" xlink:href="#radial-gradient"/><linearGradient id="未命名的渐变_14" x1="577.15" y1="374.34" x2="577.15" y2="289.81" gradientTransform="translate(-147)" gradientUnits="userSpaceOnUse"><stop offset="0" stop-color="#43e8e1"/><stop offset="0.09" stop-color="#36bdb7" stop-opacity="0.81"/><stop offset="0.22" stop-color="#288b87" stop-opacity="0.6"/><stop offset="0.34" stop-color="#1c605d" stop-opacity="0.42"/><stop offset="0.47" stop-color="#123e3c" stop-opacity="0.27"/><stop offset="0.6" stop-color="#0a2321" stop-opacity="0.15"/><stop offset="0.73" stop-color="#040f0f" stop-opacity="0.07"/><stop offset="0.86" stop-color="#010404" stop-opacity="0.02"/><stop offset="1" stop-opacity="0"/></linearGradient><linearGradient id="未命名的渐变_55-5" x1="411.86" y1="321.58" x2="425.47" y2="321.58" xlink:href="#未命名的渐变_55"/><linearGradient id="linear-gradient-26" x1="408.22" y1="318.49" x2="425.49" y2="318.49" gradientUnits="userSpaceOnUse"><stop offset="0" stop-color="#ec5a06"/><stop offset="0.18" stop-color="#ee730f"/><stop offset="0.55" stop-color="#f2a520"/><stop offset="0.84" stop-color="#f5c32a"/><stop offset="1" stop-color="#f6cf2e"/></linearGradient><linearGradient id="linear-gradient-27" x1="412.96" y1="326.3" x2="417.35" y2="320.58" xlink:href="#linear-gradient-26"/><clipPath id="clip-path" transform="translate(-382.57 -279.74)"><path class="cls-1" d="M421.72,341.9l5.77-6s0,.05-.07.11l-5.77,6C421.7,342,421.72,341.93,421.72,341.9Z"/></clipPath><clipPath id="clip-path-2" transform="translate(-382.57 -279.74)"><path class="cls-2" d="M420.78,331.93l5.77-6c-.09.1-.06.34-.08.49-.22,2.23-.43,4.45-.73,6.65l-5.78,6c.3-2.2.52-4.42.74-6.65C420.71,332.27,420.68,332,420.78,331.93Z"/></clipPath><linearGradient id="未命名的渐变_55-7" x1="420.76" y1="328.94" x2="426.55" y2="328.94" xlink:href="#未命名的渐变_55"/><linearGradient id="未命名的渐变_55-8" x1="420.74" y1="328.97" x2="426.53" y2="328.97" xlink:href="#未命名的渐变_55"/><linearGradient id="未命名的渐变_55-9" x1="420.74" y1="328.99" x2="426.52" y2="328.99" xlink:href="#未命名的渐变_55"/><linearGradient id="未命名的渐变_55-10" x1="420.73" y1="329.02" x2="426.51" y2="329.02" xlink:href="#未命名的渐变_55"/><linearGradient id="未命名的渐变_55-11" x1="420.72" y1="329.04" x2="426.5" y2="329.04" xlink:href="#未命名的渐变_55"/><linearGradient id="未命名的渐变_55-12" x1="420.71" y1="329.08" x2="426.49" y2="329.08" xlink:href="#未命名的渐变_55"/><linearGradient id="未命名的渐变_55-13" x1="420.71" y1="329.12" x2="426.49" y2="329.12" xlink:href="#未命名的渐变_55"/><linearGradient id="未命名的渐变_55-14" x1="420.7" y1="329.18" x2="426.48" y2="329.18" xlink:href="#未命名的渐变_55"/><linearGradient id="未命名的渐变_55-15" x1="420.7" y1="329.28" x2="426.48" y2="329.28" xlink:href="#未命名的渐变_55"/><linearGradient id="未命名的渐变_55-16" x1="420.7" y1="329.38" x2="426.48" y2="329.38" xlink:href="#未命名的渐变_55"/><linearGradient id="未命名的渐变_55-17" x1="419.96" y1="332.74" x2="426.47" y2="332.74" xlink:href="#未命名的渐变_55"/><clipPath id="clip-path-3" transform="translate(-382.57 -279.74)"><path class="cls-3" d="M422.5,334.17l5.77-6a13,13,0,0,0-.21,1.45l-.57,6.28-5.77,6,.57-6.28A11,11,0,0,1,422.5,334.17Z"/></clipPath><linearGradient id="未命名的渐变_55-19" x1="422.48" y1="331.21" x2="428.27" y2="331.21" xlink:href="#未命名的渐变_55"/><linearGradient id="未命名的渐变_55-20" x1="422.37" y1="331.57" x2="428.25" y2="331.57" xlink:href="#未命名的渐变_55"/><linearGradient id="未命名的渐变_55-21" x1="421.72" y1="335.39" x2="428.15" y2="335.39" xlink:href="#未命名的渐变_55"/><clipPath id="clip-path-4" transform="translate(-382.57 -279.74)"><path class="cls-4" d="M430.87,338.84l5.77-6a9.64,9.64,0,0,0-.14,1.51c-.08,1.6-.14,3.22-.21,4.83a1.22,1.22,0,0,1-.13.57l-5.77,6a1.36,1.36,0,0,0,.13-.57c.06-1.61.13-3.23.2-4.83A11,11,0,0,1,430.87,338.84Z"/></clipPath><linearGradient id="未命名的渐变_55-23" x1="430.82" y1="335.99" x2="436.64" y2="335.99" xlink:href="#未命名的渐变_55"/><linearGradient id="未命名的渐变_55-24" x1="430.77" y1="336.34" x2="436.59" y2="336.34" xlink:href="#未命名的渐变_55"/><linearGradient id="未命名的渐变_55-25" x1="430.51" y1="339.42" x2="436.54" y2="339.42" xlink:href="#未命名的渐变_55"/><linearGradient id="未命名的渐变_55-26" x1="430.5" y1="342.34" x2="436.28" y2="342.34" xlink:href="#未命名的渐变_55"/><linearGradient id="未命名的渐变_55-27" x1="430.48" y1="342.43" x2="436.27" y2="342.43" xlink:href="#未命名的渐变_55"/><linearGradient id="未命名的渐变_55-28" x1="430.47" y1="342.51" x2="436.26" y2="342.51" xlink:href="#未命名的渐变_55"/><linearGradient id="未命名的渐变_55-29" x1="430.44" y1="342.59" x2="436.24" y2="342.59" xlink:href="#未命名的渐变_55"/><linearGradient id="未命名的渐变_55-30" x1="430.41" y1="342.66" x2="436.22" y2="342.66" xlink:href="#未命名的渐变_55"/><linearGradient id="未命名的渐变_55-31" x1="430.39" y1="342.72" x2="436.19" y2="342.72" xlink:href="#未命名的渐变_55"/><clipPath id="clip-path-5" transform="translate(-382.57 -279.74)"><path class="cls-5" d="M432.62,340.52l5.78-6a.18.18,0,0,0,0,.07,1.61,1.61,0,0,0-.18.7c-.12,2.78-.22,5.56-.39,8.33l-5.77,6c.17-2.77.27-5.55.38-8.33a1.61,1.61,0,0,1,.18-.7Z"/></clipPath><linearGradient id="未命名的渐变_55-33" x1="432.58" y1="337.55" x2="438.4" y2="337.55" xlink:href="#未命名的渐变_55"/><linearGradient id="未命名的渐变_55-34" x1="432.53" y1="337.62" x2="438.36" y2="337.62" xlink:href="#未命名的渐变_55"/><linearGradient id="未命名的渐变_55-35" x1="432.49" y1="337.72" x2="438.31" y2="337.72" xlink:href="#未命名的渐变_55"/><linearGradient id="未命名的渐变_55-36" x1="432.45" y1="337.83" x2="438.26" y2="337.83" xlink:href="#未命名的渐变_55"/><linearGradient id="未命名的渐变_55-37" x1="432.43" y1="337.94" x2="438.23" y2="337.94" xlink:href="#未命名的渐变_55"/><linearGradient id="未命名的渐变_55-38" x1="432.41" y1="338.04" x2="438.2" y2="338.04" xlink:href="#未命名的渐变_55"/><linearGradient id="未命名的渐变_55-39" x1="432.4" y1="338.15" x2="438.18" y2="338.15" xlink:href="#未命名的渐变_55"/><linearGradient id="未命名的渐变_55-40" x1="432.01" y1="342.41" x2="438.17" y2="342.41" xlink:href="#未命名的渐变_55"/><clipPath id="clip-path-6" transform="translate(-382.57 -279.74)"><path class="cls-1" d="M430.91,338.76l5.78-6a.16.16,0,0,0-.05.08l-5.77,6A.15.15,0,0,1,430.91,338.76Z"/></clipPath><clipPath id="clip-path-7" transform="translate(-382.57 -279.74)"><path class="cls-6" d="M423.87,330.94l5.77-6c-.16,4.5-.32,9-.49,13.58l-5.77,6C423.54,340,423.71,335.44,423.87,330.94Z"/></clipPath><linearGradient id="linear-gradient-28" x1="426.95" y1="332.59" x2="426.92" y2="326.45" xlink:href="#linear-gradient-26"/><linearGradient id="未命名的渐变_60-4" x1="423.88" y1="326.61" x2="435.78" y2="326.61" xlink:href="#未命名的渐变_60"/><linearGradient id="未命名的渐变_55-41" x1="412.81" y1="313.9" x2="419.46" y2="313.9" xlink:href="#未命名的渐变_55"/><linearGradient id="未命名的渐变_61" x1="433.5" y1="337.02" x2="444.41" y2="347.38" gradientUnits="userSpaceOnUse"><stop offset="0" stop-color="#ec5a06"/><stop offset="0.02" stop-color="#ed6309"/><stop offset="0.11" stop-color="#f08414"/><stop offset="0.2" stop-color="#f29f1e"/><stop offset="0.31" stop-color="#f4b525"/><stop offset="0.42" stop-color="#f5c42a"/><stop offset="0.55" stop-color="#f6cc2d"/><stop offset="0.76" stop-color="#f6cf2e"/></linearGradient><linearGradient id="linear-gradient-29" x1="51.61" y1="46.86" x2="57.4" y2="46.86" gradientUnits="userSpaceOnUse"><stop offset="0" stop-color="#fdbd00"/><stop offset="1" stop-color="#fd9b00"/></linearGradient><linearGradient id="未命名的渐变_55-42" x1="37.16" y1="32.73" x2="47.12" y2="32.73" xlink:href="#未命名的渐变_55"/><linearGradient id="linear-gradient-30" x1="41.31" y1="39.65" x2="47.12" y2="39.65" xlink:href="#linear-gradient-29"/><linearGradient id="linear-gradient-31" x1="419.69" y1="329.66" x2="423.91" y2="329.66" xlink:href="#linear-gradient-26"/><linearGradient id="linear-gradient-32" x1="434.18" y1="329.08" x2="442.65" y2="329.08" xlink:href="#linear-gradient-26"/><linearGradient id="linear-gradient-33" x1="434.2" y1="327.53" x2="450.87" y2="327.53" xlink:href="#linear-gradient-26"/><linearGradient id="linear-gradient-34" x1="439.64" y1="335.85" x2="439.64" y2="324.93" xlink:href="#linear-gradient-26"/><linearGradient id="linear-gradient-35" x1="51.63" y1="39.76" x2="57.43" y2="39.76" xlink:href="#linear-gradient-26"/><linearGradient id="linear-gradient-36" x1="430" y1="334.57" x2="434.22" y2="334.57" xlink:href="#linear-gradient-26"/><linearGradient id="未命名的渐变_48" x1="413" y1="308.93" x2="446.99" y2="308.93" gradientUnits="userSpaceOnUse"><stop offset="0" stop-color="#f6cf2e"/><stop offset="0.16" stop-color="#f5c32a"/><stop offset="0.45" stop-color="#f2a520"/><stop offset="0.82" stop-color="#ee730f"/><stop offset="1" stop-color="#ec5a06"/></linearGradient><linearGradient id="linear-gradient-37" x1="430.31" y1="310.31" x2="434.03" y2="310.31" xlink:href="#linear-gradient-29"/><linearGradient id="linear-gradient-38" x1="47.75" y1="27.57" x2="57.23" y2="27.57" xlink:href="#linear-gradient-26"/><linearGradient id="linear-gradient-39" x1="412" y1="314.04" x2="442.13" y2="314.04" xlink:href="#linear-gradient-26"/><linearGradient id="linear-gradient-40" x1="440.48" y1="311.14" x2="447.9" y2="311.14" xlink:href="#linear-gradient-29"/><radialGradient id="Degradado_sin_nombre_724" cx="467.82" cy="405.98" r="9.47" gradientTransform="translate(88.64 -869.76) rotate(90) scale(1.95 0.12)" gradientUnits="userSpaceOnUse"><stop offset="0" stop-color="#fff"/><stop offset="0.02" stop-color="#f7f7f7" stop-opacity="0.97"/><stop offset="0.13" stop-color="#bebebe" stop-opacity="0.74"/><stop offset="0.25" stop-color="#8b8b8b" stop-opacity="0.54"/><stop offset="0.37" stop-color="#606060" stop-opacity="0.38"/><stop offset="0.49" stop-color="#3d3d3d" stop-opacity="0.24"/><stop offset="0.62" stop-color="#222" stop-opacity="0.14"/><stop offset="0.74" stop-color="#0f0f0f" stop-opacity="0.06"/><stop offset="0.87" stop-color="#040404" stop-opacity="0.01"/><stop offset="1" stop-opacity="0"/></radialGradient><radialGradient id="Degradado_sin_nombre_1217" cx="514.55" cy="578.89" r="9.47" gradientTransform="translate(263.17 -325.07) rotate(90) scale(0.71 0.38)" gradientUnits="userSpaceOnUse"><stop offset="0" stop-color="#ec65da"/><stop offset="0.03" stop-color="#e562d3" stop-opacity="0.97"/><stop offset="0.39" stop-color="#84397a" stop-opacity="0.56"/><stop offset="0.68" stop-color="#3d1a38" stop-opacity="0.26"/><stop offset="0.89" stop-color="#110710" stop-opacity="0.07"/><stop offset="1" stop-opacity="0"/></radialGradient><radialGradient id="Degradado_sin_nombre_724-2" cx="470.53" cy="316.15" r="14.39" xlink:href="#Degradado_sin_nombre_724"/><radialGradient id="Degradado_sin_nombre_1217-2" cx="521.97" cy="551.58" r="14.4" xlink:href="#Degradado_sin_nombre_1217"/><radialGradient id="Degradado_sin_nombre_724-3" cx="1269.92" cy="3984.92" r="6.24" gradientTransform="matrix(-1.88, -0.51, -0.03, 0.11, 2933.29, 508.54)" xlink:href="#Degradado_sin_nombre_724"/><radialGradient id="Degradado_sin_nombre_1217-3" cx="2710.48" cy="1666.77" r="6.24" gradientTransform="matrix(0, -0.71, -0.38, 0, 1065, 2238.62)" xlink:href="#Degradado_sin_nombre_1217"/><radialGradient id="Degradado_sin_nombre_724-4" cx="1413.76" cy="15784.12" r="3.44" gradientTransform="matrix(1.3, -1.45, -0.09, -0.08, -23.66, 3601.98)" xlink:href="#Degradado_sin_nombre_724"/><radialGradient id="Degradado_sin_nombre_1217-4" cx="3104.39" cy="5254.59" r="3.44" gradientTransform="matrix(0.71, 0, 0, -0.38, -1770.13, 2338.14)" xlink:href="#Degradado_sin_nombre_1217"/><radialGradient id="Degradado_sin_nombre_724-5" cx="1287.06" cy="19343.34" r="3.27" gradientTransform="matrix(1.36, -1.39, -0.08, -0.08, 309.9, 3676.51)" xlink:href="#Degradado_sin_nombre_724"/><linearGradient id="linear-gradient-41" x1="37.42" y1="16.05" x2="46.94" y2="16.05" xlink:href="#linear-gradient-26"/><linearGradient id="linear-gradient-42" x1="37.38" y1="22.99" x2="41.16" y2="22.99" xlink:href="#linear-gradient-29"/><radialGradient id="Degradado_sin_nombre_724-6" cx="1341.07" cy="8673.91" r="2.06" gradientTransform="matrix(-0.03, -1.96, -0.12, 0, 1504.58, 2909.03)" xlink:href="#Degradado_sin_nombre_724"/><radialGradient id="Degradado_sin_nombre_1217-5" cx="2905.32" cy="3092.57" r="2.06" gradientTransform="matrix(0, -0.71, -0.39, 0, 1639.93, 2379.39)" xlink:href="#Degradado_sin_nombre_1217"/></defs><title>图标3</title><g class="cls-7"><g id="图层_1" data-name="图层 1"><g class="cls-8"><path class="cls-9" d="M429.81,418.88a7.69,7.69,0,0,1-3.88-.94L384.8,394.2a4.11,4.11,0,0,1-2.23-3.55,4.78,4.78,0,0,1,2.68-4l47.91-28.18a9.59,9.59,0,0,1,4.72-1.2,7.79,7.79,0,0,1,3.88.94l41.13,23.75a4.11,4.11,0,0,1,2.23,3.55,4.8,4.8,0,0,1-2.68,4l-47.91,28.17A9.62,9.62,0,0,1,429.81,418.88Z" transform="translate(-382.57 -279.74)"/><path class="cls-10" d="M432.58,359.05a9.29,9.29,0,0,1,4.66-1.17,8.2,8.2,0,0,1,2.43.36,7.38,7.38,0,0,1,1.4.6l40.64,23.47a4.5,4.5,0,0,1,2.33,3.4,4.4,4.4,0,0,1-2.48,4l-47.12,27.65c-.24.14-.56.3-.82.42a9.83,9.83,0,0,1-3.81.79,7.64,7.64,0,0,1-3.81-.91l-40.75-23.52a4.54,4.54,0,0,1-2.33-3.41,4.4,4.4,0,0,1,2.48-4Z" transform="translate(-382.57 -279.74)"/><path class="cls-11" d="M432,359.65a9.11,9.11,0,0,1,4.61-1.14,8.54,8.54,0,0,1,2.39.38,8.15,8.15,0,0,1,1.37.62l40.17,23.19A5,5,0,0,1,483,386a4,4,0,0,1-2.28,3.94L434.36,417c-.22.13-.58.31-.82.42a9.56,9.56,0,0,1-3.72.79,7.38,7.38,0,0,1-3.75-.88l-40.36-23.3a5,5,0,0,1-2.44-3.26,4,4,0,0,1,2.27-3.94Z" transform="translate(-382.57 -279.74)"/><path class="cls-12" d="M431.42,360.25a8.94,8.94,0,0,1,4.56-1.11,8.25,8.25,0,0,1,2.35.41,9.77,9.77,0,0,1,1.35.62l39.68,22.91a5.71,5.71,0,0,1,2.52,3.1,3.71,3.71,0,0,1-2.07,3.91l-45.54,26.6c-.2.11-.59.32-.8.41a9.27,9.27,0,0,1-3.65.81,7.3,7.3,0,0,1-3.69-.85l-40-23.08a5.75,5.75,0,0,1-2.55-3.11,3.7,3.7,0,0,1,2.07-3.91Z" transform="translate(-382.57 -279.74)"/><path class="cls-13" d="M430.84,360.85a8.67,8.67,0,0,1,4.5-1.07,7.6,7.6,0,0,1,2.32.43,10,10,0,0,1,1.32.62l39.2,22.63c.91.52,2.62,2,2.62,3,.58,1.34-.11,2.86-1.87,3.87l-44.75,26.08c-.17.1-.6.33-.78.41a9.07,9.07,0,0,1-3.58.81,7,7,0,0,1-3.62-.82l-39.58-22.85c-.9-.52-2.65-2.06-2.65-3-.58-1.34.11-2.86,1.87-3.87Z" transform="translate(-382.57 -279.74)"/><path class="cls-14" d="M430.26,361.45a8.56,8.56,0,0,1,4.45-1,8.17,8.17,0,0,1,2.29.45c.27.1,1.05.5,1.29.63L477,383.85c.77.44,2.71,2,2.71,2.8.73,1.28.1,2.81-1.66,3.82L434.1,416l-.77.41a9.08,9.08,0,0,1-3.51.82,6.9,6.9,0,0,1-3.55-.79l-39.19-22.63c-.78-.45-2.76-2-2.76-2.83-.73-1.27-.1-2.8,1.66-3.82Z" transform="translate(-382.57 -279.74)"/><path class="cls-15" d="M429.68,362.05a8.31,8.31,0,0,1,4.4-1,7.49,7.49,0,0,1,2.25.47c.22.08,1.07.52,1.26.63l38.24,22.08c.65.37,2.81,2,2.81,2.65.87,1.22.32,2.76-1.46,3.79L434,415.7c-.12.07-.63.35-.76.41a8.87,8.87,0,0,1-3.43.82,6.63,6.63,0,0,1-3.48-.76l-38.81-22.4c-.64-.37-2.86-2-2.86-2.68-.87-1.22-.32-2.76,1.46-3.79Z" transform="translate(-382.57 -279.74)"/><path class="cls-16" d="M429.1,362.66a8,8,0,0,1,4.35-1,7.23,7.23,0,0,1,2.21.5c.18.07,1.08.55,1.24.64l37.76,21.79c.51.3,2.91,2,2.91,2.51,1,1.15.52,2.71-1.26,3.74l-42.39,24.51c-.09.06-.64.35-.74.4a8.54,8.54,0,0,1-3.35.84,6.5,6.5,0,0,1-3.42-.73L388,393.7c-.52-.3-3-2-3-2.54-1-1.16-.53-2.71,1.26-3.75Z" transform="translate(-382.57 -279.74)"/><path class="cls-17" d="M428.52,363.26a7.86,7.86,0,0,1,4.29-.95,7.5,7.5,0,0,1,2.18.52l1.22.65L473.48,385c.38.22,3,2,3,2.35,1.15,1.1.74,2.67-1.06,3.71l-41.59,24-.73.4a8.59,8.59,0,0,1-3.28.84,6.36,6.36,0,0,1-3.35-.69l-38-22c-.38-.23-3.07-2-3.07-2.4-1.16-1.1-.75-2.66,1.05-3.7Z" transform="translate(-382.57 -279.74)"/><path class="cls-18" d="M427.94,363.86a7.67,7.67,0,0,1,4.24-.91,7,7,0,0,1,2.14.54l1.19.65,36.79,21.24a19.56,19.56,0,0,1,3.11,2.21c1.3,1,1,2.61-.86,3.66l-40.8,23.46-.72.4a8.52,8.52,0,0,1-3.2.85,6.21,6.21,0,0,1-3.28-.67L388.9,393.56a21.11,21.11,0,0,1-3.18-2.25c-1.3-1-1-2.62.85-3.67Z" transform="translate(-382.57 -279.74)"/><path class="cls-19" d="M427.36,364.46a7.51,7.51,0,0,1,4.19-.88,6.75,6.75,0,0,1,2.1.57l1.17.65,36.31,21c.12.08,3.2,1.93,3.2,2.06,1.44,1,1.17,2.57-.65,3.62l-40,22.94-.7.4a8.17,8.17,0,0,1-3.13.85,5.88,5.88,0,0,1-3.21-.63l-37.26-21.52c-.13-.07-3.29-2-3.29-2.1-1.45-1-1.18-2.57.65-3.62Z" transform="translate(-382.57 -279.74)"/><path d="M426.69,414.7l-40.27-23.25c-1.59-.92-1.39-2.52.44-3.58l39.92-22.81a6.91,6.91,0,0,1,6.2-.26l40.27,23.25c1.59.92,1.39,2.53-.45,3.59l-39.91,22.8A6.88,6.88,0,0,1,426.69,414.7Z" transform="translate(-382.57 -279.74)"/></g><polygon class="cls-20" points="47.82 138.96 47.82 147.03 93.7 120.27 93.7 112.2 47.82 138.96"/><polygon class="cls-21" points="47.84 138.96 47.84 147.03 1.81 120.2 1.81 112.15 47.84 138.96"/><polygon class="cls-22" points="47.82 125.94 47.82 137.41 93.7 110.65 93.7 99.17 47.82 125.94"/><polygon class="cls-23" points="49.28 126.77 92.24 101.71 92.24 109.81 49.28 134.88 49.28 126.77"/><polygon class="cls-24" points="91.76 102 91.76 109.65 49.28 134.43 49.28 134.88 92.24 109.81 92.24 101.71 91.76 102"/><polygon class="cls-25" points="47.84 125.94 47.84 137.41 1.81 110.58 1.81 99.13 47.84 125.94"/><polygon class="cls-26" points="3.27 109.74 3.27 101.66 46.38 126.77 46.38 134.88 3.27 109.74"/><polygon class="cls-24" points="3.83 109.5 3.83 102 3.27 101.66 3.27 109.74 46.38 134.88 46.38 134.3 3.83 109.5"/><polygon class="cls-27" points="1.81 99.13 47.84 125.94 93.7 99.17 47.62 72.34 1.81 99.13"/><polygon class="cls-28" points="47.81 116.46 47.81 123.96 90.45 99.1 90.45 91.59 47.81 116.46"/><polygon class="cls-29" points="47.81 122.78 47.81 123.96 90.45 99.1 90.45 97.91 47.81 122.78"/><polygon class="cls-30" points="47.84 116.46 47.84 123.96 5.06 99.03 5.06 91.55 47.84 116.46"/><polygon class="cls-31" points="47.84 122.78 47.84 123.96 5.06 99.03 5.06 97.87 47.84 122.78"/><polygon class="cls-32" points="47.82 109.89 47.82 121.37 93.7 94.61 93.7 83.13 47.82 109.89"/><polygon class="cls-23" points="49.28 110.73 92.24 85.67 92.24 93.77 49.28 118.83 49.28 110.73"/><polygon class="cls-24" points="91.76 85.95 91.76 93.61 49.28 118.38 49.28 118.83 92.24 93.77 92.24 85.67 91.76 85.95"/><polygon class="cls-33" points="47.84 109.89 47.84 121.37 1.81 94.53 1.81 83.08 47.84 109.89"/><polygon class="cls-26" points="3.27 93.69 3.27 85.62 46.38 110.73 46.38 118.83 3.27 93.69"/><polygon class="cls-24" points="3.83 93.45 3.83 85.95 3.27 85.62 3.27 93.69 46.38 118.83 46.38 118.26 3.83 93.45"/><polygon class="cls-34" points="1.81 83.08 47.84 109.89 93.7 83.13 47.62 56.29 1.81 83.08"/><polygon class="cls-35" points="47.81 100.41 47.81 107.92 90.45 83.05 90.45 75.55 47.81 100.41"/><polygon class="cls-36" points="47.81 106.73 47.81 107.92 90.45 83.05 90.45 81.87 47.81 106.73"/><polygon class="cls-37" points="47.84 100.41 47.84 107.92 5.06 82.98 5.06 75.5 47.84 100.41"/><polygon class="cls-38" points="47.84 106.73 47.84 107.92 5.06 82.98 5.06 81.83 47.84 106.73"/><polygon class="cls-39" points="47.82 93.84 47.82 105.32 93.7 78.56 93.7 67.08 47.82 93.84"/><polygon class="cls-23" points="49.28 94.68 92.24 69.62 92.24 77.72 49.28 102.78 49.28 94.68"/><polygon class="cls-24" points="91.76 69.91 91.76 77.56 49.28 102.34 49.28 102.78 92.24 77.72 92.24 69.62 91.76 69.91"/><polygon class="cls-40" points="47.84 93.84 47.84 105.32 1.81 78.49 1.81 67.04 47.84 93.84"/><polygon class="cls-26" points="3.27 77.65 3.27 69.57 46.38 94.68 46.38 102.78 3.27 77.65"/><polygon class="cls-24" points="3.83 77.41 3.83 69.9 3.27 69.57 3.27 77.65 46.38 102.78 46.38 102.21 3.83 77.41"/><polygon class="cls-41" points="1.81 67.04 47.84 93.84 93.7 67.08 47.62 40.25 1.81 67.04"/><polygon class="cls-42" points="47.84 93.84 47.84 137.37 1.81 110.53 1.81 67.04 47.84 93.84"/><ellipse class="cls-43" cx="430.21" cy="346.34" rx="12.65" ry="21.91" transform="translate(-301.02 494.92) rotate(-89.69)"/><path class="cls-44" d="M414.67,342.17c8.53-4.93,22.4-4.9,31,.05,3.25,1.87,5.26,4.18,6.07,6.6,1.33-4-.69-8.3-6.07-11.4-8.58-4.95-22.45-5-31-.06-5.3,3.07-7.28,7.32-6,11.29C409.5,346.27,411.49,344,414.67,342.17Z" transform="translate(-382.57 -279.74)"/><path class="cls-45" d="M447,343.24c-4.56-2.61-12.1-.41-15.7,1.39a3,3,0,0,1,.66-3.58c1.64-1.47,4-2.11,3.17-3.5-1.19-1.95-6.27-3.31-10.32-.95-4.5,2.62-.64,7,2.5,9.07a13.73,13.73,0,0,1-6.21-.4c-2.55-.95-3.67-2.34-6.09-1.85-3.36.67-5.68,3.6-1.57,5.95,4.56,2.62,12.1.42,15.7-1.39a3,3,0,0,1-.66,3.59c-1.64,1.47-4,2.1-3.17,3.5,1.19,1.95,6.27,3.3,10.33.95,4.5-2.62.63-7-2.51-9.08a14,14,0,0,1,6.21.4c2.56,1,3.67,2.34,6.09,1.86C448.79,348.52,451.1,345.6,447,343.24Z" transform="translate(-382.57 -279.74)"/><g class="cls-46"><path class="cls-47" d="M426.71,345.26l.59-.07c-2-1.36-4.38-3.69-4.53-5.87C422.58,341.43,424.67,343.76,426.71,345.26Z" transform="translate(-382.57 -279.74)"/><path class="cls-48" d="M429.43,349.19a3.64,3.64,0,0,0-.3-1.69c-3.6,1.8-11.14,4-15.7,1.39-1.43-.82-2.07-1.71-2.17-2.54-.12,1,.46,2,2.17,3,4.56,2.62,12.1.42,15.7-1.39A3.92,3.92,0,0,1,429.43,349.19Z" transform="translate(-382.57 -279.74)"/><path class="cls-49" d="M432,340.56a2.76,2.76,0,0,0-1,2.39,2.73,2.73,0,0,1,1-1.9c1.51-1.35,3.65-2,3.31-3.19C435,338.76,433.24,339.41,432,340.56Z" transform="translate(-382.57 -279.74)"/><path class="cls-50" d="M445.42,348.71c-2.42.49-3.53-.9-6.09-1.85a13.72,13.72,0,0,0-6.21-.4l.59.41a13.2,13.2,0,0,1,5.62.47c2.56,1,3.67,2.34,6.09,1.86,2.2-.44,3.93-1.84,3.74-3.41C449,347.15,447.39,348.32,445.42,348.71Z" transform="translate(-382.57 -279.74)"/><path class="cls-51" d="M435.63,355.53c-4.06,2.36-9.14,1-10.33-.94a1.25,1.25,0,0,1-.14-.32,1,1,0,0,0,.14.8c1.19,1.95,6.27,3.3,10.33.95a3.38,3.38,0,0,0,2-3.21A3.54,3.54,0,0,1,435.63,355.53Z" transform="translate(-382.57 -279.74)"/></g><polygon class="cls-52" points="40.2 59.58 40.2 59.58 40.2 59.6 40.2 59.58"/><path class="cls-53" d="M422.77,339.76v2.09a5.72,5.72,0,0,0,1.81,4,18.43,18.43,0,0,0,2.72-.18C425.24,344.3,422.89,342,422.77,339.76Z" transform="translate(-382.57 -279.74)"/><path class="cls-54" d="M411.25,346.48h0v.13C411.24,346.56,411.25,346.52,411.25,346.48Z" transform="translate(-382.57 -279.74)"/><path class="cls-55" d="M432,343.56c1.45-1.31,3.49-1.95,3.34-3.06v-2.28c-.14,1-2,1.62-3.34,2.83a3,3,0,0,0-.7,3.46A2.84,2.84,0,0,1,432,343.56Z" transform="translate(-382.57 -279.74)"/><path class="cls-56" d="M449.17,345.86c.13,1.54-1.59,2.91-3.75,3.34-2.42.48-3.53-.9-6.09-1.86a14,14,0,0,0-6.21-.4,15.15,15.15,0,0,1,2.73,2.34,10.8,10.8,0,0,1,3.48.57c2.56,1,3.67,2.34,6.09,1.86,2.09-.42,3.78-1.71,3.77-3.2h0v-2.67Z" transform="translate(-382.57 -279.74)"/><path class="cls-57" d="M429.18,350.63a3.26,3.26,0,0,0-.05-2.65c-3.6,1.81-11.14,4-15.7,1.39-1.53-.87-2.17-1.83-2.19-2.72v2.55h0c0,.88.68,1.82,2.19,2.68,4.56,2.62,12.1.41,15.7-1.39A1.21,1.21,0,0,0,429.18,350.63Z" transform="translate(-382.57 -279.74)"/><path class="cls-58" d="M435.63,358.52a3.54,3.54,0,0,0,2-2.67h0v-2.91h0a3.42,3.42,0,0,1-2,3.08c-4.06,2.35-9.14,1-10.33-.95a1,1,0,0,1-.17-.52h0v2.36h0a1,1,0,0,0,.17.66,3.69,3.69,0,0,0,1.4,1.21,37,37,0,0,0,8.74-.17Z" transform="translate(-382.57 -279.74)"/><path class="cls-59" d="M433.42,348.16a7.09,7.09,0,0,1-6.39,0c-1.77-1-1.78-2.68,0-3.69a7.05,7.05,0,0,1,6.39,0C435.17,345.49,435.18,347.14,433.42,348.16Z" transform="translate(-382.57 -279.74)"/><path class="cls-60" d="M433.42,347.67a7.05,7.05,0,0,1-6.39,0,2.4,2.4,0,0,1-1.3-1.61,2.12,2.12,0,0,0,1.3,2.1,7.09,7.09,0,0,0,6.39,0,2.08,2.08,0,0,0,1.27-2.08A2.32,2.32,0,0,1,433.42,347.67Z" transform="translate(-382.57 -279.74)"/><path class="cls-61" d="M452,345.71v-66H408.3v65.8c-.34,3.48,1.78,7,6.41,9.71,8.58,4.95,22.45,5,31,.06C450.25,352.68,452.33,349.16,452,345.71Z" transform="translate(-382.57 -279.74)"/><path class="cls-62" d="M425.47,321l-.72-.3-.2-.09-.35-.14-.22-.1-.33-.14-.2-.09-.36-.16-.15-.07-.48-.22h0l-.68-.32-.08,0-.6-.3L421,319l-.46-.24,0,0-.38-.21-.11-.07a2,2,0,0,1-.25-.14l-.09-.05-.31-.19-.07-.05-.18-.12-.09-.06-.15-.1-.09-.06-.12-.09-.08-.06-.11-.09-.08-.06-.09-.08-.07-.06-.08-.08-.06-.06L418,317l-.05-.05-.06-.07-.05-.07h0l-.07-.1h0l-.05-.1h0a.36.36,0,0,1,0-.09h0a.38.38,0,0,1,0-.1h0a.11.11,0,0,1,0-.08h0s0,0,0-.07h0s0,0,0-.07h0l.06-.06-5.78,6,0,0,0,0h0v0l0,0h0s0,0,0,0v0h0v.07h0v.09h0v0l0,0h0v0l0,0v0h0v0l0,.06h0l0,0,0,0,.05.07a.12.12,0,0,1,0,.05l.07.07.06.06.08.08.08.06a.73.73,0,0,0,.09.08l0,0,0,0,.1.09.09.06.12.09.07.05h0l.14.1.09.06.19.12.06.05h0l.31.19.09.05.24.14.06,0,.05,0,.38.21.05,0,.45.24.05,0,.06,0,.6.3.08,0,.69.32h0l.48.22.14.07.37.16.2.09.33.14.22.1.34.14.12.05.09,0,.72.3Z" transform="translate(-382.57 -279.74)"/><polygon class="cls-63" points="37.13 47.3 42.9 41.3 42.9 43.16 37.13 49.16 37.13 47.3"/><polygon class="cls-63" points="37.14 42.66 42.92 36.66 42.92 37 37.14 43 37.14 42.66"/><path class="cls-64" d="M425.49,316.4l-.24-.07-.92-.27-.18,0-1-.28-.16,0-.29-.07-.42-.11-.43-.1-.61-.14-.37-.08-.09,0L420,315l-.14,0-.54-.1-.15,0-.18,0-.69-.1h-.06l-.66-.07h-.18l-.25,0-.38,0H415.6l-.25,0h-.1l-.1,0h-.1l-.23,0h0l-.26.07,0,0-.07,0-.11.05-.07,0-.06,0a.86.86,0,0,0-.18.14l-5.78,6a.86.86,0,0,1,.18-.14l.06,0,.18-.09.08,0a1.32,1.32,0,0,1,.3-.09h0l.34-.06.1,0,.35,0H411l.37,0,.33,0h.11l.67.07h.05l.69.1.17,0,.7.12.13,0,.87.18.37.08.62.14.42.1.72.18.15,0,1,.28.17,0,1.16.34h0Z" transform="translate(-382.57 -279.74)"/><path class="cls-65" d="M419.69,328.9c-15-5.75-16.15-11.29,0-6.5v.34c-9.88-2.36-11-.19,0,4.3Z" transform="translate(-382.57 -279.74)"/><g class="cls-7"><g class="cls-66"><g class="cls-7"><polyline class="cls-67" points="39.15 62.16 44.92 56.16 44.92 56.17 39.15 62.17 39.15 62.16"/><polyline class="cls-68" points="39.15 62.17 44.92 56.17 44.92 56.17 39.15 62.17 39.15 62.17"/><polyline class="cls-69" points="39.15 62.17 44.92 56.17 44.92 56.17 39.15 62.17 39.15 62.17"/><polyline class="cls-70" points="39.15 62.17 44.92 56.17 44.92 56.17 39.15 62.17 39.15 62.17"/><polyline class="cls-71" points="39.15 62.17 44.92 56.17 44.92 56.17 39.15 62.17 39.15 62.17"/><polyline class="cls-72" points="39.15 62.17 44.92 56.17 44.92 56.18 39.15 62.18 39.15 62.17"/><polyline class="cls-73" points="39.15 62.18 44.92 56.18 44.92 56.18 39.15 62.18 39.15 62.18"/><polyline class="cls-74" points="39.15 62.18 44.92 56.18 44.91 56.19 39.14 62.19 39.15 62.18"/><path class="cls-75" d="M421.71,341.93l5.77-6-.06.08-5.77,6,.06-.08" transform="translate(-382.57 -279.74)"/></g></g></g><path class="cls-2" d="M420.78,331.93l5.77-6c-.09.1-.06.34-.08.49-.22,2.23-.43,4.45-.73,6.65l-5.78,6c.3-2.2.52-4.42.74-6.65C420.71,332.27,420.68,332,420.78,331.93Z" transform="translate(-382.57 -279.74)"/><g class="cls-76"><g class="cls-7"><path class="cls-77" d="M420.78,331.93l5.77-6,0,0-5.77,6s0,0,0,0" transform="translate(-382.57 -279.74)"/><path class="cls-78" d="M420.76,332l5.77-6v0l-5.78,6,0,0" transform="translate(-382.57 -279.74)"/><path class="cls-79" d="M420.74,332l5.78-6v0l-5.77,6v0" transform="translate(-382.57 -279.74)"/><path class="cls-80" d="M420.74,332l5.77-6v0l-5.77,6v0" transform="translate(-382.57 -279.74)"/><path class="cls-81" d="M420.73,332l5.77-6v0l-5.77,6v0" transform="translate(-382.57 -279.74)"/><path class="cls-82" d="M420.72,332.06l5.77-6v0l-5.78,6v0" transform="translate(-382.57 -279.74)"/><path class="cls-83" d="M420.71,332.09l5.78-6s0,0,0,.05l-5.77,6v-.05" transform="translate(-382.57 -279.74)"/><path class="cls-84" d="M420.71,332.14l5.77-6v.08l-5.78,6a.22.22,0,0,0,0-.08" transform="translate(-382.57 -279.74)"/><path class="cls-85" d="M420.7,332.22l5.78-6v.12l-5.78,6v-.12" transform="translate(-382.57 -279.74)"/><path class="cls-86" d="M420.7,332.34l5.78-6s0,.05,0,.07l-5.77,6v-.07" transform="translate(-382.57 -279.74)"/><path class="cls-87" d="M420.7,332.41l5.77-6h0c-.22,2.23-.43,4.45-.73,6.65l-5.78,6c.3-2.2.52-4.42.74-6.65h0" transform="translate(-382.57 -279.74)"/></g></g><path class="cls-3" d="M422.5,334.17l5.77-6a13,13,0,0,0-.21,1.45l-.57,6.28-5.77,6,.57-6.28A11,11,0,0,1,422.5,334.17Z" transform="translate(-382.57 -279.74)"/><g class="cls-88"><g class="cls-7"><path class="cls-89" d="M422.5,334.17l5.77-6,0,.08-5.77,6,0-.08" transform="translate(-382.57 -279.74)"/><path class="cls-90" d="M422.48,334.25l5.77-6c0,.22-.07.43-.1.63l-5.78,6c0-.2.07-.41.11-.63" transform="translate(-382.57 -279.74)"/><path class="cls-91" d="M422.37,334.88l5.78-6c0,.25-.06.49-.09.74l-.57,6.28-5.77,6,.57-6.28c0-.25,0-.49.08-.74" transform="translate(-382.57 -279.74)"/></g></g><path class="cls-4" d="M430.87,338.84l5.77-6a9.64,9.64,0,0,0-.14,1.51c-.08,1.6-.14,3.22-.21,4.83a1.22,1.22,0,0,1-.13.57l-5.77,6a1.36,1.36,0,0,0,.13-.57c.06-1.61.13-3.23.2-4.83A11,11,0,0,1,430.87,338.84Z" transform="translate(-382.57 -279.74)"/><g class="cls-92"><g class="cls-7"><path class="cls-93" d="M430.87,338.84l5.77-6c0,.1,0,.2-.05.3l-5.77,6c0-.1,0-.2.05-.3" transform="translate(-382.57 -279.74)"/><path class="cls-94" d="M430.82,339.14l5.77-6c0,.14,0,.27,0,.41l-5.77,6c0-.14,0-.27.05-.41" transform="translate(-382.57 -279.74)"/><path class="cls-95" d="M430.77,339.55l5.77-6c0,.27,0,.53,0,.8-.08,1.6-.14,3.22-.21,4.83a.41.41,0,0,1,0,.11l-5.77,6a.41.41,0,0,1,0-.11c.06-1.61.13-3.23.2-4.83,0-.27,0-.53,0-.8" transform="translate(-382.57 -279.74)"/><path class="cls-96" d="M430.51,345.29l5.77-6a.31.31,0,0,1,0,.1l-5.77,6s0-.06,0-.1" transform="translate(-382.57 -279.74)"/><path class="cls-97" d="M430.5,345.39l5.77-6s0,.06,0,.08l-5.78,6s0-.05,0-.08" transform="translate(-382.57 -279.74)"/><path class="cls-98" d="M430.48,345.47l5.78-6,0,.08-5.77,6s0-.05,0-.08" transform="translate(-382.57 -279.74)"/><path class="cls-99" d="M430.47,345.55l5.77-6s0,.05,0,.07l-5.78,6,0-.07" transform="translate(-382.57 -279.74)"/><path class="cls-100" d="M430.44,345.62l5.78-6,0,.07-5.78,6a.09.09,0,0,0,0-.07" transform="translate(-382.57 -279.74)"/><path class="cls-101" d="M430.41,345.69l5.78-6,0,.06-5.77,6a.14.14,0,0,0,0-.06" transform="translate(-382.57 -279.74)"/></g></g><path class="cls-5" d="M432.62,340.52l5.78-6a.18.18,0,0,0,0,.07,1.61,1.61,0,0,0-.18.7c-.12,2.78-.22,5.56-.39,8.33l-5.77,6c.17-2.77.27-5.55.38-8.33a1.61,1.61,0,0,1,.18-.7Z" transform="translate(-382.57 -279.74)"/><g class="cls-102"><g class="cls-7"><path class="cls-103" d="M432.62,340.52l5.78-6a.1.1,0,0,0,0,.05l-5.78,6,0-.05" transform="translate(-382.57 -279.74)"/><path class="cls-104" d="M432.58,340.57l5.78-6v0a.3.3,0,0,0,0,.08l-5.78,6s0-.05,0-.08v0" transform="translate(-382.57 -279.74)"/><path class="cls-105" d="M432.53,340.67l5.78-6a.37.37,0,0,0-.05.11l-5.77,6a.36.36,0,0,1,0-.11" transform="translate(-382.57 -279.74)"/><path class="cls-106" d="M432.49,340.78l5.77-6,0,.1-5.78,6,0-.1" transform="translate(-382.57 -279.74)"/><path class="cls-107" d="M432.45,340.88l5.78-6,0,.11-5.77,6s0-.07,0-.11" transform="translate(-382.57 -279.74)"/><path class="cls-108" d="M432.43,341l5.77-6a.43.43,0,0,1,0,.11l-5.77,6s0-.07,0-.11" transform="translate(-382.57 -279.74)"/><path class="cls-109" d="M432.41,341.1l5.77-6a.45.45,0,0,1,0,.11l-5.77,6s0-.08,0-.11" transform="translate(-382.57 -279.74)"/><path class="cls-110" d="M432.4,341.21l5.77-6v.08c-.12,2.78-.22,5.56-.39,8.33l-5.77,6c.17-2.77.27-5.55.38-8.33,0,0,0-.06,0-.08" transform="translate(-382.57 -279.74)"/></g></g><g class="cls-7"><g class="cls-111"><g class="cls-7"><path class="cls-75" d="M430.91,338.76l5.78-6,0,0-5.77,6,0,0" transform="translate(-382.57 -279.74)"/><path class="cls-74" d="M430.89,338.79l5.77-6v0l-5.77,6v0" transform="translate(-382.57 -279.74)"/><path class="cls-73" d="M430.88,338.81l5.77-6v0l-5.77,6v0" transform="translate(-382.57 -279.74)"/><polyline class="cls-72" points="48.3 59.09 54.08 53.09 54.07 53.1 48.3 59.1 48.3 59.09"/></g></g></g><path class="cls-6" d="M423.87,330.94l5.77-6c-.16,4.5-.32,9-.49,13.58l-5.77,6C423.54,340,423.71,335.44,423.87,330.94Z" transform="translate(-382.57 -279.74)"/><g class="cls-112"><g class="cls-7"><path class="cls-6" d="M423.87,330.94l5.77-6c-.16,4.5-.32,9-.49,13.58l-5.77,6c.16-4.54.33-9.08.49-13.58" transform="translate(-382.57 -279.74)"/></g></g><polygon class="cls-63" points="41.3 50.69 47.08 44.69 47.08 45.2 41.3 51.2 41.3 50.69"/><polygon class="cls-63" points="41.31 48.89 47.08 42.89 47.08 44.69 41.3 50.69 41.31 48.89"/><path class="cls-113" d="M425.42,329.18l.83.27c1.33.43,2.59.81,3.75,1.15v1.79c-1.1-.32-2.25-.67-3.46-1.06l-2.67-.9v-1.8Z" transform="translate(-382.57 -279.74)"/><path class="cls-114" d="M435.05,324.39l-.33-.1-.54-.17-.34-.1-.59-.18-.31-.1-.92-.29-.82-.27-1.55-.55h0l-5.77,6,1.54.55.83.27.92.29.29.09.61.19.33.1.55.17.33.1.22.06.5.15,5.78-6Z" transform="translate(-382.57 -279.74)"/><polygon class="cls-63" points="47.44 50.86 53.21 44.86 53.2 46.65 47.43 52.65 47.44 50.86"/><path class="cls-115" d="M418.91,312.9v0a.83.83,0,0,1,0-.15c0-.1-.06-.2-.08-.3v-.06a2,2,0,0,1,0-.24l0-.13a1,1,0,0,1,0-.17l0-.16s0-.1,0-.15a1.49,1.49,0,0,1,0-.21.28.28,0,0,1,0-.09c0-.1,0-.21,0-.31v-.31s0-.06,0-.09a1.79,1.79,0,0,1,0-.23.19.19,0,0,1,0-.08c0-.1,0-.21.05-.31v0l.06-.25,0-.11c0-.06.05-.13.08-.19s0-.08,0-.11L419,309l.11-.19a1,1,0,0,1,.11-.17l.06-.09a2.32,2.32,0,0,1,.21-.25l-5.77,6c-.08.08-.15.17-.22.25l-.06.09-.08.11,0,.06-.1.19-.05.09,0,.06a1.17,1.17,0,0,0-.05.11,1,1,0,0,0,0,.1l0,.09,0,.11a.14.14,0,0,0,0,.06c0,.06,0,.13,0,.19v0h0c0,.09,0,.17,0,.25v.05a.25.25,0,0,1,0,.08s0,.08,0,.12a.41.41,0,0,1,0,.11v.09a.13.13,0,0,1,0,.06v.25h0c0,.1,0,.19,0,.28v0a.28.28,0,0,1,0,.09c0,.06,0,.12,0,.17v0c0,.05,0,.1,0,.15s0,.08,0,.12v0l0,.17s0,.06,0,.1v0a2,2,0,0,1,.05.24v0h0c0,.1.05.2.07.3v0l0,.13v0a1,1,0,0,1,.05.16v0c.08.26.14.4.14.41h0l5.78-6c-.05-.14-.1-.27-.14-.41S418.93,313,418.91,312.9Z" transform="translate(-382.57 -279.74)"/><path class="cls-116" d="M434.18,333.48v.32q-.26,9.54-.5,19.06h0l5.78-6q.24-9.53.49-19.06v-.32Z" transform="translate(-382.57 -279.74)"/><polygon class="cls-63" points="51.62 51.94 57.39 45.94 57.38 47.74 51.61 53.74 51.62 51.94"/><polygon class="cls-117" points="51.63 47.78 57.4 41.78 57.39 45.94 51.62 51.94 51.63 47.78"/><polygon class="cls-63" points="51.63 47.37 57.4 41.37 57.4 41.78 51.63 47.78 51.63 47.37"/><polygon class="cls-118" points="37.16 35.05 42.94 29.05 47.12 30.41 41.34 36.41 37.16 35.05"/><polygon class="cls-119" points="41.34 36.41 47.12 30.41 47.08 42.89 41.31 48.89 41.34 36.41"/><path class="cls-120" d="M423.91,316.14l0,12.49v2.31c-.16,4.5-.33,9-.49,13.58-.12-1.75-.18-3.48-.23-5.22,0-1.43-.08-2.85-.12-4.28a2.7,2.7,0,0,0-.07-.63l0-.08a.38.38,0,0,0-.21-.17.19.19,0,0,0-.21,0,11,11,0,0,0-.21,1.45l-.57,6.28s0,.05-.07.11c0-.56-.06-1.07-.08-1.58-.08-2.59-.15-5.17-.23-7.75,0-.26.07-.64-.3-.78s-.32.29-.34.52c-.22,2.23-.44,4.45-.74,6.65l-.27-9.49V322.4l0-7.61Z" transform="translate(-382.57 -279.74)"/><path class="cls-121" d="M441.15,332.14h0l5.77-6-.11.08,0,0-.1.05-.06,0-.18.06h0l-.23,0-.08,0-.18,0h-1.09l-.47,0h-.16l-.37,0-.17,0-.31,0-.28,0-.29,0-.3-.05-.29-.05-.5-.09-.23,0-.72-.15h-.07l-.74-.17-5.78,6,.75.17H435l.72.15.24,0,.5.09.12,0,.17,0,.29.05.3,0,.27,0,.13,0,.19,0,.16,0,.37,0h.16l.48,0h1.26l.09,0h0l.19,0h0l.14,0,0,0,.06,0,.06,0,.05,0,0,0A.27.27,0,0,0,441.15,332.14Z" transform="translate(-382.57 -279.74)"/><path class="cls-122" d="M450.87,327.41h0v-.14h0v0l0-.05v0h0l0,0,0-.06,0-.05h0l-.05-.08,0-.07h0l-.06-.08a.36.36,0,0,0-.07-.1h0l-.16-.19-.05-.06-.13-.13-.09-.08L450,326l-.1-.08-.15-.12,0,0-.11-.09-.11-.08-.16-.12-.12-.09,0,0-.18-.12-.1-.07-.28-.18-.06,0h0l-.17-.1-.2-.12-.2-.12-.2-.12h0l-.06,0-.4-.22-.17-.09-.32-.17-.06,0-.12,0-.41-.21-.2-.1-.49-.23-.11-.05,0,0-.75-.34-.2-.08c-.23-.11-.47-.21-.72-.31l-.09,0,0,0-.19-.08-.43-.18-.24-.09-.41-.16-.26-.11-.41-.16-.27-.1-.15-.06-.33-.12-.21-.08-.72-.26-5.77,6,.71.26.22.08.47.18.28.1.41.16.26.11.41.16.24.09.42.18.19.08.14.06c.25.1.49.2.72.31l.19.08.76.34.14.07.48.23.2.1.42.21.17.09a3.41,3.41,0,0,1,.33.17l.17.09.39.22.07,0,.22.13.18.11.21.13.16.1.05,0,.28.18.11.08.2.13.11.09.17.12.11.09.14.11.15.12a.39.39,0,0,0,.1.08l.13.13a.6.6,0,0,1,.08.08,1.59,1.59,0,0,1,.13.13l.06.06.16.19.06.1.06.08a1.4,1.4,0,0,1,.1.16h0a1,1,0,0,1,.07.15h0c0,.06,0,.11.05.15h0c0,.05,0,.1,0,.14h0a.57.57,0,0,1,0,.13h0l0,.13h0l-.05.09s0,0,0,0a.86.86,0,0,1-.07.1l0,0h0l5.78-6,0,0,.06-.07v0l0,0,0,0a.14.14,0,0,1,0-.06h0v0l0-.05v0h0v-.13Z" transform="translate(-382.57 -279.74)"/><path class="cls-123" d="M434.2,327.11c8.43,3,11.74,5.62,10.72,6.8-.84,1-4.56,1-10.74-.43v-1.8c9.08,2.07,9.81-.06,0-4.16Z" transform="translate(-382.57 -279.74)"/><polygon class="cls-63" points="47.48 36.55 53.25 30.55 53.25 30.87 47.48 36.87 47.48 36.55"/><polygon class="cls-124" points="51.65 38.14 57.43 32.14 57.4 41.37 51.63 47.37 51.65 38.14"/><polygon class="cls-63" points="51.65 37.9 57.43 31.9 57.43 32.14 51.65 38.14 51.65 37.9"/><path class="cls-125" d="M434.22,317.64v.24l0,9.23v.41l0,4.16v2.12q-.26,9.54-.5,19.06c-.1-1.35-.12-2.67-.16-4,0-2.43-.11-4.85-.18-7.28a2.22,2.22,0,0,0-.17-.81.57.57,0,0,0-.3-.31.24.24,0,0,0-.3.13,1.61,1.61,0,0,0-.18.7c-.11,2.78-.21,5.56-.38,8.33-.05-1-.1-2-.14-3.06-.11-2.47-.2-4.94-.33-7.43a.48.48,0,0,0-.35-.41c-.14-.05-.28,0-.32.12a11,11,0,0,0-.15,1.51c-.07,1.6-.14,3.22-.2,4.83a1.36,1.36,0,0,1-.13.57c-.13-4.45-.26-8.9-.39-13.3V330.6l0-14v-.32Z" transform="translate(-382.57 -279.74)"/><polygon class="cls-126" points="47.48 36.55 53.25 30.55 57.43 31.9 51.65 37.9 47.48 36.55"/><polygon class="cls-126" points="37.41 20.73 43.18 14.73 46.93 15.94 41.16 21.94 37.41 20.73"/><path class="cls-127" d="M440.66,314.1l.1-.07.17-.13.08-.06.21-.2,5.77-6-.21.2-.08.06-.16.13-.11.07-.17.1-.13.07-.18.09-.33.14-.09,0-.19.06-.23.07-.14,0-.31.07-.15,0-.33,0H444l-.38,0h-.82l-.53,0-.22,0-.46-.06-.27,0-.49-.09-.3-.06-.49-.11-.38-.09-.46-.12-.5-.14c-.3-.08-.61-.18-.93-.28l-13.55-4.4-.14,0h0l-.16,0h-.05l-.06,0h-.05l-.21-.05-.07,0h0l-.21,0-.1,0h0l-.19,0-.13,0h0l-.16,0-.16,0h-1l-.31,0h0l-.32,0h0l-.12,0-.16,0-.1,0-.14,0-.11,0-.11.05-.2.08-.09,0-.19.1,0,0a2.2,2.2,0,0,0-.32.21l-.07.06a2.52,2.52,0,0,0-.3.27l-5.78,6a3.65,3.65,0,0,1,.3-.27l.08-.06a2.2,2.2,0,0,1,.32-.21l0,0,.27-.14.21-.08.21-.08.14,0,.26-.07.13,0,.37-.06h0l.36,0h.9l.21,0,.16,0,.17,0,.18,0,.14,0,.2,0,.12,0,.2.05.12,0h0l.17,0,.13,0,13.55,4.4.85.26.09,0,.5.14.38.11h.08l.38.09.39.09.1,0,.29.06.33.06.16,0,.27,0,.22,0,.24,0,.23,0h.11l.41,0h1.5l.2,0,.16,0h.05l.25-.05.14,0h0l.2-.06.19-.06h0l.08,0,.33-.14.05,0,.12-.07.13-.07Z" transform="translate(-382.57 -279.74)"/><path class="cls-128" d="M430.32,307.76l3.71,5.11c-.27-.08-.55-.16-.84-.26l-2.88-.93Z" transform="translate(-382.57 -279.74)"/><polygon class="cls-129" points="47.75 28.02 53.52 22.02 57.23 27.13 51.46 33.13 47.75 28.02"/><path class="cls-130" d="M432.06,313.78c9.56,3.1,10.05-1.46,10.07-2.12,0,4.62-2.37,6.08-4.46,6.47a9.62,9.62,0,0,1-3.45-.25v-.24L430,316.29v.32l-6.87-2.22c-12.06-3.91-10.55,2.92-10,4.69-4.31-12.39,4.4-10,5.32-9.7Z" transform="translate(-382.57 -279.74)"/><path class="cls-131" d="M447.9,305.6h0l-5.77,6v.07l2.94-3.05-2.94,3.05c0,.13,0,.26,0,.39l0,.54a.31.31,0,0,0,0,.1c0,.14,0,.28-.05.42s0,.09,0,.13-.05.33-.08.48h0c0,.17-.07.32-.11.47l0,.11c-.05.15-.09.31-.14.45l0,0c-.06.16-.12.32-.19.47l0,0c0,.1-.09.19-.14.29l0,0c0,.09-.09.16-.13.24l0,0c-.09.14-.18.28-.28.41l0,0c-.1.13-.21.25-.32.37l5.78-6c.11-.12.22-.24.32-.37v0c.1-.13.2-.27.29-.41v0l.14-.24v0l.15-.29h0v0c.07-.15.14-.31.2-.47v0h0c.05-.14.1-.3.14-.45l0-.06a.43.43,0,0,0,0-.05c0-.15.08-.3.11-.47h0c0-.15.06-.31.08-.48,0,0,0,0,0-.06v-.07c0-.14,0-.28.05-.42s0-.05,0-.08v0a4.89,4.89,0,0,0,0-.54v-.39h0Z" transform="translate(-382.57 -279.74)"/><ellipse class="cls-132" cx="41.34" cy="40.67" rx="1.1" ry="18.43"/><ellipse class="cls-133" cx="41.34" cy="40.67" rx="3.63" ry="6.73"/><ellipse class="cls-134" cx="51.81" cy="45.94" rx="1.68" ry="28.02"/><ellipse class="cls-135" cx="51.81" cy="45.94" rx="5.52" ry="10.23"/><path class="cls-136" d="M414.58,308.71c.11-.38,5.44.72,11.91,2.47s11.64,3.48,11.53,3.87-5.43-.72-11.91-2.47S414.48,309.1,414.58,308.71Z" transform="translate(-382.57 -279.74)"/><ellipse class="cls-137" cx="426.3" cy="311.88" rx="2.39" ry="4.43" transform="translate(-368.57 362.3) rotate(-74.88)"/><path class="cls-138" d="M441.1,319.61c.16.14-1.7,2.5-4.16,5.26s-4.59,4.87-4.76,4.72,1.7-2.5,4.16-5.26S440.93,319.46,441.1,319.61Z" transform="translate(-382.57 -279.74)"/><ellipse class="cls-139" cx="436.64" cy="324.6" rx="2.44" ry="1.32" transform="translate(-478.86 154.44) rotate(-48.25)"/><path class="cls-140" d="M448.68,305c.15.15-1.71,2.3-4.16,4.82s-4.56,4.43-4.71,4.28,1.72-2.3,4.17-4.81S448.53,304.82,448.68,305Z" transform="translate(-382.57 -279.74)"/><polygon class="cls-141" points="41.16 21.94 46.93 15.94 46.91 23.82 41.13 29.82 41.16 21.94"/><polygon class="cls-142" points="37.42 16.16 43.2 10.16 46.94 15.94 41.16 21.94 37.42 16.16"/><polyline class="cls-143" points="37.42 16.16 37.38 28.6 41.13 29.82 41.16 21.94 37.42 16.16"/><path class="cls-144" d="M423.64,300.27a17.37,17.37,0,0,1,.31,4,16.24,16.24,0,0,1-.18,4,33.19,33.19,0,0,1-.13-8.05Z" transform="translate(-382.57 -279.74)"/><ellipse class="cls-145" cx="423.7" cy="304.29" rx="0.81" ry="1.47" transform="translate(-387.59 -272.62) rotate(-0.96)"/></g></g></svg>