<svg xmlns="http://www.w3.org/2000/svg" xmlns:xlink="http://www.w3.org/1999/xlink" viewBox="0 0 107.13 151.57"><defs><style>.cls-1{fill:none;}.cls-2{fill:url(#未命名的渐变_55);}.cls-3{fill:url(#未命名的渐变_55-2);}.cls-4{fill:url(#未命名的渐变_55-3);}.cls-5{fill:url(#未命名的渐变_55-4);}.cls-6{fill:url(#未命名的渐变_60);}.cls-7{isolation:isolate;}.cls-20,.cls-21,.cls-26,.cls-8{opacity:0.2;}.cls-9{opacity:0;}.cls-10{opacity:0.09;}.cls-11{opacity:0.18;}.cls-12{opacity:0.27;}.cls-13{opacity:0.36;}.cls-14{opacity:0.45;}.cls-15{opacity:0.55;}.cls-16{opacity:0.64;}.cls-17{opacity:0.73;}.cls-18{opacity:0.82;}.cls-19{opacity:0.91;}.cls-20{fill:url(#linear-gradient);}.cls-21{fill:url(#linear-gradient-2);}.cls-22{fill:url(#linear-gradient-3);}.cls-23,.cls-26{fill:#25054d;}.cls-24{fill:#45108a;}.cls-25{fill:url(#linear-gradient-4);}.cls-27{fill:url(#linear-gradient-5);}.cls-28{fill:url(#linear-gradient-6);}.cls-119,.cls-121,.cls-123,.cls-125,.cls-127,.cls-131,.cls-29,.cls-31,.cls-36,.cls-38,.cls-42{mix-blend-mode:color-dodge;}.cls-29{fill:url(#radial-gradient);}.cls-30{fill:url(#linear-gradient-7);}.cls-31{fill:url(#radial-gradient-2);}.cls-32{fill:url(#linear-gradient-8);}.cls-33{fill:url(#linear-gradient-9);}.cls-34{fill:url(#linear-gradient-10);}.cls-35{fill:url(#linear-gradient-11);}.cls-36{fill:url(#radial-gradient-3);}.cls-37{fill:url(#linear-gradient-12);}.cls-38{fill:url(#radial-gradient-4);}.cls-39{fill:url(#linear-gradient-13);}.cls-40{fill:url(#linear-gradient-14);}.cls-41{fill:url(#linear-gradient-15);}.cls-42{fill:url(#radial-gradient-5);}.cls-43{fill:url(#linear-gradient-16);}.cls-44{fill:url(#linear-gradient-17);}.cls-45{fill:url(#linear-gradient-18);}.cls-46{fill:url(#linear-gradient-19);}.cls-120,.cls-122,.cls-124,.cls-126,.cls-132,.cls-47,.cls-48{mix-blend-mode:screen;}.cls-47{fill:url(#未命名的渐变_12);}.cls-48{fill:url(#未命名的渐变_15);}.cls-49{fill:url(#未命名的渐变_55-5);}.cls-50{fill:#ba8336;}.cls-51{fill:url(#linear-gradient-20);}.cls-52{fill:url(#linear-gradient-21);}.cls-53{clip-path:url(#clip-path);}.cls-54{fill:#ab7a31;}.cls-55{fill:#a7762f;}.cls-56{fill:#a1732e;}.cls-57{fill:#9c6e2c;}.cls-58{fill:#976b29;}.cls-59{fill:#926729;}.cls-60{fill:#8c6426;}.cls-61{fill:#886024;}.cls-62{fill:#825d23;}.cls-63{clip-path:url(#clip-path-2);}.cls-64{fill:url(#未命名的渐变_55-7);}.cls-65{fill:url(#未命名的渐变_55-8);}.cls-66{fill:url(#未命名的渐变_55-9);}.cls-67{fill:url(#未命名的渐变_55-10);}.cls-68{fill:url(#未命名的渐变_55-11);}.cls-69{fill:url(#未命名的渐变_55-12);}.cls-70{fill:url(#未命名的渐变_55-13);}.cls-71{fill:url(#未命名的渐变_55-14);}.cls-72{fill:url(#未命名的渐变_55-15);}.cls-73{fill:url(#未命名的渐变_55-16);}.cls-74{fill:url(#未命名的渐变_55-17);}.cls-75{clip-path:url(#clip-path-3);}.cls-76{fill:url(#未命名的渐变_55-19);}.cls-77{fill:url(#未命名的渐变_55-20);}.cls-78{fill:url(#未命名的渐变_55-21);}.cls-79{clip-path:url(#clip-path-4);}.cls-80{fill:url(#未命名的渐变_55-23);}.cls-81{fill:url(#未命名的渐变_55-24);}.cls-82{fill:url(#未命名的渐变_55-25);}.cls-83{fill:url(#未命名的渐变_55-26);}.cls-84{fill:url(#未命名的渐变_55-27);}.cls-85{fill:url(#未命名的渐变_55-28);}.cls-86{fill:url(#未命名的渐变_55-29);}.cls-87{fill:url(#未命名的渐变_55-30);}.cls-88{fill:url(#未命名的渐变_55-31);}.cls-89{clip-path:url(#clip-path-5);}.cls-90{fill:url(#未命名的渐变_55-33);}.cls-91{fill:url(#未命名的渐变_55-34);}.cls-92{fill:url(#未命名的渐变_55-35);}.cls-93{fill:url(#未命名的渐变_55-36);}.cls-94{fill:url(#未命名的渐变_55-37);}.cls-95{fill:url(#未命名的渐变_55-38);}.cls-96{fill:url(#未命名的渐变_55-39);}.cls-97{fill:url(#未命名的渐变_55-40);}.cls-98{clip-path:url(#clip-path-6);}.cls-99{clip-path:url(#clip-path-7);}.cls-100{fill:url(#linear-gradient-22);}.cls-101{fill:url(#未命名的渐变_60-4);}.cls-102{fill:url(#未命名的渐变_55-41);}.cls-103{fill:url(#未命名的渐变_61);}.cls-104{fill:url(#linear-gradient-23);}.cls-105{fill:url(#未命名的渐变_55-42);}.cls-106{fill:url(#linear-gradient-24);}.cls-107{fill:url(#linear-gradient-25);}.cls-108{fill:url(#linear-gradient-26);}.cls-109{fill:url(#linear-gradient-27);}.cls-110{fill:url(#linear-gradient-28);}.cls-111{fill:url(#linear-gradient-29);}.cls-112{fill:url(#linear-gradient-30);}.cls-113{fill:#d99940;}.cls-114{fill:url(#未命名的渐变_48);}.cls-115{fill:url(#linear-gradient-31);}.cls-116{fill:url(#linear-gradient-32);}.cls-117{fill:url(#linear-gradient-33);}.cls-118{fill:url(#linear-gradient-34);}.cls-119{fill:url(#Degradado_sin_nombre_724);}.cls-120{fill:url(#Degradado_sin_nombre_1217);}.cls-121{fill:url(#Degradado_sin_nombre_724-2);}.cls-122{fill:url(#Degradado_sin_nombre_1217-2);}.cls-123{fill:url(#Degradado_sin_nombre_724-3);}.cls-124{fill:url(#Degradado_sin_nombre_1217-3);}.cls-125{fill:url(#Degradado_sin_nombre_724-4);}.cls-126{fill:url(#Degradado_sin_nombre_1217-4);}.cls-127{fill:url(#Degradado_sin_nombre_724-5);}.cls-128{fill:#f6cf2e;}.cls-129{fill:url(#linear-gradient-35);}.cls-130{fill:url(#linear-gradient-36);}.cls-131{fill:url(#Degradado_sin_nombre_724-6);}.cls-132{fill:url(#Degradado_sin_nombre_1217-5);}</style><linearGradient id="未命名的渐变_55" x1="388.18" y1="383.16" x2="394.78" y2="383.16" gradientUnits="userSpaceOnUse"><stop offset="0" stop-color="#ffde85"/><stop offset="1" stop-color="#a45b00"/></linearGradient><linearGradient id="未命名的渐变_55-2" x1="389.94" y1="385.7" x2="396.49" y2="385.7" xlink:href="#未命名的渐变_55"/><linearGradient id="未命名的渐变_55-3" x1="398.61" y1="389.95" x2="404.86" y2="389.95" xlink:href="#未命名的渐变_55"/><linearGradient id="未命名的渐变_55-4" x1="400.23" y1="392.73" x2="406.62" y2="392.73" xlink:href="#未命名的渐变_55"/><linearGradient id="未命名的渐变_60" x1="391.6" y1="385.39" x2="397.86" y2="385.39" gradientUnits="userSpaceOnUse"><stop offset="0" stop-color="#ec5a06"/><stop offset="0.13" stop-color="#ee730f"/><stop offset="0.42" stop-color="#f2a520"/><stop offset="0.64" stop-color="#f5c32a"/><stop offset="0.76" stop-color="#f6cf2e"/></linearGradient><linearGradient id="linear-gradient" x1="380.38" y1="460.1" x2="483.07" y2="429.35" gradientTransform="translate(-314.56 -324.23)" gradientUnits="userSpaceOnUse"><stop offset="0" stop-color="#25054d"/><stop offset="1" stop-color="#45108a"/></linearGradient><linearGradient id="linear-gradient-2" x1="274.57" y1="472.55" x2="409.63" y2="442.27" xlink:href="#linear-gradient"/><linearGradient id="linear-gradient-3" x1="380.24" y1="448.42" x2="484.79" y2="417.12" xlink:href="#linear-gradient"/><linearGradient id="linear-gradient-4" x1="273.37" y1="461.1" x2="410.88" y2="430.27" xlink:href="#linear-gradient"/><linearGradient id="linear-gradient-5" x1="413.9" y1="331.83" x2="360.62" y2="433.37" xlink:href="#linear-gradient"/><linearGradient id="linear-gradient-6" x1="379.25" y1="437.33" x2="474.66" y2="408.76" gradientTransform="translate(-314.56 -324.23)" gradientUnits="userSpaceOnUse"><stop offset="0.04" stop-color="#138bbd"/><stop offset="0.23" stop-color="#169ac7"/><stop offset="0.59" stop-color="#1fc3df"/><stop offset="1" stop-color="#2af6ff"/></linearGradient><radialGradient id="radial-gradient" cx="396.57" cy="443.13" r="18.29" gradientTransform="translate(-314.56 -324.23)" gradientUnits="userSpaceOnUse"><stop offset="0" stop-color="#fff"/><stop offset="1"/></radialGradient><linearGradient id="linear-gradient-7" x1="280.93" y1="448.89" x2="406.42" y2="420.76" xlink:href="#linear-gradient-6"/><radialGradient id="radial-gradient-2" cx="340.17" cy="437.08" r="21.63" xlink:href="#radial-gradient"/><linearGradient id="linear-gradient-8" x1="380.24" y1="431.81" x2="484.79" y2="400.51" xlink:href="#linear-gradient"/><linearGradient id="linear-gradient-9" x1="273.37" y1="444.48" x2="410.88" y2="413.66" xlink:href="#linear-gradient"/><linearGradient id="linear-gradient-10" x1="413.9" y1="315.22" x2="360.62" y2="416.76" xlink:href="#linear-gradient"/><linearGradient id="linear-gradient-11" x1="379.25" y1="420.71" x2="474.66" y2="392.14" xlink:href="#linear-gradient-6"/><radialGradient id="radial-gradient-3" cx="396.57" cy="426.51" r="18.29" xlink:href="#radial-gradient"/><linearGradient id="linear-gradient-12" x1="280.93" y1="432.28" x2="406.42" y2="404.15" xlink:href="#linear-gradient-6"/><radialGradient id="radial-gradient-4" cx="340.17" cy="420.47" r="21.63" xlink:href="#radial-gradient"/><linearGradient id="linear-gradient-13" x1="380.24" y1="415.2" x2="484.79" y2="383.89" xlink:href="#linear-gradient"/><linearGradient id="linear-gradient-14" x1="273.37" y1="427.87" x2="410.88" y2="397.05" xlink:href="#linear-gradient"/><linearGradient id="linear-gradient-15" x1="413.9" y1="298.6" x2="360.62" y2="400.15" xlink:href="#linear-gradient"/><radialGradient id="radial-gradient-5" cx="370.5" cy="457.81" r="60.52" gradientTransform="translate(-314.56 -324.23)" gradientUnits="userSpaceOnUse"><stop offset="0" stop-color="#972a74"/><stop offset="0.04" stop-color="#8a266a"/><stop offset="0.19" stop-color="#601b4a"/><stop offset="0.35" stop-color="#3d112f"/><stop offset="0.51" stop-color="#230a1b"/><stop offset="0.67" stop-color="#0f040c"/><stop offset="0.83" stop-color="#040103"/><stop offset="1"/></radialGradient><linearGradient id="linear-gradient-16" x1="8999.56" y1="9436.81" x2="8957.44" y2="9517.09" gradientTransform="translate(9009.96 9579.87) rotate(180)" xlink:href="#linear-gradient"/><linearGradient id="linear-gradient-17" x1="215.84" y1="394.43" x2="287.65" y2="371.03" gradientTransform="translate(-216.48 -324.23)" xlink:href="#linear-gradient"/><linearGradient id="linear-gradient-18" x1="278.41" y1="385.03" x2="303.18" y2="374.2" gradientTransform="translate(-216.48 -324.23)" xlink:href="#linear-gradient"/><linearGradient id="linear-gradient-19" x1="266.04" y1="381.18" x2="266.04" y2="403.94" gradientTransform="translate(-216.48 -324.23)" gradientUnits="userSpaceOnUse"><stop offset="0.03" stop-color="#7c1dc9"/><stop offset="0.21" stop-color="#6e41d2"/><stop offset="0.62" stop-color="#4c9be8"/><stop offset="1" stop-color="#2af6ff"/></linearGradient><linearGradient id="未命名的渐变_12" x1="266.04" y1="407.08" x2="266.04" y2="337.36" gradientTransform="translate(-216.48 -324.23)" gradientUnits="userSpaceOnUse"><stop offset="0" stop-color="#c211a1"/><stop offset="0.01" stop-color="#bd119d" stop-opacity="0.97"/><stop offset="0.15" stop-color="#8b0c73" stop-opacity="0.72"/><stop offset="0.29" stop-color="#600850" stop-opacity="0.5"/><stop offset="0.42" stop-color="#3e0533" stop-opacity="0.32"/><stop offset="0.56" stop-color="#23031d" stop-opacity="0.18"/><stop offset="0.7" stop-color="#0f010d" stop-opacity="0.08"/><stop offset="0.85" stop-color="#040003" stop-opacity="0.02"/><stop offset="1" stop-opacity="0"/></linearGradient><linearGradient id="未命名的渐变_15" x1="266.04" y1="407.08" x2="266.04" y2="325.82" gradientTransform="translate(-216.48 -324.23)" gradientUnits="userSpaceOnUse"><stop offset="0" stop-color="#1bb0d4"/><stop offset="0.05" stop-color="#189dbd" stop-opacity="0.89"/><stop offset="0.18" stop-color="#12738b" stop-opacity="0.66"/><stop offset="0.31" stop-color="#0c5060" stop-opacity="0.45"/><stop offset="0.45" stop-color="#08333e" stop-opacity="0.29"/><stop offset="0.58" stop-color="#041d23" stop-opacity="0.16"/><stop offset="0.72" stop-color="#020d0f" stop-opacity="0.07"/><stop offset="0.85" stop-color="#000304" stop-opacity="0.02"/><stop offset="1" stop-opacity="0"/></linearGradient><linearGradient id="未命名的渐变_55-5" x1="380.08" y1="372.24" x2="393.69" y2="372.24" xlink:href="#未命名的渐变_55"/><linearGradient id="linear-gradient-20" x1="376.44" y1="369.15" x2="393.71" y2="369.15" gradientUnits="userSpaceOnUse"><stop offset="0" stop-color="#ec5a06"/><stop offset="0.18" stop-color="#ee730f"/><stop offset="0.55" stop-color="#f2a520"/><stop offset="0.84" stop-color="#f5c32a"/><stop offset="1" stop-color="#f6cf2e"/></linearGradient><linearGradient id="linear-gradient-21" x1="381.18" y1="376.96" x2="385.57" y2="371.25" xlink:href="#linear-gradient-20"/><clipPath id="clip-path" transform="translate(-346.9 -324.23)"><path class="cls-1" d="M389.94,392.57l5.77-6s0,0-.07.1l-5.77,6C389.92,392.61,389.94,392.59,389.94,392.57Z"/></clipPath><clipPath id="clip-path-2" transform="translate(-346.9 -324.23)"><path class="cls-2" d="M389,382.59l5.78-6c-.1.1-.07.34-.09.5-.22,2.22-.43,4.44-.73,6.64l-5.78,6c.3-2.2.52-4.42.74-6.64C388.93,382.93,388.9,382.69,389,382.59Z"/></clipPath><linearGradient id="未命名的渐变_55-7" x1="388.98" y1="379.6" x2="394.78" y2="379.6" xlink:href="#未命名的渐变_55"/><linearGradient id="未命名的渐变_55-8" x1="388.97" y1="379.63" x2="394.75" y2="379.63" xlink:href="#未命名的渐变_55"/><linearGradient id="未命名的渐变_55-9" x1="388.96" y1="379.65" x2="394.74" y2="379.65" xlink:href="#未命名的渐变_55"/><linearGradient id="未命名的渐变_55-10" x1="388.95" y1="379.68" x2="394.73" y2="379.68" xlink:href="#未命名的渐变_55"/><linearGradient id="未命名的渐变_55-11" x1="388.94" y1="379.7" x2="394.72" y2="379.7" xlink:href="#未命名的渐变_55"/><linearGradient id="未命名的渐变_55-12" x1="388.93" y1="379.74" x2="394.72" y2="379.74" xlink:href="#未命名的渐变_55"/><linearGradient id="未命名的渐变_55-13" x1="388.93" y1="379.78" x2="394.71" y2="379.78" xlink:href="#未命名的渐变_55"/><linearGradient id="未命名的渐变_55-14" x1="388.93" y1="379.84" x2="394.7" y2="379.84" xlink:href="#未命名的渐变_55"/><linearGradient id="未命名的渐变_55-15" x1="388.92" y1="379.94" x2="394.7" y2="379.94" xlink:href="#未命名的渐变_55"/><linearGradient id="未命名的渐变_55-16" x1="388.92" y1="380.04" x2="394.7" y2="380.04" xlink:href="#未命名的渐变_55"/><linearGradient id="未命名的渐变_55-17" x1="388.18" y1="383.4" x2="394.69" y2="383.4" xlink:href="#未命名的渐变_55"/><clipPath id="clip-path-3" transform="translate(-346.9 -324.23)"><path class="cls-3" d="M390.72,384.83l5.77-6a13,13,0,0,0-.21,1.45c-.19,2.09-.37,4.19-.57,6.29l-5.77,6,.57-6.29A11,11,0,0,1,390.72,384.83Z"/></clipPath><linearGradient id="未命名的渐变_55-19" x1="390.7" y1="381.87" x2="396.49" y2="381.87" xlink:href="#未命名的渐变_55"/><linearGradient id="未命名的渐变_55-20" x1="390.59" y1="382.23" x2="396.47" y2="382.23" xlink:href="#未命名的渐变_55"/><linearGradient id="未命名的渐变_55-21" x1="389.94" y1="386.06" x2="396.37" y2="386.06" xlink:href="#未命名的渐变_55"/><clipPath id="clip-path-4" transform="translate(-346.9 -324.23)"><path class="cls-4" d="M399.09,389.5l5.77-6a9.64,9.64,0,0,0-.14,1.51l-.21,4.83a1.22,1.22,0,0,1-.13.57l-5.77,6a1.36,1.36,0,0,0,.13-.57c.07-1.61.13-3.22.2-4.83A11,11,0,0,1,399.09,389.5Z"/></clipPath><linearGradient id="未命名的渐变_55-23" x1="399.04" y1="386.65" x2="404.86" y2="386.65" xlink:href="#未命名的渐变_55"/><linearGradient id="未命名的渐变_55-24" x1="398.99" y1="387.01" x2="404.81" y2="387.01" xlink:href="#未命名的渐变_55"/><linearGradient id="未命名的渐变_55-25" x1="398.73" y1="390.08" x2="404.77" y2="390.08" xlink:href="#未命名的渐变_55"/><linearGradient id="未命名的渐变_55-26" x1="398.72" y1="393" x2="404.5" y2="393" xlink:href="#未命名的渐变_55"/><linearGradient id="未命名的渐变_55-27" x1="398.7" y1="393.09" x2="404.49" y2="393.09" xlink:href="#未命名的渐变_55"/><linearGradient id="未命名的渐变_55-28" x1="398.69" y1="393.17" x2="404.48" y2="393.17" xlink:href="#未命名的渐变_55"/><linearGradient id="未命名的渐变_55-29" x1="398.66" y1="393.25" x2="404.46" y2="393.25" xlink:href="#未命名的渐变_55"/><linearGradient id="未命名的渐变_55-30" x1="398.63" y1="393.32" x2="404.44" y2="393.32" xlink:href="#未命名的渐变_55"/><linearGradient id="未命名的渐变_55-31" x1="398.61" y1="393.38" x2="404.41" y2="393.38" xlink:href="#未命名的渐变_55"/><clipPath id="clip-path-5" transform="translate(-346.9 -324.23)"><path class="cls-5" d="M400.84,391.18l5.78-6a.18.18,0,0,0-.05.07,1.61,1.61,0,0,0-.18.7c-.11,2.78-.22,5.57-.39,8.33l-5.77,6c.17-2.76.27-5.55.38-8.33a1.77,1.77,0,0,1,.18-.7Z"/></clipPath><linearGradient id="未命名的渐变_55-33" x1="400.8" y1="388.21" x2="406.62" y2="388.21" xlink:href="#未命名的渐变_55"/><linearGradient id="未命名的渐变_55-34" x1="400.75" y1="388.28" x2="406.58" y2="388.28" xlink:href="#未命名的渐变_55"/><linearGradient id="未命名的渐变_55-35" x1="400.71" y1="388.38" x2="406.53" y2="388.38" xlink:href="#未命名的渐变_55"/><linearGradient id="未命名的渐变_55-36" x1="400.67" y1="388.49" x2="406.48" y2="388.49" xlink:href="#未命名的渐变_55"/><linearGradient id="未命名的渐变_55-37" x1="400.65" y1="388.6" x2="406.45" y2="388.6" xlink:href="#未命名的渐变_55"/><linearGradient id="未命名的渐变_55-38" x1="400.63" y1="388.71" x2="406.42" y2="388.71" xlink:href="#未命名的渐变_55"/><linearGradient id="未命名的渐变_55-39" x1="400.62" y1="388.81" x2="406.41" y2="388.81" xlink:href="#未命名的渐变_55"/><linearGradient id="未命名的渐变_55-40" x1="400.23" y1="393.07" x2="406.39" y2="393.07" xlink:href="#未命名的渐变_55"/><clipPath id="clip-path-6" transform="translate(-346.9 -324.23)"><path class="cls-1" d="M399.14,389.42l5.77-6a.22.22,0,0,0-.05.08l-5.77,6A.14.14,0,0,1,399.14,389.42Z"/></clipPath><clipPath id="clip-path-7" transform="translate(-346.9 -324.23)"><path class="cls-6" d="M392.09,381.6l5.77-6c-.16,4.5-.32,9-.49,13.58l-5.77,6C391.76,390.64,391.93,386.1,392.09,381.6Z"/></clipPath><linearGradient id="linear-gradient-22" x1="395.17" y1="383.25" x2="395.14" y2="377.11" xlink:href="#linear-gradient-20"/><linearGradient id="未命名的渐变_60-4" x1="392.1" y1="377.28" x2="404" y2="377.28" xlink:href="#未命名的渐变_60"/><linearGradient id="未命名的渐变_55-41" x1="381.03" y1="364.56" x2="387.68" y2="364.56" xlink:href="#未命名的渐变_55"/><linearGradient id="未命名的渐变_61" x1="401.72" y1="387.68" x2="412.63" y2="398.04" gradientUnits="userSpaceOnUse"><stop offset="0" stop-color="#ec5a06"/><stop offset="0.02" stop-color="#ed6309"/><stop offset="0.11" stop-color="#f08414"/><stop offset="0.2" stop-color="#f29f1e"/><stop offset="0.31" stop-color="#f4b525"/><stop offset="0.42" stop-color="#f5c42a"/><stop offset="0.55" stop-color="#f6cc2d"/><stop offset="0.76" stop-color="#f6cf2e"/></linearGradient><linearGradient id="linear-gradient-23" x1="55.51" y1="53.04" x2="61.29" y2="53.04" gradientUnits="userSpaceOnUse"><stop offset="0" stop-color="#fdbd00"/><stop offset="1" stop-color="#fd9b00"/></linearGradient><linearGradient id="未命名的渐变_55-42" x1="41.06" y1="38.9" x2="51.01" y2="38.9" xlink:href="#未命名的渐变_55"/><linearGradient id="linear-gradient-24" x1="45.2" y1="45.82" x2="51.01" y2="45.82" xlink:href="#linear-gradient-23"/><linearGradient id="linear-gradient-25" x1="387.91" y1="380.32" x2="392.13" y2="380.32" xlink:href="#linear-gradient-20"/><linearGradient id="linear-gradient-26" x1="402.4" y1="379.74" x2="410.87" y2="379.74" xlink:href="#linear-gradient-20"/><linearGradient id="linear-gradient-27" x1="402.42" y1="378.19" x2="419.09" y2="378.19" xlink:href="#linear-gradient-20"/><linearGradient id="linear-gradient-28" x1="407.86" y1="386.51" x2="407.86" y2="375.59" xlink:href="#linear-gradient-20"/><linearGradient id="linear-gradient-29" x1="55.52" y1="45.93" x2="61.32" y2="45.93" xlink:href="#linear-gradient-20"/><linearGradient id="linear-gradient-30" x1="398.22" y1="385.24" x2="402.44" y2="385.24" xlink:href="#linear-gradient-20"/><linearGradient id="未命名的渐变_48" x1="381.23" y1="359.59" x2="415.21" y2="359.59" gradientUnits="userSpaceOnUse"><stop offset="0" stop-color="#f6cf2e"/><stop offset="0.16" stop-color="#f5c32a"/><stop offset="0.45" stop-color="#f2a520"/><stop offset="0.82" stop-color="#ee730f"/><stop offset="1" stop-color="#ec5a06"/></linearGradient><linearGradient id="linear-gradient-31" x1="398.53" y1="360.98" x2="402.25" y2="360.98" xlink:href="#linear-gradient-23"/><linearGradient id="linear-gradient-32" x1="51.64" y1="33.75" x2="61.13" y2="33.75" xlink:href="#linear-gradient-20"/><linearGradient id="linear-gradient-33" x1="380.22" y1="364.71" x2="410.35" y2="364.71" xlink:href="#linear-gradient-20"/><linearGradient id="linear-gradient-34" x1="408.71" y1="361.8" x2="416.12" y2="361.8" xlink:href="#linear-gradient-23"/><radialGradient id="Degradado_sin_nombre_724" cx="493.86" cy="678.77" r="9.47" gradientTransform="translate(124.31 -914.25) rotate(90) scale(1.95 0.12)" gradientUnits="userSpaceOnUse"><stop offset="0" stop-color="#fff"/><stop offset="0.02" stop-color="#f7f7f7" stop-opacity="0.97"/><stop offset="0.13" stop-color="#bebebe" stop-opacity="0.74"/><stop offset="0.25" stop-color="#8b8b8b" stop-opacity="0.54"/><stop offset="0.37" stop-color="#606060" stop-opacity="0.38"/><stop offset="0.49" stop-color="#3d3d3d" stop-opacity="0.24"/><stop offset="0.62" stop-color="#222" stop-opacity="0.14"/><stop offset="0.74" stop-color="#0f0f0f" stop-opacity="0.06"/><stop offset="0.87" stop-color="#040404" stop-opacity="0.01"/><stop offset="1" stop-opacity="0"/></radialGradient><radialGradient id="Degradado_sin_nombre_1217" cx="585.83" cy="661.82" r="9.47" gradientTransform="translate(298.85 -369.56) rotate(90) scale(0.71 0.38)" gradientUnits="userSpaceOnUse"><stop offset="0" stop-color="#ec65da"/><stop offset="0.03" stop-color="#e562d3" stop-opacity="0.97"/><stop offset="0.39" stop-color="#84397a" stop-opacity="0.56"/><stop offset="0.68" stop-color="#3d1a38" stop-opacity="0.26"/><stop offset="0.89" stop-color="#110710" stop-opacity="0.07"/><stop offset="1" stop-opacity="0"/></radialGradient><radialGradient id="Degradado_sin_nombre_724-2" cx="496.57" cy="588.93" r="14.39" xlink:href="#Degradado_sin_nombre_724"/><radialGradient id="Degradado_sin_nombre_1217-2" cx="593.24" cy="634.51" r="14.4" xlink:href="#Degradado_sin_nombre_1217"/><radialGradient id="Degradado_sin_nombre_724-3" cx="1278.88" cy="4475.8" r="6.24" gradientTransform="matrix(-1.88, -0.51, -0.03, 0.11, 2933.29, 508.54)" xlink:href="#Degradado_sin_nombre_724"/><radialGradient id="Degradado_sin_nombre_1217-3" cx="2735.04" cy="1816.04" r="6.24" gradientTransform="matrix(0, -0.71, -0.38, 0, 1090.41, 2306.74)" xlink:href="#Degradado_sin_nombre_1217"/><radialGradient id="Degradado_sin_nombre_724-4" cx="1383.47" cy="15698.04" r="3.44" gradientTransform="matrix(1.3, -1.45, -0.09, -0.08, -23.66, 3601.98)" xlink:href="#Degradado_sin_nombre_724"/><radialGradient id="Degradado_sin_nombre_1217-4" cx="3021.45" cy="5228.42" r="3.44" gradientTransform="matrix(0.71, 0, 0, -0.38, -1742.95, 2378.77)" xlink:href="#Degradado_sin_nombre_1217"/><radialGradient id="Degradado_sin_nombre_724-5" cx="1257.03" cy="19235.18" r="3.27" gradientTransform="matrix(1.36, -1.39, -0.08, -0.08, 309.9, 3676.51)" xlink:href="#Degradado_sin_nombre_724"/><linearGradient id="linear-gradient-35" x1="41.32" y1="22.23" x2="50.83" y2="22.23" xlink:href="#linear-gradient-20"/><linearGradient id="linear-gradient-36" x1="41.27" y1="29.16" x2="45.06" y2="29.16" xlink:href="#linear-gradient-23"/><radialGradient id="Degradado_sin_nombre_724-6" cx="1315.43" cy="8946.69" r="2.06" gradientTransform="matrix(-0.03, -1.96, -0.12, 0, 1504.58, 2909.03)" xlink:href="#Degradado_sin_nombre_724"/><radialGradient id="Degradado_sin_nombre_1217-5" cx="2835.14" cy="3175.51" r="2.06" gradientTransform="matrix(0, -0.71, -0.39, 0, 1640.77, 2379.93)" xlink:href="#Degradado_sin_nombre_1217"/></defs><title>图标1</title><g class="cls-7"><g id="图层_1" data-name="图层 1"><g class="cls-8"><path class="cls-9" d="M396.25,467.66a8.13,8.13,0,0,1-4.06-1l-43-24.81a4.28,4.28,0,0,1-2.33-3.71,5,5,0,0,1,2.8-4.21l50.05-29.43a9.91,9.91,0,0,1,4.92-1.25,8.13,8.13,0,0,1,4.06,1l43,24.8a4.3,4.3,0,0,1,2.32,3.71,5,5,0,0,1-2.8,4.21l-50,29.43A10,10,0,0,1,396.25,467.66Z" transform="translate(-346.9 -324.23)"/><path class="cls-10" d="M399.14,405.15a9.75,9.75,0,0,1,4.87-1.22,8.9,8.9,0,0,1,2.54.38,6.76,6.76,0,0,1,1.45.63l42.47,24.52A4.7,4.7,0,0,1,452.9,433a4.6,4.6,0,0,1-2.59,4.16l-49.22,28.89c-.26.14-.59.31-.87.43a10,10,0,0,1-4,.83,8,8,0,0,1-4-.95L349.7,441.8a4.77,4.77,0,0,1-2.44-3.56,4.62,4.62,0,0,1,2.59-4.17Z" transform="translate(-346.9 -324.23)"/><path class="cls-11" d="M398.53,405.78a9.6,9.6,0,0,1,4.82-1.19,9.34,9.34,0,0,1,2.5.4,8.86,8.86,0,0,1,1.43.64l42,24.23a5.23,5.23,0,0,1,2.53,3.39,4.23,4.23,0,0,1-2.38,4.13L401,465.71a9.48,9.48,0,0,1-.84.44,10.08,10.08,0,0,1-3.9.83,7.76,7.76,0,0,1-3.92-.92l-42.15-24.34a5.3,5.3,0,0,1-2.55-3.4,4.22,4.22,0,0,1,2.38-4.13Z" transform="translate(-346.9 -324.23)"/><path class="cls-12" d="M397.93,406.41a9.38,9.38,0,0,1,4.76-1.16,7.92,7.92,0,0,1,3.86,1.07L448,430.26a6,6,0,0,1,2.63,3.24,3.86,3.86,0,0,1-2.16,4.08L400.9,465.37c-.2.12-.61.33-.83.43a9.83,9.83,0,0,1-3.82.84,7.55,7.55,0,0,1-3.84-.89l-41.76-24.1a6.15,6.15,0,0,1-2.66-3.26,3.87,3.87,0,0,1,2.17-4.08Z" transform="translate(-346.9 -324.23)"/><path class="cls-13" d="M397.32,407a9,9,0,0,1,4.71-1.12,8,8,0,0,1,2.42.45,11.63,11.63,0,0,1,1.38.64l40.95,23.65c.94.54,2.73,2.13,2.73,3.08.61,1.4-.12,3-1.95,4L400.81,465a7.82,7.82,0,0,1-.81.43,9.75,9.75,0,0,1-3.74.85,7.52,7.52,0,0,1-3.78-.85l-41.35-23.88c-.94-.54-2.77-2.15-2.77-3.1-.61-1.4.12-3,1.95-4Z" transform="translate(-346.9 -324.23)"/><path class="cls-14" d="M396.71,407.66a9,9,0,0,1,4.66-1.08,8,8,0,0,1,2.38.47,11.27,11.27,0,0,1,1.35.66l40.45,23.35c.81.46,2.84,2.11,2.84,2.93.75,1.33.1,2.93-1.74,4l-45.93,26.7c-.15.09-.64.35-.8.42a9.32,9.32,0,0,1-3.66.86,7.27,7.27,0,0,1-3.71-.82L351.61,441.5c-.81-.47-2.89-2.14-2.89-3-.75-1.33-.1-2.93,1.74-4Z" transform="translate(-346.9 -324.23)"/><path class="cls-15" d="M396.11,408.29a8.73,8.73,0,0,1,4.6-1.05,8,8,0,0,1,2.34.5c.24.08,1.12.54,1.33.66l39.94,23.06c.67.39,2.94,2.09,2.94,2.77.91,1.27.33,2.88-1.53,3.95l-45.1,26.15c-.12.08-.65.36-.79.43a9.28,9.28,0,0,1-3.58.86,7,7,0,0,1-3.64-.79l-40.54-23.41c-.67-.38-3-2.12-3-2.8-.91-1.27-.33-2.88,1.53-3.95Z" transform="translate(-346.9 -324.23)"/><path class="cls-16" d="M395.5,408.92a8.54,8.54,0,0,1,4.54-1,8.07,8.07,0,0,1,2.31.52c.19.07,1.14.58,1.3.67l39.44,22.77c.54.31,3,2.07,3,2.62,1.06,1.2.56,2.83-1.31,3.91L400.54,464l-.77.42a9,9,0,0,1-3.51.87,6.78,6.78,0,0,1-3.57-.76l-40.13-23.17c-.54-.31-3.11-2.11-3.1-2.65-1.06-1.21-.56-2.84,1.31-3.91Z" transform="translate(-346.9 -324.23)"/><path class="cls-17" d="M394.9,409.55a8.24,8.24,0,0,1,4.48-1,7.48,7.48,0,0,1,2.27.55c.15.05,1.15.6,1.28.67l38.93,22.48c.41.23,3.15,2.05,3.15,2.46,1.2,1.15.77,2.78-1.11,3.87l-43.45,25.05c-.07.05-.68.38-.76.42a8.91,8.91,0,0,1-3.42.88,6.59,6.59,0,0,1-3.5-.73L353,441.27c-.41-.23-3.22-2.09-3.22-2.5-1.21-1.14-.78-2.78,1.1-3.87Z" transform="translate(-346.9 -324.23)"/><path class="cls-18" d="M394.29,410.18a8.09,8.09,0,0,1,4.43-1,7.29,7.29,0,0,1,2.24.58c.09,0,1.16.63,1.24.67l38.43,22.19c.27.16,3.25,2,3.25,2.3,1.36,1.09,1,2.74-.89,3.83L400.36,463.3l-.74.42a8.75,8.75,0,0,1-3.35.88,6.46,6.46,0,0,1-3.43-.69L353.51,441.2c-.27-.16-3.32-2.08-3.32-2.35-1.36-1.08-1-2.73.89-3.83Z" transform="translate(-346.9 -324.23)"/><path class="cls-19" d="M393.68,410.81a7.84,7.84,0,0,1,4.38-.92,7,7,0,0,1,2.2.59l1.22.68,37.93,21.9c.13.08,3.34,2,3.34,2.15,1.51,1,1.23,2.68-.68,3.78l-41.8,24-.73.42a8.54,8.54,0,0,1-3.27.89,6.22,6.22,0,0,1-3.36-.66L354,441.13c-.14-.08-3.44-2.07-3.44-2.2-1.51-1-1.23-2.69.68-3.79Z" transform="translate(-346.9 -324.23)"/><path d="M393,463.29,350.92,439c-1.66-1-1.46-2.63.46-3.74l41.7-23.82a7.19,7.19,0,0,1,6.48-.27l42.06,24.28c1.66,1,1.46,2.64-.46,3.75L399.46,463A7.19,7.19,0,0,1,393,463.29Z" transform="translate(-346.9 -324.23)"/></g><polygon class="cls-20" points="49.88 143.21 49.88 151.57 97.38 123.86 97.38 115.5 49.88 143.21"/><polygon class="cls-21" points="49.91 143.21 49.91 151.57 2.24 123.79 2.24 115.45 49.91 143.21"/><polygon class="cls-22" points="49.88 129.73 49.88 141.61 97.38 113.91 97.38 102.02 49.88 129.73"/><polygon class="cls-23" points="51.39 130.59 95.87 104.65 95.87 113.04 51.39 138.98 51.39 130.59"/><polygon class="cls-24" points="95.37 104.94 95.37 112.87 51.39 138.52 51.39 138.98 95.87 113.04 95.87 104.65 95.37 104.94"/><polygon class="cls-25" points="49.91 129.73 49.91 141.61 2.24 113.83 2.24 101.97 49.91 129.73"/><polygon class="cls-26" points="3.75 112.96 3.75 104.6 48.4 130.6 48.4 138.98 3.75 112.96"/><polygon class="cls-24" points="4.34 112.71 4.34 104.94 3.75 104.6 3.75 112.96 48.4 138.98 48.4 138.39 4.34 112.71"/><polygon class="cls-27" points="2.24 101.97 49.91 129.73 97.38 102.02 49.67 74.23 2.24 101.97"/><polygon class="cls-28" points="49.87 119.92 49.87 127.68 94.01 101.94 94.01 94.17 49.87 119.92"/><polygon class="cls-29" points="49.87 126.46 49.87 127.68 94.01 101.94 94.01 100.72 49.87 126.46"/><polygon class="cls-30" points="49.9 119.92 49.9 127.68 5.61 101.87 5.61 94.13 49.9 119.92"/><polygon class="cls-31" points="49.9 126.46 49.9 127.68 5.61 101.87 5.61 100.67 49.9 126.46"/><polygon class="cls-32" points="49.88 113.11 49.88 125 97.38 97.29 97.38 85.41 49.88 113.11"/><polygon class="cls-23" points="51.39 113.98 95.87 88.04 95.87 96.42 51.39 122.37 51.39 113.98"/><polygon class="cls-24" points="95.37 88.33 95.37 96.26 51.39 121.91 51.39 122.37 95.87 96.42 95.87 88.04 95.37 88.33"/><polygon class="cls-33" points="49.91 113.11 49.91 125 2.24 97.21 2.24 85.36 49.91 113.11"/><polygon class="cls-26" points="3.75 96.35 3.75 87.99 48.4 113.98 48.4 122.37 3.75 96.35"/><polygon class="cls-24" points="4.34 96.09 4.34 88.33 3.75 87.99 3.75 96.35 48.4 122.37 48.4 121.78 4.34 96.09"/><polygon class="cls-34" points="2.24 85.36 49.91 113.11 97.38 85.41 49.67 57.62 2.24 85.36"/><polygon class="cls-35" points="49.87 103.3 49.87 111.07 94.01 85.33 94.01 77.56 49.87 103.3"/><polygon class="cls-36" points="49.87 109.85 49.87 111.07 94.01 85.33 94.01 84.1 49.87 109.85"/><polygon class="cls-37" points="49.9 103.3 49.9 111.07 5.61 85.25 5.61 77.51 49.9 103.3"/><polygon class="cls-38" points="49.9 109.85 49.9 111.07 5.61 85.25 5.61 84.06 49.9 109.85"/><polygon class="cls-39" points="49.88 96.5 49.88 108.39 97.38 80.68 97.38 68.8 49.88 96.5"/><polygon class="cls-23" points="51.39 97.37 95.87 71.42 95.87 79.81 51.39 105.76 51.39 97.37"/><polygon class="cls-24" points="95.37 71.72 95.37 79.64 51.39 105.3 51.39 105.76 95.87 79.81 95.87 71.42 95.37 71.72"/><polygon class="cls-40" points="49.91 96.5 49.91 108.39 2.24 80.6 2.24 68.75 49.91 96.5"/><polygon class="cls-26" points="3.75 79.73 3.75 71.37 48.4 97.37 48.4 105.76 3.75 79.73"/><polygon class="cls-24" points="4.34 79.48 4.34 71.72 3.75 71.37 3.75 79.73 48.4 105.76 48.4 105.16 4.34 79.48"/><polygon class="cls-41" points="2.24 68.75 49.91 96.5 97.38 68.8 49.67 41.01 2.24 68.75"/><polygon class="cls-42" points="49.91 96.5 49.91 141.57 2.24 113.78 2.24 68.75 49.91 96.5"/><polygon class="cls-43" points="87.33 68.55 49.58 46.56 11.79 68.33 49.58 90.33 87.33 68.55"/><polygon class="cls-44" points="49.6 53.06 49.6 46.57 49.58 46.56 11.79 68.33 17.4 71.59 49.6 53.06"/><polygon class="cls-45" points="49.58 53.06 81.73 71.78 87.33 68.55 49.58 46.56 49.58 53.06"/><polygon class="cls-46" points="29.96 71.52 49.43 82.85 69.15 71.5 49.67 60.16 29.96 71.52"/><polygon class="cls-47" points="69.15 23.2 49.5 11.76 29.96 23.18 29.96 71.52 49.43 82.85 69.15 71.5 69.15 23.2"/><polygon class="cls-48" points="58.57 5.26 49.53 0 40.55 5.25 40.55 77.64 49.5 82.85 58.57 77.64 58.57 5.26"/><path class="cls-49" d="M393.69,371.7l-.72-.3-.2-.09-.35-.14-.22-.1-.33-.14-.2-.09-.36-.16-.14-.06-.49-.23h0l-.68-.33-.08,0-.6-.3-.11-.06-.46-.24,0,0-.38-.21-.11-.07A1.38,1.38,0,0,1,388,369l-.1-.05-.3-.19-.08-.05-.18-.11-.09-.07-.14-.09-.1-.07-.12-.09-.08-.06-.11-.09-.08-.06-.09-.08-.07-.06-.08-.08-.06-.05-.07-.08a.12.12,0,0,1,0-.05l-.06-.07-.05-.07h0l-.07-.1h0l0-.1h0a.36.36,0,0,1,0-.09h0s0-.07,0-.09h0a.11.11,0,0,1,0-.08h0s0-.06,0-.08h0s0,0,0-.06h0l.06-.07-5.78,6,0,0,0,0h0v0s0,0,0,0h0s0,0,0,0v0h0v.06h0v.09h0v.08h0v0l0,.06h0l0,0,0,.06h0l0,0,0,0,.05.07.06.05.06.08.07.06.08.07.07.06.09.08.05,0,0,0,.1.09.09.06.12.09.07,0,0,0,.14.09.1.07.18.11.06.05h0l.31.19.09.05.24.14.06,0,0,0,.38.21,0,0,.45.24,0,0,.06,0,.61.3.07,0,.69.33h0l.48.23.14.06.37.16.2.09.33.14.22.1.34.14.12.05.09,0,.72.3Z" transform="translate(-346.9 -324.23)"/><polygon class="cls-50" points="41.02 53.47 46.8 47.47 46.79 49.33 41.02 55.33 41.02 53.47"/><polygon class="cls-50" points="41.03 48.83 46.81 42.83 46.81 43.17 41.03 49.17 41.03 48.83"/><path class="cls-51" d="M393.71,367.06l-.24-.07-.92-.26-.18-.05-1-.28-.16,0-.29-.07-.42-.11-.43-.1-.61-.14-.37-.08-.09,0-.78-.16-.14,0-.54-.09-.15,0-.18,0-.69-.1h-.06l-.66-.07h-.18l-.25,0-.38,0h-1.15l-.25,0-.1,0h-.2l-.23.05h0l-.26.07a.05.05,0,0,1,0,0l-.07,0-.11.05-.07,0-.06,0a.86.86,0,0,0-.18.14l-5.78,6a.86.86,0,0,1,.18-.14l.06,0,.18-.09.08,0a2.13,2.13,0,0,1,.3-.09h0l.34-.06h.1l.35,0h.74l.41,0,.37,0,.33,0H380l.67.07h.05l.69.1.17,0,.7.13.14,0,.86.18.37.08.62.14.42.1.72.18.15,0,1,.28.17.05,1.16.33h0Z" transform="translate(-346.9 -324.23)"/><path class="cls-52" d="M387.91,379.56c-15-5.75-16.15-11.29,0-6.5v.34c-9.88-2.36-11-.19,0,4.3Z" transform="translate(-346.9 -324.23)"/><g class="cls-7"><g class="cls-53"><g class="cls-7"><polyline class="cls-54" points="43.04 68.34 48.82 62.34 48.82 62.34 43.04 68.34 43.04 68.34"/><polyline class="cls-55" points="43.04 68.34 48.82 62.34 48.82 62.34 43.04 68.34 43.04 68.34"/><polyline class="cls-56" points="43.04 68.34 48.82 62.34 48.82 62.34 43.04 68.34 43.04 68.34"/><polyline class="cls-57" points="43.04 68.34 48.82 62.34 48.81 62.35 43.04 68.35 43.04 68.34"/><polyline class="cls-58" points="43.04 68.35 48.81 62.35 48.81 62.35 43.04 68.35 43.04 68.35"/><polyline class="cls-59" points="43.04 68.35 48.81 62.35 48.81 62.35 43.04 68.35 43.04 68.35"/><polyline class="cls-60" points="43.04 68.35 48.81 62.35 48.81 62.36 43.04 68.36 43.04 68.35"/><polyline class="cls-61" points="43.04 68.36 48.81 62.36 48.81 62.37 43.03 68.36 43.04 68.36"/><path class="cls-62" d="M389.93,392.59l5.77-6-.06.08-5.77,6,.06-.08" transform="translate(-346.9 -324.23)"/></g></g></g><path class="cls-2" d="M389,382.59l5.78-6c-.1.1-.07.34-.09.5-.22,2.22-.43,4.44-.73,6.64l-5.78,6c.3-2.2.52-4.42.74-6.64C388.93,382.93,388.9,382.69,389,382.59Z" transform="translate(-346.9 -324.23)"/><g class="cls-63"><g class="cls-7"><path class="cls-64" d="M389,382.59l5.78-6,0,0-5.77,6,0,0" transform="translate(-346.9 -324.23)"/><path class="cls-65" d="M389,382.62l5.77-6v0l-5.77,6v0" transform="translate(-346.9 -324.23)"/><path class="cls-66" d="M389,382.64l5.77-6v0l-5.77,6v0" transform="translate(-346.9 -324.23)"/><path class="cls-67" d="M389,382.66l5.77-6v0l-5.77,6v0" transform="translate(-346.9 -324.23)"/><path class="cls-68" d="M389,382.69l5.77-6v0l-5.78,6v0" transform="translate(-346.9 -324.23)"/><path class="cls-69" d="M388.94,382.72l5.78-6v0l-5.78,6v0" transform="translate(-346.9 -324.23)"/><path class="cls-70" d="M388.93,382.76l5.78-6a.06.06,0,0,1,0,0l-5.77,6v0" transform="translate(-346.9 -324.23)"/><path class="cls-71" d="M388.93,382.8l5.77-6v.08l-5.77,6v-.08" transform="translate(-346.9 -324.23)"/><path class="cls-72" d="M388.93,382.88l5.77-6V377l-5.78,6a.49.49,0,0,1,0-.12" transform="translate(-346.9 -324.23)"/><path class="cls-73" d="M388.92,383l5.78-6s0,.05,0,.07l-5.77,6V383" transform="translate(-346.9 -324.23)"/><path class="cls-74" d="M388.92,383.07l5.77-6v0c-.22,2.22-.43,4.44-.73,6.64l-5.78,6c.3-2.2.52-4.42.74-6.64v0" transform="translate(-346.9 -324.23)"/></g></g><path class="cls-3" d="M390.72,384.83l5.77-6a13,13,0,0,0-.21,1.45c-.19,2.09-.37,4.19-.57,6.29l-5.77,6,.57-6.29A11,11,0,0,1,390.72,384.83Z" transform="translate(-346.9 -324.23)"/><g class="cls-75"><g class="cls-7"><path class="cls-76" d="M390.72,384.83l5.77-6,0,.08-5.77,6,0-.08" transform="translate(-346.9 -324.23)"/><path class="cls-77" d="M390.7,384.91l5.77-6c0,.22-.07.43-.1.64l-5.78,6c0-.21.07-.42.11-.64" transform="translate(-346.9 -324.23)"/><path class="cls-78" d="M390.59,385.55l5.78-6c0,.24-.06.48-.09.73-.19,2.09-.37,4.19-.57,6.29l-5.77,6,.57-6.29c0-.25.05-.49.08-.73" transform="translate(-346.9 -324.23)"/></g></g><path class="cls-4" d="M399.09,389.5l5.77-6a9.64,9.64,0,0,0-.14,1.51l-.21,4.83a1.22,1.22,0,0,1-.13.57l-5.77,6a1.36,1.36,0,0,0,.13-.57c.07-1.61.13-3.22.2-4.83A11,11,0,0,1,399.09,389.5Z" transform="translate(-346.9 -324.23)"/><g class="cls-79"><g class="cls-7"><path class="cls-80" d="M399.09,389.5l5.77-6c0,.1,0,.2-.05.3l-5.77,6c0-.1,0-.2,0-.3" transform="translate(-346.9 -324.23)"/><path class="cls-81" d="M399,389.8l5.77-6c0,.14,0,.28,0,.41l-5.78,6c0-.13,0-.27.05-.41" transform="translate(-346.9 -324.23)"/><path class="cls-82" d="M399,390.21l5.78-6c0,.27,0,.53,0,.8l-.21,4.83a.37.37,0,0,1,0,.11l-5.77,6s0-.07,0-.11c.07-1.61.13-3.22.2-4.83,0-.27,0-.53.05-.8" transform="translate(-346.9 -324.23)"/><path class="cls-83" d="M398.73,396l5.77-6a.31.31,0,0,1,0,.1l-5.77,6s0-.06,0-.1" transform="translate(-346.9 -324.23)"/><path class="cls-84" d="M398.72,396.05l5.77-6s0,.06,0,.09l-5.78,6a.29.29,0,0,0,0-.09" transform="translate(-346.9 -324.23)"/><path class="cls-85" d="M398.7,396.14l5.78-6s0,.05,0,.07l-5.77,6s0,0,0-.07" transform="translate(-346.9 -324.23)"/><path class="cls-86" d="M398.69,396.21l5.77-6a.19.19,0,0,1,0,.07l-5.78,6,0-.07" transform="translate(-346.9 -324.23)"/><path class="cls-87" d="M398.66,396.28l5.78-6,0,.08-5.78,6a.13.13,0,0,0,0-.08" transform="translate(-346.9 -324.23)"/><path class="cls-88" d="M398.63,396.36l5.78-6,0,.05-5.77,6,0-.05" transform="translate(-346.9 -324.23)"/></g></g><path class="cls-5" d="M400.84,391.18l5.78-6a.18.18,0,0,0-.05.07,1.61,1.61,0,0,0-.18.7c-.11,2.78-.22,5.57-.39,8.33l-5.77,6c.17-2.76.27-5.55.38-8.33a1.77,1.77,0,0,1,.18-.7Z" transform="translate(-346.9 -324.23)"/><g class="cls-89"><g class="cls-7"><path class="cls-90" d="M400.84,391.18l5.78-6,0,.05-5.78,6,0-.05" transform="translate(-346.9 -324.23)"/><path class="cls-91" d="M400.8,391.23l5.78-6v0l0,.08-5.78,6,0-.08v0" transform="translate(-346.9 -324.23)"/><path class="cls-92" d="M400.75,391.33l5.78-6,0,.11-5.77,6s0-.07,0-.11" transform="translate(-346.9 -324.23)"/><path class="cls-93" d="M400.71,391.44l5.77-6,0,.1-5.78,6,0-.1" transform="translate(-346.9 -324.23)"/><path class="cls-94" d="M400.67,391.54l5.78-6,0,.11-5.77,6a.36.36,0,0,0,0-.11" transform="translate(-346.9 -324.23)"/><path class="cls-95" d="M400.65,391.65l5.77-6s0,.07,0,.11l-5.78,6s0-.07,0-.11" transform="translate(-346.9 -324.23)"/><path class="cls-96" d="M400.63,391.76l5.78-6s0,.07,0,.11l-5.77,6s0-.07,0-.11" transform="translate(-346.9 -324.23)"/><path class="cls-97" d="M400.62,391.87l5.77-6V386c-.11,2.78-.22,5.57-.39,8.33l-5.77,6c.17-2.76.27-5.55.38-8.33,0,0,0-.06,0-.08" transform="translate(-346.9 -324.23)"/></g></g><g class="cls-7"><g class="cls-98"><g class="cls-7"><path class="cls-62" d="M399.14,389.42l5.77-6,0,0-5.77,6,0,0" transform="translate(-346.9 -324.23)"/><path class="cls-61" d="M399.11,389.45l5.77-6v0l-5.77,6v0" transform="translate(-346.9 -324.23)"/><path class="cls-60" d="M399.1,389.47l5.77-6v0l-5.77,6v0" transform="translate(-346.9 -324.23)"/><polyline class="cls-59" points="52.19 65.27 57.97 59.27 57.96 59.27 52.19 65.27 52.19 65.27"/></g></g></g><path class="cls-6" d="M392.09,381.6l5.77-6c-.16,4.5-.32,9-.49,13.58l-5.77,6C391.76,390.64,391.93,386.1,392.09,381.6Z" transform="translate(-346.9 -324.23)"/><g class="cls-99"><g class="cls-7"><path class="cls-6" d="M392.09,381.6l5.77-6c-.16,4.5-.32,9-.49,13.58l-5.77,6c.16-4.54.33-9.08.49-13.58" transform="translate(-346.9 -324.23)"/></g></g><polygon class="cls-50" points="45.19 56.86 50.97 50.86 50.97 51.37 45.19 57.37 45.19 56.86"/><polygon class="cls-50" points="45.2 55.06 50.97 49.06 50.97 50.86 45.19 56.86 45.2 55.06"/><path class="cls-100" d="M393.64,379.84l.83.27c1.33.43,2.59.82,3.75,1.15v1.79c-1.1-.32-2.25-.67-3.46-1.06l-2.67-.9v-1.8Z" transform="translate(-346.9 -324.23)"/><path class="cls-101" d="M403.27,375.05l-.33-.1-.54-.16-.34-.11-.59-.18-.31-.1-.92-.29-.82-.27-1.55-.55h0l-5.77,6,1.54.55.83.27.92.29.29.1.61.18.33.11.55.16.33.1.22.06.5.15,5.78-6Z" transform="translate(-346.9 -324.23)"/><polygon class="cls-50" points="51.33 57.03 57.1 51.03 57.1 52.82 51.32 58.82 51.33 57.03"/><path class="cls-102" d="M387.13,363.56v0s0-.1,0-.15-.05-.19-.08-.3V363a2,2,0,0,1-.05-.24l0-.13a1,1,0,0,1,0-.17l0-.16c0-.05,0-.1,0-.15a1.23,1.23,0,0,1,0-.2.38.38,0,0,1,0-.1c0-.1,0-.2,0-.31v-.31s0-.06,0-.09a1.79,1.79,0,0,1,0-.23.22.22,0,0,1,0-.08c0-.1,0-.2,0-.31v0l.06-.25a.3.3,0,0,1,0-.1,1.18,1.18,0,0,1,.07-.2s0-.08,0-.11l.07-.15.11-.19a1,1,0,0,1,.11-.17l.06-.09.21-.25-5.77,6c-.08.08-.15.17-.22.25a.41.41,0,0,0-.05.09.76.76,0,0,0-.08.11l0,.06-.1.19-.05.09s0,0,0,.06a1.17,1.17,0,0,0-.05.11,1,1,0,0,0,0,.1l0,.1,0,.1,0,.06c0,.06,0,.13-.05.19v.06a1.87,1.87,0,0,0,0,.25v0a.22.22,0,0,1,0,.08s0,.08,0,.13a.34.34,0,0,1,0,.1v.15a1.34,1.34,0,0,0,0,.2v.07c0,.09,0,.18,0,.27v0a.31.31,0,0,1,0,.1c0,.05,0,.11,0,.16v0s0,.1,0,.15,0,.08,0,.12v0l0,.17s0,.07,0,.1v0a2,2,0,0,1,0,.24v.05h0c0,.11,0,.21.07.3v0l0,.12,0,0c0,.06,0,.11,0,.16v0a2.63,2.63,0,0,0,.15.4h0l5.77-6c-.05-.14-.1-.27-.14-.4Z" transform="translate(-346.9 -324.23)"/><path class="cls-103" d="M402.4,384.14v.32q-.25,9.54-.5,19.06h0l5.78-6q.24-9.52.49-19.06v-.32Z" transform="translate(-346.9 -324.23)"/><polygon class="cls-50" points="55.51 58.12 61.28 52.12 61.28 53.91 55.5 59.91 55.51 58.12"/><polygon class="cls-104" points="55.52 53.96 61.29 47.96 61.28 52.12 55.51 58.12 55.52 53.96"/><polygon class="cls-50" points="55.52 53.55 61.29 47.55 61.29 47.96 55.52 53.96 55.52 53.55"/><polygon class="cls-105" points="41.06 41.22 46.83 35.22 51.01 36.58 45.23 42.58 41.06 41.22"/><polygon class="cls-106" points="45.23 42.58 51.01 36.58 50.97 49.06 45.2 55.06 45.23 42.58"/><path class="cls-107" d="M392.13,366.81l0,12.48v2.31c-.16,4.5-.33,9-.49,13.58-.12-1.75-.18-3.48-.23-5.21-.05-1.44-.08-2.86-.12-4.29a2.7,2.7,0,0,0-.07-.63l0-.08a.44.44,0,0,0-.22-.17.19.19,0,0,0-.21,0,11,11,0,0,0-.21,1.45l-.57,6.29s0,0-.07.1c0-.56-.06-1.07-.08-1.58-.08-2.58-.15-5.17-.23-7.75,0-.26.07-.63-.3-.78s-.32.29-.34.53c-.22,2.22-.44,4.44-.74,6.64l-.27-9.48v-7.19l0-7.61Z" transform="translate(-346.9 -324.23)"/><path class="cls-108" d="M409.38,382.8h0l5.77-6-.11.09,0,0-.1,0-.06,0-.18.06h0l-.23,0h-.08l-.18,0h-1.08l-.48,0h-.16l-.37,0-.17,0-.31,0-.28,0-.29-.05-.3,0-.28-.05a4.37,4.37,0,0,1-.5-.09l-.24,0-.72-.15h-.06l-.75-.16-5.78,6,.75.16h.07l.71.15.24,0,.5.09.12,0,.17,0,.3,0,.29.05.28,0,.12,0,.19,0,.16,0,.37,0h.17l.47,0h1.39l.18,0h0l.14,0,0,0,.06,0,.06,0,.05,0,0,0Z" transform="translate(-346.9 -324.23)"/><path class="cls-109" d="M419.09,378.07h0v-.14h0v-.06l0-.05v0h0l0,0,0-.06a.17.17,0,0,0,0-.05h0a.2.2,0,0,1,0-.08l-.05-.07h0l-.06-.08-.07-.1h0l-.16-.19-.05-.06-.13-.13-.09-.08-.13-.12-.1-.09-.15-.12,0,0-.11-.08-.11-.09-.16-.12-.12-.09h0l-.18-.12-.1-.08-.28-.18-.06,0h0l-.17-.11-.2-.12-.2-.12-.2-.11h0l-.06,0-.4-.22-.17-.09-.32-.17-.06,0-.12-.06-.41-.21-.2-.1-.49-.23-.11,0,0,0-.75-.34-.2-.08-.71-.31-.1,0,0,0-.19-.08-.43-.17-.24-.1-.4-.16-.27-.11-.41-.16-.27-.1-.15-.05-.33-.13-.21-.08-.72-.26-5.77,6,.71.26.22.09.47.17.28.11.41.15.26.11.41.16.24.1.42.17.19.08.14.06c.25.1.49.2.72.31l.19.08.76.34.14.07.48.23.2.1.42.21.18.09.32.17.17.09.39.22.07,0,.22.12.18.11.21.13.16.1,0,0,.28.18.11.08.2.13.11.09.17.12.11.09.14.11.15.12.1.09.13.12.08.08.13.13.06.06.16.19a.61.61,0,0,0,.07.1.56.56,0,0,1,.05.08,1.4,1.4,0,0,1,.1.16h0a1,1,0,0,1,.07.15h0a.88.88,0,0,1,.05.15h0c0,.05,0,.1,0,.14h0a.57.57,0,0,1,0,.13h0l0,.13h0a.41.41,0,0,1,0,.09s0,0,0,0a.86.86,0,0,1-.07.1l0,0h0l5.78-6,0,0,.06-.07v0l0,0,0,0s0,0,0,0h0v0s0,0,0-.05v0h0v-.13Z" transform="translate(-346.9 -324.23)"/><path class="cls-110" d="M402.42,377.77c8.43,3,11.75,5.62,10.72,6.8-.84,1-4.56,1-10.74-.43v-1.79c9.08,2.06,9.81-.07,0-4.17Z" transform="translate(-346.9 -324.23)"/><polygon class="cls-50" points="51.37 42.72 57.14 36.72 57.14 37.05 51.37 43.05 51.37 42.72"/><polygon class="cls-111" points="55.55 44.31 61.32 38.31 61.29 47.55 55.52 53.55 55.55 44.31"/><polygon class="cls-50" points="55.55 44.08 61.32 38.08 61.32 38.31 55.55 44.31 55.55 44.08"/><path class="cls-112" d="M402.44,368.3v.24l0,9.23v.41l0,4.17v2.11q-.25,9.54-.5,19.06c-.09-1.35-.12-2.67-.16-4-.05-2.43-.11-4.85-.18-7.28a2.22,2.22,0,0,0-.17-.81.54.54,0,0,0-.3-.31.24.24,0,0,0-.3.13,1.77,1.77,0,0,0-.18.7c-.11,2.78-.21,5.57-.38,8.33-.05-1-.1-2-.14-3-.11-2.48-.2-5-.33-7.44a.48.48,0,0,0-.35-.41c-.14-.05-.28,0-.32.12a11,11,0,0,0-.15,1.51c-.07,1.61-.13,3.22-.2,4.83a1.36,1.36,0,0,1-.13.57c-.13-4.45-.26-8.9-.39-13.3v-1.85l0-14V367Z" transform="translate(-346.9 -324.23)"/><polygon class="cls-113" points="51.37 42.72 57.14 36.72 61.32 38.08 55.55 44.08 51.37 42.72"/><polygon class="cls-113" points="41.3 26.9 47.07 20.9 50.82 22.12 45.05 28.12 41.3 26.9"/><path class="cls-114" d="M408.88,364.76l.1-.07.17-.13.08-.06.21-.2,5.77-6a2,2,0,0,1-.21.2l-.07.06-.17.13-.11.07-.17.11-.13.06-.18.09a2.52,2.52,0,0,1-.33.14l-.09,0-.19.06-.23.07-.14,0-.31.06-.15,0-.33,0h-.17l-.38,0H411l-.53,0-.22,0-.46-.06-.27,0-.49-.09-.29-.06-.5-.11-.38-.08-.46-.13-.5-.14c-.3-.08-.61-.18-.93-.28l-13.55-4.39-.14-.05h0l-.16,0h0l-.06,0H392l-.21-.05-.07,0h0l-.21,0-.1,0h0l-.19,0-.13,0h0l-.16,0h-1.16l-.3,0h0l-.32.05H389l-.12,0-.16,0-.1,0-.14,0-.11,0-.11.05-.2.08-.09,0-.19.1,0,0a3.53,3.53,0,0,0-.32.21l-.07.06a2.52,2.52,0,0,0-.3.27l-5.77,6a1.93,1.93,0,0,1,.3-.27l.07-.06a3.53,3.53,0,0,1,.32-.21l0,0,.27-.14.21-.08.21-.08.14,0,.26-.06.13,0,.37-.06h0l.36,0h.9l.21,0,.16,0,.17,0,.18,0,.14,0,.2,0,.12,0,.2.05.12,0h0l.17,0,.13.05,13.55,4.39.85.26.09,0,.5.14.38.11.08,0,.38.08.39.09.1,0,.29.06.33.06.16,0,.27,0,.22,0,.24,0,.23,0h.11l.41,0h1.5l.21,0,.15,0h.05l.25,0,.15,0h0l.2-.06.2-.06h0l.08,0,.33-.14.05,0,.13-.07.12-.06Z" transform="translate(-346.9 -324.23)"/><path class="cls-115" d="M398.54,358.42l3.71,5.11c-.27-.07-.55-.16-.84-.26l-2.88-.93Z" transform="translate(-346.9 -324.23)"/><polygon class="cls-116" points="51.64 34.19 57.42 28.19 61.13 33.3 55.35 39.3 51.64 34.19"/><path class="cls-117" d="M400.28,364.44c9.56,3.1,10.05-1.46,10.07-2.12,0,4.62-2.37,6.09-4.46,6.47a9.62,9.62,0,0,1-3.45-.25v-.24L398.27,367v.33l-6.86-2.23c-12.07-3.91-10.56,2.92-10,4.7-4.31-12.4,4.4-10,5.32-9.7Z" transform="translate(-346.9 -324.23)"/><path class="cls-118" d="M416.12,356.26h0l-5.77,6v.07l2.94-3.05-2.94,3.05c0,.14,0,.26,0,.39l0,.54a.31.31,0,0,0,0,.1c0,.14,0,.28-.05.42s0,.09,0,.13-.05.33-.08.48h0c0,.16-.07.31-.11.46l0,.11c0,.15-.09.31-.14.45l0,0c-.06.16-.12.32-.19.47l0,0a2.59,2.59,0,0,1-.14.29l0,0a2.6,2.6,0,0,1-.13.24l0,0a4.21,4.21,0,0,1-.28.41l0,0c-.1.13-.2.25-.31.37l5.77-6c.11-.12.22-.24.32-.37v0a4.27,4.27,0,0,0,.29-.41v0a2.55,2.55,0,0,0,.14-.24v0l.15-.29h0v0c.07-.15.14-.31.2-.47v0h0c.05-.14.1-.3.14-.45l0,0a.13.13,0,0,0,0-.06c0-.15.08-.3.11-.46h0c0-.15.06-.31.09-.48a.15.15,0,0,1,0-.06v-.07c0-.14,0-.28.05-.42s0-.05,0-.08v0a4.89,4.89,0,0,0,0-.54v-.39h0Z" transform="translate(-346.9 -324.23)"/><ellipse class="cls-119" cx="45.23" cy="46.85" rx="1.1" ry="18.43"/><ellipse class="cls-120" cx="45.23" cy="46.85" rx="3.63" ry="6.73"/><ellipse class="cls-121" cx="55.7" cy="52.12" rx="1.68" ry="28.02"/><ellipse class="cls-122" cx="55.7" cy="52.12" rx="5.52" ry="10.23"/><path class="cls-123" d="M382.8,359.37c.11-.38,5.44.72,11.91,2.47s11.64,3.48,11.53,3.87-5.43-.72-11.91-2.47S382.7,359.76,382.8,359.37Z" transform="translate(-346.9 -324.23)"/><ellipse class="cls-124" cx="394.52" cy="362.54" rx="2.39" ry="4.43" transform="translate(-405.3 324.58) rotate(-74.88)"/><path class="cls-125" d="M409.32,370.27c.16.15-1.7,2.5-4.16,5.26s-4.59,4.87-4.75,4.72,1.69-2.5,4.15-5.26S409.15,370.12,409.32,370.27Z" transform="translate(-346.9 -324.23)"/><ellipse class="cls-126" cx="404.86" cy="375.26" rx="2.44" ry="1.32" transform="translate(-491.6 103.17) rotate(-48.25)"/><path class="cls-127" d="M416.91,355.63c.15.15-1.72,2.31-4.17,4.82s-4.56,4.43-4.71,4.29,1.72-2.31,4.17-4.82S416.75,355.49,416.91,355.63Z" transform="translate(-346.9 -324.23)"/><polygon class="cls-128" points="45.05 28.12 50.82 22.12 50.8 29.99 45.03 35.99 45.05 28.12"/><polygon class="cls-129" points="41.32 22.33 47.09 16.33 50.83 22.12 45.05 28.12 41.32 22.33"/><polyline class="cls-130" points="41.32 22.33 41.27 34.77 45.03 35.99 45.05 28.12 41.32 22.33"/><path class="cls-131" d="M391.86,350.93a17.37,17.37,0,0,1,.31,4,16.24,16.24,0,0,1-.18,4,17.37,17.37,0,0,1-.31-4A16.24,16.24,0,0,1,391.86,350.93Z" transform="translate(-346.9 -324.23)"/><ellipse class="cls-132" cx="391.92" cy="354.95" rx="0.81" ry="1.47" transform="translate(-352.77 -317.63) rotate(-0.96)"/></g></g></svg>