<svg xmlns="http://www.w3.org/2000/svg" viewBox="0 0 200 200"><defs><style>.a,.b{fill:#ffd093;}.a{opacity:0.5;isolation:isolate;}.c{fill:#fdfcfc;}.c,.d,.e,.f{fill-rule:evenodd;}.d{fill:#fe9d26;}.e{fill:#5c2f17;}.f{fill:#e56900;}</style></defs><title></title><circle class="a" cx="100" cy="100" r="100"/><circle class="b" cx="99.5" cy="99.5" r="90.5"/><path class="c" d="M106.26,147.63c25.56-2.4,45.68-10.72,43.55-33.18a44.71,44.71,0,0,0-3.88-14.06c12.57-20.81-.62-45.65-5.76-48.4-3.35-1.8-14.74,11.22-22.17,20.28a37.7,37.7,0,0,0-37.42,3.51C71.58,68.26,58,57.59,55,60c-4.53,3.66-12.84,30.52,3.42,48.61a44.62,44.62,0,0,0-1.18,14.55c2.13,22.46,23.45,26.89,49,24.49"/><path class="d" d="M98.83,89.75a49.51,49.51,0,0,0-5.16-18.19A37.29,37.29,0,0,0,86.94,74c.19-.68.34-1.33.45-1.94a42.29,42.29,0,0,0-6.81,3.76C71.58,68.26,58,57.59,55,60c-3.83,3.09-10.35,22.75-2.47,39.69,1.06,0,2.74,1.75,3,2.8.56,2.4,1.61,6.63,3.78,7.49a42.7,42.7,0,0,0-1,13.51,27.87,27.87,0,0,0,3,10.4l1-.08c31.5-2.95,38.72-21.81,36.61-44"/><path class="e" d="M85.51,111.38a9,9,0,0,1-11.74.35c-3.4-2.8-3.44-7.28-.1-10.29a9.37,9.37,0,0,1,11.83-.27c3.29,2.74,3.29,7.23,0,10.21"/><path class="d" d="M150,90.52c4.57-18.1-5.53-36.2-9.87-38.53-3.34-1.8-14.74,11.22-22.17,20.28a42.43,42.43,0,0,0-7.4-2.43c.22.57.47,1.16.73,1.76a37.89,37.89,0,0,0-5.33-.93,49.88,49.88,0,0,0-1.58,18.56c2.09,22.08,12.6,39.18,43.61,36.51A27.62,27.62,0,0,0,149,115a43.39,43.39,0,0,0-3.87-13.81c.63-.21,3.63-8.14,4.21-8.2,1.08-.1-.35-2.24.7-2.43"/><path class="c" d="M82.75,105.23a2.9,2.9,0,0,1-3.57.08,2,2,0,0,1,.07-3,3,3,0,0,1,3.48,0,1.83,1.83,0,0,1,0,3"/><path class="e" d="M130.27,107.18a9,9,0,0,1-11.75.36c-3.39-2.81-3.43-7.29-.09-10.29A9.35,9.35,0,0,1,130.26,97c3.29,2.73,3.29,7.22,0,10.2"/><path class="c" d="M120.15,98.43a2.78,2.78,0,0,1,3.55.12,1.86,1.86,0,0,1-.28,3,2.94,2.94,0,0,1-3.48-.09,1.92,1.92,0,0,1,.21-3"/><path class="f" d="M74.5,84.31h0c-2-3.61-8.91-10.2-14.28-14a2.93,2.93,0,0,0-4.45,1.44c-3.12,8.88-2.34,22.71,6.1,32.11-.16.67,4.7-9.32,8.6-14.71a42.54,42.54,0,0,1,4-4.81"/><path class="f" d="M125.51,78.78h0c1.14-4.2,6.53-12.4,10.87-17.39a2.55,2.55,0,0,1,4.18.53c4.54,8.7,6.61,23.47.45,35.08.28.66-6.16-9-10.82-13.91a44.47,44.47,0,0,0-4.68-4.31"/><path class="e" d="M106.09,145.84l.17,1.79-.17-1.79c13.85-1.3,24.39-4.26,31.33-8.78,8.06-5.25,11.52-12.59,10.59-22.44a42.66,42.66,0,0,0-3.74-13.5,1.83,1.83,0,0,1,.1-1.67c6.65-11,5.51-22.54,3.38-30.29-2.45-8.9-6.65-14.51-8.36-15.54-.6,0-4.61,1-20,19.79a1.81,1.81,0,0,1-2.12.52A35.9,35.9,0,0,0,81.6,77.27a1.8,1.8,0,0,1-2.18-.11C60.8,61.6,56.68,61.35,56.07,61.44c-1.48,1.32-4.56,7.62-5.29,16.82-.65,8,.39,19.56,9,29.13a1.78,1.78,0,0,1,.41,1.62A42.83,42.83,0,0,0,59,123c1.73,18.19,17.11,25.67,47.05,22.87M95,150c-24.57,0-37.85-8.95-39.53-26.69a45.52,45.52,0,0,1,1-14.22c-7-8.15-10.24-19.16-9.29-31.12.75-9.36,4-17.21,6.7-19.39,2.32-1.88,7.21-1.34,26.85,15a39.38,39.38,0,0,1,36.74-3.44C133.69,50.43,138.39,49,141,50.4c3.06,1.64,7.72,8.75,10.21,17.81,3.19,11.57,2,23-3.28,32.29a46,46,0,0,1,3.66,13.78c1,11.15-3.06,19.83-12.21,25.8-7.55,4.92-18.34,8-33,9.35Q100.34,150,95,150"/><path class="e" d="M111.14,127.93c-4.26,3.7-9.76,3.65-14.09,0a9.1,9.1,0,0,1-2.37-2.83,2.54,2.54,0,0,1,.65-3.21,10.84,10.84,0,0,1,4.69-2.52,20.18,20.18,0,0,1,10.54-.38,8.34,8.34,0,0,1,2,.77c1.66.88,2.18,2,1.64,3.66a11,11,0,0,1-3.1,4.53"/></svg>